<?xml version="1.0" encoding="utf-8"?>
<!-- Generator: Adobe Illustrator 15.0.0, SVG Export Plug-In . SVG Version: 6.00 Build 0)  -->
<!DOCTYPE svg PUBLIC "-//W3C//DTD SVG 1.1//EN" "http://www.w3.org/Graphics/SVG/1.1/DTD/svg11.dtd">
<svg version="1.1" id="Layer_1" xmlns="http://www.w3.org/2000/svg" xmlns:xlink="http://www.w3.org/1999/xlink" x="0px" y="0px"
	 width="111.333px" height="24px" viewBox="0 0 111.333 24" enable-background="new 0 0 111.333 24" xml:space="preserve">
<path fill="#FFFFFF" d="M39.606,5.742h1.945c2.917,0,5.734,2.169,5.734,5.958c0,3.79-2.817,5.958-5.734,5.958h-1.945V5.742z
	 M36.116,20.401h4.761c5.335,0,10.047-1.795,10.047-8.701S46.212,3,40.877,3h-4.761V20.401z"/>
<path fill="#FFFFFF" d="M19.515,11.95c0-3.066,1.421-6.208,4.886-6.208s4.887,3.142,4.887,6.208c0,3.141-1.321,6.307-4.887,6.307
	C20.836,18.257,19.515,15.091,19.515,11.95 M15.875,11.95c0,5.335,2.941,9.05,8.526,9.05c5.51,0,8.526-3.79,8.526-9.05
	c0-5.26-3.066-8.95-8.525-8.95C18.867,3,15.875,6.615,15.875,11.95 M3,20.701h3.491v-6.607h1.47c3.74,0,6.707-1.471,6.707-5.534
	c0-4.164-3.465-5.26-7.255-5.26H3V20.701z M6.491,6.042h1.221c1.795,0,3.316,0.698,3.316,2.717s-1.571,2.593-3.316,2.593H6.491
	V6.042z"/>
<path fill="#FFD150" d="M95.304,6.041h7.704L96.551,20.7h3.791l6.183-14.509V3.299h-11.22V6.041L95.304,6.041z M82.167,7.387
	l1.745,2.269l2.943-2.393V20.7h3.489V3.299h-3.09L82.167,7.387z M73.242,21c5.036,0,6.083-4.912,6.083-8.95
	c0-4.04-0.998-9.05-6.083-9.05c-4.711,0-6.033,4.688-6.033,9.05C67.209,15.689,67.883,21,73.242,21 M73.242,18.407
	c-2.567,0-2.543-4.164-2.543-6.356c0-2.245,0-6.458,2.543-6.458c2.593,0,2.593,4.213,2.593,6.458
	C75.835,14.243,75.86,18.407,73.242,18.407 M65.063,20.701v-2.742h-7.104c2.842-2.792,6.558-6.184,6.558-9.872
	c0-3.417-2.145-5.085-5.46-5.085c-1.771,0-3.59,0.449-5.16,1.247L54.17,7.14c1.148-0.748,2.543-1.397,4.015-1.397
	c1.421,0,2.843,0.749,2.843,2.345c0,3.19-5.909,8.126-7.529,9.697v2.916H65.063L65.063,20.701z"/>
</svg>
