<?xml version="1.0" encoding="utf-8"?>
<!-- Generator: Adobe Illustrator 15.0.0, SVG Export Plug-In . SVG Version: 6.00 Build 0)  -->
<!DOCTYPE svg PUBLIC "-//W3C//DTD SVG 1.1//EN" "http://www.w3.org/Graphics/SVG/1.1/DTD/svg11.dtd">
<svg version="1.1" id="Layer_1" xmlns="http://www.w3.org/2000/svg" xmlns:xlink="http://www.w3.org/1999/xlink" x="0px" y="0px"
	 width="265px" height="214px" viewBox="0 0 265 214" enable-background="new 0 0 265 214" xml:space="preserve">
<path fill="#FFFFFF" d="M18.808,127.021h10.478c15.719,0,30.898,11.688,30.898,32.107c0,20.42-15.18,32.107-30.898,32.107H18.808
	V127.021z M0,206.014h25.658c28.749,0,54.14-9.673,54.14-46.885s-25.391-46.884-54.14-46.884H0V206.014z"/>
<path fill="#FFFFFF" d="M116.563,48.229c0-16.524,7.656-33.451,26.33-33.451c18.673,0,26.331,16.927,26.331,33.451
	c0,16.926-7.12,33.987-26.331,33.987C123.684,82.215,116.563,65.154,116.563,48.229 M96.949,48.229
	c0,28.748,15.852,48.765,45.944,48.765c29.688,0,45.943-20.42,45.943-48.765C188.837,19.882,172.313,0,142.894,0
	C113.07,0,96.949,19.479,96.949,48.229 M0.627,95.381h18.809v-35.6h7.926c20.15,0,36.137-7.926,36.137-29.824
	c0-22.434-18.673-28.345-39.092-28.345H0.627V95.381z M19.436,16.389h6.583c9.672,0,17.866,3.762,17.866,14.643
	c0,10.882-8.464,13.972-17.866,13.972h-6.583V16.389z"/>
<path fill="#FFD150" d="M250.483,189.532h9.318l-7.811,17.732h4.585l7.479-17.551v-3.498h-13.571V189.532z M234.591,191.16
	l2.111,2.745l3.559-2.895v16.254h4.222v-21.049h-3.739L234.591,191.16z M223.795,207.627c6.092,0,7.358-5.941,7.358-10.826
	c0-4.887-1.207-10.947-7.358-10.947c-5.699,0-7.298,5.669-7.298,10.947C216.497,201.203,217.312,207.627,223.795,207.627
	 M223.795,204.49c-3.106,0-3.076-5.037-3.076-7.689c0-2.715,0-7.812,3.076-7.812c3.137,0,3.137,5.097,3.137,7.812
	C226.932,199.453,226.962,204.49,223.795,204.49 M213.903,207.265v-3.317h-8.595c3.438-3.378,7.933-7.479,7.933-11.941
	c0-4.133-2.595-6.152-6.605-6.152c-2.141,0-4.342,0.543-6.242,1.508l0.331,3.498c1.388-0.904,3.076-1.689,4.856-1.689
	c1.719,0,3.438,0.905,3.438,2.836c0,3.859-7.147,9.83-9.107,11.73v3.528H213.903z"/>
<path fill="#FFFFFF" d="M173.946,207.265h4.041v-7.599c0-1.991,0.634-5.157,3.559-5.157c2.594,0,2.624,2.562,2.624,4.463v8.293
	h4.041v-9.801c0-3.498-1.6-6.093-5.278-6.093c-2.111,0-3.83,0.694-5.096,2.474h-0.061v-2.111h-3.83V207.265z M169.634,203.103
	c-1.508,0.845-3.196,1.567-5.157,1.567c-2.503,0-4.252-1.416-4.433-3.92h10.735c0-5.428-1.628-9.379-7.388-9.379
	c-4.825,0-7.208,3.711-7.208,8.203c0,5.096,2.986,8.053,8.112,8.053c2.172,0,3.861-0.422,5.338-1.237V203.103z M160.044,197.977
	c0.181-2.081,1.327-3.648,3.589-3.648s3.166,1.688,3.287,3.648H160.044z M149.157,191.733v2.111h-0.06
	c-1.116-1.779-2.714-2.474-4.765-2.474c-4.645,0-6.574,4.313-6.574,8.053c0,4.162,1.749,7.841,6.333,7.841
	c2.261,0,4.071-1.146,4.825-2.474h0.06c0,2.685-0.211,6.032-4.674,6.032c-1.267,0-3.287-0.693-4.524-1.357l-0.331,3.438
	c1.931,0.815,3.77,1.056,5.367,1.056c6.515,0,8.203-3.98,8.203-8.202v-14.023H149.157z M145.419,204.129
	c-2.322,0-3.438-2.595-3.438-4.705c0-2.383,0.874-4.915,3.618-4.915c2.354,0,3.378,2.171,3.378,4.825
	C148.977,201.927,147.952,204.129,145.419,204.129 M124.852,202.771c0-2.383,2.685-2.684,4.493-2.684h1.749
	c0,1.205-0.181,2.321-0.844,3.195c-0.634,0.846-1.6,1.387-2.835,1.387C125.967,204.67,124.852,204.099,124.852,202.771
	 M122.801,196.017c1.356-1.026,3.076-1.688,4.795-1.688c2.382,0,3.498,0.844,3.498,3.347h-2.231c-1.688,0-3.68,0.15-5.218,0.905
	c-1.538,0.754-2.653,2.11-2.653,4.433c0,2.955,2.685,4.614,5.429,4.614c1.839,0,3.859-0.965,4.795-2.685h0.06
	c0.03,0.482,0.03,1.508,0.182,2.322h3.559c-0.091-1.206-0.151-2.292-0.181-3.468c-0.031-1.146-0.062-2.322-0.062-3.891v-1.99
	c0-4.584-1.96-6.545-6.693-6.545c-1.72,0-3.83,0.453-5.399,1.178L122.801,196.017z M104.798,189.532h2.352
	c3.529,0,6.937,2.624,6.937,7.207c0,4.584-3.407,7.208-6.937,7.208h-2.352V189.532z M100.576,207.265h5.76
	c6.454,0,12.152-2.171,12.152-10.525c0-8.353-5.698-10.523-12.152-10.523h-5.76V207.265z"/>
<path fill="#FFFFFF" d="M232.059,156.762c-1.268-0.271-2.503-0.573-4.403-0.573c-3.166,0-6.092,1.479-6.092,4.826
	c0,5.609,7.027,3.528,7.027,6.574c0,1.508-1.629,1.899-2.654,1.899c-1.387,0-2.714-0.392-3.981-1.025l-0.24,3.316
	c1.478,0.394,3.046,0.664,4.584,0.664c3.286,0,6.514-1.447,6.514-5.065c0-5.61-7.027-4.041-7.027-6.515
	c0-1.326,1.297-1.719,2.384-1.719c1.477,0,2.382,0.241,3.617,0.663L232.059,156.762z M210.919,172.082h4.041v-5.7
	c0-2.231,0-6.333,3.286-6.333c0.725,0,1.448,0.121,1.811,0.332v-4.071c-0.422-0.121-0.845-0.121-1.237-0.121
	c-2.412,0-4.071,2.443-4.252,3.892h-0.06v-3.529h-3.589V172.082z M206.516,167.92c-1.507,0.845-3.196,1.568-5.156,1.568
	c-2.503,0-4.253-1.418-4.433-3.921h10.734c0-5.428-1.628-9.379-7.388-9.379c-4.825,0-7.207,3.71-7.207,8.203
	c0,5.097,2.985,8.052,8.112,8.052c2.171,0,3.859-0.422,5.337-1.236V167.92z M196.927,162.794c0.18-2.081,1.326-3.649,3.588-3.649
	s3.167,1.689,3.287,3.649H196.927z M185.979,172.082h3.92v-22.617h-4.041v8.896h-0.06c-1.206-1.478-2.624-2.172-4.645-2.172
	c-4.765,0-6.514,3.8-6.514,8.082c0,4.253,1.749,8.173,6.514,8.173c1.9,0,3.559-0.603,4.765-2.11h0.061V172.082z M178.862,164.271
	c0-2.08,0.725-4.944,3.348-4.944c2.594,0,3.618,2.773,3.618,4.944c0,2.202-0.874,5.037-3.558,5.037
	C179.616,169.308,178.862,166.412,178.862,164.271 M167.343,153.717h4.041v-3.86h-4.041V153.717z M167.343,172.082h4.041v-15.531
	h-4.041V172.082z M162.939,167.92c-1.508,0.845-3.196,1.568-5.157,1.568c-2.503,0-4.252-1.418-4.433-3.921h10.735
	c0-5.428-1.628-9.379-7.388-9.379c-4.825,0-7.208,3.71-7.208,8.203c0,5.097,2.986,8.052,8.112,8.052c2.172,0,3.86-0.422,5.338-1.236
	V167.92z M153.35,162.794c0.181-2.081,1.327-3.649,3.589-3.649s3.166,1.689,3.287,3.649H153.35z M142.191,172.082h4.041v-22.617
	h-4.041V172.082z M131.365,159.326c2.624,0,3.349,2.864,3.349,4.944c0,2.142-0.754,5.037-3.408,5.037
	c-2.685,0-3.559-2.835-3.559-5.037C127.747,162.1,128.772,159.326,131.365,159.326 M123.676,178.415h4.041v-8.112h0.061
	c1.417,1.719,2.834,2.141,4.553,2.141c4.856,0,6.605-3.92,6.605-8.173c0-4.282-1.749-8.082-6.514-8.082
	c-2.384,0-3.922,1.056-4.825,2.564h-0.062v-2.202h-3.859V178.415z M103.953,161.496c0-3.709,1.72-7.508,5.911-7.508
	s5.91,3.799,5.91,7.508c0,3.801-1.598,7.631-5.91,7.631S103.953,165.297,103.953,161.496 M99.551,161.496
	c0,6.455,3.558,10.947,10.313,10.947c6.664,0,10.313-4.584,10.313-10.947c0-6.362-3.709-10.825-10.313-10.825
	C103.169,150.671,99.551,155.043,99.551,161.496"/>
<path fill="#FFFFFF" d="M189.024,136.898h4.041v-7.539h0.061l5.187,7.539h5.127l-6.514-8.595l5.79-6.936h-4.764l-4.826,6.213h-0.061
	v-13.299h-4.041V136.898z M180.642,118.534h4.041v-3.86h-4.041V118.534z M178.018,143.353c0.513,0.15,1.327,0.241,1.99,0.241
	c4.041,0,4.675-3.348,4.675-5.549v-16.677h-4.041v16.134c0,2.413-0.302,2.835-2.473,2.956L178.018,143.353z M172.258,118.534h4.041
	v-3.86h-4.041V118.534z M172.258,136.898h4.041v-15.53h-4.041V136.898z M161.764,132.225c0,3.076,1.749,5.036,4.915,5.036
	c1.206,0,2.141-0.121,2.986-0.362l-0.121-3.196c-0.422,0.271-1.116,0.423-1.839,0.423c-1.538,0-1.9-1.237-1.9-2.564v-7.236h3.588
	v-2.956h-3.588v-4.403l-4.041,1.297v3.106h-2.986v2.956h2.986V132.225z M143.76,136.898h4.041v-7.539h0.06l5.188,7.539h5.127
	l-6.514-8.595l5.79-6.936h-4.766l-4.825,6.213h-0.06v-13.299h-4.041V136.898z M130.371,132.406c0-2.383,2.683-2.685,4.493-2.685
	h1.748c0,1.206-0.181,2.322-0.844,3.196c-0.634,0.845-1.599,1.388-2.835,1.388C131.485,134.306,130.371,133.732,130.371,132.406
	 M128.319,125.65c1.357-1.025,3.076-1.688,4.795-1.688c2.383,0,3.498,0.844,3.498,3.347h-2.231c-1.688,0-3.679,0.151-5.217,0.905
	s-2.654,2.111-2.654,4.433c0,2.955,2.684,4.614,5.429,4.614c1.839,0,3.86-0.965,4.795-2.684h0.061
	c0.03,0.482,0.03,1.508,0.181,2.321h3.559c-0.091-1.205-0.15-2.291-0.182-3.468c-0.03-1.146-0.06-2.321-0.06-3.89v-1.99
	c0-4.584-1.96-6.545-6.695-6.545c-1.719,0-3.83,0.453-5.397,1.177L128.319,125.65z M116.469,136.898h4.041v-5.699
	c0-2.231,0-6.333,3.287-6.333c0.723,0,1.447,0.12,1.809,0.331v-4.07c-0.422-0.121-0.844-0.121-1.235-0.121
	c-2.413,0-4.072,2.443-4.252,3.891h-0.062v-3.528h-3.588V136.898z M100.214,136.898h4.222v-7.991h1.779
	c4.524,0,8.112-1.779,8.112-6.694c0-5.036-4.191-6.363-8.775-6.363h-5.338V136.898z M104.436,119.167h1.479
	c2.171,0,4.011,0.844,4.011,3.287c0,2.442-1.9,3.136-4.011,3.136h-1.479V119.167z"/>
</svg>
