<svg id="Laag_1" data-name="Laag 1" xmlns="http://www.w3.org/2000/svg" viewBox="0 0 355.53 315.46"><defs><style>.cls-1{fill:#1d1d1b;}.cls-2{fill:#fff;}</style></defs><title>pod-logo-zwart-2018</title><path class="cls-1" d="M21.13,129.56H31.61c15.72,0,30.9,11.69,30.9,32.11s-15.18,32.11-30.9,32.11H21.13Zm-18.81,79H28c28.75,0,54.14-9.67,54.14-46.88S56.73,114.79,28,114.79H2.33Z" transform="translate(-2 -2.54)"/><path class="cls-1" d="M118.89,50.77c0-16.52,7.66-33.45,26.33-33.45s26.33,16.93,26.33,33.45c0,16.93-7.12,34-26.33,34s-26.33-17.06-26.33-34m-19.61,0c0,28.75,15.85,48.76,45.94,48.76,29.69,0,45.94-20.42,45.94-48.76S174.64,2.54,145.22,2.54C115.4,2.54,99.28,22,99.28,50.77M3,97.92H21.76V62.32h7.93c20.15,0,36.14-7.93,36.14-29.82,0-22.43-18.67-28.35-39.09-28.35H3Zm18.81-79h6.58c9.67,0,17.87,3.76,17.87,14.64s-8.46,14-17.87,14H21.76Z" transform="translate(-2 -2.54)"/><path class="cls-1" d="M176.27,209.81h4v-7.6c0-2,.63-5.16,3.56-5.16,2.59,0,2.62,2.56,2.62,4.46v8.29h4V200c0-3.5-1.6-6.09-5.28-6.09a5.8,5.8,0,0,0-5.1,2.47h-.06v-2.11h-3.83ZM172,205.65a10.47,10.47,0,0,1-5.16,1.57c-2.5,0-4.25-1.42-4.43-3.92h10.74c0-5.43-1.63-9.38-7.39-9.38-4.82,0-7.21,3.71-7.21,8.2,0,5.1,3,8.05,8.11,8.05a10.66,10.66,0,0,0,5.34-1.24Zm-9.59-5.13c.18-2.08,1.33-3.65,3.59-3.65s3.17,1.69,3.29,3.65Zm-10.89-6.24v2.11h-.06a5.16,5.16,0,0,0-4.76-2.47c-4.64,0-6.57,4.31-6.57,8.05,0,4.16,1.75,7.84,6.33,7.84a5.55,5.55,0,0,0,4.82-2.47h.06c0,2.68-.21,6-4.67,6a11.65,11.65,0,0,1-4.52-1.36l-.33,3.44a13.64,13.64,0,0,0,5.37,1.06c6.51,0,8.2-4,8.2-8.2v-14Zm-3.74,12.4c-2.32,0-3.44-2.59-3.44-4.71,0-2.38.87-4.92,3.62-4.92,2.35,0,3.38,2.17,3.38,4.82s-1,4.8-3.56,4.8m-20.57-1.36c0-2.38,2.68-2.68,4.49-2.68h1.75a5.15,5.15,0,0,1-.84,3.2,3.43,3.43,0,0,1-2.83,1.39c-1.45,0-2.56-.57-2.56-1.9m-2.05-6.75a8.12,8.12,0,0,1,4.79-1.69c2.38,0,3.5.84,3.5,3.35h-2.23a12.31,12.31,0,0,0-5.22.9,4.56,4.56,0,0,0-2.65,4.43c0,3,2.68,4.61,5.43,4.61a5.55,5.55,0,0,0,4.79-2.68h.06a18.86,18.86,0,0,0,.18,2.32h3.56c-.09-1.21-.15-2.29-.18-3.47s-.06-2.32-.06-3.89v-2c0-4.58-2-6.54-6.69-6.54a13.9,13.9,0,0,0-5.4,1.18Zm-18-6.48h2.35a7.21,7.21,0,0,1,0,14.42h-2.35Zm-4.22,17.73h5.76c6.45,0,12.15-2.17,12.15-10.52s-5.7-10.52-12.15-10.52H102.9Z" transform="translate(-2 -2.54)"/><path class="cls-1" d="M234.39,159.3a18.63,18.63,0,0,0-4.4-.57c-3.17,0-6.09,1.48-6.09,4.83,0,5.61,7,3.53,7,6.57,0,1.51-1.63,1.9-2.65,1.9a8.87,8.87,0,0,1-4-1l-.24,3.32a18.11,18.11,0,0,0,4.58.66c3.29,0,6.51-1.45,6.51-5.07,0-5.61-7-4-7-6.51,0-1.33,1.3-1.72,2.38-1.72a9.91,9.91,0,0,1,3.62.66Zm-21.14,15.32h4v-5.7c0-2.23,0-6.33,3.29-6.33a4.12,4.12,0,0,1,1.81.33v-4.07a4.4,4.4,0,0,0-1.24-.12c-2.41,0-4.07,2.44-4.25,3.89h-.06v-3.53h-3.59Zm-4.4-4.16a10.47,10.47,0,0,1-5.16,1.57c-2.5,0-4.25-1.42-4.43-3.92H210c0-5.43-1.63-9.38-7.39-9.38-4.82,0-7.21,3.71-7.21,8.2,0,5.1,3,8.05,8.11,8.05a10.66,10.66,0,0,0,5.34-1.24Zm-9.59-5.13c.18-2.08,1.33-3.65,3.59-3.65s3.17,1.69,3.29,3.65Zm-10.95,9.29h3.92V152h-4v8.9h-.06a5.52,5.52,0,0,0-4.64-2.17c-4.76,0-6.51,3.8-6.51,8.08s1.75,8.17,6.51,8.17a5.77,5.77,0,0,0,4.76-2.11h.06Zm-7.12-7.81c0-2.08.72-4.94,3.35-4.94s3.62,2.77,3.62,4.94-.87,5-3.56,5-3.41-2.9-3.41-5m-11.52-10.55h4V152.4h-4Zm0,18.37h4V159.09h-4Zm-4.4-4.16a10.47,10.47,0,0,1-5.16,1.57c-2.5,0-4.25-1.42-4.43-3.92h10.74c0-5.43-1.63-9.38-7.39-9.38-4.82,0-7.21,3.71-7.21,8.2,0,5.1,3,8.05,8.11,8.05a10.66,10.66,0,0,0,5.34-1.24Zm-9.59-5.13c.18-2.08,1.33-3.65,3.59-3.65s3.17,1.69,3.29,3.65Zm-11.16,9.29h4V152h-4Zm-10.83-12.76c2.62,0,3.35,2.86,3.35,4.94s-.75,5-3.41,5-3.56-2.83-3.56-5,1-4.94,3.62-4.94M126,181h4v-8.11h.06a5.31,5.31,0,0,0,4.55,2.14c4.86,0,6.6-3.92,6.6-8.17s-1.75-8.08-6.51-8.08a5.26,5.26,0,0,0-4.82,2.56h-.06v-2.2H126ZM106.28,164c0-3.71,1.72-7.51,5.91-7.51s5.91,3.8,5.91,7.51-1.6,7.63-5.91,7.63-5.91-3.83-5.91-7.63m-4.4,0c0,6.45,3.56,10.95,10.31,10.95S122.5,170.4,122.5,164s-3.71-10.83-10.31-10.83-10.31,4.37-10.31,10.83" transform="translate(-2 -2.54)"/><path class="cls-1" d="M191.35,139.44h4V131.9h.06l5.19,7.54h5.13l-6.51-8.6,5.79-6.94h-4.76l-4.82,6.21h-.06v-13.3h-4ZM183,121.08h4v-3.86h-4Zm-2.62,24.82a8,8,0,0,0,2,.24c4,0,4.68-3.35,4.68-5.55V123.91h-4V140c0,2.41-.3,2.84-2.47,3Zm-5.76-24.82h4v-3.86h-4Zm0,18.37h4V123.91h-4Zm-10.49-4.67c0,3.08,1.75,5,4.92,5a10.65,10.65,0,0,0,3-.36l-.12-3.2a3.61,3.61,0,0,1-1.84.42c-1.54,0-1.9-1.24-1.9-2.56v-7.24h3.59v-3h-3.59v-4.4l-4,1.3v3.11h-3v3h3Zm-18,4.67h4V131.9h.06l5.19,7.54h5.13l-6.51-8.6,5.79-6.94H155l-4.83,6.21h-.06v-13.3h-4Zm-13.39-4.49c0-2.38,2.68-2.68,4.49-2.68h1.75a5.15,5.15,0,0,1-.84,3.2,3.43,3.43,0,0,1-2.84,1.39c-1.45,0-2.56-.57-2.56-1.9m-2.05-6.76a8.12,8.12,0,0,1,4.8-1.69c2.38,0,3.5.84,3.5,3.35h-2.23a12.3,12.3,0,0,0-5.22.9,4.56,4.56,0,0,0-2.65,4.43c0,3,2.68,4.61,5.43,4.61a5.55,5.55,0,0,0,4.79-2.68h.06a18.84,18.84,0,0,0,.18,2.32h3.56c-.09-1.21-.15-2.29-.18-3.47s-.06-2.32-.06-3.89v-2c0-4.58-2-6.54-6.69-6.54a13.9,13.9,0,0,0-5.4,1.18ZM118.8,139.44h4v-5.7c0-2.23,0-6.33,3.29-6.33a4.12,4.12,0,0,1,1.81.33v-4.07a4.43,4.43,0,0,0-1.24-.12c-2.41,0-4.07,2.44-4.25,3.89h-.06v-3.53H118.8Zm-16.25,0h4.22v-8h1.78c4.52,0,8.11-1.78,8.11-6.7s-4.19-6.36-8.78-6.36h-5.34Zm4.22-17.73h1.48c2.17,0,4,.84,4,3.29s-1.9,3.14-4,3.14h-1.48Z" transform="translate(-2 -2.54)"/><path class="cls-1" d="M352,311.1c.36-1.74,1.63-4,2.94-4a.63.63,0,0,1,.7.63,2.33,2.33,0,0,1-.85,1.78A9.42,9.42,0,0,1,352,311.1m3.36-4.63c-1.38,0-2.45,1.48-2.79,2.09h0l1-4.4c.19-.83.53-2.26.53-2.43s-.08-.21-.23-.21-1.59.19-2.48.19c-.21,0-.3,0-.3.15s.1.19.51.23c.68.06.83.23.83.51a12.2,12.2,0,0,1-.28,1.56l-2.26,10.37a2.67,2.67,0,0,0-.06.3.12.12,0,0,0,.13.11h1c.11,0,.21-.06.25-.26l.76-3.05,1.29-.64c.13-.08.19-.13.3-.13.44,0,.7.53.7,1.06,0,.3-.11,1.69-.11,2a1.22,1.22,0,0,0,1.33,1.31c1.63,0,2.12-2.22,2.12-2.41s0-.23-.19-.23-.19.26-.28.57-.55,1.46-1.21,1.46c-.11,0-.4,0-.4-.44s.06-1,.06-1.5c0-1.55-.87-1.8-1.74-2v0c.93-.28,3.13-1.57,3.13-2.9a1.35,1.35,0,0,0-1.54-1.27m-7.58,1.08c0,1-1.18,2.9-3.64,3.89,1-3.34,2.16-4.61,3-4.61.34,0,.61.25.61.72M342.32,313a2.06,2.06,0,0,0,2.24,2.26c1.86,0,3.28-2.46,3.28-2.62s-.06-.19-.15-.19-.13.06-.23.19c-1.08,1.52-1.92,2.2-2.81,2.2-.65,0-1-.44-1-1.19a6.94,6.94,0,0,1,.36-1.78c3.32-1.19,4.74-2.67,4.74-4a1.33,1.33,0,0,0-1.4-1.4c-2.46,0-5,3.92-5,6.5m-2.64-9.9a.83.83,0,1,0,.83-.83.84.84,0,0,0-.83.83M337.3,313.9a1.2,1.2,0,0,0,1.25,1.33c1.59,0,2.75-2.71,2.75-2.83a.18.18,0,0,0-.19-.21c-.1,0-.15.06-.23.21-.8,1.59-1.54,2.29-2,2.29a.35.35,0,0,1-.38-.38c0-.42.06-.87,1-3.07s1.1-2.77,1.1-3.36a1.31,1.31,0,0,0-1.25-1.42c-1.35,0-2.52,2.33-2.52,2.52s0,.23.13.23a.24.24,0,0,0,.23-.15c.4-.95,1.19-2.07,1.8-2.07.23,0,.36.17.36.47a8.46,8.46,0,0,1-.91,2.77c-1,2.45-1.19,3.07-1.19,3.66m-9.73.63a2.7,2.7,0,0,0-.06.3.13.13,0,0,0,.13.11h1c.11,0,.21-.06.25-.26l.68-2.66c.57-2.24,2-4.95,3.34-4.95.45,0,.66.17.66.82,0,.87-1.23,4.87-1.23,6a1.25,1.25,0,0,0,1.31,1.37c1.61,0,2.33-2.62,2.33-2.86,0-.09,0-.17-.13-.17s-.15.1-.21.25c-.34,1-.89,2.18-1.57,2.18-.23,0-.38-.17-.38-.53,0-.55,1.23-4.57,1.23-5.78a1.69,1.69,0,0,0-1.74-1.84c-1.54,0-2.56,2-3.15,3.07l0,0a8.27,8.27,0,0,0,.21-1.44c0-.91-.44-1.59-1.36-1.59-1.61,0-2.33,2.62-2.33,2.86,0,.1,0,.17.13.17s.17-.09.21-.25c.44-1.48,1.1-2.18,1.48-2.18s.53.25.53.87a12.75,12.75,0,0,1-.3,2.22Zm-10.24,0a2.69,2.69,0,0,0-.06.3.13.13,0,0,0,.13.11h1c.11,0,.21-.06.25-.26l.45-1.8c.78-3.11,2.08-5.8,3.47-5.8.47,0,.68.17.68.82,0,.87-1.23,5-1.23,6s.44,1.37,1.25,1.37c1.61,0,2.39-2.62,2.39-2.86,0-.09,0-.17-.15-.17s-.19.1-.25.25c-.38,1-.93,2.18-1.48,2.18-.25,0-.42-.17-.42-.53,0-.91,1.23-4.68,1.23-5.78a1.71,1.71,0,0,0-1.74-1.84c-1.4,0-2.35,1.61-3,2.79l0,0,1.14-5.08c.19-.83.53-2.26.53-2.43s-.08-.21-.23-.21-1.59.19-2.48.19c-.21,0-.3,0-.3.15s.1.19.51.23c.68.06.83.23.83.51a12.38,12.38,0,0,1-.28,1.56ZM310.22,313a2.08,2.08,0,0,0,2.31,2.26c1.71,0,3.2-2.43,3.2-2.62s-.06-.19-.15-.19-.13.06-.23.19c-1.08,1.52-1.91,2.2-2.81,2.2-.57,0-.91-.44-.91-1.19,0-2.67,1.76-6.79,3.45-6.79.3,0,.44.07.44.25s-.21.27-.21.68a.59.59,0,0,0,.65.59.68.68,0,0,0,.7-.72,1.29,1.29,0,0,0-1.4-1.16c-2.75,0-5,3.92-5,6.5m-1.93-5.42c0,1-1.18,2.9-3.64,3.89,1-3.34,2.16-4.61,3-4.61.34,0,.61.25.61.72M302.84,313a2.06,2.06,0,0,0,2.24,2.26c1.86,0,3.28-2.46,3.28-2.62s-.06-.19-.15-.19-.13.06-.23.19c-1.08,1.52-1.92,2.2-2.81,2.2-.65,0-1-.44-1-1.19a6.94,6.94,0,0,1,.36-1.78c3.32-1.19,4.74-2.67,4.74-4a1.33,1.33,0,0,0-1.4-1.4c-2.46,0-5,3.92-5,6.5m-4.48-1.06a11.61,11.61,0,0,0-.34,2,1.18,1.18,0,0,0,1.33,1.29c.83,0,1.25-.38,1.8-1.18a10.5,10.5,0,0,0,.82-1.71c0-.11,0-.21-.17-.21s-.29.28-.34.42c-.25.53-.93,2.14-1.65,2.14-.3,0-.53-.19-.53-.63a8.86,8.86,0,0,1,.38-1.9l1.23-4.76h1.38c.25,0,.32-.07.32-.21s-.1-.27-.25-.27H301l.55-2a1.61,1.61,0,0,0,.1-.49c0-.38-.4-.42-.7-.42s-.49.06-.55.28l-.74,2.64h-1.21c-.25,0-.36.06-.36.27s.13.21.27.21h1.21ZM291,313.15c0-2.24,1.21-6.31,3.11-6.31.72,0,1.21.59,1.21,1.72,0,2.24-1.21,6.31-3.11,6.31-.72,0-1.21-.59-1.21-1.72m-1.35-.89c0,1.84,1,3,2.48,3,2.73,0,4.53-3.58,4.53-5.78,0-1.84-1-3-2.48-3-2.73,0-4.53,3.58-4.53,5.78m-4.8,2.69,1.33-3.83a18.52,18.52,0,0,1,1-2.48c.42-.81.91-1.56,1.37-1.56.17,0,.19.15.19.44a.59.59,0,0,0,.66.57.73.73,0,0,0,.68-.72,1,1,0,0,0-1.06-.89c-1.54,0-2.58,2.69-2.9,3.58h0c0-.34.19-1.56.19-1.92,0-1.57-.95-1.67-1.1-1.67-1,0-1.82,1.5-2.37,2.54a.93.93,0,0,0-.13.36c0,.09.08.17.11.17a.19.19,0,0,0,.19-.09c.25-.42.87-1.59,1.06-1.82s.46-.55.72-.55.38.72.38,1a15.18,15.18,0,0,1-.74,3.92l-.89,2.94Zm-6.65-3a11.61,11.61,0,0,0-.34,2,1.18,1.18,0,0,0,1.33,1.29c.83,0,1.25-.38,1.8-1.18a10.5,10.5,0,0,0,.81-1.71c0-.11,0-.21-.17-.21s-.29.28-.34.42c-.25.53-.93,2.14-1.65,2.14-.3,0-.53-.19-.53-.63a8.86,8.86,0,0,1,.38-1.9l1.23-4.76h1.39c.25,0,.32-.07.32-.21s-.1-.27-.25-.27h-1.37l.55-2a1.61,1.61,0,0,0,.1-.49c0-.38-.4-.42-.7-.42s-.49.06-.55.28l-.74,2.64h-1.21c-.25,0-.36.06-.36.27s.13.21.27.21h1.21Zm-6.54-.82c.36-1.74,1.63-4,2.94-4a.63.63,0,0,1,.7.63,2.33,2.33,0,0,1-.85,1.78,9.42,9.42,0,0,1-2.79,1.61m3.36-4.63c-1.38,0-2.45,1.48-2.79,2.09h0l1-4.4c.19-.83.53-2.26.53-2.43s-.08-.21-.23-.21-1.59.19-2.48.19c-.21,0-.3,0-.3.15s.1.19.51.23c.68.06.83.23.83.51a12.2,12.2,0,0,1-.28,1.56l-2.26,10.37a2.66,2.66,0,0,0-.06.3.12.12,0,0,0,.13.11h1c.11,0,.21-.06.25-.26l.76-3.05,1.29-.64c.13-.08.19-.13.3-.13.44,0,.7.53.7,1.06,0,.3-.11,1.69-.11,2a1.22,1.22,0,0,0,1.33,1.31c1.63,0,2.12-2.22,2.12-2.41s0-.23-.19-.23-.19.26-.28.57-.55,1.46-1.21,1.46c-.11,0-.4,0-.4-.44s.06-1,.06-1.5c0-1.55-.87-1.8-1.74-2v0c.93-.28,3.13-1.57,3.13-2.9a1.35,1.35,0,0,0-1.54-1.27m-7.58,1.08c0,1-1.18,2.9-3.64,3.89,1-3.34,2.16-4.61,3-4.61.34,0,.61.25.61.72M262,313a2.06,2.06,0,0,0,2.24,2.26c1.86,0,3.28-2.46,3.28-2.62s-.06-.19-.15-.19-.13.06-.23.19c-1.08,1.52-1.91,2.2-2.81,2.2-.64,0-1-.44-1-1.19a6.94,6.94,0,0,1,.36-1.78c3.32-1.19,4.74-2.67,4.74-4a1.33,1.33,0,0,0-1.4-1.4c-2.47,0-5,3.92-5,6.5m-4.66-1.38a12.3,12.3,0,0,0-.34,2.26,1.27,1.27,0,0,0,1.4,1.38c1.84,0,2.58-2.52,2.58-2.71s0-.26-.15-.26a.3.3,0,0,0-.25.25c-.61,1.69-1.31,2.2-1.78,2.2s-.46-.44-.46-.72a21.18,21.18,0,0,1,.42-2.52l1.63-7.3c.19-.83.53-2.26.53-2.43s-.08-.21-.23-.21-1.59.19-2.48.19c-.21,0-.3,0-.3.15s.09.19.51.23c.68.06.83.23.83.51a12.2,12.2,0,0,1-.28,1.56Zm-2.54-4c0,1-1.18,2.9-3.64,3.89,1-3.34,2.16-4.61,3-4.61.34,0,.61.25.61.72M249.39,313a2.06,2.06,0,0,0,2.24,2.26c1.86,0,3.28-2.46,3.28-2.62s-.06-.19-.15-.19-.13.06-.23.19c-1.08,1.52-1.92,2.2-2.81,2.2-.65,0-1-.44-1-1.19a6.9,6.9,0,0,1,.36-1.78c3.32-1.19,4.74-2.67,4.74-4a1.33,1.33,0,0,0-1.4-1.4c-2.46,0-5,3.92-5,6.5m-14.75,1.55a2.7,2.7,0,0,0-.06.3.13.13,0,0,0,.13.11h1c.11,0,.21-.06.25-.26l.68-2.66c.57-2.24,2-4.95,3.34-4.95.46,0,.66.17.66.82,0,.87-1.23,4.87-1.23,6a1.25,1.25,0,0,0,1.31,1.37c1.61,0,2.33-2.62,2.33-2.86,0-.09,0-.17-.13-.17s-.15.1-.21.25c-.34,1-.89,2.18-1.57,2.18-.23,0-.38-.17-.38-.53,0-.55,1.23-4.57,1.23-5.78a1.69,1.69,0,0,0-1.74-1.84c-1.54,0-2.56,2-3.15,3.07l0,0a8.19,8.19,0,0,0,.21-1.44c0-.91-.44-1.59-1.36-1.59-1.61,0-2.33,2.62-2.33,2.86,0,.1,0,.17.13.17s.17-.09.21-.25c.44-1.48,1.1-2.18,1.48-2.18s.53.25.53.87a12.68,12.68,0,0,1-.3,2.22Zm-3-7c0,1-1.17,2.9-3.64,3.89,1-3.34,2.16-4.61,3-4.61.34,0,.61.25.61.72M226.2,313a2.06,2.06,0,0,0,2.24,2.26c1.86,0,3.28-2.46,3.28-2.62s-.06-.19-.15-.19-.13.06-.23.19c-1.08,1.52-1.91,2.2-2.81,2.2-.65,0-1-.44-1-1.19a6.9,6.9,0,0,1,.36-1.78c3.32-1.19,4.74-2.67,4.74-4a1.33,1.33,0,0,0-1.4-1.4c-2.46,0-5,3.92-5,6.5m-6.77-1.48.27-1.25H215l-.26,1.25Zm-12-3.94c0,1-1.18,2.9-3.64,3.89,1-3.34,2.16-4.61,3-4.61.34,0,.61.25.61.72M202,313a2.06,2.06,0,0,0,2.24,2.26c1.86,0,3.28-2.46,3.28-2.62s-.06-.19-.15-.19-.13.06-.23.19c-1.08,1.52-1.91,2.2-2.81,2.2-.64,0-1-.44-1-1.19a6.94,6.94,0,0,1,.36-1.78c3.32-1.19,4.74-2.67,4.74-4a1.33,1.33,0,0,0-1.4-1.4c-2.46,0-5,3.92-5,6.5m-3.75-4.84c0,1.57-1.59,6.62-3.62,6.62-.29,0-1,0-1-1.27,0-1.72,1.72-6.6,3.68-6.6.66,0,1,.57,1,1.25m.3-.7h0a1.33,1.33,0,0,0-1.42-1c-2.48,0-4.85,3.89-4.85,6.14,0,1.29.64,2.62,2.12,2.62s2.35-1.5,3-2.81h0a9,9,0,0,0-.19,1.63,1,1,0,0,0,1.08,1.18c1.61,0,2.62-2.9,2.62-3a.22.22,0,0,0-.15-.23c-.17,0-.19.08-.36.49-.55,1.37-1.27,2.22-1.63,2.22s-.36-.32-.36-.61a17.71,17.71,0,0,1,.57-3.15l2.43-8.8a1.51,1.51,0,0,0,.1-.44c0-.11-.08-.19-.25-.19s-1.29.17-2.5.3c-.17,0-.21.08-.21.17s0,.17.46.21.78.15.78.45a2,2,0,0,1-.11.63Zm-14.24-1c-1.61,0-2.33,2.62-2.33,2.86,0,.1,0,.17.13.17s.15-.09.21-.25c.49-1.44,1-2.18,1.55-2.18.23,0,.4.17.4.49,0,.53-1.23,4.61-1.23,5.82a1.71,1.71,0,0,0,1.74,1.84c1.54,0,2.56-2,3.15-3.07l0,0a8.16,8.16,0,0,0-.21,1.44c0,.91.44,1.59,1.36,1.59,1.61,0,2.33-2.62,2.33-2.86a.15.15,0,0,0-.15-.17c-.11,0-.19.08-.25.25-.44,1.48-1.1,2.18-1.48,2.18s-.47-.25-.47-.87a12.74,12.74,0,0,1,.3-2.22l1-4.49a2.09,2.09,0,0,0,.06-.3c0-.08-.08-.11-.19-.11h-.95c-.11,0-.21.06-.25.27l-.66,2.79c-.53,2.24-1.92,4.95-3.26,4.95a.65.65,0,0,1-.74-.7c0-1,1.23-5.06,1.23-6s-.38-1.44-1.31-1.44m-9.23,6.67c0-2.24,1.21-6.31,3.11-6.31.72,0,1.21.59,1.21,1.72,0,2.24-1.21,6.31-3.11,6.31-.72,0-1.21-.59-1.21-1.72m-1.35-.89c0,1.84,1,3,2.48,3,2.73,0,4.53-3.58,4.53-5.78,0-1.84-1-3-2.48-3-2.73,0-4.53,3.58-4.53,5.78m-6.3-1.16c.36-1.74,1.63-4,2.94-4a.63.63,0,0,1,.7.63,2.33,2.33,0,0,1-.85,1.78,9.44,9.44,0,0,1-2.79,1.61m3.36-4.63c-1.39,0-2.45,1.48-2.79,2.09h0l1-4.4c.19-.83.53-2.26.53-2.43s-.08-.21-.23-.21-1.59.19-2.48.19c-.21,0-.3,0-.3.15s.1.19.51.23c.68.06.84.23.84.51a12.25,12.25,0,0,1-.29,1.56l-2.26,10.37a2.7,2.7,0,0,0-.06.3.13.13,0,0,0,.13.11h1c.11,0,.21-.06.25-.26l.76-3.05,1.29-.64c.13-.08.19-.13.3-.13.44,0,.7.53.7,1.06,0,.3-.11,1.69-.11,2a1.22,1.22,0,0,0,1.33,1.31c1.63,0,2.12-2.22,2.12-2.41s0-.23-.19-.23-.19.26-.28.57-.55,1.46-1.21,1.46c-.11,0-.4,0-.4-.44s.06-1,.06-1.5c0-1.55-.87-1.8-1.74-2v0c.93-.28,3.13-1.57,3.13-2.9a1.34,1.34,0,0,0-1.54-1.27m-14.6,7.66a.87.87,0,0,0,.93.95.8.8,0,0,0,.59-.23,2.77,2.77,0,0,1-1.76,2.48c-.61.3-.68.42-.68.51s0,.15.17.15c.4,0,3-1.14,3-3.43a1.29,1.29,0,0,0-1.23-1.38,1,1,0,0,0-1,.95m-7.41-2.64.27-1.25h-4.66l-.26,1.25ZM142,307.55c0,1-1.18,2.9-3.64,3.89,1-3.34,2.16-4.61,3-4.61.34,0,.61.25.61.72M136.59,313a2.06,2.06,0,0,0,2.24,2.26c1.86,0,3.28-2.46,3.28-2.62s-.06-.19-.15-.19-.13.06-.23.19c-1.08,1.52-1.91,2.2-2.81,2.2-.65,0-1-.44-1-1.19a6.94,6.94,0,0,1,.36-1.78c3.32-1.19,4.74-2.67,4.74-4a1.33,1.33,0,0,0-1.4-1.4c-2.47,0-5,3.92-5,6.5m-2.64-9.9a.83.83,0,1,0,.84-.83.84.84,0,0,0-.84.83m-2.39,10.83a1.2,1.2,0,0,0,1.25,1.33c1.59,0,2.75-2.71,2.75-2.83a.18.18,0,0,0-.19-.21c-.09,0-.15.06-.23.21-.8,1.59-1.54,2.29-2,2.29a.35.35,0,0,1-.38-.38c0-.42.06-.87,1-3.07s1.1-2.77,1.1-3.36a1.31,1.31,0,0,0-1.25-1.42c-1.35,0-2.52,2.33-2.52,2.52s0,.23.13.23a.24.24,0,0,0,.23-.15c.4-.95,1.2-2.07,1.8-2.07.23,0,.36.17.36.47a8.47,8.47,0,0,1-.91,2.77c-1,2.45-1.19,3.07-1.19,3.66m-5.1-2a11.7,11.7,0,0,0-.34,2,1.18,1.18,0,0,0,1.33,1.29c.83,0,1.25-.38,1.8-1.18a10.58,10.58,0,0,0,.81-1.71c0-.11,0-.21-.17-.21s-.28.28-.34.42c-.25.53-.93,2.14-1.65,2.14-.3,0-.53-.19-.53-.63a8.86,8.86,0,0,1,.38-1.9l1.23-4.76h1.38c.25,0,.32-.07.32-.21s-.09-.27-.25-.27h-1.36l.55-2a1.61,1.61,0,0,0,.1-.49c0-.38-.4-.42-.7-.42s-.49.06-.55.28l-.74,2.64h-1.21c-.25,0-.36.06-.36.27s.13.21.26.21h1.21Zm-8.78,1.48c0-2,2.12-6.5,4-6.5.51,0,.95.32.95,1.16,0,1.33-1.84,6.77-4,6.77-.57,0-.95-.51-.95-1.42m-1.35-.68c0,1.57.8,2.52,2.2,2.52,1.18,0,2.18-1,2.94-2.56l0,0a8.36,8.36,0,0,0-.23,1.31,1.08,1.08,0,0,0,1.19,1.21c1.61,0,2.33-2.62,2.33-2.81s0-.23-.17-.23-.19.08-.23.25c-.4,1.48-1.1,2.18-1.46,2.18s-.42-.17-.42-.49A24.06,24.06,0,0,1,124,308a4.77,4.77,0,0,0,.27-1c0-.19-.21-.4-.76-.4-.28,0-.38.23-.59,1.12l0,0a1.37,1.37,0,0,0-1.5-1.25c-2.24,0-5.08,3.53-5.08,6.24m-4.44-1.12a12.29,12.29,0,0,0-.34,2.26,1.28,1.28,0,0,0,1.4,1.38c1.84,0,2.58-2.52,2.58-2.71s0-.26-.15-.26a.3.3,0,0,0-.25.25c-.61,1.69-1.31,2.2-1.78,2.2s-.46-.44-.46-.72a21.18,21.18,0,0,1,.42-2.52l1.63-7.3c.19-.83.53-2.26.53-2.43s-.08-.21-.23-.21-1.59.19-2.48.19c-.21,0-.3,0-.3.15s.09.19.51.23c.68.06.83.23.83.51a12.38,12.38,0,0,1-.28,1.56Zm-5.27,0a12.38,12.38,0,0,0-.34,2.26,1.27,1.27,0,0,0,1.4,1.38c1.84,0,2.58-2.52,2.58-2.71s0-.26-.15-.26a.3.3,0,0,0-.25.25c-.61,1.69-1.31,2.2-1.78,2.2s-.46-.44-.46-.72a21.17,21.17,0,0,1,.42-2.52l1.63-7.3c.19-.83.53-2.26.53-2.43s-.08-.21-.23-.21-1.59.19-2.48.19c-.21,0-.3,0-.3.15s.1.19.51.23c.68.06.83.23.83.51a12.24,12.24,0,0,1-.29,1.56Zm-9,1.8c0-2,2.12-6.5,4-6.5.51,0,.95.32.95,1.16,0,1.33-1.84,6.77-4,6.77-.57,0-.95-.51-.95-1.42m-1.35-.68c0,1.57.8,2.52,2.2,2.52,1.17,0,2.18-1,2.94-2.56l0,0a8.26,8.26,0,0,0-.23,1.31,1.08,1.08,0,0,0,1.19,1.21c1.61,0,2.33-2.62,2.33-2.81s0-.23-.17-.23-.19.08-.23.25c-.4,1.48-1.1,2.18-1.46,2.18s-.42-.17-.42-.49A24,24,0,0,1,104,308a4.81,4.81,0,0,0,.26-1c0-.19-.21-.4-.76-.4-.28,0-.38.23-.59,1.12l0,0a1.37,1.37,0,0,0-1.5-1.25c-2.24,0-5.08,3.53-5.08,6.24m-4.44-.8a11.61,11.61,0,0,0-.34,2,1.18,1.18,0,0,0,1.33,1.29c.83,0,1.25-.38,1.8-1.18a10.58,10.58,0,0,0,.82-1.71c0-.11,0-.21-.17-.21s-.28.28-.34.42c-.25.53-.93,2.14-1.65,2.14-.3,0-.53-.19-.53-.63a8.87,8.87,0,0,1,.38-1.9l1.23-4.76h1.38c.25,0,.32-.07.32-.21s-.1-.27-.25-.27H94.49l.55-2a1.61,1.61,0,0,0,.1-.49c0-.38-.4-.42-.7-.42s-.49.06-.55.28l-.74,2.64H91.93c-.25,0-.36.06-.36.27s.13.21.26.21h1.21Zm-7.55,1.69c0,1,.89,1.63,2.24,1.63a2.66,2.66,0,0,0,2.94-2.65c0-.66-.17-1.06-1-2.2-1.08-1.42-1.23-1.86-1.23-2.29a1.26,1.26,0,0,1,1.4-1.25c.64,0,.85.21.85.66s.11.64.47.64a.45.45,0,0,0,.47-.51c0-.66-.74-1.16-1.71-1.16a2.33,2.33,0,0,0-2.56,2.3c0,.72.15,1.19,1.35,2.81.76,1,.91,1.37.91,1.84a1.59,1.59,0,0,1-1.74,1.46c-.74,0-1.31-.3-1.31-.82,0-.19.08-.38.08-.57a.54.54,0,0,0-.57-.55c-.32,0-.57.23-.57.66m-8.67.93a2.7,2.7,0,0,0-.06.3.13.13,0,0,0,.13.11h1c.11,0,.21-.06.25-.26l.68-2.66c.57-2.24,2-4.95,3.34-4.95.46,0,.66.17.66.82,0,.87-1.23,4.87-1.23,6a1.26,1.26,0,0,0,1.31,1.37c1.61,0,2.33-2.62,2.33-2.86,0-.09,0-.17-.13-.17s-.15.1-.21.25c-.34,1-.89,2.18-1.57,2.18-.23,0-.38-.17-.38-.53,0-.55,1.23-4.57,1.23-5.78a1.69,1.69,0,0,0-1.74-1.84c-1.54,0-2.56,2-3.15,3.07l0,0a8.19,8.19,0,0,0,.21-1.44c0-.91-.44-1.59-1.36-1.59-1.61,0-2.33,2.62-2.33,2.86,0,.1,0,.17.13.17s.17-.09.21-.25c.44-1.48,1.1-2.18,1.48-2.18s.53.25.53.87a12.68,12.68,0,0,1-.3,2.22ZM72,303.08a.83.83,0,1,0,.83-.83.84.84,0,0,0-.83.83M69.58,313.9a1.2,1.2,0,0,0,1.25,1.33c1.59,0,2.75-2.71,2.75-2.83a.18.18,0,0,0-.19-.21c-.1,0-.15.06-.23.21-.8,1.59-1.54,2.29-2,2.29a.35.35,0,0,1-.38-.38c0-.42.06-.87,1-3.07s1.1-2.77,1.1-3.36a1.31,1.31,0,0,0-1.25-1.42c-1.35,0-2.52,2.33-2.52,2.52s0,.23.13.23a.24.24,0,0,0,.23-.15c.4-.95,1.19-2.07,1.8-2.07.23,0,.36.17.36.47a8.47,8.47,0,0,1-.91,2.77c-1,2.45-1.19,3.07-1.19,3.66m-9.2.23a.87.87,0,0,0,.93.95.8.8,0,0,0,.59-.23,2.77,2.77,0,0,1-1.76,2.48c-.61.3-.68.42-.68.51s0,.15.17.15c.4,0,3-1.14,3-3.43a1.29,1.29,0,0,0-1.23-1.38,1,1,0,0,0-1,.95m-2.14-2.64.27-1.25H53.84l-.26,1.25Zm-9.46.09a12.29,12.29,0,0,0-.34,2.26,1.27,1.27,0,0,0,1.4,1.38c1.84,0,2.58-2.52,2.58-2.71s0-.26-.15-.26a.3.3,0,0,0-.25.25c-.61,1.69-1.31,2.2-1.78,2.2s-.45-.44-.45-.72a21.18,21.18,0,0,1,.42-2.52l1.63-7.3c.19-.83.53-2.26.53-2.43s-.08-.21-.23-.21-1.59.19-2.48.19c-.21,0-.3,0-.3.15s.1.19.51.23c.68.06.83.23.83.51a12.24,12.24,0,0,1-.28,1.56Zm-9,1.8c0-2,2.12-6.5,4-6.5.51,0,.95.32.95,1.16,0,1.33-1.84,6.77-4,6.77-.57,0-.95-.51-.95-1.42m-1.35-.68c0,1.57.8,2.52,2.2,2.52,1.18,0,2.18-1,2.94-2.56l0,0a8.26,8.26,0,0,0-.23,1.31,1.08,1.08,0,0,0,1.19,1.21c1.61,0,2.33-2.62,2.33-2.81s0-.23-.17-.23-.19.08-.23.25c-.4,1.48-1.1,2.18-1.46,2.18s-.42-.17-.42-.49a24,24,0,0,1,1.5-6.14,4.74,4.74,0,0,0,.27-1c0-.19-.21-.4-.76-.4-.28,0-.38.23-.59,1.12l0,0a1.37,1.37,0,0,0-1.5-1.25c-2.24,0-5.08,3.53-5.08,6.24m-8.13.68c0-2,2.12-6.5,4-6.5.51,0,.95.32.95,1.16,0,1.33-1.84,6.77-4,6.77-.57,0-.95-.51-.95-1.42M29,312.71c0,1.57.8,2.52,2.2,2.52,1.18,0,2.18-1,2.94-2.56l0,0a8.25,8.25,0,0,0-.23,1.31,1.08,1.08,0,0,0,1.19,1.21c1.61,0,2.33-2.62,2.33-2.81s0-.23-.17-.23-.19.08-.23.25c-.4,1.48-1.1,2.18-1.46,2.18s-.42-.17-.42-.49a24.06,24.06,0,0,1,1.5-6.14,4.74,4.74,0,0,0,.26-1c0-.19-.21-.4-.76-.4-.28,0-.38.23-.59,1.12l0,0a1.37,1.37,0,0,0-1.5-1.25c-2.24,0-5.08,3.53-5.08,6.24m-4.44-.8a11.7,11.7,0,0,0-.34,2,1.18,1.18,0,0,0,1.33,1.29c.84,0,1.25-.38,1.8-1.18a10.58,10.58,0,0,0,.82-1.71c0-.11,0-.21-.17-.21s-.28.28-.34.42c-.25.53-.93,2.14-1.65,2.14-.3,0-.53-.19-.53-.63a8.86,8.86,0,0,1,.38-1.9l1.23-4.76h1.39c.25,0,.32-.07.32-.21s-.09-.27-.25-.27H27.16l.55-2a1.61,1.61,0,0,0,.1-.49c0-.38-.4-.42-.7-.42s-.49.06-.55.28l-.74,2.64H24.6c-.25,0-.36.06-.36.27s.13.21.27.21h1.21Zm-2.35-4.36c0,1-1.17,2.9-3.64,3.89,1-3.34,2.16-4.61,3-4.61.34,0,.61.25.61.72M16.75,313A2.06,2.06,0,0,0,19,315.23c1.86,0,3.28-2.46,3.28-2.62s-.06-.19-.15-.19-.13.06-.23.19c-1.08,1.52-1.92,2.2-2.81,2.2-.65,0-1-.44-1-1.19a6.9,6.9,0,0,1,.36-1.78c3.32-1.19,4.74-2.67,4.74-4a1.33,1.33,0,0,0-1.4-1.4c-2.47,0-5,3.92-5,6.5M3.06,314.53a2.7,2.7,0,0,0-.06.3.13.13,0,0,0,.13.11h1c.11,0,.21-.06.25-.26L5.07,312c.57-2.22,2-4.95,3.11-4.95.36,0,.53.25.53.87a12.68,12.68,0,0,1-.3,2.22l-1,4.36a2.7,2.7,0,0,0-.06.3.13.13,0,0,0,.13.11h1c.11,0,.21-.06.25-.26L9.43,312c.57-2.24,2.07-4.95,3.28-4.95.36,0,.57.28.57.82,0,.87-1.23,4.87-1.23,6a1.25,1.25,0,0,0,1.31,1.37c1.61,0,2.33-2.62,2.33-2.86,0-.09,0-.17-.13-.17s-.15.1-.21.25c-.34,1-.89,2.18-1.57,2.18-.23,0-.38-.17-.38-.53,0-.55,1.23-4.57,1.23-5.78A1.68,1.68,0,0,0,13,306.47c-1.54,0-2.56,2-3.13,3.07l0,0a8.19,8.19,0,0,0,.21-1.44c0-.91-.46-1.59-1.4-1.59-1.54,0-2.56,2-3.13,3.07l0,0a8.19,8.19,0,0,0,.21-1.44c0-.91-.44-1.59-1.37-1.59-1.48,0-2.33,2.37-2.33,2.86a.16.16,0,0,0,.15.17c.11,0,.19-.08.25-.25.44-1.48,1.1-2.18,1.48-2.18s.47.25.47.87a12.66,12.66,0,0,1-.3,2.22Z" transform="translate(-2 -2.54)"/><path class="cls-1" d="M273.49,279.47c0,1,.89,1.63,2.24,1.63a2.66,2.66,0,0,0,2.94-2.65c0-.66-.17-1.06-1-2.2-1.08-1.42-1.23-1.86-1.23-2.29a1.26,1.26,0,0,1,1.4-1.25c.64,0,.85.21.85.66s.11.65.47.65a.45.45,0,0,0,.47-.51c0-.66-.74-1.16-1.71-1.16a2.33,2.33,0,0,0-2.56,2.29c0,.72.15,1.19,1.35,2.81.76,1,.91,1.37.91,1.84a1.59,1.59,0,0,1-1.74,1.46c-.74,0-1.31-.3-1.31-.81,0-.19.08-.38.08-.57a.54.54,0,0,0-.57-.55c-.32,0-.57.23-.57.66m-4.29,1.35,1.33-3.83a18.37,18.37,0,0,1,1-2.48c.42-.82.91-1.56,1.37-1.56.17,0,.19.15.19.44a.59.59,0,0,0,.66.57.73.73,0,0,0,.68-.72,1,1,0,0,0-1.06-.89c-1.54,0-2.58,2.69-2.9,3.58h0c0-.34.19-1.56.19-1.92,0-1.57-.95-1.67-1.1-1.67-1,0-1.82,1.5-2.37,2.54a.92.92,0,0,0-.13.36c0,.09.07.17.11.17a.19.19,0,0,0,.19-.09c.25-.42.87-1.59,1.06-1.82s.46-.55.72-.55.38.72.38,1a15.17,15.17,0,0,1-.74,3.92l-.89,2.94Zm-3.74-7.39c0,1-1.18,2.9-3.64,3.89,1-3.34,2.16-4.61,3-4.61.34,0,.61.25.61.72M260,278.84a2.06,2.06,0,0,0,2.24,2.26c1.86,0,3.28-2.47,3.28-2.62s-.06-.19-.15-.19-.13.06-.23.19c-1.08,1.52-1.92,2.2-2.81,2.2-.65,0-1-.44-1-1.19a6.93,6.93,0,0,1,.36-1.78c3.32-1.19,4.74-2.67,4.74-4a1.33,1.33,0,0,0-1.4-1.4c-2.46,0-5,3.92-5,6.5M256.27,274c0,1.57-1.59,6.62-3.62,6.62-.28,0-1,0-1-1.27,0-1.73,1.73-6.6,3.68-6.6.66,0,1,.57,1,1.25m.3-.7h0a1.33,1.33,0,0,0-1.42-1c-2.48,0-4.85,3.89-4.85,6.14,0,1.29.64,2.62,2.12,2.62s2.35-1.5,3-2.81h0a9,9,0,0,0-.19,1.63,1,1,0,0,0,1.08,1.17c1.61,0,2.62-2.9,2.62-3a.22.22,0,0,0-.15-.23c-.17,0-.19.08-.36.49-.55,1.37-1.27,2.22-1.63,2.22s-.36-.32-.36-.61a17.8,17.8,0,0,1,.57-3.15l2.43-8.8a1.52,1.52,0,0,0,.1-.44c0-.11-.08-.19-.25-.19s-1.29.17-2.5.3c-.17,0-.21.08-.21.17s0,.17.46.21.78.15.78.46a2,2,0,0,1-.11.63Zm-8.67-4.36a.83.83,0,1,0,.84-.83.84.84,0,0,0-.84.83m-2.39,10.83a1.2,1.2,0,0,0,1.25,1.33c1.59,0,2.75-2.71,2.75-2.82a.18.18,0,0,0-.19-.21c-.1,0-.15.06-.23.21-.8,1.59-1.54,2.29-2,2.29a.35.35,0,0,1-.38-.38c0-.42.06-.87,1-3.07s1.1-2.77,1.1-3.36a1.31,1.31,0,0,0-1.25-1.42c-1.35,0-2.52,2.33-2.52,2.52s0,.23.13.23a.24.24,0,0,0,.23-.15c.4-.95,1.2-2.07,1.8-2.07.23,0,.36.17.36.47a8.47,8.47,0,0,1-.91,2.77c-1,2.45-1.19,3.07-1.19,3.66m-2.18-6.35c0,1-1.18,2.9-3.64,3.89,1-3.34,2.16-4.61,3-4.61.34,0,.61.25.61.72m-5.44,5.42a2.06,2.06,0,0,0,2.24,2.26c1.86,0,3.28-2.47,3.28-2.62s-.06-.19-.15-.19-.13.06-.23.19c-1.08,1.52-1.91,2.2-2.81,2.2-.64,0-1-.44-1-1.19a6.93,6.93,0,0,1,.36-1.78c3.32-1.19,4.74-2.67,4.74-4a1.33,1.33,0,0,0-1.4-1.4c-2.46,0-5,3.92-5,6.5m-4.66-1.38a12.28,12.28,0,0,0-.34,2.26,1.27,1.27,0,0,0,1.4,1.38c1.84,0,2.58-2.52,2.58-2.71s0-.27-.15-.27a.3.3,0,0,0-.25.25c-.61,1.69-1.31,2.2-1.78,2.2s-.46-.44-.46-.72a21.35,21.35,0,0,1,.42-2.52l1.63-7.3c.19-.84.53-2.26.53-2.43s-.08-.21-.23-.21-1.59.19-2.48.19c-.21,0-.3,0-.3.15s.1.19.51.23c.68.06.83.23.83.51a12.23,12.23,0,0,1-.28,1.56Zm-2.54-4c0,1-1.18,2.9-3.64,3.89,1-3.34,2.16-4.61,3-4.61.34,0,.61.25.61.72m-5.44,5.42a2.06,2.06,0,0,0,2.24,2.26c1.86,0,3.28-2.47,3.28-2.62s-.06-.19-.15-.19-.13.06-.23.19c-1.08,1.52-1.92,2.2-2.81,2.2-.65,0-1-.44-1-1.19a6.89,6.89,0,0,1,.36-1.78c3.32-1.19,4.74-2.67,4.74-4a1.33,1.33,0,0,0-1.4-1.4c-2.47,0-5,3.92-5,6.5M222,274.26c0,.45-.51,4.1-2.35,4.1-.82,0-1.21-.51-1.21-1.46,0-.68.7-4.13,2.29-4.13,1.08,0,1.27.7,1.27,1.5m-3.79,6.16c-.53-.1-.8-.32-.8-.78,0-.28.27-.83,1.38-.85l.7,0a3.93,3.93,0,0,0,3.75-4.06,3,3,0,0,0-.23-1.08,2.55,2.55,0,0,1,.93-.53c.21,0,.25.19.28.55a.6.6,0,0,0,.59.57.65.65,0,0,0,.64-.66,1,1,0,0,0-1.06-1.06,2.47,2.47,0,0,0-1.59.74,2.2,2.2,0,0,0-2-.89c-1.82,0-3.6,2.12-3.6,3.91a2.4,2.4,0,0,0,1.31,2.18c-1.23.13-2.22.82-2.22,1.78,0,1.61,2.81,1.9,3.93,2s1.9.44,1.9,1.46c0,1.54-1.69,2-2.94,2s-2.77-.63-2.77-2.1a1.45,1.45,0,0,1,.89-1.35.94.94,0,0,0-.64-.21,1.43,1.43,0,0,0-1.38,1.52c0,1.73,2.24,2.56,3.91,2.56,2.22,0,4-.91,4-3a2.27,2.27,0,0,0-2.2-2.31Zm-3.91-7c0,1-1.18,2.9-3.64,3.89,1-3.34,2.16-4.61,3-4.61.34,0,.61.25.61.72m-5.44,5.42a2.06,2.06,0,0,0,2.24,2.26c1.86,0,3.28-2.47,3.28-2.62s-.06-.19-.15-.19-.13.06-.23.19c-1.08,1.52-1.91,2.2-2.81,2.2-.64,0-1-.44-1-1.19a6.89,6.89,0,0,1,.36-1.78c3.32-1.19,4.74-2.67,4.74-4a1.33,1.33,0,0,0-1.4-1.4c-2.46,0-5,3.92-5,6.5m-4.8-8.82c.19-.84.53-2.26.53-2.43s-.08-.21-.23-.21-1.59.19-2.48.19c-.21,0-.3,0-.3.15s.09.19.51.23c.68.06.83.23.83.51a12.41,12.41,0,0,1-.28,1.56l-1.46,6.77a11.86,11.86,0,0,0-.36,2.1,2.1,2.1,0,0,0,2.35,2.2c2.39,0,4.63-3.7,4.63-6.12a2.35,2.35,0,0,0-2.29-2.64c-1.16,0-1.82,1-2.43,2h0Zm-2,9.14c0-1.12,1.35-6.35,3.26-6.35.66,0,1,.63,1,1.44,0,1.91-1.35,6.48-3.21,6.48-.82,0-1.1-.66-1.1-1.57m-3.13-1.8.27-1.25h-4.66l-.26,1.25Zm-19.55,3a2.65,2.65,0,0,0-.06.3.13.13,0,0,0,.13.11h1c.11,0,.21-.06.25-.27l.68-2.65c.57-2.24,2-4.95,3.34-4.95.45,0,.66.17.66.82,0,.87-1.23,4.87-1.23,6a1.25,1.25,0,0,0,1.31,1.36c1.61,0,2.33-2.62,2.33-2.86,0-.1,0-.17-.13-.17s-.15.1-.21.25c-.34,1-.89,2.18-1.57,2.18-.23,0-.38-.17-.38-.53,0-.55,1.23-4.57,1.23-5.78a1.69,1.69,0,0,0-1.74-1.84c-1.54,0-2.56,2-3.15,3.07l0,0a8.17,8.17,0,0,0,.21-1.44c0-.91-.44-1.59-1.37-1.59-1.61,0-2.33,2.62-2.33,2.86,0,.1,0,.17.13.17s.17-.1.21-.25c.44-1.48,1.1-2.18,1.48-2.18s.53.25.53.87a12.77,12.77,0,0,1-.3,2.22Zm-3-7c0,1-1.18,2.9-3.64,3.89,1-3.34,2.16-4.61,3-4.61.34,0,.61.25.61.72M171,278.84a2.06,2.06,0,0,0,2.24,2.26c1.86,0,3.28-2.47,3.28-2.62s-.06-.19-.15-.19-.13.06-.23.19c-1.08,1.52-1.92,2.2-2.81,2.2-.64,0-1-.44-1-1.19a6.88,6.88,0,0,1,.36-1.78c3.32-1.19,4.74-2.67,4.74-4a1.33,1.33,0,0,0-1.4-1.4c-2.46,0-5,3.92-5,6.5m-12.4.63c0,1,.89,1.63,2.24,1.63a2.66,2.66,0,0,0,2.94-2.65c0-.66-.17-1.06-1-2.2-1.08-1.42-1.23-1.86-1.23-2.29a1.26,1.26,0,0,1,1.4-1.25c.65,0,.85.21.85.66s.11.65.47.65a.45.45,0,0,0,.47-.51c0-.66-.74-1.16-1.71-1.16a2.33,2.33,0,0,0-2.56,2.29c0,.72.15,1.19,1.35,2.81.76,1,.91,1.37.91,1.84a1.59,1.59,0,0,1-1.74,1.46c-.74,0-1.31-.3-1.31-.81,0-.19.08-.38.08-.57a.54.54,0,0,0-.57-.55c-.32,0-.57.23-.57.66m-4.29,1.35,1.33-3.83a18.52,18.52,0,0,1,1-2.48c.42-.82.91-1.56,1.37-1.56.17,0,.19.15.19.44a.59.59,0,0,0,.66.57.73.73,0,0,0,.68-.72,1,1,0,0,0-1.06-.89c-1.54,0-2.58,2.69-2.9,3.58h0c0-.34.19-1.56.19-1.92,0-1.57-.95-1.67-1.1-1.67-1,0-1.82,1.5-2.37,2.54a.93.93,0,0,0-.13.36c0,.09.08.17.11.17a.19.19,0,0,0,.19-.09c.25-.42.87-1.59,1.06-1.82s.46-.55.72-.55.38.72.38,1a15.19,15.19,0,0,1-.74,3.92l-.89,2.94Zm-3.74-7.39c0,1-1.18,2.9-3.64,3.89,1-3.34,2.16-4.61,3-4.61.34,0,.61.25.61.72m-5.44,5.42a2.06,2.06,0,0,0,2.24,2.26c1.86,0,3.28-2.47,3.28-2.62s-.06-.19-.15-.19-.13.06-.23.19c-1.08,1.52-1.91,2.2-2.81,2.2-.65,0-1-.44-1-1.19a6.89,6.89,0,0,1,.36-1.78c3.32-1.19,4.74-2.67,4.74-4a1.33,1.33,0,0,0-1.4-1.4c-2.46,0-5,3.92-5,6.5M141.35,274c0,1.57-1.59,6.62-3.62,6.62-.29,0-1,0-1-1.27,0-1.73,1.72-6.6,3.68-6.6.66,0,1,.57,1,1.25m.3-.7h0a1.33,1.33,0,0,0-1.42-1c-2.48,0-4.85,3.89-4.85,6.14,0,1.29.64,2.62,2.12,2.62s2.35-1.5,3-2.81h0a9,9,0,0,0-.19,1.63,1,1,0,0,0,1.08,1.17c1.61,0,2.62-2.9,2.62-3a.22.22,0,0,0-.15-.23c-.17,0-.19.08-.36.49-.55,1.37-1.27,2.22-1.63,2.22s-.36-.32-.36-.61a17.71,17.71,0,0,1,.57-3.15l2.43-8.8a1.52,1.52,0,0,0,.1-.44c0-.11-.08-.19-.25-.19s-1.29.17-2.5.3c-.17,0-.21.08-.21.17s0,.17.46.21.78.15.78.46a2,2,0,0,1-.11.63ZM133,268.95a.83.83,0,1,0,.83-.83.84.84,0,0,0-.83.83m-2.39,10.83a1.2,1.2,0,0,0,1.25,1.33c1.59,0,2.75-2.71,2.75-2.82a.18.18,0,0,0-.19-.21c-.1,0-.15.06-.23.21-.8,1.59-1.54,2.29-2,2.29a.35.35,0,0,1-.38-.38c0-.42.06-.87,1-3.07s1.1-2.77,1.1-3.36a1.31,1.31,0,0,0-1.25-1.42c-1.35,0-2.52,2.33-2.52,2.52s0,.23.13.23a.24.24,0,0,0,.23-.15c.4-.95,1.19-2.07,1.8-2.07.23,0,.36.17.36.47a8.47,8.47,0,0,1-.91,2.77c-1,2.45-1.2,3.07-1.2,3.66m-2.18-6.35c0,1-1.18,2.9-3.64,3.89,1-3.34,2.16-4.61,3-4.61.34,0,.61.25.61.72M123,278.84a2.06,2.06,0,0,0,2.24,2.26c1.86,0,3.28-2.47,3.28-2.62s-.06-.19-.15-.19-.13.06-.23.19c-1.08,1.52-1.92,2.2-2.81,2.2-.64,0-1-.44-1-1.19a6.89,6.89,0,0,1,.36-1.78c3.32-1.19,4.74-2.67,4.74-4a1.33,1.33,0,0,0-1.4-1.4c-2.46,0-5,3.92-5,6.5m-4.67-1.38a12.28,12.28,0,0,0-.34,2.26,1.27,1.27,0,0,0,1.4,1.38c1.84,0,2.58-2.52,2.58-2.71s0-.27-.15-.27a.3.3,0,0,0-.25.25c-.61,1.69-1.31,2.2-1.78,2.2s-.45-.44-.45-.72a21.15,21.15,0,0,1,.42-2.52l1.63-7.3c.19-.84.53-2.26.53-2.43s-.08-.21-.23-.21-1.59.19-2.48.19c-.21,0-.3,0-.3.15s.1.19.51.23c.68.06.83.23.83.51a12.41,12.41,0,0,1-.28,1.56Zm-7.39,1.74c-.06-1.84,1.5-6.45,3.32-6.45.76,0,1.06.61,1.1,1.54,0,1.38-1.29,6.39-3.36,6.39-.59,0-1-.59-1.06-1.48m-2.79,5.8a.88.88,0,0,1-.89.76c-.3,0-.42.08-.42.23s.1.19.25.19c.61,0,1.19-.06,1.8-.06l.89,0c.3,0,.61,0,.89,0s.23-.06.21-.19-.11-.23-.42-.23c-.65,0-.87-.34-.87-.59a2.65,2.65,0,0,1,.07-.59l1-4.55h0a1.52,1.52,0,0,0,1.52,1.06c2.52,0,4.61-3.58,4.51-6.18-.06-1.54-.89-2.58-2.22-2.58s-2.09,1-2.71,2.27l0,0,1-4.19a2.3,2.3,0,0,0,.09-.65c0-.23-.3-.28-.61-.28s-.47.06-.57.42l-.68,2.37a2.56,2.56,0,0,1-1.21,1.54,3.89,3.89,0,0,0-1.71,2.48c0,.11.06.17.17.17a.19.19,0,0,0,.19-.17c.3-1,1.54-2.39,2-2.39.13,0,.13.13.13.26a3.07,3.07,0,0,1-.1.76Zm-6.81-6c0-2.24,1.21-6.31,3.11-6.31.72,0,1.21.59,1.21,1.73,0,2.24-1.21,6.31-3.11,6.31-.72,0-1.21-.59-1.21-1.73m-1.35-.89c0,1.84,1,3,2.48,3,2.73,0,4.53-3.58,4.53-5.78,0-1.84-1-3-2.48-3-2.73,0-4.53,3.58-4.53,5.78M93.68,277c.36-1.74,1.63-4,2.94-4a.63.63,0,0,1,.7.63,2.33,2.33,0,0,1-.85,1.78A9.44,9.44,0,0,1,93.68,277M97,272.34c-1.39,0-2.45,1.48-2.79,2.09h0l1-4.4c.19-.84.53-2.26.53-2.43s-.08-.21-.23-.21-1.59.19-2.48.19c-.21,0-.3,0-.3.15s.1.19.51.23c.68.06.83.23.83.51a12.28,12.28,0,0,1-.29,1.56L91.5,280.4a2.66,2.66,0,0,0-.06.3.13.13,0,0,0,.13.11h1c.11,0,.21-.06.25-.27l.76-3.05,1.29-.65c.13-.08.19-.13.3-.13.44,0,.7.53.7,1.06,0,.3-.11,1.69-.11,2a1.22,1.22,0,0,0,1.33,1.31c1.63,0,2.12-2.22,2.12-2.41s0-.23-.19-.23-.19.26-.28.57-.55,1.46-1.21,1.46c-.11,0-.4,0-.4-.44s.06-1,.06-1.5c0-1.55-.87-1.8-1.74-2v0c.93-.28,3.13-1.57,3.13-2.9A1.34,1.34,0,0,0,97,272.34m-7.66-3.39a.83.83,0,1,0,.83-.83.84.84,0,0,0-.83.83M86.57,282.6c-.59,2.26-1.29,3.11-2,3.11a.6.6,0,0,1-.7-.53c-.1-.38-.26-.64-.59-.64a.5.5,0,0,0-.49.57c0,.65.8,1,1.65,1,1.69,0,2.86-1.29,3.93-5,1.65-5.82,1.84-6.92,1.84-7.74a.93.93,0,0,0-.95-1c-.82,0-1.8.81-2.88,2.54a.71.71,0,0,0-.13.34.16.16,0,0,0,.17.15c.13,0,.23-.1.38-.34.93-1.52,1.48-2,1.84-2,.15,0,.23.09.23.36a6.73,6.73,0,0,1-.25,1.54ZM84,268.95a.83.83,0,1,0,.83-.83.84.84,0,0,0-.83.83m-2.39,10.83a1.2,1.2,0,0,0,1.25,1.33c1.59,0,2.75-2.71,2.75-2.82a.18.18,0,0,0-.19-.21c-.1,0-.15.06-.23.21-.8,1.59-1.54,2.29-2,2.29a.35.35,0,0,1-.38-.38c0-.42.06-.87,1-3.07s1.1-2.77,1.1-3.36a1.31,1.31,0,0,0-1.25-1.42c-1.35,0-2.52,2.33-2.52,2.52s0,.23.13.23a.24.24,0,0,0,.23-.15c.4-.95,1.19-2.07,1.8-2.07.23,0,.36.17.36.47a8.44,8.44,0,0,1-.91,2.77c-1,2.45-1.19,3.07-1.19,3.66m-5.1-2a11.61,11.61,0,0,0-.34,2,1.18,1.18,0,0,0,1.33,1.29c.83,0,1.25-.38,1.8-1.17a10.51,10.51,0,0,0,.82-1.71c0-.11,0-.21-.17-.21s-.28.28-.34.42c-.25.53-.93,2.14-1.65,2.14-.3,0-.53-.19-.53-.62a8.94,8.94,0,0,1,.38-1.9l1.23-4.76h1.38c.25,0,.32-.08.32-.21s-.09-.26-.25-.26H79.17l.55-2a1.64,1.64,0,0,0,.09-.49c0-.38-.4-.42-.7-.42s-.49.06-.55.28l-.74,2.64H76.61c-.25,0-.36.06-.36.26s.13.21.26.21h1.21ZM70,277c.36-1.74,1.63-4,2.94-4a.63.63,0,0,1,.7.63,2.33,2.33,0,0,1-.85,1.78A9.44,9.44,0,0,1,70,277m3.36-4.63c-1.39,0-2.45,1.48-2.79,2.09h0l1-4.4c.19-.84.53-2.26.53-2.43s-.08-.21-.23-.21-1.59.19-2.48.19c-.21,0-.3,0-.3.15s.1.19.51.23c.68.06.83.23.83.51a12.28,12.28,0,0,1-.28,1.56L67.83,280.4a2.66,2.66,0,0,0-.06.3.13.13,0,0,0,.13.11h1c.11,0,.21-.06.25-.27l.76-3.05,1.29-.65c.13-.08.19-.13.3-.13.44,0,.7.53.7,1.06,0,.3-.11,1.69-.11,2a1.22,1.22,0,0,0,1.33,1.31c1.63,0,2.12-2.22,2.12-2.41s0-.23-.19-.23-.19.26-.28.57-.55,1.46-1.21,1.46c-.11,0-.4,0-.4-.44s.06-1,.06-1.5c0-1.55-.87-1.8-1.74-2v0c.93-.28,3.13-1.57,3.13-2.9a1.35,1.35,0,0,0-1.54-1.27m-14,6.92c0-2,2.12-6.5,4-6.5.51,0,.95.32.95,1.16,0,1.33-1.84,6.77-4,6.77-.57,0-.95-.51-.95-1.42M58,278.58c0,1.57.8,2.52,2.2,2.52,1.18,0,2.18-1,2.94-2.56l0,0a8.24,8.24,0,0,0-.23,1.31,1.08,1.08,0,0,0,1.19,1.21c1.61,0,2.33-2.62,2.33-2.81s0-.23-.17-.23-.19.08-.23.25c-.4,1.48-1.1,2.18-1.46,2.18s-.42-.17-.42-.49a24.06,24.06,0,0,1,1.5-6.14,4.78,4.78,0,0,0,.27-1c0-.19-.21-.4-.76-.4-.28,0-.38.23-.59,1.12l0,0a1.37,1.37,0,0,0-1.5-1.25c-2.24,0-5.08,3.53-5.08,6.24m-4.68,2.24L54.66,277a18.52,18.52,0,0,1,1-2.48c.42-.82.91-1.56,1.37-1.56.17,0,.19.15.19.44a.59.59,0,0,0,.66.57.73.73,0,0,0,.68-.72,1,1,0,0,0-1.06-.89c-1.54,0-2.58,2.69-2.9,3.58h0c0-.34.19-1.56.19-1.92,0-1.57-.95-1.67-1.1-1.67-1,0-1.82,1.5-2.37,2.54a.93.93,0,0,0-.13.36c0,.09.08.17.11.17a.19.19,0,0,0,.19-.09c.25-.42.87-1.59,1.06-1.82s.46-.55.72-.55.38.72.38,1a15.19,15.19,0,0,1-.74,3.92L52,280.82Zm-8.59-1.61c-.06-1.84,1.5-6.45,3.32-6.45.76,0,1.06.61,1.1,1.54,0,1.38-1.29,6.39-3.36,6.39-.59,0-1-.59-1.06-1.48M42,285a.88.88,0,0,1-.89.76c-.3,0-.42.08-.42.23s.09.19.25.19c.61,0,1.19-.06,1.8-.06l.89,0c.3,0,.61,0,.89,0s.23-.06.21-.19-.11-.23-.42-.23c-.64,0-.87-.34-.87-.59a2.61,2.61,0,0,1,.08-.59l1-4.55h0A1.52,1.52,0,0,0,46,281.1c2.52,0,4.61-3.58,4.51-6.18-.06-1.54-.89-2.58-2.22-2.58s-2.09,1-2.71,2.27l0,0,1-4.19a2.3,2.3,0,0,0,.1-.65c0-.23-.3-.28-.61-.28s-.47.06-.57.42l-.68,2.37a2.55,2.55,0,0,1-1.21,1.54,3.89,3.89,0,0,0-1.71,2.48c0,.11.06.17.17.17a.19.19,0,0,0,.19-.17c.3-1,1.53-2.39,2-2.39.13,0,.13.13.13.26a3.07,3.07,0,0,1-.1.76ZM31.2,280.82,32.53,277a18.52,18.52,0,0,1,1-2.48c.42-.82.91-1.56,1.37-1.56.17,0,.19.15.19.44a.59.59,0,0,0,.66.57.73.73,0,0,0,.68-.72,1,1,0,0,0-1.06-.89c-1.53,0-2.58,2.69-2.9,3.58h0c0-.34.19-1.56.19-1.92,0-1.57-.95-1.67-1.1-1.67-1,0-1.82,1.5-2.37,2.54a.93.93,0,0,0-.13.36c0,.09.08.17.11.17a.19.19,0,0,0,.19-.09c.25-.42.87-1.59,1.06-1.82s.45-.55.72-.55.38.72.38,1a15.19,15.19,0,0,1-.74,3.92l-.89,2.94ZM22.5,279c0-2.24,1.21-6.31,3.11-6.31.72,0,1.21.59,1.21,1.73,0,2.24-1.21,6.31-3.11,6.31-.72,0-1.21-.59-1.21-1.73m-1.35-.89c0,1.84,1,3,2.48,3,2.73,0,4.53-3.58,4.53-5.78,0-1.84-1-3-2.48-3-2.73,0-4.53,3.58-4.53,5.78m-7.07.89c0-2.24,1.21-6.31,3.11-6.31.72,0,1.21.59,1.21,1.73,0,2.24-1.21,6.31-3.11,6.31-.72,0-1.21-.59-1.21-1.73m-1.35-.89c0,1.84,1,3,2.48,3,2.73,0,4.53-3.58,4.53-5.78,0-1.84-1-3-2.48-3-2.73,0-4.53,3.58-4.53,5.78m-6.58,2.62c0,.23.06.42.3.42s.38-.19.55-.47l2.54-4.23,3.75-6.66a2.51,2.51,0,0,1,1.78-1.33c.11,0,.23-.08.23-.23s-.11-.19-.32-.19-1.06.06-1.61.06-1.16-.06-1.74-.06c-.25,0-.32.08-.32.21s.17.19.36.21c.55.08,1,.23,1,.57a12.62,12.62,0,0,1-1.57,3.58l-3.51,6.14h0l-1-9.06a3.09,3.09,0,0,1,0-.38c0-.8.38-.8,1.1-.85.57,0,.61-.13.61-.27s-.13-.15-.32-.15c-.74,0-1.5.06-2.26.06s-1.52-.06-2.27-.06c-.19,0-.29.08-.29.19s.08.17.4.23c.74.13,1.1.21,1.18.85Z" transform="translate(-2 -2.54)"/><path class="cls-2" d="M342.6,199.27c-2,0-2.87-1.9-2.87-3.95,0-1.87.81-3.77,2.77-3.77s2.93,1.75,2.93,3.74-.78,4-2.83,4m-6,10.16a13,13,0,0,0,4.43.75c6.82,0,8.65-6.27,8.65-12,0-4.95-1.3-9.8-7.15-9.8-4.76,0-7,3-7,7.57,0,3.89,2.17,6.42,6.15,6.42a4.5,4.5,0,0,0,4.07-2.11l.06.06c-.12,3.14-1.36,6.51-5,6.51a8.91,8.91,0,0,1-3.68-.85ZM319.8,193.72l2.11,2.75,3.56-2.9v16.25h4.22v-21H326ZM309,210.19c6.09,0,7.36-5.94,7.36-10.83s-1.21-10.95-7.36-10.95c-5.7,0-7.3,5.67-7.3,10.95,0,4.4.81,10.83,7.3,10.83m0-3.14c-3.11,0-3.08-5-3.08-7.69s0-7.81,3.08-7.81,3.14,5.1,3.14,7.81,0,7.69-3.14,7.69m-9.89,2.77v-3.32h-8.59c3.44-3.38,7.93-7.48,7.93-11.94,0-4.13-2.59-6.15-6.61-6.15a14,14,0,0,0-6.24,1.51l.33,3.5a9.14,9.14,0,0,1,4.85-1.69c1.72,0,3.44.9,3.44,2.83,0,3.86-7.15,9.83-9.11,11.73v3.53Zm-28.45.36h3.14l7.36-21.77H278ZM259.1,200.6c1.75.57,3.53,1.57,3.53,3.65a2.78,2.78,0,0,1-3,2.81,3.08,3.08,0,0,1-3.2-3c0-1.78,1.18-2.74,2.68-3.47m3.71-2.08a5.54,5.54,0,0,0,3.5-5c0-3.53-3.35-5.07-7.06-5.07s-6.69,1.78-6.69,5.55a5.36,5.36,0,0,0,3.5,4.89v.06c-2.53,1.24-3.86,2.87-3.86,5.22,0,4.28,3.32,6.06,7.42,6.06s7.24-1.87,7.24-6.12c0-2.41-1.27-4.22-4-5.52v0Zm-2.9-1.27c-1.45-.54-3.32-1.36-3.32-3.17s1.54-2.53,3.08-2.53a2.47,2.47,0,0,1,2.59,2.65,3.64,3.64,0,0,1-2.35,3m-23.16-3.53,2.11,2.75,3.56-2.9v16.25h4.22v-21H242.9ZM226,210.19c6.09,0,7.36-5.94,7.36-10.83s-1.21-10.95-7.36-10.95c-5.7,0-7.3,5.67-7.3,10.95,0,4.4.82,10.83,7.3,10.83m0-3.14c-3.11,0-3.08-5-3.08-7.69s0-7.81,3.08-7.81,3.14,5.1,3.14,7.81,0,7.69-3.14,7.69m-9.89,2.77v-3.32h-8.6c3.44-3.38,7.93-7.48,7.93-11.94,0-4.13-2.59-6.15-6.6-6.15a14,14,0,0,0-6.24,1.51l.33,3.5a9.14,9.14,0,0,1,4.85-1.69c1.72,0,3.44.9,3.44,2.83,0,3.86-7.15,9.83-9.11,11.73v3.53Z" transform="translate(-2 -2.54)"/></svg>