<?xml version="1.0" encoding="utf-8"?>
<!-- Generator: Adobe Illustrator 15.0.0, SVG Export Plug-In . SVG Version: 6.00 Build 0)  -->
<!DOCTYPE svg PUBLIC "-//W3C//DTD SVG 1.1//EN" "http://www.w3.org/Graphics/SVG/1.1/DTD/svg11.dtd">
<svg version="1.1" id="Layer_1" xmlns="http://www.w3.org/2000/svg" xmlns:xlink="http://www.w3.org/1999/xlink" x="0px" y="0px"
	 width="332px" height="324.5px" viewBox="0 0 332 324.5" enable-background="new 0 0 332 324.5" xml:space="preserve">
<g>
	<defs>
		<rect id="SVGID_1_" width="332" height="312.471"/>
	</defs>
	<clipPath id="SVGID_2_">
		<use xlink:href="#SVGID_1_"  overflow="visible"/>
	</clipPath>
	<path clip-path="url(#SVGID_2_)" d="M22.757,126.516h10.231c15.348,0,30.171,11.413,30.171,31.352
		c0,19.94-14.823,31.353-30.171,31.353H22.757V126.516z M4.392,203.649h25.056c28.072,0,52.865-9.444,52.865-45.782
		c0-36.336-24.792-45.781-52.865-45.781H4.392V203.649z"/>
	<path clip-path="url(#SVGID_2_)" d="M118.212,49.577c0-16.135,7.477-32.664,25.71-32.664c18.234,0,25.711,16.529,25.711,32.664
		c0,16.528-6.952,33.188-25.711,33.188C125.165,82.765,118.212,66.105,118.212,49.577 M99.06,49.577
		c0,28.072,15.479,47.618,44.863,47.618c28.99,0,44.863-19.939,44.863-47.618c0-27.679-16.136-47.093-44.863-47.093
		C114.802,2.483,99.06,21.504,99.06,49.577 M5.004,95.621H23.37V60.858h7.739c19.677,0,35.287-7.74,35.287-29.123
		c0-21.906-18.233-27.678-38.172-27.678H5.004V95.621z M23.37,18.487h6.428c9.444,0,17.447,3.673,17.447,14.298
		c0,10.626-8.265,13.642-17.447,13.642H23.37V18.487z"/>
	<path clip-path="url(#SVGID_2_)" fill="#FFFFFF" d="M248.981,187.557h9.1l-7.627,17.314h4.477l7.303-17.138v-3.416h-13.252V187.557
		z M233.463,189.146l2.062,2.681L239,189v15.871h4.122v-20.554h-3.652L233.463,189.146z M222.92,205.225
		c5.95,0,7.187-5.802,7.187-10.571c0-4.771-1.179-10.689-7.187-10.689c-5.563,0-7.126,5.535-7.126,10.689
		C215.794,198.953,216.591,205.225,222.92,205.225 M222.92,202.163c-3.032,0-3.002-4.919-3.002-7.51c0-2.65,0-7.628,3.002-7.628
		c3.064,0,3.064,4.978,3.064,7.628C225.984,197.244,226.013,202.163,222.92,202.163 M213.263,204.871v-3.239h-8.393
		c3.356-3.299,7.745-7.303,7.745-11.66c0-4.035-2.533-6.008-6.449-6.008c-2.091,0-4.24,0.53-6.096,1.472l0.324,3.416
		c1.354-0.883,3.003-1.648,4.74-1.648c1.68,0,3.357,0.884,3.357,2.769c0,3.769-6.979,9.6-8.894,11.454v3.445H213.263z"/>
	<path clip-path="url(#SVGID_2_)" d="M174.246,204.871h3.945v-7.42c0-1.944,0.618-5.036,3.474-5.036
		c2.533,0,2.562,2.502,2.562,4.358v8.098h3.946v-9.57c0-3.416-1.562-5.948-5.153-5.948c-2.062,0-3.74,0.677-4.977,2.414h-0.06
		v-2.062h-3.738V204.871z M170.034,200.807c-1.473,0.825-3.121,1.532-5.036,1.532c-2.444,0-4.152-1.384-4.329-3.828h10.484
		c0-5.301-1.59-9.158-7.215-9.158c-4.711,0-7.038,3.622-7.038,8.01c0,4.977,2.916,7.862,7.921,7.862c2.121,0,3.77-0.412,5.213-1.208
		V200.807z M160.669,195.802c0.177-2.032,1.296-3.562,3.505-3.562c2.208,0,3.092,1.648,3.209,3.562H160.669z M150.04,189.705v2.062
		h-0.059c-1.09-1.737-2.65-2.414-4.653-2.414c-4.535,0-6.419,4.211-6.419,7.862c0,4.064,1.708,7.656,6.184,7.656
		c2.208,0,3.975-1.119,4.711-2.415h0.059c0,2.621-0.206,5.891-4.563,5.891c-1.237,0-3.21-0.678-4.417-1.326l-0.323,3.356
		c1.884,0.796,3.68,1.032,5.24,1.032c6.361,0,8.01-3.889,8.01-8.011v-13.693H150.04z M146.389,201.809
		c-2.268,0-3.357-2.532-3.357-4.594c0-2.326,0.854-4.8,3.533-4.8c2.298,0,3.298,2.12,3.298,4.712
		C149.863,199.658,148.862,201.809,146.389,201.809 M126.306,200.483c0-2.326,2.621-2.62,4.387-2.62h1.708
		c0,1.178-0.177,2.268-0.824,3.121c-0.619,0.824-1.561,1.354-2.769,1.354C127.395,202.339,126.306,201.779,126.306,200.483
		 M124.303,193.888c1.325-1.001,3.003-1.648,4.682-1.648c2.326,0,3.416,0.823,3.416,3.268h-2.178c-1.649,0-3.594,0.147-5.096,0.884
		s-2.59,2.061-2.59,4.328c0,2.886,2.621,4.506,5.3,4.506c1.796,0,3.77-0.942,4.683-2.621h0.058c0.03,0.471,0.03,1.473,0.177,2.268
		h3.475c-0.088-1.178-0.147-2.238-0.177-3.387c-0.03-1.119-0.06-2.268-0.06-3.799v-1.943c0-4.475-1.914-6.39-6.538-6.39
		c-1.677,0-3.739,0.442-5.271,1.148L124.303,193.888z M106.724,187.557h2.296c3.445,0,6.773,2.561,6.773,7.036
		c0,4.478-3.328,7.039-6.773,7.039h-2.296V187.557z M102.601,204.871h5.624c6.301,0,11.868-2.12,11.868-10.278
		c0-8.155-5.566-10.275-11.868-10.275h-5.624V204.871z"/>
	<path clip-path="url(#SVGID_2_)" d="M230.989,155.557c-1.236-0.265-2.443-0.56-4.299-0.56c-3.091,0-5.948,1.443-5.948,4.712
		c0,5.478,6.861,3.445,6.861,6.42c0,1.473-1.591,1.855-2.591,1.855c-1.355,0-2.651-0.383-3.888-1.002l-0.235,3.239
		c1.443,0.382,2.973,0.647,4.476,0.647c3.21,0,6.361-1.413,6.361-4.946c0-5.479-6.861-3.946-6.861-6.36
		c0-1.296,1.266-1.68,2.326-1.68c1.443,0,2.326,0.236,3.533,0.648L230.989,155.557z M210.348,170.517h3.945v-5.566
		c0-2.179,0-6.184,3.21-6.184c0.707,0,1.414,0.118,1.768,0.324v-3.975c-0.413-0.118-0.825-0.118-1.208-0.118
		c-2.355,0-3.976,2.385-4.151,3.799h-0.06v-3.446h-3.504V170.517z M206.048,166.452c-1.472,0.825-3.12,1.532-5.034,1.532
		c-2.444,0-4.152-1.385-4.33-3.829h10.483c0-5.3-1.59-9.158-7.214-9.158c-4.712,0-7.038,3.622-7.038,8.01
		c0,4.978,2.914,7.862,7.921,7.862c2.12,0,3.77-0.412,5.212-1.207V166.452z M196.684,161.447c0.178-2.032,1.296-3.564,3.504-3.564
		c2.21,0,3.093,1.65,3.209,3.564H196.684z M185.996,170.517h3.827V148.43h-3.945v8.688h-0.06c-1.178-1.443-2.562-2.121-4.534-2.121
		c-4.653,0-6.361,3.711-6.361,7.892c0,4.152,1.708,7.98,6.361,7.98c1.854,0,3.474-0.589,4.652-2.061h0.06V170.517z M179.046,162.889
		c0-2.031,0.707-4.828,3.268-4.828c2.533,0,3.534,2.708,3.534,4.828c0,2.15-0.854,4.918-3.474,4.918
		C179.782,167.807,179.046,164.98,179.046,162.889 M167.797,152.583h3.945v-3.769h-3.945V152.583z M167.797,170.517h3.945v-15.166
		h-3.945V170.517z M163.498,166.452c-1.473,0.825-3.121,1.532-5.036,1.532c-2.444,0-4.152-1.385-4.329-3.829h10.484
		c0-5.3-1.59-9.158-7.215-9.158c-4.711,0-7.038,3.622-7.038,8.01c0,4.978,2.916,7.862,7.921,7.862c2.121,0,3.77-0.412,5.212-1.207
		V166.452z M154.133,161.447c0.177-2.032,1.296-3.564,3.505-3.564c2.208,0,3.091,1.65,3.209,3.564H154.133z M143.238,170.517h3.946
		V148.43h-3.946V170.517z M132.667,158.061c2.562,0,3.27,2.797,3.27,4.828c0,2.092-0.736,4.918-3.328,4.918
		c-2.621,0-3.475-2.768-3.475-4.918C129.133,160.769,130.135,158.061,132.667,158.061 M125.158,176.7h3.946v-7.922h0.06
		c1.384,1.679,2.767,2.091,4.445,2.091c4.742,0,6.45-3.828,6.45-7.98c0-4.181-1.708-7.892-6.36-7.892
		c-2.327,0-3.829,1.031-4.711,2.503h-0.06v-2.15h-3.769V176.7z M105.899,160.18c0-3.622,1.679-7.332,5.772-7.332
		c4.092,0,5.771,3.71,5.771,7.332c0,3.71-1.561,7.451-5.771,7.451C107.46,167.631,105.899,163.891,105.899,160.18 M101.6,160.18
		c0,6.302,3.475,10.689,10.071,10.689c6.507,0,10.07-4.477,10.07-10.689c0-6.213-3.622-10.571-10.07-10.571
		C105.134,149.609,101.6,153.878,101.6,160.18"/>
	<path clip-path="url(#SVGID_2_)" d="M188.969,136.161h3.946v-7.362h0.058l5.065,7.362h5.007l-6.36-8.393l5.653-6.773h-4.653
		l-4.712,6.067h-0.058v-12.986h-3.946V136.161z M180.782,118.229h3.946v-3.77h-3.946V118.229z M178.221,142.463
		c0.501,0.146,1.296,0.235,1.943,0.235c3.946,0,4.565-3.269,4.565-5.419v-16.284h-3.947v15.754c0,2.356-0.294,2.769-2.414,2.887
		L178.221,142.463z M172.597,118.229h3.946v-3.77h-3.946V118.229z M172.597,136.161h3.946v-15.166h-3.946V136.161z M162.35,131.597
		c0,3.004,1.708,4.917,4.8,4.917c1.178,0,2.09-0.118,2.915-0.354l-0.118-3.121c-0.412,0.264-1.089,0.412-1.796,0.412
		c-1.501,0-1.855-1.208-1.855-2.503v-7.067h3.503v-2.886h-3.503v-4.299l-3.946,1.266v3.033h-2.916v2.886h2.916V131.597z
		 M144.77,136.161h3.946v-7.362h0.058l5.065,7.362h5.006l-6.36-8.393l5.654-6.773h-4.653l-4.712,6.067h-0.058v-12.986h-3.946
		V136.161z M131.695,131.774c0-2.327,2.62-2.621,4.387-2.621h1.708c0,1.178-0.176,2.267-0.824,3.121
		c-0.619,0.826-1.562,1.355-2.769,1.355C132.784,133.629,131.695,133.069,131.695,131.774 M129.692,125.178
		c1.325-1.002,3.004-1.649,4.683-1.649c2.326,0,3.415,0.824,3.415,3.269h-2.179c-1.648,0-3.592,0.147-5.094,0.883
		c-1.502,0.737-2.591,2.062-2.591,4.329c0,2.886,2.621,4.506,5.301,4.506c1.796,0,3.769-0.942,4.682-2.621h0.059
		c0.03,0.472,0.03,1.473,0.177,2.268h3.474c-0.088-1.178-0.147-2.238-0.177-3.386c-0.029-1.119-0.059-2.268-0.059-3.799v-1.943
		c0-4.477-1.914-6.391-6.538-6.391c-1.679,0-3.74,0.442-5.271,1.149L129.692,125.178z M118.121,136.161h3.946v-5.565
		c0-2.179,0-6.184,3.209-6.184c0.706,0,1.413,0.117,1.767,0.323v-3.975c-0.412-0.118-0.824-0.118-1.207-0.118
		c-2.356,0-3.977,2.385-4.153,3.799h-0.059v-3.446h-3.503V136.161z M102.248,136.161h4.123v-7.803h1.737
		c4.418,0,7.921-1.739,7.921-6.538c0-4.917-4.092-6.213-8.568-6.213h-5.213V136.161z M106.371,118.846h1.443
		c2.12,0,3.917,0.824,3.917,3.21c0,2.385-1.855,3.062-3.917,3.062h-1.443V118.846z"/>
	<path clip-path="url(#SVGID_2_)" d="M279.062,303.778c0.353-1.704,1.593-3.926,2.87-3.926c0.537,0,0.685,0.37,0.685,0.611
		c0,0.223,0,0.963-0.833,1.74C281.137,302.815,279.693,303.593,279.062,303.778 M282.34,299.261c-1.352,0-2.389,1.443-2.721,2.037
		h-0.038l0.944-4.296c0.186-0.815,0.519-2.204,0.519-2.37c0-0.148-0.074-0.204-0.223-0.204c-0.277,0-1.556,0.186-2.426,0.186
		c-0.202,0-0.296,0.037-0.296,0.147c0,0.167,0.094,0.185,0.5,0.222c0.666,0.057,0.815,0.223,0.815,0.501
		c0,0.24-0.149,0.925-0.278,1.519l-2.203,10.128c-0.02,0.092-0.057,0.24-0.057,0.295c0,0.075,0.074,0.112,0.131,0.112h0.981
		c0.11,0,0.204-0.056,0.241-0.26l0.74-2.98l1.258-0.63c0.13-0.074,0.186-0.13,0.297-0.13c0.426,0,0.685,0.519,0.685,1.037
		c0,0.295-0.11,1.648-0.11,1.962c0,0.668,0.37,1.278,1.296,1.278c1.593,0,2.074-2.166,2.074-2.352c0-0.111-0.037-0.222-0.187-0.222
		c-0.147,0-0.185,0.259-0.276,0.555c-0.074,0.296-0.538,1.426-1.187,1.426c-0.11,0-0.388,0-0.388-0.426
		c0-0.481,0.056-0.981,0.056-1.463c0-1.519-0.852-1.759-1.704-1.962v-0.037c0.906-0.278,3.055-1.537,3.055-2.834
		C283.839,300.019,283.488,299.261,282.34,299.261 M274.935,300.315c0,0.982-1.149,2.833-3.556,3.796
		c0.963-3.258,2.111-4.5,2.963-4.5C274.674,299.611,274.935,299.853,274.935,300.315 M269.62,305.611
		c0,1.295,0.722,2.203,2.184,2.203c1.815,0,3.203-2.407,3.203-2.555c0-0.111-0.054-0.186-0.146-0.186
		c-0.074,0-0.13,0.056-0.224,0.186c-1.056,1.48-1.869,2.147-2.739,2.147c-0.63,0-0.963-0.427-0.963-1.166
		c0-0.5,0.222-1.39,0.352-1.741c3.24-1.166,4.63-2.61,4.63-3.87c0-0.74-0.481-1.369-1.371-1.369
		C272.138,299.261,269.62,303.093,269.62,305.611 M267.047,295.946c0,0.444,0.37,0.814,0.814,0.814c0.445,0,0.814-0.37,0.814-0.814
		s-0.369-0.814-0.814-0.814C267.417,295.132,267.047,295.502,267.047,295.946 M264.713,306.519c0,0.759,0.427,1.296,1.222,1.296
		c1.557,0,2.686-2.647,2.686-2.759s-0.056-0.204-0.186-0.204c-0.092,0-0.148,0.056-0.223,0.204c-0.777,1.555-1.498,2.24-1.906,2.24
		c-0.223,0-0.371-0.129-0.371-0.37c0-0.407,0.057-0.852,0.982-3c0.888-2.055,1.073-2.703,1.073-3.276
		c0-0.538-0.294-1.389-1.222-1.389c-1.314,0-2.463,2.276-2.463,2.462c0,0.13,0.036,0.222,0.13,0.222
		c0.093,0,0.167-0.036,0.223-0.147c0.389-0.926,1.165-2.019,1.758-2.019c0.224,0,0.353,0.167,0.353,0.464
		c0,0.332-0.111,0.852-0.89,2.702C264.861,305.333,264.713,305.944,264.713,306.519 M255.215,307.13
		c-0.02,0.092-0.055,0.24-0.055,0.295c0,0.075,0.072,0.112,0.129,0.112h0.981c0.111,0,0.204-0.056,0.241-0.26l0.665-2.592
		c0.557-2.186,1.981-4.833,3.26-4.833c0.444,0,0.647,0.166,0.647,0.797c0,0.852-1.203,4.758-1.203,5.832
		c0,0.666,0.37,1.333,1.277,1.333c1.573,0,2.277-2.555,2.277-2.796c0-0.093-0.037-0.167-0.129-0.167
		c-0.093,0-0.148,0.093-0.204,0.241c-0.333,0.963-0.87,2.129-1.537,2.129c-0.222,0-0.37-0.167-0.37-0.519
		c0-0.537,1.204-4.462,1.204-5.646c0-1.001-0.593-1.796-1.704-1.796c-1.5,0-2.5,1.962-3.074,2.999l-0.037-0.037
		c0.111-0.593,0.204-1,0.204-1.407c0-0.889-0.425-1.555-1.333-1.555c-1.573,0-2.277,2.555-2.277,2.795
		c0,0.094,0.036,0.167,0.13,0.167c0.11,0,0.167-0.093,0.204-0.241c0.426-1.444,1.074-2.129,1.443-2.129
		c0.353,0,0.52,0.24,0.52,0.852c0,0.353-0.112,1.389-0.297,2.167L255.215,307.13z M245.216,307.13
		c-0.018,0.092-0.055,0.24-0.055,0.295c0,0.075,0.074,0.112,0.13,0.112h0.98c0.112,0,0.203-0.056,0.24-0.26l0.444-1.76
		c0.761-3.036,2.037-5.665,3.389-5.665c0.464,0,0.667,0.166,0.667,0.797c0,0.852-1.203,4.888-1.203,5.832
		c0,0.889,0.427,1.333,1.222,1.333c1.574,0,2.332-2.555,2.332-2.796c0-0.093-0.036-0.167-0.146-0.167
		c-0.111,0-0.186,0.093-0.241,0.241c-0.37,0.963-0.907,2.129-1.444,2.129c-0.241,0-0.407-0.167-0.407-0.519
		c0-0.889,1.203-4.573,1.203-5.646c0-0.964-0.592-1.796-1.703-1.796c-1.37,0-2.295,1.573-2.889,2.721l-0.037-0.019l1.111-4.961
		c0.185-0.815,0.519-2.204,0.519-2.37c0-0.148-0.074-0.204-0.223-0.204c-0.277,0-1.555,0.186-2.426,0.186
		c-0.204,0-0.295,0.037-0.295,0.147c0,0.167,0.091,0.185,0.499,0.222c0.667,0.057,0.814,0.223,0.814,0.501
		c0,0.24-0.147,0.925-0.277,1.519L245.216,307.13z M238.274,305.611c0,1.295,0.721,2.203,2.258,2.203
		c1.666,0,3.129-2.37,3.129-2.555c0-0.111-0.055-0.186-0.148-0.186c-0.073,0-0.129,0.056-0.222,0.186
		c-1.056,1.48-1.87,2.147-2.74,2.147c-0.556,0-0.889-0.427-0.889-1.166c0-2.611,1.722-6.63,3.37-6.63
		c0.296,0,0.426,0.074,0.426,0.241c0,0.259-0.204,0.259-0.204,0.666c0,0.335,0.259,0.575,0.629,0.575
		c0.444,0,0.686-0.334,0.686-0.704c0-0.704-0.686-1.129-1.37-1.129C240.514,299.261,238.274,303.093,238.274,305.611
		 M236.385,300.315c0,0.982-1.147,2.833-3.555,3.796c0.962-3.258,2.111-4.5,2.963-4.5
		C236.126,299.611,236.385,299.853,236.385,300.315 M231.071,305.611c0,1.295,0.722,2.203,2.185,2.203
		c1.814,0,3.202-2.407,3.202-2.555c0-0.111-0.054-0.186-0.147-0.186c-0.074,0-0.13,0.056-0.222,0.186
		c-1.056,1.48-1.87,2.147-2.741,2.147c-0.629,0-0.962-0.427-0.962-1.166c0-0.5,0.222-1.39,0.351-1.741
		c3.24-1.166,4.63-2.61,4.63-3.87c0-0.74-0.481-1.369-1.37-1.369C233.588,299.261,231.071,303.093,231.071,305.611 M226.7,304.574
		c-0.129,0.593-0.333,1.444-0.333,1.981c0,1.019,0.687,1.259,1.296,1.259c0.815,0,1.223-0.37,1.76-1.147
		c0.166-0.261,0.796-1.5,0.796-1.667c0-0.111-0.019-0.203-0.166-0.203c-0.186,0-0.278,0.277-0.334,0.407
		c-0.24,0.518-0.907,2.092-1.61,2.092c-0.297,0-0.519-0.186-0.519-0.61c0-0.444,0.166-1.074,0.37-1.854l1.203-4.646h1.353
		c0.24,0,0.314-0.074,0.314-0.203c0-0.185-0.093-0.26-0.24-0.26h-1.334l0.537-1.962c0.056-0.186,0.093-0.314,0.093-0.481
		c0-0.37-0.389-0.407-0.685-0.407c-0.223,0-0.482,0.055-0.538,0.277l-0.721,2.573h-1.187c-0.239,0-0.351,0.056-0.351,0.26
		c0,0.166,0.129,0.203,0.259,0.203h1.185L226.7,304.574z M219.555,305.778c0-2.186,1.185-6.167,3.036-6.167
		c0.703,0,1.185,0.574,1.185,1.687c0,2.184-1.185,6.164-3.036,6.164C220.036,307.462,219.555,306.889,219.555,305.778
		 M218.239,304.907c0,1.796,1.019,2.907,2.426,2.907c2.666,0,4.426-3.499,4.426-5.647c0-1.796-1.02-2.906-2.426-2.906
		C219.999,299.261,218.239,302.76,218.239,304.907 M213.556,307.537l1.296-3.74c0.241-0.686,0.592-1.63,1.018-2.426
		c0.407-0.797,0.89-1.519,1.334-1.519c0.166,0,0.185,0.148,0.185,0.427c0,0.351,0.277,0.555,0.648,0.555
		c0.333,0,0.667-0.315,0.667-0.704c0-0.556-0.52-0.869-1.038-0.869c-1.5,0-2.518,2.629-2.833,3.499h-0.037
		c0.037-0.334,0.186-1.519,0.186-1.869c0-1.537-0.926-1.63-1.073-1.63c-1.019,0-1.777,1.462-2.314,2.48
		c-0.057,0.111-0.13,0.24-0.13,0.352c0,0.094,0.073,0.167,0.11,0.167c0.075,0,0.149-0.019,0.187-0.093
		c0.24-0.407,0.852-1.556,1.035-1.777c0.241-0.278,0.445-0.537,0.705-0.537c0.37,0,0.37,0.703,0.37,0.981
		c0,0.166-0.037,1.556-0.722,3.832l-0.871,2.871H213.556z M207.056,304.574c-0.129,0.593-0.333,1.444-0.333,1.981
		c0,1.019,0.686,1.259,1.296,1.259c0.815,0,1.223-0.37,1.76-1.147c0.166-0.261,0.796-1.5,0.796-1.667
		c0-0.111-0.019-0.203-0.167-0.203c-0.185,0-0.277,0.277-0.333,0.407c-0.24,0.518-0.907,2.092-1.611,2.092
		c-0.295,0-0.519-0.186-0.519-0.61c0-0.444,0.167-1.074,0.371-1.854l1.203-4.646h1.352c0.241,0,0.315-0.074,0.315-0.203
		c0-0.185-0.094-0.26-0.241-0.26h-1.333l0.537-1.962c0.056-0.186,0.093-0.314,0.093-0.481c0-0.37-0.389-0.407-0.686-0.407
		c-0.222,0-0.481,0.055-0.536,0.277l-0.723,2.573h-1.185c-0.241,0-0.353,0.056-0.353,0.26c0,0.166,0.13,0.203,0.259,0.203h1.186
		L207.056,304.574z M199.446,305.611c0,1.295,0.723,2.203,2.26,2.203c1.666,0,3.13-2.37,3.13-2.555c0-0.111-0.058-0.186-0.15-0.186
		c-0.073,0-0.128,0.056-0.221,0.186c-1.056,1.48-1.87,2.147-2.74,2.147c-0.556,0-0.891-0.427-0.891-1.166
		c0-2.611,1.723-6.63,3.37-6.63c0.297,0,0.427,0.074,0.427,0.241c0,0.259-0.203,0.259-0.203,0.666c0,0.335,0.258,0.575,0.629,0.575
		c0.444,0,0.685-0.334,0.685-0.704c0-0.704-0.685-1.129-1.37-1.129C201.687,299.261,199.446,303.093,199.446,305.611
		 M197.558,300.315c0,0.982-1.146,2.833-3.555,3.796c0.963-3.258,2.11-4.5,2.963-4.5
		C197.299,299.611,197.558,299.853,197.558,300.315 M192.243,305.611c0,1.295,0.724,2.203,2.187,2.203
		c1.814,0,3.202-2.407,3.202-2.555c0-0.111-0.056-0.186-0.148-0.186c-0.073,0-0.129,0.056-0.221,0.186
		c-1.056,1.48-1.87,2.147-2.741,2.147c-0.629,0-0.962-0.427-0.962-1.166c0-0.5,0.222-1.39,0.351-1.741
		c3.24-1.166,4.629-2.61,4.629-3.87c0-0.74-0.481-1.369-1.37-1.369C194.762,299.261,192.243,303.093,192.243,305.611
		 M187.689,304.26c-0.11,0.5-0.334,1.519-0.334,2.203c0,1.111,0.797,1.352,1.371,1.352c1.796,0,2.518-2.463,2.518-2.647
		c0-0.093,0-0.26-0.147-0.26c-0.093,0-0.204,0.093-0.241,0.241c-0.593,1.647-1.277,2.147-1.74,2.147
		c-0.37,0-0.444-0.426-0.444-0.703c0-0.464,0.333-2.168,0.407-2.463l1.593-7.128c0.185-0.815,0.517-2.204,0.517-2.37
		c0-0.148-0.073-0.204-0.221-0.204c-0.277,0-1.556,0.186-2.426,0.186c-0.204,0-0.296,0.037-0.296,0.147
		c0,0.167,0.092,0.185,0.5,0.222c0.666,0.057,0.814,0.223,0.814,0.501c0,0.24-0.148,0.925-0.278,1.519L187.689,304.26z
		 M185.208,300.315c0,0.982-1.148,2.833-3.555,3.796c0.963-3.258,2.111-4.5,2.963-4.5
		C184.949,299.611,185.208,299.853,185.208,300.315 M179.894,305.611c0,1.295,0.722,2.203,2.185,2.203
		c1.815,0,3.204-2.407,3.204-2.555c0-0.111-0.055-0.186-0.148-0.186c-0.073,0-0.13,0.056-0.222,0.186
		c-1.056,1.48-1.871,2.147-2.74,2.147c-0.629,0-0.963-0.427-0.963-1.166c0-0.5,0.222-1.39,0.353-1.741
		c3.239-1.166,4.628-2.61,4.628-3.87c0-0.74-0.48-1.369-1.369-1.369C182.413,299.261,179.894,303.093,179.894,305.611
		 M165.489,307.13c-0.018,0.092-0.055,0.24-0.055,0.295c0,0.075,0.074,0.112,0.13,0.112h0.981c0.11,0,0.203-0.056,0.24-0.26
		l0.667-2.592c0.556-2.186,1.981-4.833,3.259-4.833c0.444,0,0.648,0.166,0.648,0.797c0,0.852-1.205,4.758-1.205,5.832
		c0,0.666,0.37,1.333,1.279,1.333c1.572,0,2.277-2.555,2.277-2.796c0-0.093-0.037-0.167-0.13-0.167
		c-0.094,0-0.148,0.093-0.203,0.241c-0.335,0.963-0.872,2.129-1.537,2.129c-0.224,0-0.371-0.167-0.371-0.519
		c0-0.537,1.203-4.462,1.203-5.646c0-1.001-0.592-1.796-1.703-1.796c-1.5,0-2.499,1.962-3.073,2.999l-0.037-0.037
		c0.111-0.593,0.204-1,0.204-1.407c0-0.889-0.427-1.555-1.334-1.555c-1.573,0-2.277,2.555-2.277,2.795
		c0,0.094,0.038,0.167,0.13,0.167c0.111,0,0.166-0.093,0.203-0.241c0.425-1.444,1.074-2.129,1.445-2.129
		c0.352,0,0.518,0.24,0.518,0.852c0,0.353-0.111,1.389-0.296,2.167L165.489,307.13z M162.564,300.315
		c0,0.982-1.148,2.833-3.556,3.796c0.963-3.258,2.111-4.5,2.963-4.5C162.305,299.611,162.564,299.853,162.564,300.315
		 M157.25,305.611c0,1.295,0.722,2.203,2.185,2.203c1.814,0,3.203-2.407,3.203-2.555c0-0.111-0.055-0.186-0.148-0.186
		c-0.074,0-0.129,0.056-0.221,0.186c-1.056,1.48-1.87,2.147-2.741,2.147c-0.629,0-0.963-0.427-0.963-1.166
		c0-0.5,0.223-1.39,0.353-1.741c3.24-1.166,4.628-2.61,4.628-3.87c0-0.74-0.481-1.369-1.37-1.369
		C159.769,299.261,157.25,303.093,157.25,305.611 M150.64,304.167l0.259-1.223h-4.554l-0.26,1.223H150.64z M138.919,300.315
		c0,0.982-1.147,2.833-3.554,3.796c0.962-3.258,2.11-4.5,2.963-4.5C138.661,299.611,138.919,299.853,138.919,300.315
		 M133.606,305.611c0,1.295,0.722,2.203,2.185,2.203c1.814,0,3.203-2.407,3.203-2.555c0-0.111-0.056-0.186-0.147-0.186
		c-0.074,0-0.13,0.056-0.223,0.186c-1.056,1.48-1.87,2.147-2.74,2.147c-0.63,0-0.963-0.427-0.963-1.166
		c0-0.5,0.222-1.39,0.352-1.741c3.24-1.166,4.628-2.61,4.628-3.87c0-0.74-0.481-1.369-1.37-1.369
		C136.124,299.261,133.606,303.093,133.606,305.611 M129.94,300.891c0,1.535-1.556,6.46-3.537,6.46c-0.277,0-1.019,0-1.019-1.239
		c0-1.687,1.686-6.443,3.593-6.443C129.625,299.668,129.94,300.223,129.94,300.891 M130.236,300.205h-0.037
		c-0.129-0.333-0.37-0.944-1.389-0.944c-2.425,0-4.74,3.795-4.74,5.999c0,1.259,0.63,2.555,2.074,2.555
		c1.555,0,2.296-1.463,2.962-2.74h0.037c-0.074,0.296-0.186,1.092-0.186,1.593c0,0.666,0.352,1.147,1.056,1.147
		c1.574,0,2.556-2.833,2.556-2.945c0-0.146-0.075-0.184-0.149-0.221c-0.167,0.037-0.186,0.074-0.352,0.481
		c-0.537,1.333-1.241,2.166-1.592,2.166c-0.296,0-0.352-0.315-0.352-0.593c0-0.518,0.296-2.166,0.555-3.073l2.371-8.591
		c0.055-0.167,0.092-0.315,0.092-0.426c0-0.111-0.073-0.186-0.24-0.186c-0.167,0-1.26,0.167-2.444,0.296
		c-0.167,0.018-0.204,0.074-0.204,0.167c0,0.148,0.037,0.167,0.444,0.204c0.5,0.055,0.76,0.147,0.76,0.444
		c0,0.166-0.019,0.295-0.111,0.61L130.236,300.205z M116.331,299.261c-1.574,0-2.277,2.555-2.277,2.795
		c0,0.094,0.037,0.167,0.13,0.167c0.092,0,0.147-0.093,0.203-0.241c0.481-1.407,1-2.129,1.519-2.129
		c0.222,0,0.389,0.166,0.389,0.481c0,0.52-1.204,4.498-1.204,5.685c0,0.962,0.593,1.796,1.703,1.796c1.5,0,2.5-1.963,3.074-2.999
		l0.037,0.036c-0.111,0.593-0.204,1-0.204,1.408c0,0.888,0.426,1.555,1.333,1.555c1.574,0,2.278-2.555,2.278-2.796
		c0-0.093-0.056-0.167-0.149-0.167c-0.111,0-0.186,0.074-0.24,0.241c-0.426,1.443-1.074,2.129-1.444,2.129
		c-0.296,0-0.462-0.241-0.462-0.853c0-0.351,0.11-1.388,0.295-2.165l0.945-4.389c0.019-0.093,0.055-0.222,0.055-0.297
		c0-0.073-0.074-0.11-0.186-0.11h-0.925c-0.112,0-0.203,0.057-0.24,0.26l-0.648,2.722c-0.519,2.185-1.87,4.832-3.184,4.832
		c-0.445,0-0.723-0.222-0.723-0.686c0-0.962,1.204-4.943,1.204-5.869C117.609,299.76,117.238,299.261,116.331,299.261
		 M107.314,305.778c0-2.186,1.186-6.167,3.037-6.167c0.704,0,1.185,0.574,1.185,1.687c0,2.184-1.185,6.164-3.036,6.164
		C107.795,307.462,107.314,306.889,107.314,305.778 M106,304.907c0,1.796,1.019,2.907,2.425,2.907c2.666,0,4.425-3.499,4.425-5.647
		c0-1.796-1.019-2.906-2.425-2.906C107.758,299.261,106,302.76,106,304.907 M99.853,303.778c0.352-1.704,1.593-3.926,2.871-3.926
		c0.537,0,0.685,0.37,0.685,0.611c0,0.223,0,0.963-0.834,1.74C101.927,302.815,100.482,303.593,99.853,303.778 M103.13,299.261
		c-1.352,0-2.389,1.443-2.722,2.037h-0.037l0.944-4.296c0.185-0.815,0.519-2.204,0.519-2.37c0-0.148-0.075-0.204-0.223-0.204
		c-0.278,0-1.556,0.186-2.426,0.186c-0.203,0-0.296,0.037-0.296,0.147c0,0.167,0.093,0.185,0.5,0.222
		c0.666,0.057,0.814,0.223,0.814,0.501c0,0.24-0.149,0.925-0.277,1.519l-2.204,10.128c-0.019,0.092-0.056,0.24-0.056,0.295
		c0,0.075,0.075,0.112,0.13,0.112h0.981c0.111,0,0.204-0.056,0.241-0.26l0.741-2.98l1.259-0.63c0.129-0.074,0.186-0.13,0.296-0.13
		c0.426,0,0.685,0.519,0.685,1.037c0,0.295-0.11,1.648-0.11,1.962c0,0.668,0.37,1.278,1.295,1.278c1.593,0,2.074-2.166,2.074-2.352
		c0-0.111-0.038-0.222-0.186-0.222c-0.148,0-0.186,0.259-0.278,0.555c-0.074,0.296-0.537,1.426-1.185,1.426
		c-0.111,0-0.389,0-0.389-0.426c0-0.481,0.056-0.981,0.056-1.463c0-1.519-0.852-1.759-1.704-1.962v-0.037
		c0.908-0.278,3.056-1.537,3.056-2.834C104.63,300.019,104.278,299.261,103.13,299.261 M88.873,306.74
		c0,0.573,0.353,0.926,0.908,0.926c0.203,0,0.407-0.055,0.573-0.222c-0.018,1.036-0.592,1.87-1.721,2.425
		c-0.593,0.297-0.667,0.407-0.667,0.501c0,0.055,0.019,0.147,0.167,0.147c0.389,0,2.963-1.111,2.963-3.351
		c0-0.704-0.463-1.353-1.204-1.353C89.299,305.814,88.873,306.223,88.873,306.74 M81.634,304.167l0.259-1.223h-4.555l-0.26,1.223
		H81.634z M75.061,300.315c0,0.982-1.148,2.833-3.555,3.796c0.963-3.258,2.11-4.5,2.963-4.5
		C74.802,299.611,75.061,299.853,75.061,300.315 M69.746,305.611c0,1.295,0.723,2.203,2.186,2.203c1.814,0,3.203-2.407,3.203-2.555
		c0-0.111-0.055-0.186-0.147-0.186c-0.074,0-0.129,0.056-0.223,0.186c-1.055,1.48-1.87,2.147-2.74,2.147
		c-0.629,0-0.963-0.427-0.963-1.166c0-0.5,0.222-1.39,0.352-1.741c3.24-1.166,4.628-2.61,4.628-3.87c0-0.74-0.481-1.369-1.37-1.369
		C72.265,299.261,69.746,303.093,69.746,305.611 M67.173,295.946c0,0.444,0.37,0.814,0.814,0.814s0.814-0.37,0.814-0.814
		s-0.37-0.814-0.814-0.814S67.173,295.502,67.173,295.946 M64.84,306.519c0,0.759,0.426,1.296,1.222,1.296
		c1.556,0,2.685-2.647,2.685-2.759s-0.055-0.204-0.185-0.204c-0.093,0-0.148,0.056-0.223,0.204c-0.777,1.555-1.499,2.24-1.906,2.24
		c-0.222,0-0.371-0.129-0.371-0.37c0-0.407,0.056-0.852,0.981-3c0.889-2.055,1.074-2.703,1.074-3.276
		c0-0.538-0.296-1.389-1.222-1.389c-1.314,0-2.463,2.276-2.463,2.462c0,0.13,0.037,0.222,0.13,0.222
		c0.092,0,0.167-0.036,0.223-0.147c0.389-0.926,1.166-2.019,1.758-2.019c0.223,0,0.352,0.167,0.352,0.464
		c0,0.332-0.11,0.852-0.888,2.702C64.988,305.333,64.84,305.944,64.84,306.519 M59.859,304.574c-0.13,0.593-0.333,1.444-0.333,1.981
		c0,1.019,0.685,1.259,1.296,1.259c0.814,0,1.222-0.37,1.759-1.147c0.167-0.261,0.796-1.5,0.796-1.667
		c0-0.111-0.018-0.203-0.167-0.203c-0.186,0-0.277,0.277-0.333,0.407c-0.241,0.518-0.907,2.092-1.611,2.092
		c-0.296,0-0.519-0.186-0.519-0.61c0-0.444,0.167-1.074,0.37-1.854l1.204-4.646h1.352c0.241,0,0.314-0.074,0.314-0.203
		c0-0.185-0.091-0.26-0.24-0.26h-1.333l0.537-1.962c0.055-0.186,0.092-0.314,0.092-0.481c0-0.37-0.389-0.407-0.685-0.407
		c-0.223,0-0.481,0.055-0.537,0.277l-0.723,2.573h-1.185c-0.241,0-0.351,0.056-0.351,0.26c0,0.166,0.128,0.203,0.259,0.203h1.185
		L59.859,304.574z M51.287,306.019c0-1.981,2.073-6.351,3.87-6.351c0.5,0,0.926,0.314,0.926,1.129c0,1.296-1.796,6.61-3.87,6.61
		C51.657,307.407,51.287,306.906,51.287,306.019 M49.972,305.352c0,1.537,0.779,2.463,2.148,2.463c1.148,0,2.13-0.963,2.87-2.5
		l0.037,0.037c-0.093,0.427-0.223,0.98-0.223,1.278c0,0.74,0.371,1.185,1.167,1.185c1.574,0,2.277-2.555,2.277-2.74
		c0-0.111-0.037-0.223-0.166-0.223c-0.111,0-0.186,0.074-0.223,0.241c-0.389,1.443-1.074,2.129-1.426,2.129
		c-0.259,0-0.407-0.167-0.407-0.481c0-0.462,0.203-2.259,1.463-5.999c0.148-0.481,0.259-0.759,0.259-0.943
		c0-0.187-0.203-0.39-0.74-0.39c-0.278,0-0.37,0.223-0.574,1.092l-0.037-0.018c-0.074-0.63-0.5-1.222-1.463-1.222
		C52.75,299.261,49.972,302.704,49.972,305.352 M45.639,304.26c-0.11,0.5-0.333,1.519-0.333,2.203c0,1.111,0.796,1.352,1.37,1.352
		c1.797,0,2.518-2.463,2.518-2.647c0-0.093,0-0.26-0.148-0.26c-0.092,0-0.203,0.093-0.241,0.241
		c-0.592,1.647-1.278,2.147-1.741,2.147c-0.37,0-0.444-0.426-0.444-0.703c0-0.464,0.334-2.168,0.407-2.463l1.593-7.128
		c0.185-0.815,0.519-2.204,0.519-2.37c0-0.148-0.074-0.204-0.222-0.204c-0.278,0-1.556,0.186-2.426,0.186
		c-0.204,0-0.297,0.037-0.297,0.147c0,0.167,0.093,0.185,0.5,0.222c0.667,0.057,0.815,0.223,0.815,0.501
		c0,0.24-0.148,0.925-0.278,1.519L45.639,304.26z M40.492,304.26c-0.111,0.5-0.333,1.519-0.333,2.203
		c0,1.111,0.796,1.352,1.37,1.352c1.796,0,2.518-2.463,2.518-2.647c0-0.093,0-0.26-0.148-0.26c-0.093,0-0.204,0.093-0.241,0.241
		c-0.592,1.647-1.277,2.147-1.74,2.147c-0.37,0-0.444-0.426-0.444-0.703c0-0.464,0.333-2.168,0.407-2.463l1.593-7.128
		c0.185-0.815,0.518-2.204,0.518-2.37c0-0.148-0.074-0.204-0.222-0.204c-0.277,0-1.556,0.186-2.426,0.186
		c-0.203,0-0.296,0.037-0.296,0.147c0,0.167,0.093,0.185,0.5,0.222c0.666,0.057,0.814,0.223,0.814,0.501
		c0,0.24-0.148,0.925-0.277,1.519L40.492,304.26z M31.734,306.019c0-1.981,2.074-6.351,3.87-6.351c0.5,0,0.926,0.314,0.926,1.129
		c0,1.296-1.796,6.61-3.87,6.61C32.104,307.407,31.734,306.906,31.734,306.019 M30.42,305.352c0,1.537,0.777,2.463,2.147,2.463
		c1.148,0,2.13-0.963,2.871-2.5l0.036,0.037c-0.092,0.427-0.222,0.98-0.222,1.278c0,0.74,0.37,1.185,1.166,1.185
		c1.574,0,2.278-2.555,2.278-2.74c0-0.111-0.037-0.223-0.167-0.223c-0.111,0-0.186,0.074-0.222,0.241
		c-0.39,1.443-1.074,2.129-1.426,2.129c-0.26,0-0.408-0.167-0.408-0.481c0-0.462,0.204-2.259,1.463-5.999
		c0.148-0.481,0.26-0.759,0.26-0.943c0-0.187-0.204-0.39-0.741-0.39c-0.277,0-0.37,0.223-0.573,1.092l-0.037-0.018
		c-0.074-0.63-0.5-1.222-1.463-1.222C33.197,299.261,30.42,302.704,30.42,305.352 M26.087,304.574
		c-0.13,0.593-0.334,1.444-0.334,1.981c0,1.019,0.686,1.259,1.297,1.259c0.814,0,1.222-0.37,1.758-1.147
		c0.167-0.261,0.796-1.5,0.796-1.667c0-0.111-0.018-0.203-0.166-0.203c-0.186,0-0.278,0.277-0.333,0.407
		c-0.241,0.518-0.909,2.092-1.611,2.092c-0.297,0-0.519-0.186-0.519-0.61c0-0.444,0.167-1.074,0.37-1.854l1.204-4.646h1.352
		c0.241,0,0.314-0.074,0.314-0.203c0-0.185-0.093-0.26-0.24-0.26h-1.334l0.537-1.962c0.056-0.186,0.093-0.314,0.093-0.481
		c0-0.37-0.388-0.407-0.685-0.407c-0.223,0-0.481,0.055-0.537,0.277l-0.723,2.573h-1.184c-0.241,0-0.353,0.056-0.353,0.26
		c0,0.166,0.13,0.203,0.26,0.203h1.185L26.087,304.574z M18.718,306.223c0,0.999,0.87,1.592,2.186,1.592
		c2.036,0,2.87-1.37,2.87-2.592c0-0.648-0.167-1.037-1-2.148c-1.055-1.389-1.204-1.814-1.204-2.24c0-0.778,0.592-1.223,1.37-1.223
		c0.63,0,0.834,0.204,0.834,0.648s0.11,0.631,0.462,0.631c0.296,0,0.463-0.187,0.463-0.501c0-0.648-0.722-1.129-1.667-1.129
		c-1.314,0-2.5,0.777-2.5,2.24c0,0.703,0.148,1.166,1.315,2.74c0.74,1,0.889,1.333,0.889,1.796c0,0.703-0.63,1.425-1.704,1.425
		c-0.722,0-1.277-0.295-1.277-0.795c0-0.186,0.074-0.372,0.074-0.556c0-0.278-0.204-0.537-0.556-0.537
		C18.959,305.574,18.718,305.796,18.718,306.223 M10.257,307.13c-0.019,0.092-0.056,0.24-0.056,0.295
		c0,0.075,0.074,0.112,0.13,0.112h0.98c0.111,0,0.204-0.056,0.241-0.26l0.667-2.592c0.555-2.186,1.981-4.833,3.258-4.833
		c0.444,0,0.648,0.166,0.648,0.797c0,0.852-1.204,4.758-1.204,5.832c0,0.666,0.37,1.333,1.277,1.333
		c1.574,0,2.278-2.555,2.278-2.796c0-0.093-0.037-0.167-0.129-0.167c-0.093,0-0.148,0.093-0.204,0.241
		c-0.333,0.963-0.87,2.129-1.537,2.129c-0.223,0-0.371-0.167-0.371-0.519c0-0.537,1.204-4.462,1.204-5.646
		c0-1.001-0.592-1.796-1.704-1.796c-1.5,0-2.499,1.962-3.073,2.999l-0.037-0.037c0.111-0.593,0.203-1,0.203-1.407
		c0-0.889-0.426-1.555-1.333-1.555c-1.574,0-2.277,2.555-2.277,2.795c0,0.094,0.037,0.167,0.13,0.167
		c0.11,0,0.166-0.093,0.203-0.241c0.426-1.444,1.074-2.129,1.444-2.129c0.352,0,0.519,0.24,0.519,0.852
		c0,0.353-0.111,1.389-0.296,2.167L10.257,307.13z M6.646,295.946c0,0.444,0.37,0.814,0.814,0.814c0.445,0,0.815-0.37,0.815-0.814
		s-0.37-0.814-0.815-0.814C7.016,295.132,6.646,295.502,6.646,295.946 M4.313,306.519c0,0.759,0.426,1.296,1.222,1.296
		c1.556,0,2.685-2.647,2.685-2.759s-0.056-0.204-0.185-0.204c-0.093,0-0.147,0.056-0.222,0.204c-0.778,1.555-1.5,2.24-1.907,2.24
		c-0.223,0-0.371-0.129-0.371-0.37c0-0.407,0.056-0.852,0.981-3c0.89-2.055,1.074-2.703,1.074-3.276
		c0-0.538-0.295-1.389-1.221-1.389c-1.315,0-2.463,2.276-2.463,2.462c0,0.13,0.037,0.222,0.13,0.222
		c0.092,0,0.167-0.036,0.222-0.147c0.389-0.926,1.167-2.019,1.759-2.019c0.223,0,0.353,0.167,0.353,0.464
		c0,0.332-0.111,0.852-0.889,2.702C4.461,305.333,4.313,305.944,4.313,306.519"/>
	<path clip-path="url(#SVGID_2_)" d="M325.999,273.412c0,0.573,0.351,0.927,0.907,0.927c0.204,0,0.407-0.056,0.574-0.223
		c-0.019,1.037-0.593,1.869-1.723,2.425c-0.592,0.296-0.667,0.407-0.667,0.5c0,0.057,0.02,0.148,0.166,0.148
		c0.391,0,2.963-1.11,2.963-3.351c0-0.704-0.462-1.353-1.202-1.353C326.425,272.486,325.999,272.893,325.999,273.412
		 M320.814,270.932c-0.11,0.5-0.334,1.518-0.334,2.203c0,1.111,0.798,1.352,1.371,1.352c1.796,0,2.518-2.463,2.518-2.647
		c0-0.093,0-0.26-0.147-0.26c-0.093,0-0.204,0.093-0.241,0.241c-0.593,1.647-1.277,2.147-1.74,2.147
		c-0.371,0-0.444-0.427-0.444-0.703c0-0.463,0.334-2.167,0.407-2.463l1.593-7.128c0.185-0.815,0.518-2.204,0.518-2.37
		c0-0.148-0.074-0.204-0.222-0.204c-0.278,0-1.555,0.186-2.426,0.186c-0.204,0-0.296,0.037-0.296,0.147
		c0,0.167,0.092,0.186,0.499,0.223c0.668,0.056,0.815,0.222,0.815,0.5c0,0.239-0.147,0.926-0.278,1.519L320.814,270.932z
		 M312.057,272.689c0-1.98,2.074-6.351,3.87-6.351c0.499,0,0.926,0.314,0.926,1.13c0,1.296-1.796,6.61-3.87,6.61
		C312.427,274.079,312.057,273.579,312.057,272.689 M310.743,272.023c0,1.537,0.776,2.463,2.146,2.463c1.148,0,2.13-0.963,2.87-2.5
		l0.037,0.037c-0.093,0.426-0.223,0.981-0.223,1.276c0,0.742,0.371,1.187,1.167,1.187c1.574,0,2.276-2.555,2.276-2.74
		c0-0.111-0.037-0.223-0.166-0.223c-0.111,0-0.186,0.074-0.222,0.241c-0.39,1.444-1.075,2.129-1.426,2.129
		c-0.26,0-0.408-0.166-0.408-0.481c0-0.463,0.205-2.259,1.463-5.998c0.148-0.481,0.26-0.761,0.26-0.944
		c0-0.186-0.203-0.389-0.74-0.389c-0.277,0-0.37,0.221-0.574,1.092l-0.037-0.02c-0.074-0.628-0.501-1.222-1.463-1.222
		C313.52,265.932,310.743,269.376,310.743,272.023 M302.799,272.689c0-1.98,2.073-6.351,3.87-6.351c0.5,0,0.925,0.314,0.925,1.13
		c0,1.296-1.795,6.61-3.869,6.61C303.169,274.079,302.799,273.579,302.799,272.689 M301.484,272.023
		c0,1.537,0.777,2.463,2.147,2.463c1.148,0,2.129-0.963,2.869-2.5l0.037,0.037c-0.092,0.426-0.221,0.981-0.221,1.276
		c0,0.742,0.37,1.187,1.166,1.187c1.573,0,2.278-2.555,2.278-2.74c0-0.111-0.037-0.223-0.168-0.223c-0.11,0-0.186,0.074-0.223,0.241
		c-0.389,1.444-1.072,2.129-1.425,2.129c-0.259,0-0.407-0.166-0.407-0.481c0-0.463,0.204-2.259,1.462-5.998
		c0.149-0.481,0.26-0.761,0.26-0.944c0-0.186-0.204-0.389-0.741-0.389c-0.277,0-0.369,0.221-0.573,1.092l-0.038-0.02
		c-0.073-0.628-0.499-1.222-1.462-1.222C304.262,265.932,301.484,269.376,301.484,272.023 M297.152,271.246
		c-0.131,0.593-0.335,1.443-0.335,1.981c0,1.019,0.686,1.259,1.297,1.259c0.814,0,1.222-0.37,1.76-1.148
		c0.167-0.259,0.795-1.499,0.795-1.666c0-0.111-0.018-0.203-0.166-0.203c-0.186,0-0.278,0.277-0.334,0.407
		c-0.24,0.519-0.906,2.092-1.61,2.092c-0.297,0-0.518-0.185-0.518-0.61c0-0.444,0.166-1.074,0.37-1.853l1.203-4.647h1.353
		c0.239,0,0.313-0.074,0.313-0.204c0-0.184-0.093-0.258-0.24-0.258h-1.334l0.538-1.963c0.055-0.186,0.092-0.314,0.092-0.481
		c0-0.37-0.389-0.407-0.686-0.407c-0.221,0-0.481,0.056-0.536,0.275l-0.723,2.576h-1.185c-0.241,0-0.353,0.055-0.353,0.258
		c0,0.167,0.131,0.204,0.261,0.204h1.185L297.152,271.246z M294.855,266.987c0,0.981-1.147,2.833-3.555,3.796
		c0.963-3.258,2.11-4.499,2.963-4.499C294.597,266.284,294.855,266.525,294.855,266.987 M289.542,272.283
		c0,1.296,0.722,2.203,2.185,2.203c1.814,0,3.203-2.407,3.203-2.555c0-0.111-0.056-0.186-0.148-0.186
		c-0.073,0-0.129,0.056-0.222,0.186c-1.056,1.48-1.87,2.147-2.74,2.147c-0.63,0-0.963-0.426-0.963-1.166
		c0-0.5,0.222-1.39,0.353-1.741c3.239-1.167,4.627-2.61,4.627-3.87c0-0.739-0.48-1.37-1.369-1.37
		C292.061,265.932,289.542,269.766,289.542,272.283 M276.174,273.802c-0.019,0.092-0.056,0.24-0.056,0.296
		c0,0.074,0.074,0.111,0.13,0.111h0.98c0.112,0,0.204-0.057,0.241-0.261l0.666-2.591c0.556-2.167,1.981-4.832,3.037-4.832
		c0.352,0,0.519,0.24,0.519,0.852c0,0.352-0.111,1.388-0.297,2.166l-0.963,4.259c-0.019,0.092-0.056,0.24-0.056,0.296
		c0,0.074,0.074,0.111,0.131,0.111h0.98c0.112,0,0.204-0.057,0.241-0.261l0.666-2.591c0.556-2.186,2.019-4.832,3.204-4.832
		c0.351,0,0.554,0.277,0.554,0.794c0,0.853-1.202,4.76-1.202,5.834c0,0.667,0.37,1.333,1.276,1.333c1.575,0,2.278-2.555,2.278-2.796
		c0-0.093-0.037-0.167-0.13-0.167c-0.092,0-0.148,0.093-0.204,0.241c-0.332,0.963-0.869,2.129-1.536,2.129
		c-0.222,0-0.37-0.166-0.37-0.518c0-0.537,1.204-4.462,1.204-5.647c0-0.963-0.594-1.797-1.574-1.797c-1.5,0-2.5,1.944-3.056,3
		l-0.037-0.037c0.111-0.592,0.204-0.999,0.204-1.406c0-0.889-0.444-1.557-1.37-1.557c-1.5,0-2.5,1.944-3.056,3l-0.037-0.037
		c0.111-0.592,0.204-0.999,0.204-1.406c0-0.889-0.425-1.557-1.332-1.557c-1.444,0-2.278,2.314-2.278,2.796
		c0,0.093,0.056,0.167,0.147,0.167c0.112,0,0.187-0.074,0.241-0.241c0.427-1.443,1.074-2.128,1.444-2.128
		c0.297,0,0.463,0.24,0.463,0.852c0,0.352-0.111,1.388-0.296,2.166L276.174,273.802z M263.028,272.893
		c0,1.001,0.869,1.594,2.185,1.594c2.037,0,2.869-1.37,2.869-2.592c0-0.648-0.167-1.037-0.999-2.148
		c-1.056-1.389-1.204-1.813-1.204-2.24c0-0.777,0.593-1.222,1.371-1.222c0.628,0,0.832,0.204,0.832,0.648s0.111,0.629,0.464,0.629
		c0.296,0,0.462-0.185,0.462-0.5c0-0.648-0.722-1.13-1.666-1.13c-1.314,0-2.499,0.777-2.499,2.24c0,0.705,0.146,1.167,1.314,2.741
		c0.74,1,0.889,1.333,0.889,1.796c0,0.703-0.63,1.426-1.703,1.426c-0.723,0-1.279-0.296-1.279-0.797c0-0.185,0.074-0.37,0.074-0.555
		c0-0.278-0.203-0.537-0.555-0.537C263.269,272.246,263.028,272.468,263.028,272.893 M258.843,274.209l1.297-3.74
		c0.24-0.686,0.593-1.63,1.018-2.426c0.408-0.796,0.89-1.518,1.334-1.518c0.166,0,0.185,0.147,0.185,0.425
		c0,0.352,0.278,0.556,0.648,0.556c0.332,0,0.667-0.315,0.667-0.703c0-0.557-0.519-0.871-1.037-0.871c-1.5,0-2.519,2.63-2.832,3.5
		h-0.038c0.038-0.334,0.185-1.519,0.185-1.87c0-1.536-0.926-1.63-1.074-1.63c-1.017,0-1.777,1.463-2.313,2.481
		c-0.056,0.111-0.129,0.24-0.129,0.352c0,0.093,0.073,0.167,0.109,0.167c0.074,0,0.148-0.018,0.186-0.093
		c0.24-0.406,0.852-1.555,1.037-1.777c0.24-0.278,0.444-0.536,0.703-0.536c0.371,0,0.371,0.702,0.371,0.98
		c0,0.166-0.037,1.555-0.723,3.833l-0.869,2.87H258.843z M255.195,266.987c0,0.981-1.148,2.833-3.555,3.796
		c0.963-3.258,2.111-4.499,2.963-4.499C254.937,266.284,255.195,266.525,255.195,266.987 M249.882,272.283
		c0,1.296,0.722,2.203,2.185,2.203c1.815,0,3.203-2.407,3.203-2.555c0-0.111-0.055-0.186-0.147-0.186
		c-0.074,0-0.131,0.056-0.223,0.186c-1.056,1.48-1.87,2.147-2.74,2.147c-0.63,0-0.963-0.426-0.963-1.166
		c0-0.5,0.223-1.39,0.352-1.741c3.24-1.167,4.63-2.61,4.63-3.87c0-0.739-0.481-1.37-1.37-1.37
		C252.4,265.932,249.882,269.766,249.882,272.283 M246.216,267.562c0,1.536-1.555,6.462-3.536,6.462c-0.278,0-1.019,0-1.019-1.24
		c0-1.686,1.685-6.444,3.591-6.444C245.9,266.339,246.216,266.895,246.216,267.562 M246.512,266.877h-0.037
		c-0.129-0.334-0.37-0.945-1.388-0.945c-2.427,0-4.739,3.797-4.739,6c0,1.259,0.628,2.555,2.071,2.555
		c1.557,0,2.298-1.463,2.963-2.74h0.037c-0.074,0.296-0.184,1.093-0.184,1.592c0,0.667,0.351,1.148,1.055,1.148
		c1.573,0,2.555-2.833,2.555-2.944c0-0.147-0.073-0.185-0.148-0.222c-0.165,0.037-0.185,0.074-0.352,0.481
		c-0.537,1.333-1.239,2.166-1.593,2.166c-0.295,0-0.352-0.314-0.352-0.592c0-0.519,0.298-2.167,0.556-3.074l2.37-8.591
		c0.057-0.167,0.094-0.315,0.094-0.426c0-0.111-0.075-0.186-0.241-0.186c-0.167,0-1.259,0.167-2.444,0.296
		c-0.166,0.019-0.204,0.074-0.204,0.167c0,0.148,0.038,0.167,0.445,0.204c0.5,0.055,0.758,0.147,0.758,0.444
		c0,0.166-0.018,0.296-0.11,0.61L246.512,266.877z M238.05,262.618c0,0.444,0.371,0.814,0.815,0.814s0.814-0.37,0.814-0.814
		s-0.37-0.814-0.814-0.814S238.05,262.174,238.05,262.618 M235.718,273.19c0,0.758,0.425,1.296,1.223,1.296
		c1.554,0,2.684-2.647,2.684-2.759s-0.056-0.204-0.185-0.204c-0.093,0-0.147,0.056-0.223,0.204c-0.776,1.556-1.5,2.24-1.907,2.24
		c-0.222,0-0.369-0.129-0.369-0.37c0-0.407,0.055-0.852,0.98-3c0.889-2.054,1.073-2.702,1.073-3.278
		c0-0.536-0.296-1.388-1.222-1.388c-1.314,0-2.462,2.277-2.462,2.463c0,0.13,0.037,0.222,0.13,0.222
		c0.092,0,0.165-0.037,0.221-0.146c0.39-0.927,1.167-2.02,1.761-2.02c0.221,0,0.351,0.167,0.351,0.462
		c0,0.335-0.11,0.853-0.889,2.704C235.865,272.005,235.718,272.616,235.718,273.19 M233.588,266.987
		c0,0.981-1.147,2.833-3.555,3.796c0.963-3.258,2.111-4.499,2.963-4.499C233.329,266.284,233.588,266.525,233.588,266.987
		 M228.274,272.283c0,1.296,0.723,2.203,2.185,2.203c1.815,0,3.203-2.407,3.203-2.555c0-0.111-0.055-0.186-0.147-0.186
		c-0.074,0-0.131,0.056-0.223,0.186c-1.055,1.48-1.87,2.147-2.74,2.147c-0.63,0-0.963-0.426-0.963-1.166
		c0-0.5,0.223-1.39,0.352-1.741c3.241-1.167,4.63-2.61,4.63-3.87c0-0.739-0.481-1.37-1.37-1.37
		C230.793,265.932,228.274,269.766,228.274,272.283 M223.72,270.932c-0.111,0.5-0.333,1.518-0.333,2.203
		c0,1.111,0.795,1.352,1.369,1.352c1.796,0,2.519-2.463,2.519-2.647c0-0.093,0-0.26-0.147-0.26c-0.094,0-0.203,0.093-0.24,0.241
		c-0.594,1.647-1.279,2.147-1.741,2.147c-0.37,0-0.444-0.427-0.444-0.703c0-0.463,0.332-2.167,0.407-2.463l1.592-7.128
		c0.187-0.815,0.519-2.204,0.519-2.37c0-0.148-0.074-0.204-0.223-0.204c-0.276,0-1.555,0.186-2.425,0.186
		c-0.203,0-0.296,0.037-0.296,0.147c0,0.167,0.093,0.186,0.5,0.223c0.666,0.056,0.814,0.222,0.814,0.5
		c0,0.239-0.148,0.926-0.277,1.519L223.72,270.932z M221.239,266.987c0,0.981-1.148,2.833-3.555,3.796
		c0.962-3.258,2.11-4.499,2.962-4.499C220.979,266.284,221.239,266.525,221.239,266.987 M215.925,272.283
		c0,1.296,0.722,2.203,2.185,2.203c1.814,0,3.203-2.407,3.203-2.555c0-0.111-0.056-0.186-0.147-0.186
		c-0.074,0-0.13,0.056-0.223,0.186c-1.056,1.48-1.87,2.147-2.74,2.147c-0.63,0-0.962-0.426-0.962-1.166
		c0-0.5,0.221-1.39,0.351-1.741c3.24-1.167,4.629-2.61,4.629-3.87c0-0.739-0.481-1.37-1.37-1.37
		C218.442,265.932,215.925,269.766,215.925,272.283 M212.758,267.802c0,0.444-0.499,4-2.295,4c-0.796,0-1.186-0.5-1.186-1.425
		c0-0.668,0.686-4.038,2.241-4.038C212.573,266.339,212.758,267.024,212.758,267.802 M209.057,273.82
		c-0.52-0.093-0.779-0.317-0.779-0.76c0-0.277,0.26-0.814,1.352-0.833l0.686-0.019c2.777-0.13,3.665-2.537,3.665-3.963
		c0-0.425-0.129-0.832-0.221-1.056c0.369-0.258,0.702-0.518,0.906-0.518s0.241,0.185,0.277,0.537
		c0.057,0.371,0.298,0.555,0.574,0.555c0.149,0,0.631-0.11,0.631-0.646c0-0.909-0.648-1.037-1.038-1.037
		c-0.666,0-1.13,0.369-1.555,0.722c-0.353-0.444-0.777-0.871-1.982-0.871c-1.776,0-3.517,2.074-3.517,3.814
		c0,1.204,0.61,1.648,1.277,2.13c-1.203,0.129-2.166,0.796-2.166,1.74c0,1.574,2.74,1.852,3.833,1.999
		c1.092,0.149,1.852,0.427,1.852,1.426c0,1.5-1.648,1.944-2.87,1.944c-1.223,0-2.704-0.611-2.704-2.055
		c0-0.908,0.667-1.185,0.87-1.315c-0.184-0.13-0.314-0.204-0.628-0.204c-0.724,0-1.353,0.594-1.353,1.482
		c0,1.685,2.185,2.499,3.814,2.499c2.166,0,3.869-0.889,3.869-2.889c0-1.351-0.889-2.055-2.147-2.258L209.057,273.82z
		 M205.242,266.987c0,0.981-1.149,2.833-3.557,3.796c0.964-3.258,2.111-4.499,2.963-4.499
		C204.981,266.284,205.242,266.525,205.242,266.987 M199.928,272.283c0,1.296,0.722,2.203,2.185,2.203
		c1.813,0,3.202-2.407,3.202-2.555c0-0.111-0.055-0.186-0.146-0.186c-0.075,0-0.13,0.056-0.224,0.186
		c-1.056,1.48-1.869,2.147-2.739,2.147c-0.63,0-0.964-0.426-0.964-1.166c0-0.5,0.223-1.39,0.353-1.741
		c3.24-1.167,4.629-2.61,4.629-3.87c0-0.739-0.481-1.37-1.371-1.37C202.445,265.932,199.928,269.766,199.928,272.283
		 M195.243,263.674c0.185-0.815,0.52-2.204,0.52-2.37c0-0.148-0.075-0.204-0.224-0.204c-0.277,0-1.555,0.186-2.425,0.186
		c-0.204,0-0.297,0.037-0.297,0.147c0,0.167,0.093,0.186,0.501,0.223c0.666,0.056,0.814,0.222,0.814,0.5
		c0,0.239-0.148,0.926-0.278,1.519l-1.426,6.609c-0.093,0.389-0.352,1.463-0.352,2.056c0,1.333,0.869,2.147,2.296,2.147
		c2.333,0,4.518-3.61,4.518-5.979c0-1.223-0.611-2.575-2.239-2.575c-1.13,0-1.778,0.945-2.371,1.927h-0.037L195.243,263.674z
		 M193.299,272.598c0-1.093,1.314-6.202,3.186-6.202c0.647,0,1.018,0.611,1.018,1.406c0,1.87-1.314,6.333-3.129,6.333
		C193.577,274.135,193.299,273.486,193.299,272.598 M177.302,273.802c-0.018,0.092-0.056,0.24-0.056,0.296
		c0,0.074,0.075,0.111,0.13,0.111h0.981c0.11,0,0.203-0.057,0.24-0.261l0.667-2.591c0.556-2.186,1.981-4.832,3.258-4.832
		c0.444,0,0.648,0.165,0.648,0.794c0,0.853-1.203,4.76-1.203,5.834c0,0.667,0.37,1.333,1.276,1.333c1.575,0,2.278-2.555,2.278-2.796
		c0-0.093-0.037-0.167-0.13-0.167c-0.092,0-0.148,0.093-0.203,0.241c-0.333,0.963-0.871,2.129-1.537,2.129
		c-0.222,0-0.37-0.166-0.37-0.518c0-0.537,1.204-4.462,1.204-5.647c0-1-0.594-1.797-1.704-1.797c-1.499,0-2.499,1.964-3.073,3
		l-0.037-0.037c0.111-0.592,0.203-0.999,0.203-1.406c0-0.889-0.426-1.557-1.333-1.557c-1.574,0-2.277,2.556-2.277,2.796
		c0,0.093,0.038,0.167,0.13,0.167c0.11,0,0.166-0.093,0.203-0.241c0.426-1.443,1.074-2.128,1.444-2.128
		c0.353,0,0.519,0.24,0.519,0.852c0,0.352-0.111,1.388-0.296,2.166L177.302,273.802z M174.376,266.987
		c0,0.981-1.147,2.833-3.555,3.796c0.962-3.258,2.111-4.499,2.962-4.499C174.118,266.284,174.376,266.525,174.376,266.987
		 M169.062,272.283c0,1.296,0.723,2.203,2.186,2.203c1.815,0,3.203-2.407,3.203-2.555c0-0.111-0.055-0.186-0.148-0.186
		c-0.073,0-0.13,0.056-0.221,0.186c-1.056,1.48-1.871,2.147-2.741,2.147c-0.629,0-0.963-0.426-0.963-1.166
		c0-0.5,0.223-1.39,0.353-1.741c3.239-1.167,4.628-2.61,4.628-3.87c0-0.739-0.481-1.37-1.369-1.37
		C171.58,265.932,169.062,269.766,169.062,272.283 M156.953,272.893c0,1.001,0.87,1.594,2.186,1.594c2.036,0,2.87-1.37,2.87-2.592
		c0-0.648-0.167-1.037-1-2.148c-1.056-1.389-1.204-1.813-1.204-2.24c0-0.777,0.593-1.222,1.37-1.222c0.63,0,0.834,0.204,0.834,0.648
		s0.111,0.629,0.463,0.629c0.296,0,0.463-0.185,0.463-0.5c0-0.648-0.723-1.13-1.667-1.13c-1.315,0-2.5,0.777-2.5,2.24
		c0,0.705,0.148,1.167,1.315,2.741c0.74,1,0.888,1.333,0.888,1.796c0,0.703-0.63,1.426-1.704,1.426
		c-0.721,0-1.277-0.296-1.277-0.797c0-0.185,0.074-0.37,0.074-0.555c0-0.278-0.204-0.537-0.556-0.537
		C157.195,272.246,156.953,272.468,156.953,272.893 M152.769,274.209l1.296-3.74c0.241-0.686,0.593-1.63,1.019-2.426
		c0.407-0.796,0.888-1.518,1.333-1.518c0.167,0,0.186,0.147,0.186,0.425c0,0.352,0.277,0.556,0.648,0.556
		c0.333,0,0.666-0.315,0.666-0.703c0-0.557-0.518-0.871-1.037-0.871c-1.499,0-2.518,2.63-2.833,3.5h-0.037
		c0.037-0.334,0.186-1.519,0.186-1.87c0-1.536-0.926-1.63-1.074-1.63c-1.019,0-1.777,1.463-2.314,2.481
		c-0.056,0.111-0.13,0.24-0.13,0.352c0,0.093,0.075,0.167,0.112,0.167c0.074,0,0.148-0.018,0.186-0.093
		c0.24-0.406,0.852-1.555,1.036-1.777c0.241-0.278,0.445-0.536,0.704-0.536c0.37,0,0.37,0.702,0.37,0.98
		c0,0.166-0.037,1.555-0.721,3.833l-0.87,2.87H152.769z M149.122,266.987c0,0.981-1.148,2.833-3.556,3.796
		c0.963-3.258,2.111-4.499,2.963-4.499C148.862,266.284,149.122,266.525,149.122,266.987 M143.808,272.283
		c0,1.296,0.722,2.203,2.184,2.203c1.814,0,3.203-2.407,3.203-2.555c0-0.111-0.054-0.186-0.147-0.186
		c-0.075,0-0.13,0.056-0.223,0.186c-1.056,1.48-1.87,2.147-2.74,2.147c-0.63,0-0.963-0.426-0.963-1.166
		c0-0.5,0.222-1.39,0.352-1.741c3.24-1.167,4.63-2.61,4.63-3.87c0-0.739-0.482-1.37-1.371-1.37
		C146.325,265.932,143.808,269.766,143.808,272.283 M140.141,267.562c0,1.536-1.555,6.462-3.536,6.462c-0.278,0-1.019,0-1.019-1.24
		c0-1.686,1.685-6.444,3.592-6.444C139.827,266.339,140.141,266.895,140.141,267.562 M140.438,266.877h-0.037
		c-0.129-0.334-0.371-0.945-1.388-0.945c-2.426,0-4.741,3.797-4.741,6c0,1.259,0.63,2.555,2.074,2.555
		c1.556,0,2.296-1.463,2.962-2.74h0.037c-0.074,0.296-0.185,1.093-0.185,1.592c0,0.667,0.351,1.148,1.055,1.148
		c1.574,0,2.556-2.833,2.556-2.944c0-0.147-0.074-0.185-0.148-0.222c-0.167,0.037-0.186,0.074-0.352,0.481
		c-0.537,1.333-1.241,2.166-1.592,2.166c-0.296,0-0.352-0.314-0.352-0.592c0-0.519,0.296-2.167,0.556-3.074l2.37-8.591
		c0.056-0.167,0.093-0.315,0.093-0.426c0-0.111-0.074-0.186-0.241-0.186s-1.259,0.167-2.444,0.296
		c-0.167,0.019-0.203,0.074-0.203,0.167c0,0.148,0.036,0.167,0.444,0.204c0.5,0.055,0.758,0.147,0.758,0.444
		c0,0.166-0.019,0.296-0.111,0.61L140.438,266.877z M131.976,262.618c0,0.444,0.37,0.814,0.814,0.814s0.815-0.37,0.815-0.814
		s-0.371-0.814-0.815-0.814S131.976,262.174,131.976,262.618 M129.643,273.19c0,0.758,0.426,1.296,1.222,1.296
		c1.556,0,2.685-2.647,2.685-2.759s-0.055-0.204-0.185-0.204c-0.093,0-0.147,0.056-0.222,0.204c-0.778,1.556-1.5,2.24-1.906,2.24
		c-0.223,0-0.372-0.129-0.372-0.37c0-0.407,0.056-0.852,0.981-3c0.89-2.054,1.074-2.702,1.074-3.278
		c0-0.536-0.295-1.388-1.221-1.388c-1.315,0-2.463,2.277-2.463,2.463c0,0.13,0.037,0.222,0.13,0.222
		c0.091,0,0.166-0.037,0.221-0.146c0.389-0.927,1.167-2.02,1.759-2.02c0.223,0,0.353,0.167,0.353,0.462
		c0,0.335-0.111,0.853-0.888,2.704C129.792,272.005,129.643,272.616,129.643,273.19 M127.514,266.987
		c0,0.981-1.147,2.833-3.554,3.796c0.962-3.258,2.11-4.499,2.962-4.499C127.255,266.284,127.514,266.525,127.514,266.987
		 M122.2,272.283c0,1.296,0.723,2.203,2.186,2.203c1.814,0,3.203-2.407,3.203-2.555c0-0.111-0.056-0.186-0.147-0.186
		c-0.074,0-0.13,0.056-0.223,0.186c-1.056,1.48-1.87,2.147-2.74,2.147c-0.63,0-0.962-0.426-0.962-1.166
		c0-0.5,0.222-1.39,0.351-1.741c3.24-1.167,4.629-2.61,4.629-3.87c0-0.739-0.481-1.37-1.371-1.37
		C124.718,265.932,122.2,269.766,122.2,272.283 M117.645,270.932c-0.111,0.5-0.333,1.518-0.333,2.203
		c0,1.111,0.795,1.352,1.37,1.352c1.796,0,2.519-2.463,2.519-2.647c0-0.093,0-0.26-0.148-0.26c-0.093,0-0.204,0.093-0.241,0.241
		c-0.592,1.647-1.277,2.147-1.74,2.147c-0.371,0-0.444-0.427-0.444-0.703c0-0.463,0.333-2.167,0.407-2.463l1.592-7.128
		c0.185-0.815,0.519-2.204,0.519-2.37c0-0.148-0.074-0.204-0.222-0.204c-0.278,0-1.556,0.186-2.426,0.186
		c-0.203,0-0.295,0.037-0.295,0.147c0,0.167,0.092,0.186,0.5,0.223c0.666,0.056,0.814,0.222,0.814,0.5
		c0,0.239-0.148,0.926-0.277,1.519L117.645,270.932z M110.424,272.635c-0.056-1.796,1.462-6.296,3.24-6.296
		c0.741,0,1.037,0.594,1.074,1.5c0.037,1.352-1.259,6.24-3.278,6.24C110.887,274.079,110.461,273.503,110.424,272.635
		 M107.703,278.3c-0.13,0.574-0.538,0.742-0.871,0.742c-0.296,0-0.407,0.073-0.407,0.221c0.019,0.13,0.092,0.187,0.241,0.187
		c0.592,0,1.166-0.057,1.758-0.057c0.296,0,0.574,0.02,0.87,0.02c0.297,0.018,0.593,0.037,0.87,0.037
		c0.148,0,0.223-0.057,0.204-0.187c0-0.147-0.111-0.221-0.407-0.221c-0.629,0-0.852-0.334-0.852-0.575
		c0-0.147,0.019-0.333,0.073-0.574l0.963-4.443h0.038c0.148,0.556,0.704,1.037,1.48,1.037c2.463,0,4.5-3.499,4.407-6.036
		c-0.056-1.5-0.87-2.519-2.166-2.519c-1.223,0-2.038,1.019-2.648,2.222l-0.037-0.037l0.963-4.093
		c0.056-0.239,0.092-0.35,0.092-0.628c0-0.222-0.295-0.277-0.592-0.277c-0.352,0-0.463,0.056-0.556,0.407l-0.666,2.314
		c-0.186,0.63-0.407,0.926-1.186,1.499c-1.259,0.927-1.666,2.056-1.666,2.427c0.019,0.11,0.056,0.166,0.166,0.166
		c0.093,0,0.167-0.056,0.186-0.166c0.296-1.019,1.5-2.334,1.963-2.334c0.13,0,0.13,0.13,0.13,0.26c0,0.259-0.037,0.537-0.093,0.741
		L107.703,278.3z M101.056,272.449c0-2.185,1.184-6.165,3.036-6.165c0.704,0,1.186,0.573,1.186,1.685
		c0,2.185-1.186,6.166-3.037,6.166C101.538,274.135,101.056,273.561,101.056,272.449 M99.741,271.579
		c0,1.797,1.019,2.907,2.426,2.907c2.667,0,4.425-3.499,4.425-5.647c0-1.795-1.019-2.907-2.426-2.907
		C101.5,265.932,99.741,269.432,99.741,271.579 M93.594,270.45c0.353-1.703,1.593-3.925,2.87-3.925c0.537,0,0.686,0.369,0.686,0.61
		c0,0.222,0,0.963-0.833,1.741C95.668,269.487,94.224,270.265,93.594,270.45 M96.872,265.932c-1.352,0-2.389,1.445-2.722,2.037
		h-0.037l0.944-4.295c0.186-0.815,0.519-2.204,0.519-2.37c0-0.148-0.074-0.204-0.222-0.204c-0.278,0-1.556,0.186-2.426,0.186
		c-0.204,0-0.296,0.037-0.296,0.147c0,0.167,0.092,0.186,0.5,0.223c0.667,0.056,0.815,0.222,0.815,0.5
		c0,0.239-0.148,0.926-0.278,1.519l-2.203,10.128c-0.019,0.092-0.056,0.24-0.056,0.296c0,0.074,0.074,0.111,0.13,0.111h0.981
		c0.111,0,0.203-0.057,0.24-0.261l0.741-2.979l1.26-0.63c0.129-0.074,0.184-0.131,0.295-0.131c0.426,0,0.686,0.52,0.686,1.038
		c0,0.296-0.111,1.646-0.111,1.963c0,0.667,0.37,1.277,1.296,1.277c1.592,0,2.074-2.166,2.074-2.352
		c0-0.111-0.037-0.222-0.185-0.222c-0.147,0-0.185,0.259-0.278,0.555c-0.074,0.297-0.537,1.426-1.184,1.426
		c-0.112,0-0.39,0-0.39-0.426c0-0.481,0.056-0.981,0.056-1.463c0-1.518-0.852-1.759-1.703-1.963v-0.037
		c0.907-0.276,3.054-1.535,3.054-2.832C98.371,266.69,98.02,265.932,96.872,265.932 M89.392,262.618c0,0.444,0.37,0.814,0.814,0.814
		c0.444,0,0.815-0.37,0.815-0.814s-0.372-0.814-0.815-0.814C89.761,261.804,89.392,262.174,89.392,262.618 M86.651,275.949
		c-0.574,2.204-1.26,3.036-1.981,3.036c-0.425,0-0.593-0.147-0.686-0.519c-0.093-0.37-0.259-0.63-0.574-0.63
		c-0.296,0-0.482,0.223-0.482,0.557c0,0.629,0.778,0.999,1.611,0.999c1.648,0,2.796-1.259,3.833-4.906
		c1.611-5.685,1.796-6.758,1.796-7.554c0-0.631-0.389-1.001-0.926-1.001c-0.796,0-1.758,0.797-2.814,2.481
		c-0.093,0.148-0.13,0.26-0.13,0.334c0,0.073,0.055,0.147,0.167,0.147c0.13,0,0.223-0.093,0.37-0.333
		c0.907-1.48,1.444-1.962,1.796-1.962c0.148,0,0.222,0.091,0.222,0.351c0,0.369-0.092,0.945-0.24,1.5L86.651,275.949z
		 M84.188,262.618c0,0.444,0.37,0.814,0.814,0.814s0.814-0.37,0.814-0.814s-0.37-0.814-0.814-0.814S84.188,262.174,84.188,262.618
		 M81.855,273.19c0,0.758,0.426,1.296,1.222,1.296c1.556,0,2.685-2.647,2.685-2.759s-0.055-0.204-0.185-0.204
		c-0.093,0-0.148,0.056-0.223,0.204c-0.777,1.556-1.5,2.24-1.907,2.24c-0.222,0-0.37-0.129-0.37-0.37c0-0.407,0.056-0.852,0.981-3
		c0.889-2.054,1.074-2.702,1.074-3.278c0-0.536-0.297-1.388-1.223-1.388c-1.314,0-2.462,2.277-2.462,2.463
		c0,0.13,0.037,0.222,0.129,0.222c0.093,0,0.167-0.037,0.223-0.146c0.389-0.927,1.167-2.02,1.759-2.02
		c0.223,0,0.352,0.167,0.352,0.462c0,0.335-0.11,0.853-0.889,2.704C82.003,272.005,81.855,272.616,81.855,273.19 M76.875,271.246
		c-0.129,0.593-0.333,1.443-0.333,1.981c0,1.019,0.685,1.259,1.296,1.259c0.814,0,1.221-0.37,1.758-1.148
		c0.167-0.259,0.797-1.499,0.797-1.666c0-0.111-0.019-0.203-0.167-0.203c-0.186,0-0.277,0.277-0.333,0.407
		c-0.241,0.519-0.907,2.092-1.611,2.092c-0.296,0-0.519-0.185-0.519-0.61c0-0.444,0.167-1.074,0.37-1.853l1.204-4.647h1.352
		c0.241,0,0.314-0.074,0.314-0.204c0-0.184-0.092-0.258-0.241-0.258H79.43l0.536-1.963c0.056-0.186,0.093-0.314,0.093-0.481
		c0-0.37-0.389-0.407-0.685-0.407c-0.223,0-0.481,0.056-0.537,0.275l-0.723,2.576h-1.184c-0.242,0-0.352,0.055-0.352,0.258
		c0,0.167,0.129,0.204,0.258,0.204h1.186L76.875,271.246z M70.487,270.45c0.353-1.703,1.593-3.925,2.87-3.925
		c0.537,0,0.686,0.369,0.686,0.61c0,0.222,0,0.963-0.833,1.741C72.561,269.487,71.116,270.265,70.487,270.45 M73.765,265.932
		c-1.353,0-2.388,1.445-2.722,2.037h-0.037l0.944-4.295c0.186-0.815,0.519-2.204,0.519-2.37c0-0.148-0.075-0.204-0.222-0.204
		c-0.279,0-1.556,0.186-2.426,0.186c-0.204,0-0.297,0.037-0.297,0.147c0,0.167,0.093,0.186,0.5,0.223
		c0.667,0.056,0.815,0.222,0.815,0.5c0,0.239-0.149,0.926-0.278,1.519l-2.203,10.128c-0.019,0.092-0.056,0.24-0.056,0.296
		c0,0.074,0.075,0.111,0.13,0.111h0.981c0.11,0,0.203-0.057,0.24-0.261l0.741-2.979l1.259-0.63c0.13-0.074,0.186-0.131,0.295-0.131
		c0.426,0,0.686,0.52,0.686,1.038c0,0.296-0.111,1.646-0.111,1.963c0,0.667,0.371,1.277,1.297,1.277
		c1.591,0,2.073-2.166,2.073-2.352c0-0.111-0.037-0.222-0.185-0.222c-0.148,0-0.186,0.259-0.278,0.555
		c-0.074,0.297-0.537,1.426-1.185,1.426c-0.111,0-0.39,0-0.39-0.426c0-0.481,0.056-0.981,0.056-1.463
		c0-1.518-0.852-1.759-1.703-1.963v-0.037c0.907-0.276,3.055-1.535,3.055-2.832C75.265,266.69,74.912,265.932,73.765,265.932
		 M60.082,272.689c0-1.98,2.074-6.351,3.87-6.351c0.5,0,0.926,0.314,0.926,1.13c0,1.296-1.796,6.61-3.87,6.61
		C60.452,274.079,60.082,273.579,60.082,272.689 M58.767,272.023c0,1.537,0.777,2.463,2.147,2.463c1.148,0,2.129-0.963,2.87-2.5
		l0.037,0.037c-0.093,0.426-0.222,0.981-0.222,1.276c0,0.742,0.37,1.187,1.166,1.187c1.574,0,2.278-2.555,2.278-2.74
		c0-0.111-0.037-0.223-0.167-0.223c-0.112,0-0.186,0.074-0.223,0.241c-0.389,1.444-1.073,2.129-1.426,2.129
		c-0.259,0-0.407-0.166-0.407-0.481c0-0.463,0.204-2.259,1.463-5.998c0.148-0.481,0.259-0.761,0.259-0.944
		c0-0.186-0.204-0.389-0.741-0.389c-0.278,0-0.37,0.221-0.574,1.092l-0.037-0.02c-0.074-0.628-0.5-1.222-1.463-1.222
		C61.544,265.932,58.767,269.376,58.767,272.023 M54.193,274.209l1.296-3.74c0.241-0.686,0.592-1.63,1.018-2.426
		c0.407-0.796,0.889-1.518,1.334-1.518c0.166,0,0.184,0.147,0.184,0.425c0,0.352,0.278,0.556,0.648,0.556
		c0.333,0,0.666-0.315,0.666-0.703c0-0.557-0.519-0.871-1.036-0.871c-1.5,0-2.518,2.63-2.833,3.5h-0.038
		c0.038-0.334,0.186-1.519,0.186-1.87c0-1.536-0.925-1.63-1.074-1.63c-1.019,0-1.777,1.463-2.314,2.481
		c-0.056,0.111-0.129,0.24-0.129,0.352c0,0.093,0.074,0.167,0.111,0.167c0.075,0,0.148-0.018,0.186-0.093
		c0.24-0.406,0.852-1.555,1.037-1.777c0.24-0.278,0.444-0.536,0.703-0.536c0.37,0,0.37,0.702,0.37,0.98
		c0,0.166-0.037,1.555-0.722,3.833l-0.87,2.87H54.193z M45.806,272.635c-0.055-1.796,1.462-6.296,3.241-6.296
		c0.74,0,1.037,0.594,1.074,1.5c0.036,1.352-1.26,6.24-3.278,6.24C46.269,274.079,45.843,273.503,45.806,272.635 M43.084,278.3
		c-0.13,0.574-0.537,0.742-0.87,0.742c-0.297,0-0.408,0.073-0.408,0.221c0.019,0.13,0.093,0.187,0.24,0.187
		c0.593,0,1.167-0.057,1.76-0.057c0.296,0,0.573,0.02,0.87,0.02c0.296,0.018,0.593,0.037,0.87,0.037
		c0.149,0,0.223-0.057,0.204-0.187c0-0.147-0.111-0.221-0.408-0.221c-0.629,0-0.852-0.334-0.852-0.575
		c0-0.147,0.019-0.333,0.075-0.574l0.962-4.443h0.037c0.149,0.556,0.704,1.037,1.481,1.037c2.463,0,4.5-3.499,4.407-6.036
		c-0.056-1.5-0.87-2.519-2.167-2.519c-1.222,0-2.037,1.019-2.647,2.222l-0.037-0.037l0.963-4.093
		c0.055-0.239,0.092-0.35,0.092-0.628c0-0.222-0.296-0.277-0.593-0.277c-0.351,0-0.463,0.056-0.555,0.407l-0.667,2.314
		c-0.185,0.63-0.407,0.926-1.185,1.499c-1.26,0.927-1.667,2.056-1.667,2.427c0.019,0.11,0.056,0.166,0.167,0.166
		c0.093,0,0.167-0.056,0.186-0.166c0.296-1.019,1.499-2.334,1.961-2.334c0.13,0,0.13,0.13,0.13,0.26
		c0,0.259-0.037,0.537-0.093,0.741L43.084,278.3z M32.586,274.209l1.296-3.74c0.241-0.686,0.593-1.63,1.019-2.426
		c0.407-0.796,0.889-1.518,1.333-1.518c0.167,0,0.186,0.147,0.186,0.425c0,0.352,0.277,0.556,0.648,0.556
		c0.333,0,0.666-0.315,0.666-0.703c0-0.557-0.519-0.871-1.037-0.871c-1.499,0-2.517,2.63-2.833,3.5h-0.037
		c0.037-0.334,0.186-1.519,0.186-1.87c0-1.536-0.926-1.63-1.074-1.63c-1.019,0-1.778,1.463-2.314,2.481
		c-0.056,0.111-0.13,0.24-0.13,0.352c0,0.093,0.075,0.167,0.112,0.167c0.074,0,0.148-0.018,0.186-0.093
		c0.24-0.406,0.851-1.555,1.037-1.777c0.24-0.278,0.444-0.536,0.703-0.536c0.37,0,0.37,0.702,0.37,0.98
		c0,0.166-0.037,1.555-0.722,3.833l-0.87,2.87H32.586z M24.087,272.449c0-2.185,1.185-6.165,3.037-6.165
		c0.703,0,1.185,0.573,1.185,1.685c0,2.185-1.185,6.166-3.037,6.166C24.569,274.135,24.087,273.561,24.087,272.449 M22.773,271.579
		c0,1.797,1.018,2.907,2.425,2.907c2.666,0,4.425-3.499,4.425-5.647c0-1.795-1.019-2.907-2.426-2.907
		C24.532,265.932,22.773,269.432,22.773,271.579 M15.867,272.449c0-2.185,1.186-6.165,3.037-6.165c0.703,0,1.185,0.573,1.185,1.685
		c0,2.185-1.185,6.166-3.036,6.166C16.348,274.135,15.867,273.561,15.867,272.449 M14.553,271.579c0,1.797,1.019,2.907,2.425,2.907
		c2.666,0,4.426-3.499,4.426-5.647c0-1.795-1.019-2.907-2.426-2.907C16.311,265.932,14.553,269.432,14.553,271.579 M8.127,274.135
		c0.037,0.222,0.056,0.407,0.295,0.407c0.241,0,0.372-0.186,0.538-0.463l2.481-4.129l3.667-6.5c0.426-0.739,0.833-1.036,1.741-1.295
		c0.111-0.019,0.221-0.074,0.221-0.223c0-0.129-0.11-0.185-0.314-0.185c-0.296,0-1.037,0.056-1.574,0.056
		c-0.555,0-1.129-0.056-1.703-0.056c-0.241,0-0.315,0.073-0.315,0.203c0,0.148,0.167,0.186,0.352,0.204
		c0.537,0.074,0.981,0.222,0.981,0.556c0,0.739-1.056,2.646-1.538,3.498l-3.425,6H9.497l-1-8.851
		c-0.019-0.149-0.019-0.296-0.019-0.37c0-0.777,0.371-0.777,1.074-0.833c0.555-0.037,0.592-0.13,0.592-0.26
		c0-0.147-0.129-0.147-0.315-0.147c-0.722,0-1.463,0.056-2.203,0.056s-1.481-0.056-2.222-0.056c-0.186,0-0.278,0.073-0.278,0.185
		c0,0.148,0.074,0.167,0.389,0.223c0.722,0.13,1.074,0.203,1.148,0.833L8.127,274.135z"/>
</g>
</svg>
