<?xml version="1.0" encoding="utf-8"?>
<!-- Generator: Adobe Illustrator 15.0.0, SVG Export Plug-In . SVG Version: 6.00 Build 0)  -->
<!DOCTYPE svg PUBLIC "-//W3C//DTD SVG 1.1//EN" "http://www.w3.org/Graphics/SVG/1.1/DTD/svg11.dtd">
<svg version="1.1" id="Layer_1" xmlns="http://www.w3.org/2000/svg" xmlns:xlink="http://www.w3.org/1999/xlink" x="0px" y="0px"
	 width="360px" height="320px" viewBox="0 0 360 320" enable-background="new 0 0 360 320" xml:space="preserve">
<g>
	<g>
		<g>
			<g>
				<defs>
					<rect id="SVGID_1_" width="360" height="320"/>
				</defs>
				<clipPath id="SVGID_2_">
					<use xlink:href="#SVGID_1_"  overflow="visible"/>
				</clipPath>
				<path clip-path="url(#SVGID_2_)" fill="#FFFFFF" d="M21.135,129.564h10.478c15.718,0,30.898,11.688,30.898,32.107
					c0,20.42-15.18,32.108-30.898,32.108H21.135V129.564z M2.327,208.557h25.659c28.749,0,54.139-9.672,54.139-46.885
					c0-37.212-25.39-46.884-54.139-46.884H2.327V208.557z"/>
			</g>
		</g>
	</g>
	<g>
		<g>
			<g>
				<defs>
					<rect id="SVGID_3_" width="360" height="320"/>
				</defs>
				<clipPath id="SVGID_4_">
					<use xlink:href="#SVGID_3_"  overflow="visible"/>
				</clipPath>
				<path clip-path="url(#SVGID_4_)" fill="#FFFFFF" d="M118.89,50.771c0-16.524,7.657-33.451,26.33-33.451
					c18.673,0,26.331,16.927,26.331,33.451c0,16.926-7.12,33.987-26.331,33.987C126.01,84.759,118.89,67.698,118.89,50.771
					 M99.276,50.771c0,28.748,15.852,48.765,45.944,48.765c29.689,0,45.944-20.42,45.944-48.765
					c0-28.346-16.523-48.228-45.944-48.228C115.397,2.543,99.276,22.022,99.276,50.771 M2.954,97.925h18.808v-35.6h7.926
					c20.151,0,36.137-7.926,36.137-29.824c0-22.434-18.673-28.345-39.092-28.345H2.954V97.925z M21.762,18.933h6.583
					c9.672,0,17.867,3.762,17.867,14.643c0,10.882-8.464,13.971-17.867,13.971h-6.583V18.933z"/>
			</g>
		</g>
	</g>
	<g>
		<g>
			<g>
				<defs>
					<rect id="SVGID_5_" width="360" height="320"/>
				</defs>
				<clipPath id="SVGID_6_">
					<use xlink:href="#SVGID_5_"  overflow="visible"/>
				</clipPath>
				<path clip-path="url(#SVGID_6_)" fill="#FFFFFF" d="M176.273,209.809h4.041v-7.6c0-1.991,0.634-5.157,3.559-5.157
					c2.594,0,2.624,2.562,2.624,4.464v8.293h4.041v-9.802c0-3.498-1.601-6.092-5.278-6.092c-2.111,0-3.83,0.692-5.096,2.474h-0.062
					v-2.111h-3.829V209.809L176.273,209.809z M171.961,205.646c-1.508,0.845-3.196,1.566-5.157,1.566
					c-2.503,0-4.252-1.418-4.433-3.921h10.737c0-5.431-1.629-9.379-7.389-9.379c-4.825,0-7.208,3.71-7.208,8.203
					c0,5.097,2.986,8.052,8.112,8.052c2.172,0,3.859-0.422,5.338-1.234V205.646L171.961,205.646z M162.371,200.52
					c0.181-2.08,1.327-3.646,3.589-3.646c2.262,0,3.166,1.688,3.286,3.646H162.371z M151.485,194.275v2.109h-0.06
					c-1.116-1.777-2.714-2.473-4.765-2.473c-4.644,0-6.574,4.312-6.574,8.052c0,4.162,1.749,7.843,6.333,7.843
					c2.261,0,4.071-1.146,4.825-2.475h0.06c0,2.686-0.211,6.031-4.674,6.031c-1.267,0-3.287-0.693-4.524-1.357l-0.331,3.438
					c1.93,0.814,3.769,1.059,5.367,1.059c6.514,0,8.203-3.98,8.203-8.203v-14.021h-3.86V194.275L151.485,194.275z M147.746,206.672
					c-2.323,0-3.438-2.594-3.438-4.705c0-2.382,0.874-4.915,3.618-4.915c2.353,0,3.378,2.171,3.378,4.825
					C151.304,204.471,150.279,206.672,147.746,206.672 M127.179,205.314c0-2.383,2.684-2.687,4.493-2.687h1.749
					c0,1.206-0.181,2.322-0.844,3.196c-0.634,0.845-1.599,1.388-2.835,1.388C128.294,207.215,127.179,206.643,127.179,205.314
					 M125.128,198.561c1.357-1.023,3.076-1.688,4.795-1.688c2.382,0,3.498,0.844,3.498,3.348h-2.231c-1.689,0-3.68,0.15-5.218,0.904
					c-1.538,0.754-2.653,2.109-2.653,4.434c0,2.955,2.684,4.613,5.428,4.613c1.839,0,3.86-0.965,4.795-2.686h0.06
					c0.03,0.48,0.03,1.51,0.181,2.322h3.559c-0.091-1.207-0.151-2.293-0.181-3.47c-0.031-1.146-0.061-2.321-0.061-3.891v-1.99
					c0-4.583-1.96-6.544-6.695-6.544c-1.718,0-3.829,0.453-5.398,1.177L125.128,198.561z M107.125,192.076h2.352
					c3.528,0,6.936,2.622,6.936,7.206c0,4.585-3.408,7.208-6.936,7.208h-2.352V192.076z M102.903,209.809h5.76
					c6.453,0,12.153-2.172,12.153-10.523s-5.7-10.521-12.153-10.521h-5.76V209.809z"/>
			</g>
		</g>
	</g>
	<g>
		<g>
			<g>
				<defs>
					<rect id="SVGID_7_" width="360" height="320"/>
				</defs>
				<clipPath id="SVGID_8_">
					<use xlink:href="#SVGID_7_"  overflow="visible"/>
				</clipPath>
				<path clip-path="url(#SVGID_8_)" fill="#FFFFFF" d="M234.387,159.305c-1.269-0.271-2.504-0.573-4.404-0.573
					c-3.166,0-6.092,1.478-6.092,4.827c0,5.608,7.026,3.527,7.026,6.573c0,1.509-1.629,1.9-2.653,1.9
					c-1.388,0-2.714-0.394-3.979-1.026l-0.241,3.317c1.479,0.392,3.047,0.663,4.584,0.663c3.287,0,6.517-1.447,6.517-5.065
					c0-5.61-7.026-4.041-7.026-6.514c0-1.327,1.297-1.722,2.383-1.722c1.478,0,2.382,0.24,3.618,0.664L234.387,159.305z
					 M213.245,174.625h4.041v-5.7c0-2.229,0-6.333,3.287-6.333c0.725,0,1.448,0.121,1.811,0.332v-4.071
					c-0.424-0.121-0.846-0.121-1.237-0.121c-2.412,0-4.068,2.443-4.252,3.891h-0.061v-3.529h-3.589V174.625z M208.843,170.463
					c-1.508,0.846-3.196,1.569-5.155,1.569c-2.504,0-4.254-1.418-4.436-3.921h10.736c0-5.43-1.629-9.379-7.389-9.379
					c-4.824,0-7.207,3.709-7.207,8.204c0,5.1,2.981,8.054,8.11,8.054c2.171,0,3.858-0.425,5.337-1.236L208.843,170.463
					L208.843,170.463z M199.252,165.337c0.182-2.081,1.327-3.649,3.59-3.649c2.262,0,3.167,1.689,3.285,3.649H199.252z
					 M188.307,174.625h3.92v-22.618h-4.041v8.897h-0.061c-1.206-1.479-2.624-2.172-4.645-2.172c-4.767,0-6.517,3.8-6.517,8.083
					c0,4.254,1.75,8.176,6.517,8.176c1.898,0,3.559-0.604,4.766-2.111h0.061V174.625z M181.189,166.812
					c0-2.078,0.724-4.943,3.347-4.943c2.595,0,3.618,2.773,3.618,4.943c0,2.203-0.873,5.037-3.557,5.037
					C181.943,171.852,181.189,168.956,181.189,166.812 M169.67,156.26h4.041v-3.86h-4.041V156.26z M169.67,174.625h4.041v-15.531
					h-4.041V174.625z M165.267,170.463c-1.508,0.846-3.196,1.569-5.157,1.569c-2.503,0-4.252-1.418-4.433-3.921h10.736
					c0-5.43-1.628-9.379-7.388-9.379c-4.825,0-7.208,3.709-7.208,8.204c0,5.1,2.986,8.054,8.112,8.054
					c2.172,0,3.86-0.425,5.338-1.236V170.463L165.267,170.463z M155.676,165.337c0.181-2.081,1.327-3.649,3.589-3.649
					c2.262,0,3.166,1.689,3.287,3.649H155.676z M144.519,174.625h4.041v-22.618h-4.041V174.625z M133.692,161.869
					c2.624,0,3.348,2.865,3.348,4.943c0,2.144-0.754,5.037-3.408,5.037c-2.684,0-3.558-2.834-3.558-5.037
					C130.074,164.643,131.1,161.869,133.692,161.869 M126.002,180.958h4.041v-8.112h0.061c1.417,1.719,2.834,2.145,4.553,2.145
					c4.856,0,6.605-3.922,6.605-8.176c0-4.279-1.749-8.083-6.514-8.083c-2.383,0-3.921,1.056-4.825,2.564h-0.061v-2.202h-3.86
					V180.958L126.002,180.958z M106.28,164.04c0-3.709,1.719-7.509,5.911-7.509c4.191,0,5.91,3.8,5.91,7.509
					c0,3.8-1.598,7.63-5.91,7.63C107.878,171.67,106.28,167.84,106.28,164.04 M101.877,164.04c0,6.454,3.558,10.946,10.314,10.946
					c6.664,0,10.313-4.584,10.313-10.946c0-6.363-3.709-10.826-10.313-10.826C105.497,153.214,101.877,157.586,101.877,164.04"/>
			</g>
		</g>
	</g>
	<g>
		<g>
			<g>
				<defs>
					<rect id="SVGID_9_" width="360" height="320"/>
				</defs>
				<clipPath id="SVGID_10_">
					<use xlink:href="#SVGID_9_"  overflow="visible"/>
				</clipPath>
				<path clip-path="url(#SVGID_10_)" fill="#FFFFFF" d="M191.352,139.442h4.041v-7.539h0.062l5.188,7.539h5.127l-6.515-8.595
					l5.79-6.936h-4.768l-4.822,6.213h-0.062v-13.299h-4.041V139.442L191.352,139.442z M182.968,121.077h4.041v-3.86h-4.041V121.077z
					 M180.345,145.896c0.512,0.15,1.327,0.241,1.99,0.241c4.041,0,4.675-3.347,4.675-5.549v-16.677h-4.042v16.134
					c0,2.413-0.301,2.835-2.472,2.956L180.345,145.896z M174.584,121.077h4.041v-3.86h-4.041V121.077z M174.584,139.442h4.041
					v-15.531h-4.041V139.442z M164.091,134.768c0,3.076,1.749,5.036,4.915,5.036c1.206,0,2.141-0.121,2.986-0.362l-0.121-3.196
					c-0.422,0.271-1.116,0.422-1.84,0.422c-1.537,0-1.899-1.237-1.899-2.564v-7.237h3.588v-2.956h-3.588v-4.402l-4.041,1.296v3.106
					h-2.986v2.956h2.986V134.768z M146.087,139.442h4.041v-7.539h0.06l5.187,7.539h5.127l-6.514-8.595l5.79-6.936h-4.765
					l-4.825,6.213h-0.06v-13.299h-4.041V139.442z M132.698,134.949c0-2.383,2.683-2.684,4.493-2.684h1.749
					c0,1.206-0.181,2.322-0.844,3.196c-0.634,0.845-1.599,1.388-2.835,1.388C133.812,136.849,132.698,136.276,132.698,134.949
					 M130.646,128.194c1.357-1.026,3.076-1.689,4.795-1.689c2.382,0,3.498,0.844,3.498,3.347h-2.232
					c-1.688,0-3.679,0.151-5.217,0.905c-1.538,0.754-2.654,2.111-2.654,4.433c0,2.955,2.684,4.614,5.429,4.614
					c1.839,0,3.86-0.965,4.795-2.684h0.06c0.03,0.483,0.03,1.508,0.181,2.322h3.558c-0.09-1.206-0.15-2.292-0.181-3.468
					c-0.03-1.146-0.06-2.322-0.06-3.89v-1.99c0-4.584-1.96-6.544-6.695-6.544c-1.719,0-3.83,0.452-5.398,1.176L130.646,128.194z
					 M118.796,139.442h4.041v-5.699c0-2.232,0-6.333,3.287-6.333c0.723,0,1.447,0.12,1.809,0.331v-4.071
					c-0.422-0.12-0.844-0.12-1.236-0.12c-2.413,0-4.072,2.442-4.253,3.89h-0.06v-3.529h-3.588V139.442L118.796,139.442z
					 M102.541,139.442h4.222v-7.991h1.779c4.524,0,8.112-1.78,8.112-6.695c0-5.036-4.191-6.363-8.775-6.363h-5.338V139.442z
					 M106.763,121.71h1.478c2.171,0,4.011,0.844,4.011,3.287s-1.9,3.136-4.011,3.136h-1.478V121.71z"/>
			</g>
		</g>
	</g>
	<g>
		<g>
			<g>
				<defs>
					<rect id="SVGID_11_" width="360" height="320"/>
				</defs>
				<clipPath id="SVGID_12_">
					<use xlink:href="#SVGID_11_"  overflow="visible"/>
				</clipPath>
				<path clip-path="url(#SVGID_12_)" fill="#FFFFFF" d="M351.992,311.098c0.358-1.744,1.631-4.02,2.938-4.02
					c0.552,0,0.702,0.379,0.702,0.626c0,0.228,0,0.985-0.854,1.782C354.116,310.111,352.637,310.908,351.992,311.098
					 M355.348,306.471c-1.384,0-2.444,1.479-2.787,2.086h-0.038l0.971-4.396c0.188-0.834,0.526-2.257,0.526-2.427
					c0-0.152-0.073-0.209-0.227-0.209c-0.284,0-1.592,0.188-2.484,0.188c-0.207,0-0.303,0.038-0.303,0.152
					c0,0.17,0.096,0.188,0.512,0.227c0.687,0.061,0.834,0.229,0.834,0.512c0,0.248-0.147,0.949-0.282,1.559l-2.259,10.372
					c-0.019,0.095-0.056,0.245-0.056,0.303c0,0.076,0.075,0.114,0.132,0.114h1.006c0.113,0,0.209-0.061,0.246-0.268l0.759-3.054
					l1.291-0.646c0.133-0.075,0.188-0.135,0.305-0.135c0.436,0,0.699,0.53,0.699,1.062c0,0.305-0.111,1.688-0.111,2.01
					c0,0.687,0.379,1.312,1.327,1.312c1.631,0,2.122-2.221,2.122-2.408c0-0.113-0.036-0.229-0.188-0.229
					c-0.15,0-0.188,0.268-0.282,0.568c-0.075,0.305-0.552,1.46-1.216,1.46c-0.111,0-0.396,0-0.396-0.437
					c0-0.492,0.057-1.008,0.057-1.498c0-1.558-0.872-1.805-1.745-2.012v-0.039c0.932-0.281,3.13-1.57,3.13-2.897
					C356.884,307.249,356.523,306.471,355.348,306.471 M347.764,307.552c0,1.005-1.176,2.901-3.641,3.89
					c0.986-3.34,2.162-4.606,3.034-4.606C347.498,306.832,347.764,307.078,347.764,307.552 M342.322,312.975
					c0,1.327,0.737,2.26,2.235,2.26c1.856,0,3.279-2.467,3.279-2.616c0-0.114-0.057-0.188-0.152-0.188
					c-0.073,0-0.132,0.059-0.228,0.188c-1.08,1.517-1.915,2.198-2.808,2.198c-0.646,0-0.984-0.438-0.984-1.193
					c0-0.512,0.229-1.422,0.359-1.783c3.316-1.193,4.739-2.673,4.739-3.963c0-0.758-0.494-1.402-1.401-1.402
					C344.9,306.471,342.322,310.396,342.322,312.975 M339.686,303.077c0,0.455,0.38,0.834,0.834,0.834
					c0.455,0,0.835-0.379,0.835-0.834s-0.38-0.834-0.835-0.834C340.065,302.243,339.686,302.622,339.686,303.077 M337.297,313.904
					c0,0.775,0.437,1.328,1.251,1.328c1.593,0,2.75-2.715,2.75-2.826c0-0.113-0.057-0.208-0.189-0.208
					c-0.095,0-0.148,0.057-0.228,0.208c-0.797,1.593-1.535,2.295-1.953,2.295c-0.228,0-0.38-0.133-0.38-0.381
					c0-0.416,0.056-0.871,1.005-3.07c0.91-2.105,1.103-2.77,1.103-3.357c0-0.549-0.306-1.422-1.252-1.422
					c-1.349,0-2.521,2.334-2.521,2.522c0,0.133,0.038,0.228,0.134,0.228c0.095,0,0.17-0.037,0.229-0.148
					c0.396-0.948,1.192-2.067,1.801-2.067c0.229,0,0.361,0.171,0.361,0.476c0,0.344-0.114,0.871-0.911,2.771
					C337.449,312.691,337.297,313.316,337.297,313.904 M327.57,314.529c-0.021,0.096-0.06,0.246-0.06,0.304
					c0,0.076,0.075,0.114,0.133,0.114h1.007c0.112,0,0.209-0.061,0.246-0.268l0.684-2.652c0.566-2.237,2.027-4.949,3.337-4.949
					c0.455,0,0.663,0.171,0.663,0.812c0,0.873-1.232,4.873-1.232,5.976c0,0.683,0.379,1.366,1.312,1.366
					c1.608,0,2.333-2.617,2.333-2.864c0-0.095-0.038-0.17-0.136-0.17c-0.095,0-0.149,0.095-0.209,0.245
					c-0.341,0.983-0.892,2.182-1.571,2.182c-0.229,0-0.38-0.171-0.38-0.531c0-0.55,1.23-4.566,1.23-5.783
					c0-1.021-0.605-1.84-1.745-1.84c-1.537,0-2.56,2.014-3.146,3.072l-0.038-0.038c0.113-0.604,0.208-1.021,0.208-1.438
					c0-0.909-0.438-1.596-1.365-1.596c-1.611,0-2.332,2.617-2.332,2.863c0,0.096,0.038,0.171,0.132,0.171
					c0.114,0,0.173-0.095,0.209-0.245c0.438-1.479,1.104-2.182,1.479-2.182c0.358,0,0.53,0.247,0.53,0.872
					c0,0.358-0.113,1.422-0.304,2.219L327.57,314.529z M317.33,314.529c-0.021,0.096-0.059,0.246-0.059,0.304
					c0,0.076,0.075,0.114,0.135,0.114h1.005c0.114,0,0.209-0.061,0.247-0.268l0.455-1.803c0.774-3.105,2.085-5.802,3.47-5.802
					c0.474,0,0.683,0.171,0.683,0.812c0,0.873-1.229,5.01-1.229,5.977c0,0.91,0.438,1.365,1.251,1.365
					c1.607,0,2.389-2.617,2.389-2.863c0-0.094-0.036-0.17-0.148-0.17c-0.113,0-0.189,0.095-0.246,0.246
					c-0.381,0.982-0.931,2.181-1.479,2.181c-0.245,0-0.417-0.171-0.417-0.531c0-0.909,1.233-4.684,1.233-5.782
					c0-0.983-0.606-1.841-1.745-1.841c-1.402,0-2.352,1.612-2.958,2.789l-0.038-0.021l1.139-5.081
					c0.188-0.835,0.53-2.257,0.53-2.429c0-0.15-0.075-0.209-0.229-0.209c-0.281,0-1.593,0.188-2.481,0.188
					c-0.208,0-0.303,0.038-0.303,0.151c0,0.17,0.095,0.188,0.512,0.228c0.684,0.06,0.834,0.229,0.834,0.513
					c0,0.246-0.15,0.948-0.284,1.557L317.33,314.529z M310.221,312.975c0,1.327,0.738,2.26,2.312,2.26
					c1.707,0,3.205-2.43,3.205-2.616c0-0.114-0.06-0.188-0.152-0.188c-0.076,0-0.133,0.059-0.229,0.188
					c-1.08,1.517-1.914,2.198-2.809,2.198c-0.566,0-0.909-0.438-0.909-1.193c0-2.674,1.765-6.788,3.45-6.788
					c0.304,0,0.438,0.075,0.438,0.246c0,0.267-0.209,0.267-0.209,0.683c0,0.344,0.266,0.588,0.645,0.588
					c0.455,0,0.702-0.342,0.702-0.721c0-0.721-0.702-1.156-1.403-1.156C312.514,306.471,310.221,310.396,310.221,312.975
					 M308.286,307.552c0,1.005-1.177,2.901-3.643,3.89c0.984-3.34,2.162-4.606,3.032-4.606
					C308.02,306.832,308.286,307.078,308.286,307.552 M302.844,312.975c0,1.327,0.739,2.26,2.237,2.26
					c1.858,0,3.28-2.467,3.28-2.616c0-0.114-0.058-0.188-0.151-0.188c-0.076,0-0.133,0.059-0.229,0.188
					c-1.078,1.517-1.914,2.198-2.807,2.198c-0.646,0-0.984-0.438-0.984-1.193c0-0.512,0.229-1.422,0.358-1.783
					c3.319-1.193,4.741-2.673,4.741-3.963c0-0.758-0.493-1.402-1.403-1.402C305.423,306.471,302.844,310.396,302.844,312.975
					 M298.369,311.913c-0.133,0.604-0.342,1.479-0.342,2.028c0,1.043,0.7,1.291,1.325,1.291c0.834,0,1.253-0.383,1.804-1.18
					c0.171-0.266,0.812-1.535,0.812-1.707c0-0.109-0.019-0.207-0.17-0.207c-0.188,0-0.283,0.284-0.342,0.416
					c-0.246,0.531-0.93,2.146-1.648,2.146c-0.305,0-0.528-0.19-0.528-0.626c0-0.455,0.17-1.103,0.379-1.896l1.231-4.761h1.386
					c0.243,0,0.318-0.075,0.318-0.208c0-0.189-0.095-0.266-0.245-0.266h-1.364l0.551-2.014c0.057-0.188,0.095-0.318,0.095-0.49
					c0-0.381-0.396-0.416-0.702-0.416c-0.227,0-0.492,0.057-0.549,0.281l-0.74,2.639h-1.213c-0.247,0-0.36,0.057-0.36,0.266
					c0,0.17,0.136,0.208,0.269,0.208h1.213L298.369,311.913z M291.05,313.146c0-2.238,1.214-6.314,3.109-6.314
					c0.721,0,1.214,0.587,1.214,1.725c0,2.238-1.214,6.314-3.109,6.314C291.543,314.871,291.05,314.283,291.05,313.146
					 M289.703,312.255c0,1.839,1.043,2.979,2.482,2.979c2.729,0,4.53-3.584,4.53-5.784c0-1.839-1.043-2.979-2.481-2.979
					C291.505,306.471,289.703,310.055,289.703,312.255 M284.906,314.947l1.326-3.83c0.246-0.702,0.604-1.669,1.043-2.484
					c0.418-0.812,0.91-1.555,1.365-1.555c0.17,0,0.188,0.152,0.188,0.436c0,0.36,0.283,0.569,0.664,0.569
					c0.341,0,0.682-0.321,0.682-0.722c0-0.567-0.529-0.894-1.062-0.894c-1.534,0-2.577,2.693-2.9,3.584h-0.038
					c0.038-0.341,0.188-1.555,0.188-1.915c0-1.57-0.946-1.669-1.102-1.669c-1.043,0-1.818,1.498-2.371,2.541
					c-0.056,0.114-0.132,0.248-0.132,0.36c0,0.096,0.076,0.171,0.114,0.171c0.076,0,0.152-0.021,0.189-0.095
					c0.244-0.418,0.871-1.596,1.062-1.82c0.246-0.284,0.455-0.55,0.72-0.55c0.379,0,0.379,0.721,0.379,1.005
					c0,0.171-0.037,1.594-0.738,3.925l-0.891,2.938L284.906,314.947L284.906,314.947z M278.251,311.913
					c-0.133,0.604-0.342,1.479-0.342,2.028c0,1.043,0.702,1.291,1.327,1.291c0.834,0,1.252-0.383,1.802-1.18
					c0.171-0.266,0.813-1.535,0.813-1.707c0-0.109-0.021-0.207-0.17-0.207c-0.188,0-0.285,0.284-0.344,0.416
					c-0.246,0.531-0.929,2.146-1.646,2.146c-0.307,0-0.53-0.19-0.53-0.626c0-0.455,0.17-1.103,0.379-1.896l1.231-4.761h1.385
					c0.246,0,0.322-0.075,0.322-0.208c0-0.189-0.098-0.266-0.246-0.266h-1.365l0.55-2.014c0.058-0.188,0.095-0.318,0.095-0.49
					c0-0.381-0.396-0.416-0.701-0.416c-0.228,0-0.494,0.057-0.551,0.281l-0.74,2.639h-1.213c-0.246,0-0.359,0.057-0.359,0.266
					c0,0.17,0.136,0.208,0.269,0.208h1.214L278.251,311.913z M271.709,311.098c0.359-1.744,1.631-4.02,2.938-4.02
					c0.555,0,0.703,0.379,0.703,0.626c0,0.228,0,0.985-0.854,1.782C273.833,310.111,272.354,310.908,271.709,311.098
					 M275.064,306.471c-1.385,0-2.445,1.479-2.787,2.086h-0.037l0.967-4.396c0.189-0.834,0.531-2.257,0.531-2.427
					c0-0.152-0.076-0.209-0.229-0.209c-0.284,0-1.592,0.188-2.483,0.188c-0.207,0-0.303,0.038-0.303,0.152
					c0,0.17,0.096,0.188,0.512,0.227c0.686,0.061,0.834,0.229,0.834,0.512c0,0.248-0.148,0.949-0.281,1.559l-2.26,10.372
					c-0.02,0.095-0.057,0.245-0.057,0.303c0,0.076,0.075,0.114,0.133,0.114h1.006c0.113,0,0.209-0.061,0.246-0.268l0.761-3.054
					l1.29-0.646c0.132-0.075,0.188-0.135,0.303-0.135c0.438,0,0.702,0.53,0.702,1.062c0,0.305-0.114,1.688-0.114,2.01
					c0,0.687,0.379,1.312,1.327,1.312c1.631,0,2.124-2.221,2.124-2.408c0-0.113-0.038-0.229-0.188-0.229
					c-0.15,0-0.188,0.268-0.285,0.568c-0.074,0.305-0.549,1.46-1.213,1.46c-0.113,0-0.397,0-0.397-0.437
					c0-0.492,0.058-1.008,0.058-1.498c0-1.558-0.873-1.805-1.746-2.012v-0.039c0.934-0.281,3.129-1.57,3.129-2.897
					C276.602,307.249,276.241,306.471,275.064,306.471 M267.48,307.552c0,1.005-1.176,2.901-3.644,3.89
					c0.986-3.34,2.162-4.606,3.034-4.606C267.215,306.832,267.48,307.078,267.48,307.552 M262.039,312.975
					c0,1.327,0.738,2.26,2.236,2.26c1.855,0,3.281-2.467,3.281-2.616c0-0.114-0.06-0.188-0.152-0.188
					c-0.075,0-0.133,0.059-0.229,0.188c-1.079,1.517-1.915,2.198-2.806,2.198c-0.646,0-0.986-0.438-0.986-1.193
					c0-0.512,0.229-1.422,0.36-1.783c3.315-1.193,4.739-2.673,4.739-3.963c0-0.758-0.491-1.402-1.401-1.402
					C264.617,306.471,262.039,310.396,262.039,312.975 M257.374,311.591c-0.114,0.513-0.341,1.558-0.341,2.257
					c0,1.141,0.814,1.387,1.402,1.387c1.84,0,2.578-2.521,2.578-2.715c0-0.094,0-0.265-0.15-0.265c-0.096,0-0.209,0.095-0.246,0.246
					c-0.607,1.688-1.311,2.2-1.783,2.2c-0.379,0-0.455-0.438-0.455-0.721c0-0.478,0.342-2.222,0.417-2.522l1.632-7.3
					c0.189-0.834,0.53-2.256,0.53-2.428c0-0.151-0.076-0.209-0.229-0.209c-0.279,0-1.59,0.188-2.479,0.188
					c-0.208,0-0.306,0.038-0.306,0.152c0,0.17,0.098,0.188,0.515,0.227c0.685,0.061,0.834,0.229,0.834,0.512
					c0,0.248-0.149,0.949-0.284,1.559L257.374,311.591z M254.833,307.552c0,1.005-1.175,2.901-3.64,3.89
					c0.982-3.34,2.16-4.606,3.033-4.606C254.568,306.832,254.833,307.078,254.833,307.552 M249.391,312.975
					c0,1.327,0.74,2.26,2.238,2.26c1.857,0,3.28-2.467,3.28-2.616c0-0.114-0.058-0.188-0.151-0.188
					c-0.076,0-0.133,0.059-0.228,0.188c-1.081,1.517-1.915,2.198-2.808,2.198c-0.646,0-0.984-0.438-0.984-1.193
					c0-0.512,0.227-1.422,0.359-1.783c3.315-1.193,4.737-2.673,4.737-3.963c0-0.758-0.493-1.402-1.401-1.402
					C251.971,306.471,249.391,310.396,249.391,312.975 M234.639,314.529c-0.019,0.096-0.057,0.246-0.057,0.304
					c0,0.076,0.076,0.114,0.133,0.114h1.006c0.113,0,0.209-0.061,0.246-0.268l0.682-2.652c0.569-2.237,2.029-4.949,3.338-4.949
					c0.455,0,0.664,0.171,0.664,0.812c0,0.873-1.229,4.873-1.229,5.976c0,0.683,0.379,1.366,1.31,1.366
					c1.61,0,2.332-2.617,2.332-2.864c0-0.095-0.037-0.17-0.133-0.17s-0.15,0.095-0.209,0.245c-0.342,0.983-0.892,2.182-1.572,2.182
					c-0.229,0-0.379-0.171-0.379-0.531c0-0.55,1.229-4.566,1.229-5.783c0-1.021-0.604-1.84-1.744-1.84
					c-1.536,0-2.562,2.014-3.146,3.072l-0.039-0.038c0.115-0.604,0.209-1.021,0.209-1.438c0-0.909-0.438-1.596-1.363-1.596
					c-1.611,0-2.333,2.617-2.333,2.863c0,0.096,0.038,0.171,0.133,0.171c0.114,0,0.171-0.095,0.209-0.245
					c0.435-1.479,1.099-2.182,1.479-2.182c0.357,0,0.531,0.247,0.531,0.872c0,0.358-0.115,1.422-0.307,2.219L234.639,314.529z
					 M231.643,307.552c0,1.005-1.175,2.901-3.64,3.89c0.985-3.34,2.161-4.606,3.034-4.606
					C231.378,306.832,231.643,307.078,231.643,307.552 M226.201,312.975c0,1.327,0.738,2.26,2.236,2.26
					c1.856,0,3.278-2.467,3.278-2.616c0-0.114-0.057-0.188-0.147-0.188c-0.076,0-0.135,0.059-0.229,0.188
					c-1.081,1.517-1.915,2.198-2.806,2.198c-0.646,0-0.986-0.438-0.986-1.193c0-0.512,0.227-1.422,0.36-1.783
					c3.317-1.193,4.739-2.673,4.739-3.963c0-0.758-0.492-1.402-1.402-1.402C228.779,306.471,226.201,310.396,226.201,312.975
					 M219.432,311.496l0.27-1.251h-4.665l-0.269,1.251H219.432z M207.43,307.552c0,1.005-1.176,2.901-3.641,3.89
					c0.984-3.34,2.162-4.606,3.033-4.606C207.164,306.832,207.43,307.078,207.43,307.552 M201.988,312.975
					c0,1.327,0.738,2.26,2.236,2.26c1.856,0,3.278-2.467,3.278-2.616c0-0.114-0.058-0.188-0.149-0.188
					c-0.076,0-0.133,0.059-0.229,0.188c-1.08,1.517-1.915,2.198-2.808,2.198c-0.646,0-0.984-0.438-0.984-1.193
					c0-0.512,0.229-1.422,0.359-1.783c3.317-1.193,4.74-2.673,4.74-3.963c0-0.758-0.494-1.402-1.402-1.402
					C204.566,306.471,201.988,310.396,201.988,312.975 M198.232,308.141c0,1.573-1.592,6.617-3.621,6.617
					c-0.284,0-1.043,0-1.043-1.271c0-1.728,1.726-6.602,3.679-6.602C197.911,306.889,198.232,307.457,198.232,308.141
					 M198.537,307.438h-0.038c-0.133-0.342-0.379-0.967-1.422-0.967c-2.484,0-4.854,3.889-4.854,6.146
					c0,1.288,0.646,2.616,2.123,2.616c1.594,0,2.354-1.498,3.034-2.809h0.038c-0.076,0.303-0.189,1.118-0.189,1.631
					c0,0.686,0.36,1.178,1.08,1.178c1.612,0,2.617-2.901,2.617-3.017c0-0.149-0.076-0.188-0.152-0.229
					c-0.17,0.039-0.188,0.076-0.356,0.494c-0.55,1.361-1.271,2.219-1.631,2.219c-0.308,0-0.36-0.323-0.36-0.607
					c0-0.529,0.305-2.219,0.569-3.146l2.427-8.797c0.059-0.174,0.098-0.322,0.098-0.438s-0.078-0.188-0.248-0.188
					s-1.289,0.172-2.502,0.306c-0.17,0.019-0.209,0.075-0.209,0.17c0,0.151,0.039,0.171,0.455,0.209
					c0.512,0.058,0.775,0.151,0.775,0.455c0,0.171-0.021,0.303-0.113,0.626L198.537,307.438z M184.297,306.471
					c-1.611,0-2.333,2.617-2.333,2.863c0,0.096,0.038,0.171,0.134,0.171c0.094,0,0.151-0.095,0.209-0.245
					c0.492-1.439,1.023-2.182,1.555-2.182c0.229,0,0.397,0.171,0.397,0.492c0,0.529-1.231,4.605-1.231,5.818
					c0,0.986,0.605,1.844,1.742,1.844c1.537,0,2.562-2.014,3.148-3.072l0.038,0.038c-0.114,0.604-0.208,1.021-0.208,1.438
					c0,0.91,0.436,1.597,1.365,1.597c1.611,0,2.332-2.617,2.332-2.864c0-0.095-0.061-0.171-0.152-0.171
					c-0.113,0-0.189,0.076-0.246,0.246c-0.436,1.479-1.1,2.182-1.479,2.182c-0.305,0-0.478-0.247-0.478-0.872
					c0-0.36,0.114-1.423,0.306-2.219l0.967-4.494c0.02-0.095,0.058-0.228,0.058-0.304c0-0.075-0.075-0.113-0.188-0.113h-0.945
					c-0.114,0-0.209,0.057-0.247,0.266l-0.664,2.788c-0.53,2.236-1.915,4.948-3.261,4.948c-0.455,0-0.74-0.229-0.74-0.702
					c0-0.983,1.229-5.062,1.229-6.011C185.604,306.982,185.227,306.471,184.297,306.471 M175.062,313.146
					c0-2.238,1.213-6.314,3.109-6.314c0.721,0,1.215,0.587,1.215,1.725c0,2.238-1.215,6.314-3.111,6.314
					C175.557,314.871,175.062,314.283,175.062,313.146 M173.716,312.255c0,1.839,1.043,2.979,2.484,2.979
					c2.731,0,4.532-3.584,4.532-5.784c0-1.839-1.043-2.979-2.484-2.979C175.518,306.471,173.716,310.055,173.716,312.255
					 M167.421,311.098c0.361-1.744,1.631-4.02,2.938-4.02c0.551,0,0.703,0.379,0.703,0.626c0,0.228,0,0.985-0.854,1.782
					C169.545,310.111,168.066,310.908,167.421,311.098 M170.777,306.471c-1.385,0-2.446,1.479-2.787,2.086h-0.038l0.967-4.396
					c0.19-0.834,0.531-2.257,0.531-2.427c0-0.152-0.076-0.209-0.228-0.209c-0.285,0-1.593,0.188-2.484,0.188
					c-0.209,0-0.303,0.038-0.303,0.152c0,0.17,0.094,0.188,0.512,0.227c0.683,0.061,0.835,0.229,0.835,0.512
					c0,0.248-0.152,0.949-0.285,1.559l-2.256,10.372c-0.019,0.095-0.057,0.245-0.057,0.303c0,0.076,0.076,0.114,0.133,0.114h1.005
					c0.113,0,0.208-0.061,0.247-0.268l0.758-3.054l1.29-0.646c0.133-0.075,0.19-0.135,0.303-0.135c0.437,0,0.702,0.53,0.702,1.062
					c0,0.305-0.114,1.688-0.114,2.01c0,0.687,0.38,1.312,1.327,1.312c1.631,0,2.124-2.221,2.124-2.408
					c0-0.113-0.038-0.229-0.19-0.229c-0.15,0-0.188,0.268-0.283,0.568c-0.076,0.305-0.551,1.46-1.213,1.46
					c-0.114,0-0.399,0-0.399-0.437c0-0.492,0.058-1.008,0.058-1.498c0-1.558-0.873-1.805-1.744-2.012v-0.039
					c0.928-0.281,3.127-1.57,3.127-2.897C172.312,307.249,171.953,306.471,170.777,306.471 M156.177,314.132
					c0,0.589,0.36,0.948,0.929,0.948c0.209,0,0.417-0.057,0.588-0.229c-0.019,1.062-0.607,1.914-1.764,2.483
					c-0.606,0.304-0.682,0.417-0.682,0.513c0,0.06,0.019,0.151,0.17,0.151c0.399,0,3.034-1.138,3.034-3.433
					c0-0.724-0.474-1.387-1.232-1.387C156.613,313.184,156.177,313.602,156.177,314.132 M148.763,311.496l0.266-1.251h-4.665
					l-0.265,1.251H148.763z M142.032,307.552c0,1.005-1.176,2.901-3.641,3.89c0.986-3.34,2.162-4.606,3.034-4.606
					C141.766,306.832,142.032,307.078,142.032,307.552 M136.59,312.975c0,1.327,0.739,2.26,2.237,2.26
					c1.859,0,3.281-2.467,3.281-2.616c0-0.114-0.057-0.188-0.152-0.188c-0.076,0-0.133,0.059-0.228,0.188
					c-1.08,1.517-1.915,2.198-2.806,2.198c-0.645,0-0.986-0.438-0.986-1.193c0-0.512,0.228-1.422,0.36-1.783
					c3.319-1.193,4.741-2.673,4.741-3.963c0-0.758-0.493-1.402-1.403-1.402C139.169,306.471,136.59,310.396,136.59,312.975
					 M133.954,303.077c0,0.455,0.379,0.834,0.835,0.834c0.455,0,0.834-0.379,0.834-0.834s-0.379-0.834-0.834-0.834
					C134.333,302.243,133.954,302.622,133.954,303.077 M131.565,313.904c0,0.775,0.436,1.328,1.251,1.328
					c1.593,0,2.75-2.715,2.75-2.826c0-0.113-0.057-0.208-0.19-0.208c-0.094,0-0.151,0.057-0.227,0.208
					c-0.797,1.593-1.536,2.295-1.953,2.295c-0.228,0-0.38-0.133-0.38-0.381c0-0.416,0.057-0.871,1.005-3.07
					c0.911-2.105,1.1-2.77,1.1-3.357c0-0.549-0.303-1.422-1.251-1.422c-1.347,0-2.522,2.334-2.522,2.522
					c0,0.133,0.038,0.228,0.133,0.228c0.094,0,0.17-0.037,0.227-0.148c0.398-0.948,1.195-2.067,1.801-2.067
					c0.228,0,0.361,0.171,0.361,0.476c0,0.344-0.114,0.871-0.91,2.771C131.717,312.691,131.565,313.316,131.565,313.904
					 M126.464,311.913c-0.132,0.604-0.341,1.479-0.341,2.028c0,1.043,0.702,1.291,1.327,1.291c0.835,0,1.252-0.383,1.802-1.18
					c0.17-0.266,0.815-1.535,0.815-1.707c0-0.109-0.019-0.207-0.171-0.207c-0.189,0-0.284,0.284-0.341,0.416
					c-0.246,0.531-0.929,2.146-1.65,2.146c-0.303,0-0.53-0.19-0.53-0.626c0-0.455,0.17-1.103,0.379-1.896l1.232-4.761h1.384
					c0.247,0,0.323-0.075,0.323-0.208c0-0.189-0.095-0.266-0.247-0.266h-1.365l0.55-2.014c0.057-0.188,0.095-0.318,0.095-0.49
					c0-0.381-0.398-0.416-0.702-0.416c-0.227,0-0.493,0.057-0.55,0.281l-0.739,2.639h-1.214c-0.246,0-0.36,0.057-0.36,0.266
					c0,0.17,0.133,0.208,0.265,0.208h1.214L126.464,311.913z M117.685,313.393c0-2.026,2.124-6.504,3.963-6.504
					c0.512,0,0.948,0.322,0.948,1.156c0,1.327-1.839,6.771-3.963,6.771C118.064,314.814,117.685,314.302,117.685,313.393
					 M116.339,312.71c0,1.573,0.796,2.522,2.199,2.522c1.176,0,2.181-0.986,2.939-2.562l0.038,0.038
					c-0.094,0.438-0.227,1.005-0.227,1.308c0,0.762,0.379,1.217,1.194,1.217c1.612,0,2.333-2.616,2.333-2.809
					c0-0.115-0.038-0.229-0.171-0.229c-0.114,0-0.19,0.076-0.228,0.246c-0.398,1.479-1.099,2.182-1.46,2.182
					c-0.265,0-0.417-0.171-0.417-0.493c0-0.474,0.209-2.312,1.498-6.144c0.152-0.493,0.266-0.777,0.266-0.969
					c0-0.188-0.209-0.396-0.759-0.396c-0.284,0-0.379,0.229-0.588,1.119l-0.037-0.021c-0.076-0.645-0.512-1.252-1.498-1.252
					C119.183,306.471,116.339,309.998,116.339,312.71 M111.902,311.591c-0.114,0.513-0.342,1.558-0.342,2.257
					c0,1.141,0.816,1.387,1.404,1.387c1.839,0,2.578-2.521,2.578-2.715c0-0.094,0-0.265-0.151-0.265
					c-0.095,0-0.209,0.095-0.247,0.246c-0.607,1.688-1.308,2.2-1.782,2.2c-0.379,0-0.455-0.438-0.455-0.721
					c0-0.478,0.341-2.222,0.417-2.522l1.631-7.3c0.189-0.834,0.531-2.256,0.531-2.428c0-0.151-0.076-0.209-0.228-0.209
					c-0.284,0-1.593,0.188-2.484,0.188c-0.209,0-0.303,0.038-0.303,0.152c0,0.17,0.094,0.188,0.512,0.227
					c0.682,0.061,0.834,0.229,0.834,0.512c0,0.248-0.152,0.949-0.284,1.559L111.902,311.591z M106.63,311.591
					c-0.113,0.513-0.341,1.558-0.341,2.257c0,1.141,0.816,1.387,1.403,1.387c1.84,0,2.579-2.521,2.579-2.715
					c0-0.094,0-0.265-0.152-0.265c-0.094,0-0.208,0.095-0.246,0.246c-0.607,1.688-1.308,2.2-1.782,2.2
					c-0.38,0-0.456-0.438-0.456-0.721c0-0.478,0.342-2.222,0.418-2.522l1.63-7.3c0.19-0.834,0.531-2.256,0.531-2.428
					c0-0.151-0.076-0.209-0.227-0.209c-0.285,0-1.593,0.188-2.484,0.188c-0.209,0-0.304,0.038-0.304,0.152
					c0,0.17,0.095,0.188,0.512,0.227c0.683,0.061,0.835,0.229,0.835,0.512c0,0.248-0.152,0.949-0.285,1.559L106.63,311.591z
					 M97.662,313.393c0-2.026,2.123-6.504,3.963-6.504c0.512,0,0.948,0.322,0.948,1.156c0,1.327-1.84,6.771-3.963,6.771
					C98.041,314.814,97.662,314.302,97.662,313.393 M96.315,312.71c0,1.573,0.797,2.522,2.2,2.522c1.175,0,2.18-0.986,2.939-2.562
					l0.038,0.038c-0.095,0.438-0.228,1.005-0.228,1.308c0,0.762,0.38,1.217,1.195,1.217c1.612,0,2.332-2.616,2.332-2.809
					c0-0.115-0.038-0.229-0.17-0.229c-0.114,0-0.19,0.076-0.228,0.246c-0.398,1.479-1.1,2.182-1.46,2.182
					c-0.266,0-0.417-0.171-0.417-0.493c0-0.474,0.208-2.312,1.498-6.144c0.151-0.493,0.265-0.777,0.265-0.969
					c0-0.188-0.208-0.396-0.758-0.396c-0.285,0-0.379,0.229-0.588,1.119l-0.038-0.021c-0.076-0.645-0.512-1.252-1.498-1.252
					C99.16,306.471,96.315,309.998,96.315,312.71 M91.878,311.913c-0.133,0.604-0.341,1.479-0.341,2.028
					c0,1.043,0.701,1.291,1.327,1.291c0.835,0,1.252-0.383,1.802-1.18c0.17-0.266,0.815-1.535,0.815-1.707
					c0-0.109-0.019-0.207-0.171-0.207c-0.189,0-0.284,0.284-0.341,0.416c-0.247,0.531-0.929,2.146-1.65,2.146
					c-0.303,0-0.531-0.19-0.531-0.626c0-0.455,0.171-1.103,0.38-1.896l1.232-4.761h1.384c0.247,0,0.323-0.075,0.323-0.208
					c0-0.189-0.095-0.266-0.247-0.266h-1.365l0.55-2.014c0.057-0.188,0.095-0.318,0.095-0.49c0-0.381-0.399-0.416-0.702-0.416
					c-0.228,0-0.493,0.057-0.55,0.281l-0.739,2.639h-1.214c-0.246,0-0.36,0.057-0.36,0.266c0,0.17,0.133,0.208,0.265,0.208h1.214
					L91.878,311.913z M84.332,313.602c0,1.023,0.891,1.633,2.237,1.633c2.086,0,2.939-1.403,2.939-2.654
					c0-0.664-0.171-1.062-1.024-2.2c-1.081-1.422-1.232-1.856-1.232-2.294c0-0.796,0.606-1.251,1.403-1.251
					c0.645,0,0.853,0.208,0.853,0.663s0.114,0.645,0.474,0.645c0.304,0,0.474-0.188,0.474-0.512c0-0.664-0.739-1.156-1.706-1.156
					c-1.347,0-2.56,0.797-2.56,2.295c0,0.723,0.152,1.193,1.346,2.809c0.759,1.021,0.91,1.363,0.91,1.839
					c0,0.722-0.644,1.46-1.744,1.46c-0.74,0-1.309-0.303-1.309-0.814c0-0.188,0.076-0.379,0.076-0.566
					c0-0.284-0.208-0.551-0.569-0.551C84.578,312.938,84.332,313.165,84.332,313.602 M75.666,314.529
					c-0.019,0.096-0.057,0.246-0.057,0.304c0,0.076,0.076,0.114,0.133,0.114h1.005c0.114,0,0.209-0.061,0.246-0.268l0.683-2.652
					c0.569-2.237,2.029-4.949,3.337-4.949c0.455,0,0.664,0.171,0.664,0.812c0,0.873-1.233,4.873-1.233,5.976
					c0,0.683,0.38,1.366,1.309,1.366c1.612,0,2.332-2.617,2.332-2.864c0-0.095-0.038-0.17-0.133-0.17
					c-0.094,0-0.151,0.095-0.208,0.245c-0.342,0.983-0.891,2.182-1.574,2.182c-0.228,0-0.379-0.171-0.379-0.531
					c0-0.55,1.232-4.566,1.232-5.783c0-1.021-0.607-1.84-1.744-1.84c-1.536,0-2.56,2.014-3.148,3.072l-0.038-0.038
					c0.114-0.604,0.209-1.021,0.209-1.438c0-0.909-0.436-1.596-1.365-1.596c-1.612,0-2.333,2.617-2.333,2.863
					c0,0.096,0.038,0.171,0.133,0.171c0.114,0,0.171-0.095,0.209-0.245c0.436-1.479,1.099-2.182,1.479-2.182
					c0.36,0,0.531,0.247,0.531,0.872c0,0.358-0.114,1.422-0.304,2.219L75.666,314.529z M71.969,303.077
					c0,0.455,0.379,0.834,0.834,0.834c0.455,0,0.834-0.379,0.834-0.834s-0.379-0.834-0.834-0.834
					C72.348,302.243,71.969,302.622,71.969,303.077 M69.579,313.904c0,0.775,0.437,1.328,1.252,1.328
					c1.593,0,2.749-2.715,2.749-2.826c0-0.113-0.057-0.208-0.189-0.208c-0.095,0-0.152,0.057-0.228,0.208
					c-0.796,1.593-1.536,2.295-1.953,2.295c-0.227,0-0.379-0.133-0.379-0.381c0-0.416,0.057-0.871,1.005-3.07
					c0.91-2.105,1.1-2.77,1.1-3.357c0-0.549-0.304-1.422-1.252-1.422c-1.346,0-2.522,2.334-2.522,2.522
					c0,0.133,0.038,0.228,0.133,0.228c0.095,0,0.171-0.037,0.228-0.148c0.398-0.948,1.194-2.067,1.801-2.067
					c0.227,0,0.36,0.171,0.36,0.476c0,0.344-0.114,0.871-0.91,2.771C69.731,312.691,69.579,313.316,69.579,313.904 M60.383,314.132
					c0,0.589,0.36,0.948,0.929,0.948c0.209,0,0.417-0.057,0.588-0.229c-0.019,1.062-0.607,1.914-1.764,2.483
					c-0.606,0.304-0.682,0.417-0.682,0.513c0,0.06,0.019,0.151,0.17,0.151c0.399,0,3.034-1.138,3.034-3.433
					c0-0.724-0.474-1.387-1.232-1.387C60.819,313.184,60.383,313.602,60.383,314.132 M58.24,311.496l0.266-1.251h-4.665
					l-0.265,1.251H58.24z M48.779,311.591c-0.114,0.513-0.342,1.558-0.342,2.257c0,1.141,0.816,1.387,1.403,1.387
					c1.84,0,2.579-2.521,2.579-2.715c0-0.094,0-0.265-0.151-0.265c-0.095,0-0.209,0.095-0.247,0.246
					c-0.607,1.688-1.308,2.2-1.782,2.2c-0.38,0-0.455-0.438-0.455-0.721c0-0.478,0.341-2.222,0.417-2.522l1.63-7.3
					c0.19-0.834,0.531-2.256,0.531-2.428c0-0.151-0.076-0.209-0.227-0.209c-0.285,0-1.593,0.188-2.484,0.188
					c-0.209,0-0.304,0.038-0.304,0.152c0,0.17,0.095,0.188,0.512,0.227c0.683,0.061,0.835,0.229,0.835,0.512
					c0,0.248-0.152,0.949-0.285,1.559L48.779,311.591z M39.81,313.393c0-2.026,2.123-6.504,3.963-6.504
					c0.512,0,0.948,0.322,0.948,1.156c0,1.327-1.84,6.771-3.963,6.771C40.189,314.814,39.81,314.302,39.81,313.393 M38.463,312.71
					c0,1.573,0.797,2.522,2.2,2.522c1.176,0,2.181-0.986,2.939-2.562l0.038,0.038c-0.095,0.438-0.228,1.005-0.228,1.308
					c0,0.762,0.38,1.217,1.195,1.217c1.612,0,2.332-2.616,2.332-2.809c0-0.115-0.038-0.229-0.17-0.229
					c-0.114,0-0.19,0.076-0.228,0.246c-0.398,1.479-1.1,2.182-1.46,2.182c-0.265,0-0.417-0.171-0.417-0.493
					c0-0.474,0.208-2.312,1.498-6.144c0.152-0.493,0.265-0.777,0.265-0.969c0-0.188-0.208-0.396-0.758-0.396
					c-0.285,0-0.379,0.229-0.588,1.119l-0.038-0.021c-0.076-0.645-0.512-1.252-1.498-1.252
					C41.308,306.471,38.463,309.998,38.463,312.71 M30.329,313.393c0-2.026,2.124-6.504,3.963-6.504
					c0.512,0,0.948,0.322,0.948,1.156c0,1.327-1.839,6.771-3.963,6.771C30.708,314.814,30.329,314.302,30.329,313.393
					 M28.983,312.71c0,1.573,0.796,2.522,2.199,2.522c1.176,0,2.181-0.986,2.939-2.562l0.038,0.038
					c-0.095,0.438-0.227,1.005-0.227,1.308c0,0.762,0.379,1.217,1.194,1.217c1.612,0,2.332-2.616,2.332-2.809
					c0-0.115-0.037-0.229-0.17-0.229c-0.114,0-0.19,0.076-0.228,0.246c-0.398,1.479-1.1,2.182-1.46,2.182
					c-0.265,0-0.417-0.171-0.417-0.493c0-0.474,0.209-2.312,1.498-6.144c0.152-0.493,0.265-0.777,0.265-0.969
					c0-0.188-0.208-0.396-0.758-0.396c-0.284,0-0.379,0.229-0.588,1.119l-0.038-0.021c-0.076-0.645-0.512-1.252-1.498-1.252
					C31.827,306.471,28.983,309.998,28.983,312.71 M24.545,311.913c-0.132,0.604-0.341,1.479-0.341,2.028
					c0,1.043,0.702,1.291,1.327,1.291c0.835,0,1.252-0.383,1.802-1.18c0.17-0.266,0.815-1.535,0.815-1.707
					c0-0.109-0.019-0.207-0.171-0.207c-0.189,0-0.284,0.284-0.341,0.416c-0.246,0.531-0.929,2.146-1.649,2.146
					c-0.304,0-0.531-0.19-0.531-0.626c0-0.455,0.17-1.103,0.379-1.896l1.232-4.761h1.385c0.246,0,0.322-0.075,0.322-0.208
					c0-0.189-0.095-0.266-0.247-0.266h-1.365l0.55-2.014c0.057-0.188,0.095-0.318,0.095-0.49c0-0.381-0.398-0.416-0.702-0.416
					c-0.227,0-0.493,0.057-0.55,0.281l-0.739,2.639h-1.214c-0.246,0-0.36,0.057-0.36,0.266c0,0.17,0.133,0.208,0.266,0.208h1.213
					L24.545,311.913z M22.194,307.552c0,1.005-1.175,2.901-3.64,3.89c0.986-3.34,2.161-4.606,3.034-4.606
					C21.929,306.832,22.194,307.078,22.194,307.552 M16.752,312.975c0,1.327,0.74,2.26,2.238,2.26c1.858,0,3.28-2.467,3.28-2.616
					c0-0.114-0.057-0.188-0.152-0.188c-0.075,0-0.132,0.059-0.227,0.188c-1.081,1.517-1.915,2.198-2.806,2.198
					c-0.645,0-0.986-0.438-0.986-1.193c0-0.512,0.227-1.422,0.36-1.783c3.318-1.193,4.74-2.673,4.74-3.963
					c0-0.758-0.493-1.402-1.403-1.402C19.331,306.471,16.752,310.396,16.752,312.975 M3.062,314.529
					c-0.019,0.096-0.057,0.246-0.057,0.304c0,0.076,0.076,0.114,0.133,0.114h1.005c0.114,0,0.208-0.061,0.246-0.268l0.683-2.652
					c0.569-2.221,2.029-4.949,3.11-4.949c0.36,0,0.531,0.247,0.531,0.872c0,0.358-0.114,1.422-0.304,2.219l-0.986,4.36
					c-0.019,0.096-0.057,0.246-0.057,0.304c0,0.076,0.076,0.114,0.133,0.114h1.005c0.114,0,0.209-0.061,0.247-0.268l0.682-2.652
					c0.569-2.237,2.067-4.949,3.28-4.949c0.361,0,0.569,0.283,0.569,0.812c0,0.873-1.232,4.873-1.232,5.976
					c0,0.683,0.379,1.366,1.308,1.366c1.612,0,2.332-2.617,2.332-2.864c0-0.095-0.037-0.17-0.132-0.17
					c-0.095,0-0.152,0.095-0.209,0.245c-0.341,0.983-0.891,2.182-1.574,2.182c-0.227,0-0.379-0.171-0.379-0.531
					c0-0.55,1.233-4.566,1.233-5.783c0-0.982-0.607-1.84-1.612-1.84c-1.536,0-2.56,1.991-3.129,3.072l-0.038-0.038
					c0.114-0.604,0.209-1.021,0.209-1.438c0-0.909-0.455-1.596-1.403-1.596c-1.536,0-2.56,1.991-3.129,3.072l-0.038-0.038
					c0.114-0.604,0.209-1.021,0.209-1.438c0-0.909-0.436-1.596-1.366-1.596c-1.479,0-2.332,2.37-2.332,2.863
					c0,0.096,0.057,0.171,0.152,0.171c0.114,0,0.189-0.075,0.246-0.245c0.436-1.479,1.1-2.182,1.479-2.182
					c0.304,0,0.474,0.247,0.474,0.872c0,0.358-0.113,1.422-0.303,2.219L3.062,314.529z"/>
			</g>
		</g>
	</g>
	<g>
		<g>
			<g>
				<defs>
					<rect id="SVGID_13_" width="360" height="320"/>
				</defs>
				<clipPath id="SVGID_14_">
					<use xlink:href="#SVGID_13_"  overflow="visible"/>
				</clipPath>
				<path clip-path="url(#SVGID_14_)" fill="#FFFFFF" d="M273.49,279.471c0,1.022,0.892,1.631,2.236,1.631
					c2.086,0,2.938-1.401,2.938-2.652c0-0.664-0.172-1.062-1.021-2.2c-1.082-1.422-1.232-1.854-1.232-2.294
					c0-0.797,0.605-1.252,1.402-1.252c0.646,0,0.854,0.209,0.854,0.664c0,0.453,0.111,0.646,0.475,0.646
					c0.305,0,0.473-0.189,0.473-0.514c0-0.664-0.735-1.157-1.703-1.157c-1.348,0-2.561,0.798-2.561,2.296
					c0,0.723,0.149,1.193,1.346,2.809c0.76,1.021,0.91,1.365,0.91,1.839c0,0.72-0.646,1.46-1.744,1.46
					c-0.739,0-1.309-0.303-1.309-0.814c0-0.188,0.074-0.381,0.074-0.568c0-0.283-0.208-0.551-0.568-0.551
					C273.734,278.807,273.49,279.033,273.49,279.471 M269.205,280.816l1.327-3.83c0.245-0.702,0.606-1.67,1.042-2.484
					c0.418-0.814,0.91-1.555,1.365-1.555c0.17,0,0.188,0.15,0.188,0.436c0,0.36,0.285,0.569,0.664,0.569
					c0.341,0,0.686-0.323,0.686-0.722c0-0.568-0.533-0.894-1.062-0.894c-1.536,0-2.579,2.693-2.9,3.584h-0.039
					c0.039-0.342,0.189-1.555,0.189-1.914c0-1.571-0.948-1.67-1.1-1.67c-1.043,0-1.821,1.498-2.371,2.541
					c-0.06,0.114-0.133,0.246-0.133,0.36c0,0.095,0.073,0.171,0.111,0.171c0.076,0,0.15-0.021,0.188-0.097
					c0.244-0.418,0.871-1.594,1.062-1.818c0.246-0.285,0.455-0.553,0.721-0.553c0.381,0,0.381,0.723,0.381,1.008
					c0,0.17-0.039,1.592-0.739,3.925l-0.892,2.938h1.312L269.205,280.816L269.205,280.816z M265.471,273.421
					c0,1.006-1.177,2.901-3.643,3.888c0.986-3.336,2.162-4.605,3.033-4.605C265.203,272.7,265.471,272.947,265.471,273.421
					 M260.027,278.844c0,1.327,0.738,2.258,2.236,2.258c1.857,0,3.279-2.466,3.279-2.617c0-0.111-0.061-0.188-0.15-0.188
					c-0.076,0-0.135,0.061-0.229,0.188c-1.081,1.519-1.916,2.199-2.811,2.199c-0.645,0-0.982-0.437-0.982-1.191
					c0-0.514,0.229-1.426,0.357-1.783c3.318-1.191,4.74-2.673,4.74-3.963c0-0.76-0.492-1.403-1.404-1.403
					C262.605,272.34,260.027,276.266,260.027,278.844 M256.271,274.01c0,1.572-1.592,6.616-3.621,6.616
					c-0.284,0-1.043,0-1.043-1.271c0-1.729,1.727-6.602,3.68-6.602C255.95,272.757,256.271,273.326,256.271,274.01 M256.576,273.309
					h-0.037c-0.135-0.343-0.38-0.969-1.423-0.969c-2.483,0-4.854,3.889-4.854,6.145c0,1.289,0.646,2.617,2.123,2.617
					c1.594,0,2.352-1.498,3.034-2.808h0.038c-0.076,0.304-0.189,1.119-0.189,1.632c0,0.682,0.36,1.176,1.08,1.176
					c1.612,0,2.617-2.899,2.617-3.017c0-0.149-0.076-0.188-0.152-0.228c-0.17,0.039-0.188,0.076-0.357,0.494
					c-0.553,1.361-1.271,2.217-1.632,2.217c-0.304,0-0.358-0.321-0.358-0.605c0-0.529,0.307-2.219,0.567-3.146l2.429-8.799
					c0.059-0.17,0.098-0.322,0.098-0.437c0-0.115-0.076-0.188-0.248-0.188c-0.17,0-1.289,0.17-2.502,0.303
					c-0.173,0.021-0.209,0.076-0.209,0.173c0,0.149,0.036,0.171,0.453,0.209c0.514,0.056,0.776,0.149,0.776,0.452
					c0,0.173-0.021,0.306-0.112,0.625L256.576,273.309z M247.91,268.945c0,0.455,0.381,0.834,0.835,0.834
					c0.455,0,0.835-0.379,0.835-0.834c0-0.454-0.38-0.834-0.835-0.834C248.291,268.111,247.91,268.491,247.91,268.945
					 M245.521,279.773c0,0.774,0.437,1.326,1.252,1.326c1.593,0,2.748-2.711,2.748-2.824c0-0.114-0.059-0.209-0.188-0.209
					c-0.097,0-0.151,0.057-0.229,0.209c-0.797,1.593-1.537,2.293-1.953,2.293c-0.229,0-0.379-0.131-0.379-0.379
					c0-0.416,0.06-0.871,1.004-3.071c0.91-2.104,1.103-2.769,1.103-3.356c0-0.55-0.304-1.422-1.251-1.422
					c-1.35,0-2.521,2.332-2.521,2.521c0,0.134,0.037,0.228,0.131,0.228c0.099,0,0.173-0.036,0.229-0.149
					c0.396-0.946,1.194-2.065,1.804-2.065c0.228,0,0.358,0.171,0.358,0.476c0,0.342-0.112,0.873-0.91,2.77
					C245.674,278.561,245.521,279.186,245.521,279.773 M243.342,273.421c0,1.006-1.176,2.901-3.642,3.888
					c0.985-3.336,2.161-4.605,3.034-4.605C243.075,272.7,243.342,272.947,243.342,273.421 M237.898,278.844
					c0,1.327,0.74,2.258,2.235,2.258c1.858,0,3.281-2.466,3.281-2.617c0-0.111-0.06-0.188-0.149-0.188
					c-0.076,0-0.136,0.061-0.229,0.188c-1.079,1.519-1.914,2.199-2.806,2.199c-0.646,0-0.986-0.437-0.986-1.191
					c0-0.514,0.229-1.426,0.359-1.783c3.317-1.191,4.742-2.673,4.742-3.963c0-0.76-0.494-1.403-1.404-1.403
					C240.479,272.34,237.898,276.266,237.898,278.844 M233.234,277.46c-0.114,0.513-0.342,1.556-0.342,2.256
					c0,1.14,0.813,1.386,1.401,1.386c1.839,0,2.579-2.521,2.579-2.711c0-0.097,0-0.268-0.15-0.268c-0.097,0-0.207,0.096-0.246,0.247
					c-0.606,1.688-1.311,2.198-1.783,2.198c-0.379,0-0.455-0.438-0.455-0.719c0-0.478,0.344-2.223,0.418-2.522l1.631-7.3
					c0.189-0.836,0.531-2.258,0.531-2.428c0-0.151-0.076-0.209-0.229-0.209c-0.282,0-1.592,0.188-2.483,0.188
					c-0.207,0-0.304,0.038-0.304,0.148c0,0.172,0.097,0.189,0.513,0.229c0.686,0.06,0.834,0.229,0.834,0.515
					c0,0.244-0.148,0.945-0.282,1.555L233.234,277.46z M230.693,273.421c0,1.006-1.176,2.901-3.643,3.888
					c0.986-3.336,2.162-4.605,3.034-4.605C230.43,272.7,230.693,272.947,230.693,273.421 M225.253,278.844
					c0,1.327,0.738,2.258,2.236,2.258c1.858,0,3.28-2.466,3.28-2.617c0-0.111-0.06-0.188-0.151-0.188
					c-0.075,0-0.134,0.061-0.228,0.188c-1.082,1.519-1.916,2.199-2.809,2.199c-0.646,0-0.984-0.437-0.984-1.191
					c0-0.514,0.228-1.426,0.358-1.783c3.315-1.191,4.737-2.673,4.737-3.963c0-0.76-0.49-1.403-1.4-1.403
					C227.831,272.34,225.253,276.266,225.253,278.844 M222.01,274.255c0,0.455-0.512,4.097-2.352,4.097
					c-0.815,0-1.215-0.513-1.215-1.459c0-0.685,0.703-4.136,2.295-4.136C221.818,272.757,222.01,273.459,222.01,274.255
					 M218.218,280.418c-0.53-0.095-0.797-0.322-0.797-0.777c0-0.283,0.267-0.834,1.384-0.854l0.702-0.02
					c2.845-0.135,3.755-2.601,3.755-4.061c0-0.438-0.133-0.854-0.229-1.081c0.379-0.267,0.721-0.528,0.93-0.528
					s0.247,0.188,0.283,0.551c0.059,0.379,0.305,0.566,0.589,0.566c0.149,0,0.646-0.111,0.646-0.66c0-0.934-0.664-1.062-1.062-1.062
					c-0.685,0-1.155,0.379-1.594,0.738c-0.359-0.455-0.798-0.894-2.028-0.894c-1.818,0-3.604,2.124-3.604,3.906
					c0,1.231,0.625,1.688,1.31,2.181c-1.231,0.135-2.219,0.814-2.219,1.782c0,1.61,2.807,1.896,3.926,2.048
					c1.117,0.152,1.896,0.438,1.896,1.461c0,1.535-1.688,1.99-2.938,1.99c-1.252,0-2.771-0.626-2.771-2.104
					c0-0.932,0.687-1.213,0.894-1.349c-0.188-0.133-0.321-0.209-0.646-0.209c-0.742,0-1.385,0.606-1.385,1.519
					c0,1.728,2.236,2.562,3.906,2.562c2.218,0,3.963-0.91,3.963-2.958c0-1.384-0.91-2.104-2.199-2.312L218.218,280.418z
					 M214.312,273.421c0,1.006-1.179,2.901-3.644,3.888c0.983-3.336,2.162-4.605,3.034-4.605
					C214.046,272.7,214.312,272.947,214.312,273.421 M208.869,278.844c0,1.327,0.738,2.258,2.236,2.258
					c1.856,0,3.281-2.466,3.281-2.617c0-0.111-0.059-0.188-0.152-0.188c-0.075,0-0.133,0.061-0.229,0.188
					c-1.081,1.519-1.915,2.199-2.807,2.199c-0.646,0-0.985-0.437-0.985-1.191c0-0.514,0.229-1.426,0.359-1.783
					c3.316-1.191,4.738-2.673,4.738-3.963c0-0.76-0.492-1.403-1.401-1.403C211.447,272.34,208.869,276.266,208.869,278.844
					 M204.072,270.027c0.188-0.836,0.531-2.258,0.531-2.428c0-0.151-0.076-0.209-0.229-0.209c-0.284,0-1.595,0.188-2.483,0.188
					c-0.209,0-0.304,0.038-0.304,0.148c0,0.172,0.095,0.189,0.513,0.229c0.684,0.06,0.834,0.229,0.834,0.515
					c0,0.244-0.15,0.945-0.283,1.555l-1.461,6.77c-0.094,0.396-0.358,1.498-0.358,2.104c0,1.365,0.892,2.199,2.353,2.199
					c2.389,0,4.627-3.697,4.627-6.123c0-1.252-0.627-2.639-2.295-2.639c-1.156,0-1.82,0.969-2.428,1.975h-0.038L204.072,270.027z
					 M202.082,279.166c0-1.119,1.346-6.352,3.261-6.352c0.664,0,1.044,0.625,1.044,1.438c0,1.915-1.347,6.482-3.205,6.482
					C202.365,280.74,202.082,280.076,202.082,279.166 M198.952,277.365l0.267-1.252h-4.664l-0.266,1.252H198.952z M179.404,280.398
					c-0.02,0.095-0.058,0.246-0.058,0.304c0,0.075,0.076,0.114,0.134,0.114h1.004c0.114,0,0.208-0.06,0.247-0.269l0.686-2.651
					c0.566-2.238,2.025-4.949,3.337-4.949c0.455,0,0.664,0.17,0.664,0.812c0,0.872-1.231,4.873-1.231,5.975
					c0,0.684,0.379,1.365,1.31,1.365c1.61,0,2.332-2.615,2.332-2.863c0-0.094-0.038-0.17-0.134-0.17
					c-0.094,0-0.151,0.095-0.209,0.246c-0.34,0.983-0.893,2.181-1.572,2.181c-0.229,0-0.381-0.171-0.381-0.53
					c0-0.55,1.234-4.568,1.234-5.783c0-1.023-0.609-1.84-1.746-1.84c-1.535,0-2.561,2.012-3.146,3.072l-0.037-0.038
					c0.113-0.606,0.208-1.022,0.208-1.44c0-0.91-0.437-1.594-1.364-1.594c-1.612,0-2.333,2.617-2.333,2.863
					c0,0.095,0.038,0.171,0.133,0.171c0.113,0,0.17-0.095,0.208-0.247c0.437-1.479,1.101-2.18,1.479-2.18
					c0.36,0,0.53,0.246,0.53,0.871c0,0.359-0.113,1.423-0.303,2.22L179.404,280.398z M176.408,273.421
					c0,1.006-1.176,2.901-3.642,3.888c0.986-3.336,2.162-4.605,3.034-4.605C176.143,272.7,176.408,272.947,176.408,273.421
					 M170.966,278.844c0,1.327,0.739,2.258,2.237,2.258c1.859,0,3.281-2.466,3.281-2.617c0-0.111-0.058-0.188-0.152-0.188
					c-0.076,0-0.133,0.061-0.227,0.188c-1.082,1.519-1.916,2.199-2.808,2.199c-0.644,0-0.985-0.437-0.985-1.191
					c0-0.514,0.227-1.426,0.36-1.783c3.317-1.191,4.739-2.673,4.739-3.963c0-0.76-0.492-1.403-1.402-1.403
					C173.545,272.34,170.966,276.266,170.966,278.844 M158.565,279.471c0,1.022,0.891,1.631,2.238,1.631
					c2.085,0,2.939-1.401,2.939-2.652c0-0.664-0.171-1.062-1.024-2.2c-1.081-1.422-1.233-1.854-1.233-2.294
					c0-0.797,0.607-1.252,1.403-1.252c0.645,0,0.854,0.209,0.854,0.664c0,0.453,0.114,0.646,0.474,0.646
					c0.303,0,0.474-0.189,0.474-0.514c0-0.664-0.74-1.157-1.707-1.157c-1.346,0-2.56,0.798-2.56,2.296
					c0,0.723,0.152,1.193,1.347,2.809c0.758,1.021,0.91,1.365,0.91,1.839c0,0.72-0.645,1.46-1.745,1.46
					c-0.739,0-1.308-0.303-1.308-0.814c0-0.188,0.076-0.381,0.076-0.568c0-0.283-0.209-0.551-0.569-0.551
					C158.812,278.807,158.565,279.033,158.565,279.471 M154.28,280.816l1.327-3.83c0.247-0.702,0.607-1.67,1.043-2.484
					c0.417-0.814,0.91-1.555,1.365-1.555c0.171,0,0.19,0.15,0.19,0.436c0,0.36,0.284,0.569,0.664,0.569
					c0.341,0,0.682-0.323,0.682-0.722c0-0.568-0.531-0.894-1.062-0.894c-1.535,0-2.578,2.693-2.901,3.584h-0.038
					c0.038-0.342,0.19-1.555,0.19-1.914c0-1.571-0.948-1.67-1.1-1.67c-1.043,0-1.82,1.498-2.37,2.541
					c-0.057,0.114-0.133,0.246-0.133,0.36c0,0.095,0.076,0.171,0.114,0.171c0.076,0,0.152-0.021,0.19-0.097
					c0.246-0.418,0.872-1.594,1.061-1.818c0.247-0.285,0.456-0.553,0.721-0.553c0.379,0,0.379,0.723,0.379,1.008
					c0,0.17-0.038,1.592-0.739,3.925l-0.891,2.938h1.308V280.816L154.28,280.816z M150.545,273.421c0,1.006-1.176,2.901-3.641,3.888
					c0.986-3.336,2.162-4.605,3.034-4.605C150.279,272.7,150.545,272.947,150.545,273.421 M145.103,278.844
					c0,1.327,0.739,2.258,2.237,2.258c1.858,0,3.28-2.466,3.28-2.617c0-0.111-0.056-0.188-0.151-0.188
					c-0.076,0-0.133,0.061-0.228,0.188c-1.081,1.519-1.915,2.199-2.806,2.199c-0.645,0-0.986-0.437-0.986-1.191
					c0-0.514,0.227-1.426,0.36-1.783c3.318-1.191,4.741-2.673,4.741-3.963c0-0.76-0.493-1.403-1.404-1.403
					C147.681,272.34,145.103,276.266,145.103,278.844 M141.348,274.01c0,1.572-1.593,6.616-3.621,6.616
					c-0.285,0-1.043,0-1.043-1.271c0-1.729,1.725-6.602,3.678-6.602C141.026,272.757,141.348,273.326,141.348,274.01
					 M141.652,273.309h-0.038c-0.133-0.343-0.38-0.969-1.422-0.969c-2.484,0-4.855,3.889-4.855,6.145
					c0,1.289,0.645,2.617,2.124,2.617c1.593,0,2.351-1.498,3.034-2.808h0.038c-0.076,0.304-0.19,1.119-0.19,1.632
					c0,0.682,0.361,1.176,1.081,1.176c1.612,0,2.617-2.899,2.617-3.017c0-0.149-0.076-0.188-0.152-0.228
					c-0.171,0.039-0.19,0.076-0.36,0.494c-0.55,1.361-1.271,2.217-1.631,2.217c-0.303,0-0.36-0.321-0.36-0.605
					c0-0.529,0.303-2.219,0.569-3.146l2.427-8.799c0.057-0.17,0.095-0.322,0.095-0.437c0-0.115-0.076-0.188-0.247-0.188
					c-0.171,0-1.289,0.17-2.503,0.303c-0.171,0.021-0.208,0.076-0.208,0.173c0,0.149,0.037,0.171,0.455,0.209
					c0.512,0.056,0.777,0.149,0.777,0.452c0,0.173-0.019,0.306-0.114,0.625L141.652,273.309z M132.986,268.945
					c0,0.455,0.379,0.834,0.834,0.834c0.456,0,0.835-0.379,0.835-0.834c0-0.454-0.379-0.834-0.835-0.834
					C133.365,268.111,132.986,268.491,132.986,268.945 M130.597,279.773c0,0.774,0.436,1.326,1.251,1.326
					c1.593,0,2.75-2.711,2.75-2.824c0-0.114-0.057-0.209-0.19-0.209c-0.095,0-0.151,0.057-0.227,0.209
					c-0.797,1.593-1.536,2.293-1.953,2.293c-0.228,0-0.38-0.131-0.38-0.379c0-0.416,0.057-0.871,1.005-3.071
					c0.911-2.104,1.1-2.769,1.1-3.356c0-0.55-0.303-1.422-1.251-1.422c-1.347,0-2.522,2.332-2.522,2.521
					c0,0.134,0.038,0.228,0.133,0.228c0.094,0,0.17-0.036,0.227-0.149c0.398-0.946,1.195-2.065,1.801-2.065
					c0.228,0,0.361,0.171,0.361,0.476c0,0.342-0.114,0.873-0.91,2.77C130.749,278.561,130.597,279.186,130.597,279.773
					 M128.417,273.421c0,1.006-1.176,2.901-3.641,3.888c0.986-3.336,2.162-4.605,3.034-4.605
					C128.151,272.7,128.417,272.947,128.417,273.421 M122.975,278.844c0,1.327,0.739,2.258,2.237,2.258
					c1.858,0,3.28-2.466,3.28-2.617c0-0.111-0.057-0.188-0.151-0.188c-0.076,0-0.133,0.061-0.228,0.188
					c-1.081,1.519-1.915,2.199-2.806,2.199c-0.645,0-0.986-0.437-0.986-1.191c0-0.514,0.227-1.426,0.36-1.783
					c3.318-1.191,4.74-2.673,4.74-3.963c0-0.76-0.493-1.403-1.403-1.403C125.553,272.34,122.975,276.266,122.975,278.844
					 M118.31,277.46c-0.114,0.513-0.341,1.556-0.341,2.256c0,1.14,0.815,1.386,1.403,1.386c1.839,0,2.579-2.521,2.579-2.711
					c0-0.097,0-0.268-0.152-0.268c-0.095,0-0.209,0.096-0.247,0.247c-0.606,1.688-1.308,2.198-1.782,2.198
					c-0.379,0-0.455-0.438-0.455-0.719c0-0.478,0.341-2.223,0.417-2.522l1.631-7.3c0.189-0.836,0.531-2.258,0.531-2.428
					c0-0.151-0.076-0.209-0.228-0.209c-0.284,0-1.593,0.188-2.484,0.188c-0.208,0-0.303,0.038-0.303,0.148
					c0,0.172,0.095,0.189,0.512,0.229c0.682,0.06,0.834,0.229,0.834,0.515c0,0.244-0.152,0.945-0.284,1.555L118.31,277.46z
					 M110.915,279.204c-0.057-1.839,1.498-6.447,3.318-6.447c0.759,0,1.062,0.607,1.1,1.536c0.038,1.385-1.289,6.391-3.356,6.391
					C111.389,280.684,110.953,280.096,110.915,279.204 M108.128,285.006c-0.133,0.588-0.55,0.76-0.892,0.76
					c-0.303,0-0.417,0.075-0.417,0.229c0.019,0.133,0.095,0.188,0.247,0.188c0.606,0,1.194-0.059,1.801-0.059
					c0.303,0,0.588,0.02,0.891,0.02c0.304,0.021,0.607,0.039,0.891,0.039c0.152,0,0.228-0.059,0.209-0.188
					c0-0.151-0.114-0.229-0.417-0.229c-0.645,0-0.872-0.342-0.872-0.588c0-0.152,0.019-0.342,0.075-0.589l0.986-4.551h0.038
					c0.152,0.569,0.721,1.062,1.517,1.062c2.522,0,4.608-3.582,4.513-6.182c-0.057-1.536-0.891-2.579-2.218-2.579
					c-1.252,0-2.086,1.043-2.712,2.274l-0.038-0.037l0.986-4.189c0.057-0.246,0.095-0.359,0.095-0.646
					c0-0.228-0.303-0.284-0.607-0.284c-0.36,0-0.474,0.059-0.569,0.417l-0.682,2.37c-0.19,0.646-0.417,0.947-1.214,1.535
					c-1.289,0.949-1.706,2.104-1.706,2.484c0.019,0.111,0.057,0.172,0.17,0.172c0.095,0,0.171-0.061,0.19-0.172
					c0.303-1.043,1.536-2.392,2.01-2.392c0.133,0,0.133,0.134,0.133,0.269c0,0.266-0.038,0.549-0.095,0.758L108.128,285.006z
					 M101.321,279.016c0-2.238,1.213-6.312,3.109-6.312c0.721,0,1.214,0.588,1.214,1.729c0,2.234-1.214,6.312-3.11,6.312
					C101.814,280.74,101.321,280.152,101.321,279.016 M99.974,278.123c0,1.84,1.043,2.979,2.484,2.979
					c2.731,0,4.532-3.584,4.532-5.783c0-1.84-1.043-2.979-2.484-2.979C101.776,272.34,99.974,275.924,99.974,278.123
					 M93.679,276.968c0.361-1.745,1.631-4.021,2.939-4.021c0.55,0,0.702,0.379,0.702,0.625c0,0.229,0,0.986-0.853,1.783
					C95.803,275.98,94.324,276.777,93.679,276.968 M97.036,272.34c-1.385,0-2.447,1.479-2.788,2.087H94.21l0.967-4.399
					c0.19-0.834,0.531-2.256,0.531-2.426c0-0.15-0.076-0.209-0.227-0.209c-0.285,0-1.593,0.188-2.484,0.188
					c-0.209,0-0.304,0.038-0.304,0.151c0,0.17,0.095,0.188,0.512,0.228c0.683,0.058,0.835,0.228,0.835,0.513
					c0,0.246-0.152,0.947-0.285,1.555L91.499,280.4c-0.019,0.094-0.057,0.246-0.057,0.303c0,0.076,0.076,0.113,0.133,0.113h1.005
					c0.113,0,0.208-0.059,0.246-0.268l0.758-3.053l1.29-0.646c0.133-0.076,0.19-0.135,0.303-0.135c0.436,0,0.702,0.531,0.702,1.062
					c0,0.303-0.114,1.688-0.114,2.01c0,0.684,0.379,1.309,1.327,1.309c1.631,0,2.124-2.219,2.124-2.408
					c0-0.111-0.038-0.228-0.19-0.228c-0.151,0-0.189,0.267-0.284,0.567c-0.076,0.305-0.55,1.461-1.213,1.461
					c-0.114,0-0.399,0-0.399-0.437c0-0.493,0.057-1.007,0.057-1.497c0-1.558-0.872-1.805-1.744-2.014v-0.037
					c0.929-0.281,3.128-1.57,3.128-2.898C98.571,273.117,98.211,272.34,97.036,272.34 M89.375,268.945
					c0,0.455,0.379,0.834,0.834,0.834s0.835-0.379,0.835-0.834c0-0.454-0.38-0.834-0.835-0.834S89.375,268.491,89.375,268.945
					 M86.569,282.6c-0.588,2.256-1.29,3.108-2.029,3.108c-0.436,0-0.607-0.151-0.702-0.531c-0.095-0.379-0.265-0.645-0.588-0.645
					c-0.303,0-0.493,0.229-0.493,0.569c0,0.645,0.797,1.021,1.65,1.021c1.688,0,2.863-1.289,3.925-5.022
					c1.65-5.82,1.839-6.92,1.839-7.735c0-0.646-0.398-1.024-0.948-1.024c-0.815,0-1.801,0.815-2.882,2.541
					c-0.095,0.152-0.133,0.266-0.133,0.342c0,0.075,0.057,0.151,0.171,0.151c0.133,0,0.228-0.095,0.379-0.341
					c0.929-1.518,1.479-2.01,1.84-2.01c0.151,0,0.227,0.094,0.227,0.356c0,0.382-0.095,0.97-0.246,1.536L86.569,282.6z
					 M84.047,268.945c0,0.455,0.379,0.834,0.834,0.834s0.834-0.379,0.834-0.834c0-0.454-0.379-0.834-0.834-0.834
					S84.047,268.491,84.047,268.945 M81.658,279.773c0,0.774,0.436,1.326,1.251,1.326c1.593,0,2.75-2.711,2.75-2.824
					c0-0.114-0.057-0.209-0.19-0.209c-0.095,0-0.152,0.057-0.228,0.209c-0.796,1.593-1.536,2.293-1.953,2.293
					c-0.227,0-0.379-0.131-0.379-0.379c0-0.416,0.057-0.871,1.005-3.071c0.91-2.104,1.1-2.769,1.1-3.356
					c0-0.55-0.304-1.422-1.252-1.422c-1.346,0-2.522,2.332-2.522,2.521c0,0.134,0.038,0.228,0.133,0.228
					c0.095,0,0.171-0.036,0.228-0.149c0.398-0.946,1.194-2.065,1.801-2.065c0.228,0,0.36,0.171,0.36,0.476
					c0,0.342-0.113,0.873-0.91,2.77C81.809,278.561,81.658,279.186,81.658,279.773 M76.557,277.782
					c-0.133,0.606-0.341,1.479-0.341,2.028c0,1.043,0.701,1.289,1.327,1.289c0.834,0,1.251-0.379,1.801-1.177
					c0.171-0.267,0.816-1.534,0.816-1.707c0-0.112-0.019-0.208-0.171-0.208c-0.19,0-0.284,0.283-0.341,0.416
					c-0.247,0.531-0.929,2.145-1.65,2.145c-0.303,0-0.531-0.188-0.531-0.625c0-0.454,0.171-1.103,0.379-1.896l1.233-4.759h1.384
					c0.247,0,0.322-0.076,0.322-0.209c0-0.188-0.094-0.265-0.246-0.265h-1.365l0.55-2.013c0.056-0.188,0.094-0.319,0.094-0.491
					c0-0.379-0.398-0.416-0.701-0.416c-0.228,0-0.493,0.057-0.55,0.28l-0.74,2.64h-1.213c-0.247,0-0.36,0.057-0.36,0.265
					c0,0.171,0.132,0.209,0.265,0.209h1.214L76.557,277.782z M70.015,276.968c0.361-1.745,1.631-4.021,2.939-4.021
					c0.55,0,0.702,0.379,0.702,0.625c0,0.229,0,0.986-0.853,1.783C72.139,275.98,70.66,276.777,70.015,276.968 M73.372,272.34
					c-1.385,0-2.446,1.479-2.788,2.087h-0.038l0.967-4.399c0.19-0.834,0.531-2.256,0.531-2.426c0-0.15-0.076-0.209-0.227-0.209
					c-0.285,0-1.593,0.188-2.484,0.188c-0.209,0-0.304,0.038-0.304,0.151c0,0.17,0.095,0.188,0.512,0.228
					c0.683,0.058,0.835,0.228,0.835,0.513c0,0.246-0.152,0.947-0.285,1.555L67.835,280.4c-0.019,0.094-0.057,0.246-0.057,0.303
					c0,0.076,0.076,0.113,0.133,0.113h1.005c0.113,0,0.208-0.059,0.246-0.268l0.759-3.053l1.289-0.646
					c0.133-0.076,0.19-0.135,0.303-0.135c0.437,0,0.702,0.531,0.702,1.062c0,0.303-0.114,1.688-0.114,2.01
					c0,0.684,0.379,1.309,1.328,1.309c1.63,0,2.123-2.219,2.123-2.408c0-0.111-0.038-0.228-0.189-0.228
					c-0.152,0-0.19,0.267-0.285,0.567c-0.076,0.305-0.55,1.461-1.213,1.461c-0.114,0-0.399,0-0.399-0.437
					c0-0.493,0.057-1.007,0.057-1.497c0-1.558-0.872-1.805-1.744-2.014v-0.037c0.929-0.281,3.129-1.57,3.129-2.898
					C74.908,273.117,74.547,272.34,73.372,272.34 M59.359,279.261c0-2.028,2.124-6.504,3.963-6.504c0.512,0,0.948,0.322,0.948,1.157
					c0,1.327-1.839,6.77-3.963,6.77C59.738,280.684,59.359,280.171,59.359,279.261 M58.013,278.578c0,1.574,0.796,2.521,2.199,2.521
					c1.176,0,2.181-0.985,2.939-2.562l0.038,0.038c-0.095,0.438-0.227,1.005-0.227,1.309c0,0.761,0.379,1.216,1.194,1.216
					c1.612,0,2.333-2.615,2.333-2.809c0-0.113-0.038-0.229-0.171-0.229c-0.114,0-0.19,0.075-0.228,0.248
					c-0.398,1.479-1.099,2.18-1.46,2.18c-0.265,0-0.417-0.17-0.417-0.492c0-0.475,0.209-2.312,1.498-6.145
					c0.152-0.492,0.266-0.776,0.266-0.968c0-0.188-0.209-0.397-0.759-0.397c-0.284,0-0.379,0.229-0.588,1.119l-0.038-0.021
					c-0.075-0.645-0.512-1.251-1.498-1.251C60.857,272.34,58.013,275.867,58.013,278.578 M53.329,280.816l1.327-3.83
					c0.247-0.702,0.607-1.67,1.043-2.484c0.417-0.814,0.91-1.555,1.366-1.555c0.17,0,0.189,0.15,0.189,0.436
					c0,0.36,0.285,0.569,0.664,0.569c0.341,0,0.682-0.323,0.682-0.722c0-0.568-0.53-0.894-1.061-0.894
					c-1.536,0-2.579,2.693-2.902,3.584H54.6c0.037-0.342,0.189-1.555,0.189-1.914c0-1.571-0.948-1.67-1.1-1.67
					c-1.043,0-1.82,1.498-2.37,2.541c-0.057,0.114-0.133,0.246-0.133,0.36c0,0.095,0.076,0.171,0.114,0.171
					c0.076,0,0.152-0.021,0.19-0.097c0.246-0.418,0.872-1.594,1.062-1.818c0.246-0.285,0.455-0.553,0.72-0.553
					c0.379,0,0.379,0.723,0.379,1.008c0,0.17-0.038,1.592-0.739,3.925l-0.891,2.938h1.308V280.816L53.329,280.816z M44.739,279.204
					c-0.056-1.839,1.498-6.447,3.319-6.447c0.758,0,1.062,0.607,1.1,1.536c0.037,1.385-1.29,6.391-3.357,6.391
					C45.213,280.684,44.777,280.096,44.739,279.204 M41.952,285.006c-0.133,0.588-0.55,0.76-0.891,0.76
					c-0.304,0-0.417,0.075-0.417,0.229c0.019,0.133,0.095,0.188,0.246,0.188c0.607,0,1.195-0.059,1.802-0.059
					c0.303,0,0.587,0.02,0.891,0.02c0.303,0.021,0.607,0.039,0.891,0.039c0.152,0,0.228-0.059,0.209-0.188
					c0-0.151-0.114-0.229-0.418-0.229c-0.644,0-0.872-0.342-0.872-0.588c0-0.152,0.019-0.342,0.076-0.589l0.986-4.551h0.038
					c0.152,0.569,0.72,1.062,1.517,1.062c2.522,0,4.608-3.582,4.513-6.182c-0.057-1.536-0.891-2.579-2.219-2.579
					c-1.251,0-2.086,1.043-2.711,2.274l-0.038-0.037l0.986-4.189c0.057-0.246,0.095-0.359,0.095-0.646
					c0-0.228-0.304-0.284-0.607-0.284c-0.36,0-0.474,0.059-0.569,0.417l-0.683,2.37c-0.189,0.646-0.417,0.947-1.213,1.535
					c-1.29,0.949-1.707,2.104-1.707,2.484c0.019,0.111,0.057,0.172,0.171,0.172c0.095,0,0.171-0.061,0.19-0.172
					c0.303-1.043,1.535-2.392,2.009-2.392c0.133,0,0.133,0.134,0.133,0.269c0,0.266-0.038,0.549-0.095,0.758L41.952,285.006z
					 M31.201,280.816l1.327-3.83c0.247-0.702,0.607-1.67,1.043-2.484c0.417-0.814,0.91-1.555,1.365-1.555
					c0.171,0,0.19,0.15,0.19,0.436c0,0.36,0.284,0.569,0.664,0.569c0.341,0,0.682-0.323,0.682-0.722
					c0-0.568-0.531-0.894-1.062-0.894c-1.535,0-2.578,2.693-2.901,3.584h-0.038c0.038-0.342,0.19-1.555,0.19-1.914
					c0-1.571-0.948-1.67-1.1-1.67c-1.043,0-1.82,1.498-2.37,2.541c-0.057,0.114-0.133,0.246-0.133,0.36
					c0,0.095,0.076,0.171,0.114,0.171c0.076,0,0.152-0.021,0.19-0.097c0.246-0.418,0.872-1.594,1.062-1.818
					c0.246-0.285,0.455-0.553,0.72-0.553c0.379,0,0.379,0.723,0.379,1.008c0,0.17-0.038,1.592-0.739,3.925l-0.891,2.938h1.308
					V280.816z M22.498,279.016c0-2.238,1.213-6.312,3.11-6.312c0.72,0,1.213,0.588,1.213,1.729c0,2.234-1.213,6.312-3.11,6.312
					C22.991,280.74,22.498,280.152,22.498,279.016 M21.152,278.123c0,1.84,1.042,2.979,2.484,2.979c2.73,0,4.531-3.584,4.531-5.783
					c0-1.84-1.043-2.979-2.484-2.979C22.953,272.34,21.152,275.924,21.152,278.123 M14.079,279.016c0-2.238,1.214-6.312,3.11-6.312
					c0.72,0,1.213,0.588,1.213,1.729c0,2.234-1.213,6.312-3.109,6.312C14.572,280.74,14.079,280.152,14.079,279.016 M12.733,278.123
					c0,1.84,1.043,2.979,2.484,2.979c2.73,0,4.532-3.584,4.532-5.783c0-1.84-1.043-2.979-2.484-2.979
					C14.534,272.34,12.733,275.924,12.733,278.123 M6.153,280.74c0.038,0.229,0.057,0.417,0.303,0.417
					c0.247,0,0.38-0.188,0.55-0.474l2.541-4.229l3.755-6.656c0.436-0.758,0.853-1.062,1.782-1.325
					c0.114-0.021,0.228-0.076,0.228-0.229c0-0.133-0.114-0.188-0.323-0.188c-0.303,0-1.062,0.057-1.612,0.057
					c-0.568,0-1.156-0.057-1.744-0.057c-0.247,0-0.322,0.072-0.322,0.209c0,0.148,0.17,0.188,0.36,0.209
					c0.55,0.072,1.005,0.227,1.005,0.565c0,0.758-1.081,2.711-1.574,3.583l-3.508,6.146H7.556l-1.024-9.063
					c-0.019-0.151-0.019-0.304-0.019-0.379c0-0.796,0.38-0.796,1.1-0.853c0.569-0.039,0.607-0.137,0.607-0.27
					c0-0.148-0.133-0.148-0.323-0.148c-0.739,0-1.497,0.057-2.256,0.057c-0.758,0-1.517-0.057-2.275-0.057
					c-0.19,0-0.285,0.072-0.285,0.188c0,0.15,0.076,0.171,0.398,0.229c0.74,0.133,1.1,0.207,1.176,0.854L6.153,280.74z"/>
			</g>
		</g>
	</g>
</g>
</svg>
