<?xml version="1.0" encoding="utf-8"?>
<!-- Generator: Adobe Illustrator 15.0.0, SVG Export Plug-In . SVG Version: 6.00 Build 0)  -->
<!DOCTYPE svg PUBLIC "-//W3C//DTD SVG 1.1//EN" "http://www.w3.org/Graphics/SVG/1.1/DTD/svg11.dtd">
<svg version="1.1" id="Laag_1" xmlns="http://www.w3.org/2000/svg" xmlns:xlink="http://www.w3.org/1999/xlink" x="0px" y="0px"
	 width="600px" height="600px" viewBox="0 0 600 600" enable-background="new 0 0 600 600" xml:space="preserve">
<title>pod-logo-zwart-2018</title>
<path d="M32.284,248.173h17.687c26.529,0,52.147,19.728,52.147,54.19c0,34.461-25.618,54.189-52.147,54.189H32.284V248.173z
	 M0.54,381.495h43.338c48.52,0,91.368-16.319,91.368-79.116c0-62.796-42.883-79.132-91.368-79.132H0.557L0.54,381.495z"/>
<path d="M197.266,115.206c0-27.879,12.927-56.451,44.435-56.451s44.435,28.572,44.435,56.451c0,28.571-12.016,57.379-44.435,57.379
	C209.282,172.584,197.266,143.794,197.266,115.206 M164.172,115.206c0,48.519,26.749,82.289,77.529,82.289
	c50.105,0,77.529-34.461,77.529-82.289s-27.879-81.394-77.529-81.394C191.376,33.812,164.172,66.653,164.172,115.206 M1.688,194.777
	h31.66v-60.08H46.73c34.005,0,60.99-13.383,60.99-50.325c0-37.853-31.508-47.844-65.969-47.844H1.688V194.777z M33.432,61.455
	h11.104c16.319,0,30.158,6.346,30.158,24.707s-14.277,23.626-30.158,23.626H33.347L33.432,61.455z"/>
<path d="M294.102,383.605h6.751v-12.826c0-3.375,1.062-8.709,6.008-8.709c4.371,0,4.421,4.32,4.421,7.527v13.99h6.751v-16.539
	c0-5.906-2.7-10.277-8.91-10.277c-3.399-0.201-6.658,1.377-8.607,4.168h-0.102v-3.561h-6.463L294.102,383.605z M286.896,376.584
	c-2.622,1.629-5.624,2.543-8.708,2.65c-4.219,0-7.172-2.396-7.476-6.616h18.125c0-9.163-2.751-15.829-12.472-15.829
	c-8.134,0-12.167,6.261-12.167,13.838c0,8.607,5.062,13.586,13.687,13.586c3.135,0.1,6.242-0.622,9.012-2.094V376.584z
	 M270.711,367.927c0.304-3.511,2.245-6.159,6.059-6.159s5.35,2.852,5.552,6.159H270.711z M252.333,357.396v3.561h-0.101
	c-1.689-2.781-4.787-4.389-8.033-4.168c-7.831,0-11.087,7.273-11.087,13.585c0,7.021,2.953,13.231,10.683,13.231
	c3.251,0.117,6.331-1.461,8.134-4.169h0.101c0,4.522-0.354,10.126-7.881,10.126c-2.673-0.236-5.269-1.018-7.628-2.295l-0.557,5.805
	c2.869,1.203,5.952,1.811,9.062,1.789c10.986,0,13.838-6.75,13.838-13.839v-23.626H252.333z M246.021,378.322
	c-3.916,0-5.806-4.371-5.806-7.948c0-4.017,1.468-8.304,6.109-8.304c3.966,0,5.704,3.662,5.704,8.135s-1.688,8.101-6.008,8.101
	 M211.307,376.01c0-4.016,4.523-4.521,7.577-4.521h2.954c0.134,1.906-0.364,3.805-1.417,5.4c-1.117,1.51-2.898,2.385-4.776,2.346
	c-2.447,0-4.32-0.963-4.32-3.207 M207.864,364.636c2.32-1.79,5.153-2.79,8.084-2.853c4.016,0,5.906,1.418,5.906,5.654h-3.763
	c-3.012-0.139-6.018,0.379-8.81,1.519c-2.894,1.327-4.671,4.3-4.472,7.477c0,5.062,4.523,7.78,9.164,7.78
	c3.304,0.023,6.375-1.695,8.083-4.523h0.101c0.021,1.311,0.122,2.617,0.304,3.916h6.008c-0.152-2.043-0.253-3.865-0.304-5.857
	c-0.051-1.99-0.102-3.914-0.102-6.564v-3.375c0-7.729-3.375-11.037-11.29-11.037c-3.14,0.047-6.239,0.725-9.113,1.992
	L207.864,364.636z M177.487,353.7h3.966c6.72,0.003,12.165,5.454,12.162,12.174c-0.003,6.716-5.446,12.158-12.162,12.161h-3.966
	V353.7z M170.365,383.621h9.721c10.885,0,20.505-3.662,20.505-17.754c0-14.091-9.62-17.753-20.505-17.753h-9.805L170.365,383.621z"
	/>
<path d="M392.187,298.363c-2.429-0.616-4.921-0.938-7.426-0.962c-5.35,0-10.277,2.498-10.277,8.152
	c0,9.467,11.813,5.957,11.813,11.088c0,2.548-2.751,3.206-4.473,3.206c-2.352-0.024-4.664-0.603-6.75-1.688l-0.405,5.604
	c2.519,0.7,5.116,1.074,7.729,1.113c5.552,0,10.986-2.446,10.986-8.556c0-9.468-11.813-6.751-11.813-10.986
	c0-2.245,2.193-2.903,4.017-2.903c2.088-0.013,4.16,0.365,6.109,1.114L392.187,298.363z M356.51,324.217h6.751v-9.619
	c0-3.764,0-10.682,5.552-10.682c1.048-0.048,2.092,0.143,3.055,0.557v-6.869c-0.685-0.167-1.389-0.234-2.093-0.203
	c-4.067,0-6.868,4.119-7.172,6.565h-0.102v-5.957h-6.059L356.51,324.217z M349.084,317.197c-2.621,1.628-5.623,2.541-8.708,2.649
	c-4.219,0-7.172-2.396-7.476-6.616h18.125c0-9.163-2.751-15.83-12.472-15.83c-8.135,0-12.168,6.261-12.168,13.839
	c0,8.606,5.063,13.585,13.687,13.585c3.136,0.1,6.242-0.622,9.012-2.093V317.197z M332.9,308.539c0.304-3.51,2.244-6.16,6.059-6.16
	c3.813,0,5.35,2.853,5.552,6.16H332.9z M314.421,324.217h6.615v-38.173h-6.75v15.02h-0.102c-1.852-2.432-4.777-3.8-7.831-3.663
	c-8.032,0-10.986,6.414-10.986,13.636s2.954,13.788,10.986,13.788c3.092,0.157,6.074-1.165,8.033-3.562h0.102L314.421,324.217z
	 M302.405,311.037c0-3.51,1.215-8.337,5.653-8.337s6.109,4.675,6.109,8.337s-1.469,8.438-6.008,8.438
	C303.62,319.475,302.405,314.581,302.405,311.037 M282.963,293.232h6.75v-6.514h-6.75V293.232z M282.963,324.234h6.75v-26.226h-6.75
	V324.234z M275.538,317.214c-2.622,1.628-5.624,2.542-8.708,2.649c-4.219,0-7.173-2.396-7.477-6.615h18.125
	c0-9.164-2.75-15.83-12.471-15.83c-8.134,0-12.168,6.262-12.168,13.838c0,8.607,5.063,13.586,13.687,13.586
	c3.135,0.1,6.242-0.621,9.012-2.093V317.214z M259.354,308.557c0.304-3.511,2.245-6.16,6.059-6.16s5.35,2.852,5.552,6.16H259.354z
	 M240.52,324.234h6.75v-38.191h-6.75V324.234z M222.243,302.7c4.422,0,5.654,4.827,5.654,8.337s-1.266,8.438-5.755,8.438
	s-6.008-4.775-6.008-8.438S217.821,302.7,222.243,302.7 M209.265,334.984h6.75v-13.687h0.101c1.792,2.416,4.675,3.772,7.679,3.611
	c8.202,0,11.138-6.615,11.138-13.788c0-7.172-2.953-13.636-10.986-13.636c-3.305-0.189-6.44,1.476-8.134,4.32h-0.101v-3.713h-6.447
	V334.984z M175.985,306.295c0-6.261,2.902-12.674,9.974-12.674s9.974,6.413,9.974,12.674c0,6.262-2.7,12.877-9.974,12.877
	S175.985,312.708,175.985,306.295 M168.56,306.295c0,10.885,6.008,18.479,17.399,18.479s17.399-7.679,17.399-18.479
	s-6.261-18.277-17.399-18.277S168.56,295.393,168.56,306.295"/>
<path d="M319.551,264.847h6.751v-12.725h0.102l8.759,12.725h8.657l-10.986-14.513l9.771-11.712h-8.033l-8.135,10.48h-0.102v-22.445
	h-6.75L319.551,264.847z M305.459,233.862h6.751v-6.514h-6.751V233.862z M301.038,275.749c1.104,0.276,2.237,0.413,3.375,0.405
	c6.751,0,7.898-5.653,7.898-9.366v-28.149h-6.751v27.154c0,4.067-0.506,4.793-4.168,5.063L301.038,275.749z M291.317,233.862h6.75
	v-6.514h-6.75V233.862z M291.317,264.864h6.75v-26.226h-6.75V264.864z M273.614,256.982c0,5.198,2.953,8.438,8.303,8.438
	c1.708,0.039,3.413-0.166,5.063-0.608l-0.203-5.4c-0.954,0.508-2.025,0.752-3.105,0.709c-2.599,0-3.207-2.093-3.207-4.32v-12.218
	h6.059v-5.063h-6.059v-7.425l-6.75,2.194v5.249h-5.063v5.062h5.063L273.614,256.982z M243.237,264.864h6.75v-12.742h0.101
	l8.759,12.725h8.658l-10.986-14.513l9.771-11.712h-8.084l-8.151,10.48h-0.101v-22.445h-6.75L243.237,264.864z M220.64,257.286
	c0-4.017,4.523-4.522,7.578-4.522h2.953c0.134,1.907-0.364,3.805-1.417,5.4c-1.121,1.516-2.909,2.391-4.793,2.346
	c-2.447,0-4.32-0.962-4.32-3.207 M217.18,245.895c2.325-1.794,5.165-2.794,8.101-2.852c4.017,0,5.907,1.417,5.907,5.653h-3.764
	c-3.012-0.14-6.018,0.379-8.81,1.519c-2.894,1.327-4.671,4.299-4.472,7.476c0,5.063,4.523,7.78,9.164,7.78
	c3.304,0.024,6.375-1.695,8.083-4.523h0.102c0.021,1.311,0.122,2.618,0.304,3.916h6.008c-0.152-2.042-0.253-3.865-0.304-5.856
	c-0.051-1.992-0.101-3.916-0.101-6.565v-3.375c0-7.729-3.375-11.037-11.291-11.037c-3.14,0.047-6.239,0.724-9.113,1.991
	L217.18,245.895z M197.114,264.847h6.75v-9.619c0-3.764,0-10.683,5.552-10.683c1.047-0.047,2.091,0.144,3.055,0.557v-6.869
	c-0.685-0.166-1.389-0.234-2.093-0.202c-4.067,0-6.869,4.118-7.172,6.564h-0.101v-5.957h-5.991V264.847z M169.69,264.847h7.122
	v-13.501h3.004c7.628,0,13.687-3.004,13.687-11.307c0-8.303-7.071-10.733-14.817-10.733h-9.012L169.69,264.847z M176.812,234.925
	h2.498c3.662,0,6.75,1.417,6.75,5.552s-3.206,5.299-6.75,5.299h-2.498V234.925z"/>
<path d="M590.668,554.544c0.607-2.937,2.75-6.75,4.961-6.75c0.584-0.065,1.109,0.354,1.175,0.938
	c0.005,0.041,0.007,0.083,0.007,0.124c-0.01,1.165-0.535,2.265-1.435,3.004C593.972,553.018,592.379,553.926,590.668,554.544
	 M596.338,546.73c-2.329,0-4.135,2.497-4.709,3.527l0,0l1.688-7.426c0.32-1.4,0.894-3.814,0.894-4.101
	c0-0.287-0.135-0.354-0.388-0.354s-2.684,0.32-4.186,0.32c-0.354,0-0.506,0-0.506,0.253s0.169,0.321,0.86,0.389
	c1.147,0.101,1.4,0.388,1.4,0.86c-0.1,0.887-0.258,1.767-0.472,2.633l-3.814,17.501c-0.043,0.166-0.077,0.335-0.102,0.506
	c0.009,0.111,0.106,0.194,0.219,0.186h0.001h1.688c0.186,0,0.354-0.102,0.422-0.438l1.283-5.147l2.177-1.08
	c0.22-0.135,0.32-0.22,0.506-0.22c0.743,0,1.182,0.895,1.182,1.789c0,0.506-0.186,2.853-0.186,3.375
	c-0.089,1.134,0.758,2.125,1.892,2.214c0.117,0.009,0.235,0.008,0.353-0.003c2.751,0,3.578-3.746,3.578-4.067
	c0-0.32,0-0.388-0.32-0.388c-0.321,0-0.321,0.438-0.473,0.962c-0.152,0.523-0.929,2.464-2.042,2.464c-0.186,0-0.676,0-0.676-0.742
	c0-0.743,0.102-1.688,0.102-2.532c0-2.615-1.468-3.037-2.937-3.375l0,0c1.569-0.473,5.282-2.649,5.282-4.894
	c-0.062-1.257-1.131-2.226-2.387-2.164c-0.071,0.004-0.142,0.011-0.212,0.021 M583.664,548.62c0,1.688-1.991,4.895-6.144,6.565
	c1.688-5.637,3.646-7.78,5.063-7.78c0.573,0,1.029,0.422,1.029,1.215 M574.331,557.75c-0.194,1.91,1.196,3.617,3.106,3.812
	c0.224,0.022,0.45,0.023,0.674,0.003c3.139,0,5.535-4.151,5.535-4.422c0-0.27-0.101-0.32-0.253-0.32
	c-0.151,0-0.219,0.102-0.388,0.32c-1.823,2.565-3.24,3.713-4.742,3.713c-1.098,0-1.688-0.742-1.688-2.008
	c0.069-1.023,0.273-2.034,0.607-3.004c5.603-2.009,7.999-4.506,7.999-6.751c0.067-1.237-0.882-2.296-2.12-2.362
	c-0.08-0.005-0.162-0.005-0.242,0c-4.152,0-8.438,6.615-8.438,10.97 M569.927,540.992c0,0.773,0.627,1.401,1.4,1.401
	s1.401-0.628,1.401-1.401s-0.628-1.4-1.401-1.4l0,0C570.558,539.601,569.936,540.223,569.927,540.992 M565.859,559.27
	c-0.122,1.111,0.68,2.112,1.791,2.234c0.106,0.012,0.213,0.015,0.318,0.01c2.684,0,4.642-4.573,4.642-4.775
	c0.028-0.166-0.083-0.323-0.248-0.352c-0.024-0.004-0.049-0.005-0.073-0.003c-0.169,0-0.253,0.101-0.388,0.354
	c-1.351,2.683-2.6,3.864-3.376,3.864c-0.324,0.029-0.611-0.21-0.641-0.535c-0.004-0.035-0.004-0.071,0-0.106
	c0-0.709,0.101-1.468,1.688-5.181c1.586-3.713,1.856-4.675,1.856-5.671c0.104-1.216-0.799-2.286-2.016-2.39
	c-0.031-0.003-0.062-0.005-0.094-0.007c-2.278,0-4.253,3.933-4.253,4.253c0,0.321,0,0.389,0.219,0.389
	c0.17,0.005,0.325-0.096,0.389-0.253c0.675-1.604,2.008-3.494,3.038-3.494c0.388,0,0.607,0.287,0.607,0.794
	c-0.238,1.635-0.758,3.217-1.536,4.675c-1.688,4.134-2.008,5.181-2.008,6.176 M549.354,560.315
	c-0.043,0.167-0.077,0.336-0.102,0.507c0.017,0.107,0.11,0.187,0.22,0.186h1.688c0.186,0,0.354-0.102,0.422-0.439l1.147-4.488
	c0.962-3.78,3.375-8.354,5.637-8.354c0.76,0,1.114,0.287,1.114,1.384c0,1.469-2.076,8.219-2.076,10.126
	c-0.113,1.159,0.734,2.191,1.895,2.305c0.104,0.011,0.211,0.013,0.316,0.008c2.717,0,3.932-4.422,3.932-4.827
	c0-0.151,0-0.287-0.219-0.287c-0.22,0-0.253,0.169-0.354,0.422c-0.574,1.688-1.502,3.68-2.649,3.68
	c-0.389,0-0.642-0.287-0.642-0.895c0-0.929,2.076-7.713,2.076-9.755c0.141-1.568-1.018-2.954-2.586-3.095
	c-0.117-0.011-0.234-0.014-0.351-0.01c-2.6,0-4.32,3.375-5.316,5.181l0,0c0.189-0.798,0.308-1.611,0.354-2.431
	c0-1.535-0.742-2.683-2.295-2.683c-2.718,0-3.933,4.421-3.933,4.826c0,0.169,0,0.287,0.22,0.287s0.287-0.152,0.354-0.422
	c0.742-2.498,1.856-3.679,2.498-3.679c0.641,0,0.894,0.422,0.894,1.468c-0.059,1.262-0.228,2.515-0.506,3.746L549.354,560.315z
	 M532.073,560.315c-0.043,0.167-0.077,0.336-0.102,0.507c0.017,0.107,0.11,0.187,0.22,0.186h1.688c0.186,0,0.354-0.102,0.422-0.439
	l0.76-3.037c1.316-5.249,3.51-9.788,5.855-9.788c0.794,0,1.148,0.286,1.148,1.384c0,1.468-2.076,8.438-2.076,10.125
	c0,1.688,0.742,2.312,2.109,2.312c2.717,0,4.033-4.422,4.033-4.826c0-0.152,0-0.287-0.253-0.287s-0.32,0.169-0.422,0.422
	c-0.642,1.688-1.569,3.679-2.498,3.679c-0.422,0-0.708-0.287-0.708-0.895c0-1.535,2.075-7.897,2.075-9.754
	c0.122-1.59-1.068-2.977-2.657-3.098c-0.093-0.007-0.186-0.01-0.279-0.008c-2.362,0-3.966,2.717-5.062,4.708l0,0l1.924-8.572
	c0.32-1.401,0.895-3.814,0.895-4.102s-0.135-0.354-0.389-0.354c-0.253,0-2.683,0.321-4.185,0.321c-0.354,0-0.507,0-0.507,0.253
	s0.169,0.32,0.861,0.388c1.147,0.102,1.4,0.389,1.4,0.861c-0.102,0.887-0.259,1.766-0.473,2.633L532.073,560.315z M520.158,557.75
	c-0.18,1.931,1.238,3.642,3.168,3.822c0.243,0.023,0.488,0.021,0.73-0.008c2.887,0,5.4-4.101,5.4-4.422
	c0-0.32-0.101-0.32-0.253-0.32c-0.151,0-0.219,0.102-0.388,0.32c-1.823,2.565-3.224,3.713-4.742,3.713
	c-0.962,0-1.536-0.742-1.536-2.008c0-4.506,2.971-11.459,5.822-11.459c0.507,0,0.743,0.118,0.743,0.422s-0.354,0.455-0.354,1.147
	c-0.003,0.55,0.44,0.998,0.99,1.001c0.035,0,0.071-0.002,0.106-0.005c0.634,0.02,1.163-0.479,1.183-1.111
	c0.001-0.035,0.001-0.069-0.001-0.104c-0.116-1.19-1.171-2.065-2.363-1.957c-4.641,0-8.438,6.615-8.438,10.969 M516.969,548.604
	c0,1.688-1.991,4.895-6.143,6.564c1.688-5.637,3.646-7.779,5.062-7.779c0.574,0,1.029,0.422,1.029,1.215 M507.704,557.75
	c-0.194,1.91,1.196,3.617,3.106,3.812c0.224,0.022,0.449,0.023,0.674,0.003c3.139,0,5.535-4.151,5.535-4.422
	c0-0.27-0.102-0.32-0.253-0.32c-0.152,0-0.22,0.102-0.389,0.32c-1.822,2.565-3.24,3.713-4.742,3.713
	c-1.097,0-1.688-0.742-1.688-2.008c0.07-1.023,0.274-2.034,0.607-3.004c5.604-2.009,8-4.506,8-6.751
	c0.066-1.237-0.882-2.296-2.12-2.362c-0.081-0.005-0.162-0.005-0.243,0c-4.151,0-8.438,6.615-8.438,10.97 M500.194,555.911
	c-0.29,1.106-0.481,2.235-0.574,3.375c-0.112,1.094,0.684,2.072,1.778,2.185c0.155,0.016,0.312,0.014,0.467-0.008
	c1.4,0,2.109-0.641,3.037-1.991c0.548-0.918,1.011-1.884,1.384-2.886c0-0.186,0-0.354-0.287-0.354c-0.286,0-0.489,0.473-0.573,0.709
	c-0.422,0.895-1.569,3.611-2.785,3.611c-0.506,0-0.895-0.32-0.895-1.062c0.097-1.09,0.312-2.165,0.642-3.207l2.076-8.033h2.329
	c0.422,0,0.54-0.118,0.54-0.354s-0.169-0.455-0.422-0.455h-2.312l0.929-3.375c0.099-0.266,0.155-0.545,0.168-0.827
	c0-0.642-0.675-0.709-1.181-0.709c-0.507,0-0.827,0.102-0.929,0.473l-1.249,4.455h-2.042c-0.422,0-0.607,0.102-0.607,0.456
	s0.22,0.354,0.456,0.354h2.042L500.194,555.911z M487.723,558.004c0-3.78,2.042-10.649,5.248-10.649
	c1.216,0,2.042,0.996,2.042,2.903c0,3.78-2.042,10.648-5.248,10.648C488.55,560.906,487.723,559.91,487.723,558.004
	 M485.444,556.502c0,3.104,1.688,5.062,4.186,5.062c4.606,0,7.645-6.042,7.645-9.755c0-3.104-1.688-5.062-4.186-5.062
	C488.482,546.747,485.444,552.789,485.444,556.502 M477.344,561.041l2.244-6.463c0.461-1.435,1.025-2.833,1.688-4.186
	c0.709-1.367,1.536-2.633,2.312-2.633c0.287,0,0.32,0.253,0.32,0.742c0.015,0.55,0.473,0.983,1.022,0.969
	c0.03-0.001,0.062-0.003,0.092-0.007c0.641-0.044,1.141-0.572,1.147-1.215c-0.098-0.899-0.887-1.562-1.789-1.502
	c-2.599,0-4.354,4.54-4.894,6.042l0,0c0-0.574,0.32-2.633,0.32-3.24c0-2.65-1.604-2.818-1.856-2.818c-1.688,0-3.071,2.531-4,4.286
	c-0.114,0.186-0.188,0.393-0.219,0.607c0,0.152,0.135,0.287,0.186,0.287c0.128,0.019,0.254-0.041,0.32-0.151
	c0.422-0.709,1.469-2.684,1.789-3.072c0.32-0.388,0.776-0.928,1.215-0.928c0.439,0,0.642,1.215,0.642,1.688
	c-0.124,2.25-0.543,4.475-1.249,6.615l-1.502,4.962L477.344,561.041z M466.121,555.979c-0.289,1.106-0.481,2.235-0.574,3.375
	c-0.112,1.094,0.685,2.072,1.778,2.185c0.155,0.016,0.312,0.014,0.467-0.008c1.4,0,2.109-0.641,3.037-1.991
	c0.542-0.919,0.999-1.885,1.367-2.886c0-0.186,0-0.354-0.287-0.354c-0.286,0-0.489,0.473-0.573,0.709
	c-0.422,0.895-1.569,3.611-2.785,3.611c-0.506,0-0.895-0.32-0.895-1.062c0.097-1.09,0.312-2.165,0.642-3.207l2.076-8.033h2.346
	c0.422,0,0.54-0.118,0.54-0.354c0-0.235-0.169-0.455-0.422-0.455h-2.312l0.929-3.375c0.099-0.266,0.155-0.545,0.169-0.827
	c0-0.642-0.676-0.709-1.182-0.709c-0.507,0-0.827,0.102-0.928,0.473l-1.249,4.455h-2.042c-0.422,0-0.607,0.102-0.607,0.456
	s0.219,0.354,0.455,0.354h2.042L466.121,555.979z M455.084,554.595c0.607-2.937,2.751-6.751,4.962-6.751
	c0.583-0.064,1.109,0.355,1.175,0.938c0.004,0.042,0.007,0.083,0.006,0.125c-0.01,1.164-0.535,2.265-1.435,3.004
	c-1.401,1.169-2.994,2.089-4.708,2.717 M460.754,546.814c-2.328,0-4.134,2.498-4.708,3.527l0,0l1.688-7.426
	c0.32-1.4,0.895-3.813,0.895-4.101s-0.135-0.354-0.388-0.354c-0.254,0-2.684,0.32-4.186,0.32c-0.354,0-0.507,0-0.507,0.254
	c0,0.253,0.169,0.32,0.861,0.388c1.147,0.102,1.4,0.388,1.4,0.86c-0.101,0.887-0.258,1.767-0.473,2.633l-3.813,17.501
	c-0.044,0.167-0.078,0.336-0.102,0.506c0.009,0.111,0.106,0.195,0.218,0.186c0.001,0,0.001,0,0.002,0h1.688
	c0.186,0,0.354-0.101,0.422-0.438l1.282-5.147l2.177-1.08c0.22-0.135,0.321-0.219,0.507-0.219c0.742,0,1.182,0.894,1.182,1.788
	c0,0.507-0.187,2.853-0.187,3.376c-0.089,1.133,0.759,2.124,1.893,2.213c0.117,0.01,0.235,0.009,0.353-0.003
	c2.751,0,3.577-3.746,3.577-4.066c0-0.321,0-0.389-0.32-0.389s-0.32,0.439-0.473,0.962c-0.151,0.523-0.928,2.464-2.042,2.464
	c-0.186,0-0.675,0-0.675-0.742s0.102-1.688,0.102-2.531c0-2.616-1.469-3.038-2.937-3.375l0,0c1.569-0.473,5.282-2.65,5.282-4.895
	c-0.062-1.257-1.131-2.226-2.388-2.164c-0.07,0.004-0.142,0.011-0.212,0.021 M448.08,548.705c0,1.688-1.991,4.894-6.143,6.564
	c1.688-5.637,3.646-7.78,5.062-7.78c0.574,0,1.029,0.422,1.029,1.216 M438.781,557.75c-0.194,1.91,1.196,3.617,3.106,3.812
	c0.224,0.022,0.45,0.023,0.674,0.003c3.14,0,5.536-4.151,5.536-4.422c0-0.27-0.102-0.32-0.254-0.32c-0.151,0-0.219,0.102-0.388,0.32
	c-1.823,2.565-3.224,3.713-4.742,3.713c-1.08,0-1.688-0.742-1.688-2.008c0.069-1.023,0.274-2.034,0.607-3.004
	c5.603-2.009,7.999-4.506,7.999-6.751c0.067-1.237-0.882-2.296-2.12-2.362c-0.08-0.005-0.161-0.005-0.242,0
	c-4.169,0-8.438,6.615-8.438,10.97 M430.968,555.371c-0.31,1.251-0.501,2.527-0.574,3.813c-0.108,1.179,0.758,2.224,1.937,2.332
	c0.143,0.014,0.285,0.013,0.427-0.003c3.105,0,4.354-4.253,4.354-4.573s0-0.438-0.253-0.438c-0.217,0.034-0.388,0.204-0.422,0.422
	c-1.029,2.852-2.211,3.713-3.004,3.713s-0.776-0.743-0.776-1.216c0.15-1.431,0.388-2.851,0.709-4.252l2.751-12.32
	c0.32-1.4,0.895-3.813,0.895-4.101s-0.135-0.354-0.389-0.354c-0.253,0-2.683,0.32-4.186,0.32c-0.354,0-0.506,0-0.506,0.254
	c0,0.253,0.152,0.32,0.86,0.388c1.148,0.102,1.401,0.389,1.401,0.86c-0.101,0.888-0.259,1.767-0.473,2.633L430.968,555.371z
	 M426.682,548.62c0,1.688-1.992,4.895-6.144,6.565c1.688-5.637,3.646-7.78,5.063-7.78c0.573,0,1.029,0.422,1.029,1.215
	 M417.501,557.75c-0.195,1.91,1.195,3.617,3.105,3.812c0.225,0.022,0.45,0.023,0.675,0.003c3.139,0,5.535-4.151,5.535-4.422
	c0-0.27-0.102-0.32-0.253-0.32c-0.152,0-0.22,0.102-0.389,0.32c-1.822,2.565-3.24,3.713-4.742,3.713
	c-1.097,0-1.688-0.742-1.688-2.008c0.069-1.023,0.273-2.034,0.607-3.004c5.604-2.009,8-4.506,8-6.751
	c0.066-1.237-0.883-2.296-2.12-2.362c-0.081-0.005-0.162-0.005-0.243,0c-4.151,0-8.438,6.615-8.438,10.97 M392.659,560.315
	c-0.044,0.167-0.077,0.336-0.102,0.507c0.017,0.107,0.11,0.187,0.22,0.186h1.688c0.186,0,0.354-0.102,0.422-0.439l1.147-4.488
	c0.962-3.78,3.375-8.354,5.637-8.354c0.776,0,1.113,0.287,1.113,1.384c0,1.469-2.075,8.219-2.075,10.126
	c-0.113,1.159,0.734,2.191,1.894,2.305c0.105,0.011,0.212,0.013,0.317,0.008c2.717,0,3.932-4.422,3.932-4.827
	c0-0.151,0-0.287-0.219-0.287c-0.22,0-0.254,0.169-0.354,0.422c-0.574,1.688-1.502,3.68-2.649,3.68
	c-0.389,0-0.642-0.287-0.642-0.895c0-0.929,2.075-7.713,2.075-9.755c0.141-1.568-1.017-2.954-2.586-3.095
	c-0.116-0.011-0.233-0.014-0.351-0.01c-2.599,0-4.32,3.375-5.315,5.181l0,0c0.189-0.798,0.309-1.611,0.354-2.431
	c0-1.535-0.743-2.683-2.295-2.683c-2.718,0-3.933,4.421-3.933,4.826c0,0.169,0,0.287,0.22,0.287c0.219,0,0.286-0.152,0.354-0.422
	c0.742-2.498,1.856-3.679,2.497-3.679c0.642,0,0.895,0.422,0.895,1.468c-0.058,1.262-0.228,2.515-0.506,3.747L392.659,560.315z
	 M387.596,548.502c0,1.688-1.975,4.895-6.143,6.565c1.688-5.637,3.646-7.78,5.062-7.78c0.574,0,1.029,0.422,1.029,1.215
	 M378.364,557.75c-0.194,1.91,1.196,3.617,3.106,3.812c0.225,0.022,0.45,0.023,0.674,0.003c3.14,0,5.536-4.151,5.536-4.422
	c0-0.27-0.102-0.32-0.253-0.32c-0.152,0-0.22,0.102-0.389,0.32c-1.822,2.565-3.224,3.713-4.742,3.713
	c-1.097,0-1.688-0.742-1.688-2.008c0.069-1.023,0.273-2.034,0.607-3.004c5.603-2.009,7.999-4.506,7.999-6.751
	c0.067-1.237-0.882-2.296-2.119-2.362c-0.081-0.005-0.162-0.005-0.243,0c-4.151,0-8.438,6.615-8.438,10.97 M366.99,555.202
	l0.456-2.109h-7.983l-0.438,2.109H366.99z M346.738,548.553c0,1.688-1.991,4.895-6.143,6.565c1.688-5.637,3.646-7.78,5.062-7.78
	c0.574,0,1.03,0.422,1.03,1.215 M337.524,557.75c-0.194,1.91,1.196,3.617,3.106,3.812c0.224,0.022,0.449,0.023,0.674,0.003
	c3.139,0,5.535-4.151,5.535-4.422c0-0.27-0.102-0.32-0.253-0.32c-0.152,0-0.22,0.102-0.389,0.32
	c-1.822,2.565-3.223,3.713-4.742,3.713c-1.08,0-1.688-0.742-1.688-2.008c0.07-1.023,0.274-2.034,0.607-3.004
	c5.604-2.009,8-4.506,8-6.751c0.066-1.237-0.882-2.296-2.12-2.362c-0.081-0.005-0.162-0.005-0.243,0
	c-4.151,0-8.438,6.615-8.438,10.97 M331.246,549.532c0,2.649-2.683,11.172-6.109,11.172c-0.489,0-1.688,0-1.688-2.144
	c0-2.902,2.903-11.139,6.211-11.139c1.113,0,1.688,0.962,1.688,2.11 M331.854,548.351L331.854,548.351
	c-0.271-1.079-1.289-1.797-2.396-1.688c-4.185,0-8.185,6.564-8.185,10.361c0,2.178,1.08,4.422,3.578,4.422
	c2.497,0,3.966-2.531,5.062-4.742l0,0c-0.19,0.905-0.298,1.826-0.32,2.751c-0.173,0.916,0.431,1.798,1.347,1.971
	c0.156,0.029,0.316,0.036,0.476,0.021c2.717,0,4.422-4.894,4.422-5.062c0.017-0.173-0.089-0.334-0.253-0.389
	c-0.287,0-0.321,0.136-0.608,0.827c-0.928,2.312-2.143,3.746-2.75,3.746c-0.608,0-0.608-0.54-0.608-1.029
	c0.16-1.797,0.482-3.576,0.963-5.315l4.101-14.852c0.093-0.237,0.149-0.487,0.169-0.742c0-0.186-0.136-0.32-0.422-0.32
	c-0.287,0-2.178,0.286-4.22,0.506c-0.286,0-0.354,0.135-0.354,0.287c0,0.151,0,0.287,0.776,0.354s1.316,0.253,1.316,0.759
	c-0.004,0.362-0.066,0.722-0.186,1.063L331.854,548.351z M307.822,546.663c-2.717,0-3.933,4.421-3.933,4.826
	c0,0.169,0,0.287,0.22,0.287s0.253-0.152,0.354-0.422c0.827-2.431,1.688-3.679,2.616-3.679c0.388,0,0.675,0.286,0.675,0.826
	c0,0.895-2.076,7.78-2.076,9.822c-0.121,1.589,1.068,2.976,2.657,3.098c0.093,0.007,0.187,0.01,0.279,0.008
	c2.599,0,4.32-3.375,5.316-5.182l0,0c-0.19,0.799-0.31,1.611-0.354,2.431c0,1.536,0.742,2.684,2.295,2.684
	c2.717,0,3.933-4.422,3.933-4.827c0.019-0.139-0.079-0.266-0.218-0.284c-0.012-0.002-0.023-0.003-0.036-0.003
	c-0.186,0-0.32,0.136-0.422,0.422c-0.742,2.498-1.856,3.68-2.497,3.68c-0.642,0-0.793-0.422-0.793-1.469
	c0.058-1.261,0.228-2.515,0.506-3.746l1.688-7.577c0.046-0.166,0.08-0.336,0.102-0.507c0-0.135-0.135-0.186-0.321-0.186h-1.603
	c-0.186,0-0.354,0.102-0.422,0.456l-1.114,4.708c-0.895,3.78-3.24,8.354-5.502,8.354c-0.6,0.087-1.155-0.33-1.241-0.93
	c-0.013-0.083-0.015-0.167-0.007-0.251c0-1.688,2.075-8.54,2.075-10.126s-0.642-2.43-2.211-2.43 M292.212,557.902
	c0-3.78,2.042-10.648,5.248-10.648c1.216,0,2.042,0.995,2.042,2.902c0,3.78-2.042,10.648-5.248,10.648
	C293.039,560.805,292.212,559.81,292.212,557.902 M289.934,556.4c0,3.105,1.688,5.062,4.185,5.062c4.607,0,7.645-6.041,7.645-9.754
	c0-3.105-1.688-5.062-4.186-5.062C292.971,546.646,289.934,552.688,289.934,556.4 M279.301,554.442
	c0.608-2.937,2.751-6.75,4.962-6.75c0.583-0.065,1.109,0.354,1.174,0.938c0.005,0.041,0.007,0.083,0.007,0.125
	c-0.01,1.164-0.535,2.264-1.435,3.004c-1.402,1.168-2.995,2.088-4.708,2.717 M284.972,546.663c-2.346,0-4.135,2.497-4.708,3.526l0,0
	l1.688-7.425c0.32-1.401,0.894-3.814,0.894-4.102c0-0.286-0.135-0.354-0.388-0.354c-0.253,0-2.683,0.32-4.185,0.32
	c-0.354,0-0.506,0-0.506,0.253s0.169,0.32,0.861,0.389c1.147,0.101,1.417,0.388,1.417,0.86c-0.106,0.887-0.27,1.767-0.489,2.633
	l-3.814,17.5c-0.043,0.167-0.077,0.336-0.102,0.507c0.017,0.107,0.11,0.187,0.22,0.186h1.688c0.186,0,0.354-0.102,0.422-0.438
	l1.283-5.147l2.177-1.08c0.22-0.135,0.321-0.22,0.506-0.22c0.743,0,1.181,0.895,1.181,1.789c0,0.506-0.186,2.853-0.186,3.375
	c-0.089,1.134,0.758,2.125,1.892,2.214c0.118,0.009,0.236,0.008,0.353-0.003c2.751,0,3.578-3.746,3.578-4.067
	c0-0.32,0-0.388-0.32-0.388c-0.321,0-0.321,0.438-0.473,0.962s-0.928,2.464-2.042,2.464c-0.186,0-0.675,0-0.675-0.743
	c0-0.742,0.102-1.688,0.102-2.531c0-2.615-1.468-3.037-2.937-3.375l0,0c1.569-0.473,5.282-2.649,5.282-4.895
	c-0.051-1.247-1.104-2.218-2.352-2.166c-0.083,0.003-0.165,0.011-0.247,0.023 M260.451,559.657
	c-0.077,0.808,0.515,1.524,1.323,1.601c0.082,0.008,0.165,0.009,0.247,0.003c0.371,0.013,0.731-0.127,0.996-0.388
	c-0.067,1.862-1.234,3.507-2.97,4.185c-1.029,0.507-1.147,0.709-1.147,0.861c0,0.151,0,0.253,0.287,0.253
	c0.675,0,5.063-1.924,5.063-5.789c0.085-1.199-0.818-2.24-2.018-2.325c-0.02-0.001-0.039-0.003-0.059-0.003
	c-0.9-0.002-1.643,0.704-1.688,1.603 M247.979,555.202l0.456-2.109h-7.864l-0.438,2.109H247.979z M236.267,548.553
	c0,1.688-1.992,4.895-6.143,6.565c1.688-5.637,3.646-7.78,5.063-7.78c0.574,0,1.029,0.422,1.029,1.215 M227.137,557.75
	c-0.194,1.91,1.196,3.617,3.106,3.812c0.224,0.022,0.45,0.023,0.674,0.003c3.139,0,5.536-4.151,5.536-4.422
	c0-0.27-0.101-0.32-0.253-0.32s-0.22,0.102-0.388,0.32c-1.823,2.565-3.224,3.713-4.742,3.713c-1.097,0-1.688-0.742-1.688-2.008
	c0.07-1.023,0.274-2.034,0.608-3.004c5.603-2.009,7.999-4.506,7.999-6.751c0.067-1.237-0.882-2.296-2.12-2.362
	c-0.081-0.005-0.162-0.005-0.243,0c-4.168,0-8.438,6.615-8.438,10.97 M222.732,540.992c0,0.773,0.627,1.401,1.401,1.4
	c0.773,0,1.4-0.627,1.4-1.4c0-0.767-0.617-1.392-1.384-1.4C223.374,539.592,222.742,540.216,222.732,540.992 M218.699,559.27
	c-0.122,1.111,0.68,2.112,1.792,2.234c0.105,0.012,0.212,0.015,0.318,0.01c2.683,0,4.641-4.573,4.641-4.775
	c0.028-0.166-0.083-0.322-0.248-0.352c-0.024-0.004-0.048-0.005-0.072-0.003c-0.152,0-0.253,0.101-0.388,0.354
	c-1.35,2.683-2.599,3.864-3.375,3.864c-0.325,0.029-0.612-0.21-0.641-0.535c-0.003-0.035-0.003-0.071,0-0.106
	c0-0.709,0.101-1.468,1.688-5.181s1.856-4.675,1.856-5.671c0.104-1.216-0.799-2.286-2.015-2.39
	c-0.031-0.003-0.063-0.005-0.094-0.006c-2.278,0-4.253,3.932-4.253,4.252c0,0.321,0,0.389,0.219,0.389
	c0.17,0.005,0.325-0.096,0.388-0.253c0.675-1.604,2.025-3.494,3.038-3.494c0.388,0,0.608,0.287,0.608,0.794
	c-0.238,1.635-0.758,3.217-1.536,4.675c-1.688,4.135-2.008,5.181-2.008,6.176 M210.008,555.877
	c-0.289,1.106-0.481,2.236-0.574,3.375c-0.112,1.095,0.684,2.072,1.778,2.185c0.155,0.016,0.312,0.014,0.466-0.007
	c1.401,0,2.11-0.642,3.038-1.991c0.541-0.92,0.998-1.886,1.367-2.886c0-0.186,0-0.354-0.287-0.354c-0.287,0-0.473,0.473-0.574,0.708
	c-0.422,0.895-1.569,3.612-2.784,3.612c-0.506,0-0.895-0.321-0.895-1.063c0.096-1.089,0.311-2.164,0.641-3.206l2.076-8.033h2.329
	c0.422,0,0.54-0.118,0.54-0.354s-0.152-0.456-0.422-0.456h-2.295l0.928-3.375c0.099-0.266,0.156-0.544,0.169-0.827
	c0-0.641-0.675-0.709-1.181-0.709s-0.827,0.102-0.928,0.473l-1.249,4.455h-2.042c-0.422,0-0.607,0.102-0.607,0.456
	s0.219,0.354,0.438,0.354h2.042L210.008,555.877z M195.19,558.375c0-3.375,3.578-10.97,6.75-10.97c0.86,0,1.603,0.54,1.603,1.958
	c0,2.244-3.105,11.425-6.75,11.425c-0.962,0-1.603-0.86-1.603-2.396 M192.912,557.244c0,2.649,1.35,4.253,3.713,4.253
	c1.991,0,3.679-1.688,4.961-4.32l0,0c-0.188,0.726-0.318,1.465-0.388,2.211c-0.127,0.998,0.579,1.911,1.578,2.038
	c0.143,0.019,0.288,0.02,0.431,0.004c2.717,0,3.932-4.422,3.932-4.742c0-0.321,0-0.389-0.287-0.389c-0.287,0-0.32,0.135-0.388,0.422
	c-0.675,2.498-1.856,3.68-2.464,3.68c-0.607,0-0.708-0.287-0.708-0.827c0.415-3.52,1.289-6.969,2.599-10.261
	c0.213-0.545,0.366-1.11,0.456-1.688c0-0.321-0.354-0.676-1.283-0.676c-0.473,0-0.642,0.389-0.996,1.891l0,0
	c-0.106-1.272-1.223-2.219-2.496-2.113c-0.012,0.002-0.024,0.003-0.036,0.004c-3.78,0-8.573,5.957-8.573,10.53 M185.47,555.371
	c-0.31,1.251-0.501,2.527-0.574,3.813c-0.099,1.189,0.785,2.233,1.974,2.332c0.129,0.011,0.26,0.01,0.389-0.003
	c3.105,0,4.354-4.253,4.354-4.573s0-0.438-0.253-0.438c-0.217,0.033-0.388,0.204-0.422,0.422c-1.029,2.852-2.211,3.713-3.004,3.713
	c-0.793,0-0.776-0.743-0.776-1.216c0.15-1.431,0.387-2.851,0.709-4.253l2.75-12.319c0.321-1.4,0.895-3.813,0.895-4.101
	s-0.135-0.354-0.388-0.354c-0.253,0-2.683,0.32-4.185,0.32c-0.354,0-0.506,0-0.506,0.254c0,0.253,0.152,0.32,0.86,0.388
	c1.148,0.102,1.401,0.389,1.401,0.86c-0.101,0.887-0.259,1.767-0.473,2.633L185.47,555.371z M176.576,555.371
	c-0.308,1.251-0.5,2.527-0.574,3.813c-0.109,1.179,0.758,2.223,1.937,2.332c0.142,0.014,0.285,0.013,0.426-0.003
	c3.105,0,4.354-4.253,4.354-4.573s0-0.438-0.253-0.438c-0.218,0.033-0.388,0.204-0.422,0.422c-1.03,2.852-2.211,3.713-3.004,3.713
	c-0.793,0-0.776-0.743-0.776-1.216c0.15-1.431,0.387-2.851,0.708-4.253l2.751-12.319c0.321-1.4,0.895-3.813,0.895-4.101
	s-0.135-0.354-0.388-0.354c-0.253,0-2.684,0.32-4.186,0.32c-0.354,0-0.506,0-0.506,0.254c0,0.253,0.169,0.32,0.861,0.388
	c1.147,0.102,1.401,0.389,1.401,0.86c-0.106,0.888-0.27,1.767-0.49,2.633L176.576,555.371z M161.387,558.408
	c0-3.375,3.578-10.969,6.75-10.969c0.861,0,1.603,0.54,1.603,1.957c0,2.245-3.105,11.426-6.75,11.426
	c-0.962,0-1.603-0.861-1.603-2.396 M159.109,557.278c0,2.649,1.35,4.252,3.713,4.252c1.975,0,3.679-1.688,4.961-4.32l0,0
	c-0.188,0.726-0.318,1.465-0.388,2.211c-0.127,0.999,0.579,1.911,1.578,2.039c0.143,0.018,0.288,0.019,0.431,0.003
	c2.717,0,3.932-4.421,3.932-4.742c0-0.32,0-0.388-0.287-0.388c-0.287,0-0.321,0.135-0.388,0.422
	c-0.675,2.497-1.856,3.679-2.464,3.679c-0.608,0-0.709-0.287-0.709-0.827c0.427-3.532,1.318-6.994,2.649-10.294
	c0.207-0.545,0.354-1.111,0.439-1.688c0-0.321-0.354-0.676-1.283-0.676c-0.473,0-0.641,0.389-0.996,1.891l0,0
	c-0.105-1.272-1.223-2.219-2.496-2.113c-0.012,0.002-0.024,0.003-0.036,0.004c-3.78,0-8.573,5.957-8.573,10.53 M151.7,555.911
	c-0.289,1.106-0.481,2.235-0.574,3.375c-0.112,1.094,0.684,2.072,1.778,2.185c0.155,0.016,0.312,0.014,0.467-0.008
	c1.401,0,2.109-0.641,3.038-1.991c0.547-0.918,1.01-1.884,1.384-2.886c0-0.186,0-0.354-0.287-0.354
	c-0.287,0-0.473,0.473-0.574,0.709c-0.422,0.895-1.57,3.611-2.785,3.611c-0.506,0-0.895-0.32-0.895-1.063
	c0.096-1.089,0.311-2.164,0.641-3.206l2.076-8.033h2.329c0.422,0,0.54-0.118,0.54-0.354s-0.168-0.455-0.422-0.455h-2.329
	l0.928-3.375c0.099-0.266,0.156-0.545,0.169-0.827c0-0.642-0.675-0.709-1.181-0.709c-0.506,0-0.827,0.102-0.928,0.473l-1.249,4.455
	h-2.059c-0.422,0-0.607,0.102-0.607,0.456c0,0.354,0.219,0.354,0.439,0.354h2.042L151.7,555.911z M138.959,558.763
	c0,1.688,1.502,2.751,3.78,2.751c2.466,0.261,4.676-1.526,4.937-3.991c0.017-0.16,0.025-0.32,0.025-0.48
	c0-1.114-0.287-1.789-1.688-3.713c-1.823-2.396-2.076-3.14-2.076-3.865c0.002-1.174,0.956-2.124,2.13-2.122
	c0.078,0,0.155,0.004,0.232,0.013c1.08,0,1.435,0.354,1.435,1.114c0,0.759,0.186,1.08,0.793,1.08
	c0.419,0.022,0.777-0.299,0.799-0.718c0.002-0.048,0-0.096-0.006-0.144c0-1.113-1.249-1.957-2.886-1.957
	c-2.161-0.215-4.087,1.363-4.301,3.524c-0.012,0.118-0.018,0.237-0.019,0.356c0,1.216,0.253,2.009,2.278,4.742
	c1.282,1.688,1.536,2.312,1.536,3.105c-0.114,1.478-1.405,2.583-2.882,2.469c-0.018-0.001-0.036-0.003-0.054-0.005
	c-1.249,0-2.211-0.506-2.211-1.384c0-0.32,0.135-0.641,0.135-0.962c0.01-0.503-0.39-0.919-0.893-0.93c-0.023,0-0.046,0-0.069,0.002
	c-0.54,0-0.962,0.388-0.962,1.113 M124.361,560.332c-0.043,0.167-0.077,0.336-0.101,0.507c0.017,0.107,0.11,0.187,0.219,0.186h1.688
	c0.186,0,0.354-0.102,0.422-0.438l1.147-4.489c0.962-3.78,3.375-8.354,5.637-8.354c0.776,0,1.114,0.286,1.114,1.384
	c0,1.468-2.076,8.219-2.076,10.125c-0.104,1.17,0.761,2.202,1.931,2.306c0.093,0.009,0.187,0.011,0.28,0.007
	c2.717,0,3.932-4.422,3.932-4.827c0-0.151,0-0.286-0.219-0.286c-0.22,0-0.253,0.168-0.354,0.422
	c-0.574,1.688-1.502,3.679-2.649,3.679c-0.388,0-0.642-0.287-0.642-0.895c0-0.928,2.076-7.712,2.076-9.754
	c0.141-1.569-1.017-2.955-2.586-3.096c-0.116-0.011-0.233-0.014-0.35-0.01c-2.599,0-4.32,3.375-5.316,5.181l0,0
	c0.19-0.798,0.309-1.611,0.354-2.43c0-1.536-0.743-2.684-2.295-2.684c-2.717,0-3.932,4.422-3.932,4.826c0,0.169,0,0.287,0.219,0.287
	s0.287-0.151,0.354-0.422c0.743-2.498,1.856-3.679,2.498-3.679s0.895,0.422,0.895,1.468c-0.058,1.262-0.228,2.516-0.506,3.747
	L124.361,560.332z M118.133,541.009c0,0.774,0.627,1.401,1.401,1.401s1.401-0.627,1.401-1.4c0-0.774-0.627-1.401-1.401-1.401l0,0
	C118.765,539.617,118.143,540.239,118.133,541.009 M114.049,559.27c-0.122,1.111,0.68,2.112,1.792,2.234
	c0.105,0.012,0.212,0.015,0.318,0.01c2.683,0,4.641-4.573,4.641-4.775c0.028-0.166-0.083-0.323-0.248-0.352
	c-0.024-0.004-0.048-0.005-0.072-0.003c-0.169,0-0.253,0.101-0.388,0.354c-1.35,2.683-2.599,3.864-3.375,3.864
	c-0.325,0.029-0.612-0.21-0.641-0.535c-0.003-0.035-0.003-0.071,0-0.106c0-0.709,0.101-1.468,1.688-5.181s1.856-4.675,1.856-5.671
	c0.104-1.216-0.799-2.286-2.015-2.39c-0.032-0.003-0.063-0.005-0.094-0.007c-2.278,0-4.253,3.933-4.253,4.253
	c0,0.321,0,0.389,0.219,0.389c0.17,0.005,0.325-0.096,0.388-0.253c0.675-1.604,2.008-3.494,3.038-3.494
	c0.388,0,0.608,0.287,0.608,0.794c-0.238,1.635-0.758,3.217-1.536,4.675c-1.688,4.134-2.008,5.181-2.008,6.176 M98.439,559.641
	c-0.077,0.808,0.516,1.523,1.323,1.601c0.082,0.008,0.165,0.009,0.247,0.003c0.371,0.013,0.731-0.128,0.996-0.389
	c-0.067,1.862-1.234,3.507-2.97,4.186c-1.029,0.506-1.147,0.709-1.147,0.86c0,0.152,0,0.254,0.287,0.254
	c0.675,0,5.063-1.925,5.063-5.789c0.085-1.199-0.818-2.24-2.018-2.325c-0.02-0.002-0.039-0.003-0.059-0.004
	c-0.9-0.001-1.643,0.704-1.688,1.604 M94.861,555.186l0.456-2.109h-7.831l-0.439,2.109H94.861z M78.896,555.337
	c-0.31,1.251-0.501,2.528-0.574,3.814c-0.109,1.179,0.758,2.223,1.937,2.332c0.142,0.013,0.285,0.012,0.426-0.003
	c3.105,0,4.354-4.253,4.354-4.574c0-0.32,0-0.438-0.253-0.438c-0.217,0.034-0.388,0.205-0.422,0.422
	c-1.029,2.853-2.211,3.713-3.004,3.713c-0.793,0-0.76-0.742-0.76-1.215c0.151-1.431,0.387-2.851,0.709-4.253l2.751-12.319
	c0.32-1.401,0.895-3.814,0.895-4.102c0-0.286-0.135-0.354-0.388-0.354c-0.253,0-2.684,0.321-4.186,0.321
	c-0.354,0-0.506,0-0.506,0.253s0.169,0.32,0.861,0.388c1.147,0.102,1.401,0.389,1.401,0.861c-0.101,0.887-0.258,1.767-0.473,2.633
	L78.896,555.337z M63.708,558.375c0-3.375,3.578-10.97,6.75-10.97c0.861,0,1.604,0.54,1.604,1.958c0,2.244-3.105,11.425-6.75,11.425
	c-0.962,0-1.604-0.86-1.604-2.396 M61.429,557.244c0,2.649,1.35,4.253,3.713,4.253c1.992,0,3.679-1.688,4.962-4.32l0,0
	c-0.189,0.726-0.319,1.465-0.388,2.211c-0.127,0.998,0.579,1.911,1.578,2.038c0.143,0.019,0.287,0.02,0.431,0.004
	c2.717,0,3.932-4.422,3.932-4.742c0-0.321,0-0.389-0.287-0.389c-0.287,0-0.321,0.135-0.388,0.422
	c-0.675,2.498-1.856,3.68-2.464,3.68s-0.709-0.287-0.709-0.827c0.383-3.551,1.235-7.035,2.532-10.362
	c0.213-0.544,0.366-1.11,0.456-1.688c0-0.32-0.354-0.675-1.283-0.675c-0.473,0-0.641,0.388-0.996,1.89l0,0
	c-0.105-1.272-1.223-2.219-2.496-2.112c-0.012,0.001-0.024,0.002-0.036,0.003c-3.78,0-8.573,5.957-8.573,10.531 M47.692,558.308
	c0-3.376,3.578-10.97,6.75-10.97c0.86,0,1.603,0.54,1.603,1.957c0,2.245-3.105,11.426-6.75,11.426c-0.962,0-1.603-0.861-1.603-2.396
	 M45.566,557.261c0,2.649,1.35,4.253,3.712,4.253c1.992,0,3.679-1.688,4.962-4.32l0,0c-0.189,0.726-0.318,1.465-0.388,2.211
	c-0.127,0.998,0.579,1.911,1.578,2.038c0.143,0.019,0.288,0.02,0.431,0.004c2.717,0,3.932-4.422,3.932-4.742s0-0.388-0.287-0.388
	c-0.287,0-0.32,0.135-0.388,0.422c-0.675,2.497-1.856,3.679-2.464,3.679c-0.607,0-0.708-0.287-0.708-0.827
	c0.384-3.55,1.235-7.034,2.531-10.362c0.208-0.545,0.354-1.11,0.439-1.688c0-0.32-0.354-0.675-1.283-0.675
	c-0.473,0-0.641,0.389-0.996,1.891l0,0c-0.106-1.273-1.223-2.219-2.496-2.113c-0.012,0.001-0.024,0.002-0.036,0.003
	c-3.78,0-8.573,5.958-8.573,10.531 M38.039,555.826c-0.289,1.106-0.48,2.236-0.574,3.376c-0.112,1.094,0.684,2.071,1.778,2.184
	c0.155,0.017,0.312,0.014,0.467-0.007c1.417,0,2.109-0.642,3.038-1.991c0.547-0.919,1.01-1.885,1.384-2.886
	c0-0.186,0-0.354-0.287-0.354c-0.287,0-0.472,0.473-0.574,0.709c-0.422,0.894-1.569,3.611-2.785,3.611
	c-0.506,0-0.894-0.321-0.894-1.063c0.096-1.089,0.311-2.164,0.641-3.206l2.076-8.033h2.346c0.422,0,0.54-0.118,0.54-0.354
	s-0.152-0.456-0.422-0.456H42.46l0.928-3.375c0.099-0.266,0.156-0.544,0.169-0.827c0-0.641-0.675-0.709-1.182-0.709
	c-0.506,0-0.827,0.102-0.928,0.473l-1.249,4.456H38.14c-0.422,0-0.607,0.101-0.607,0.455s0.219,0.354,0.456,0.354h2.042
	L38.039,555.826z M34.073,548.469c0,1.688-1.975,4.894-6.143,6.564c1.688-5.637,3.645-7.779,5.063-7.779
	c0.574,0,1.029,0.422,1.029,1.215 M24.893,557.75c-0.167,1.913,1.248,3.6,3.16,3.767c0.212,0.019,0.425,0.018,0.637-0.003
	c3.139,0,5.536-4.151,5.536-4.422c0-0.27-0.102-0.32-0.253-0.32s-0.219,0.102-0.388,0.32c-1.822,2.565-3.24,3.713-4.742,3.713
	c-1.097,0-1.688-0.742-1.688-2.008c0.069-1.023,0.273-2.034,0.607-3.004c5.603-2.009,8-4.506,8-6.751
	c0.067-1.237-0.882-2.295-2.12-2.362c-0.081-0.004-0.162-0.004-0.243,0c-4.168,0-8.438,6.615-8.438,10.97 M1.789,560.332
	c-0.043,0.167-0.077,0.336-0.102,0.507c0.017,0.107,0.11,0.187,0.22,0.186h1.688c0.186,0,0.354-0.102,0.422-0.438l1.165-4.523
	c0.962-3.746,3.375-8.354,5.249-8.354c0.607,0,0.894,0.422,0.894,1.469c-0.058,1.261-0.227,2.515-0.506,3.746l-1.688,7.358
	c-0.043,0.166-0.077,0.335-0.101,0.506c0.017,0.107,0.11,0.187,0.219,0.186h1.688c0.186,0,0.354-0.102,0.422-0.438l1.181-4.473
	c0.962-3.78,3.493-8.354,5.535-8.354c0.608,0,0.962,0.473,0.962,1.384c0,1.469-2.076,8.219-2.076,10.126
	c-0.113,1.159,0.735,2.191,1.894,2.305c0.105,0.011,0.211,0.013,0.317,0.007c2.717,0,3.932-4.421,3.932-4.826
	c0-0.151,0-0.287-0.219-0.287c-0.22,0-0.253,0.169-0.354,0.422c-0.574,1.688-1.502,3.68-2.649,3.68
	c-0.388,0-0.642-0.287-0.642-0.895c0-0.929,2.076-7.713,2.076-9.755c0.168-1.557-0.957-2.955-2.514-3.123
	c-0.079-0.009-0.157-0.014-0.236-0.016c-2.599,0-4.32,3.375-5.282,5.181l0,0c0.19-0.798,0.309-1.611,0.354-2.43
	c0-1.536-0.776-2.684-2.362-2.684c-2.599,0-4.32,3.375-5.282,5.181l0,0c0.19-0.798,0.309-1.611,0.354-2.43
	c0-1.536-0.742-2.684-2.312-2.684c-2.498,0-3.932,4-3.932,4.826c-0.009,0.149,0.104,0.277,0.252,0.287c0,0,0,0,0.001,0
	c0.186,0,0.321-0.135,0.422-0.422c0.743-2.497,1.856-3.679,2.498-3.679s0.793,0.422,0.793,1.468
	c-0.058,1.262-0.228,2.516-0.506,3.747L1.789,560.332z"/>
<path d="M458.172,501.164c0,1.688,1.502,2.751,3.78,2.751c2.466,0.262,4.676-1.525,4.938-3.991c0.017-0.16,0.024-0.32,0.024-0.48
	c0-1.114-0.287-1.789-1.688-3.713c-1.822-2.396-2.076-3.139-2.076-3.865c0.002-1.174,0.956-2.124,2.131-2.122
	c0.077,0,0.155,0.004,0.232,0.013c1.08,0,1.435,0.354,1.435,1.114s0.186,1.097,0.793,1.097c0.419,0.022,0.776-0.299,0.799-0.718
	c0.003-0.048,0.001-0.096-0.006-0.143c0-1.114-1.249-1.958-2.886-1.958c-2.161-0.215-4.087,1.363-4.302,3.524
	c-0.011,0.113-0.018,0.227-0.019,0.341c0,1.215,0.253,2.008,2.278,4.742c1.282,1.688,1.536,2.312,1.536,3.104
	c-0.114,1.478-1.405,2.583-2.883,2.469c-0.018-0.001-0.036-0.003-0.054-0.005c-1.249,0-2.211-0.506-2.211-1.366
	c0-0.321,0.135-0.642,0.135-0.962c0.01-0.504-0.39-0.92-0.893-0.93c-0.023-0.001-0.046,0-0.069,0.001
	c-0.54,0-0.962,0.389-0.962,1.114 M450.966,503.46l2.245-6.464c0.46-1.435,1.023-2.833,1.688-4.186
	c0.709-1.384,1.535-2.633,2.312-2.633c0.287,0,0.321,0.254,0.321,0.743c0.015,0.55,0.472,0.983,1.021,0.969
	c0.031-0.001,0.062-0.003,0.092-0.007c0.641-0.044,1.141-0.573,1.147-1.215c-0.097-0.899-0.886-1.562-1.788-1.503
	c-2.6,0-4.354,4.54-4.895,6.042l0,0c0-0.573,0.32-2.633,0.32-3.24c0-2.649-1.603-2.818-1.856-2.818
	c-1.688,0-3.071,2.531-3.999,4.287c-0.115,0.185-0.189,0.392-0.22,0.607c0,0.151,0.118,0.286,0.186,0.286
	c0.128,0.019,0.254-0.041,0.321-0.151c0.422-0.709,1.468-2.684,1.788-3.071c0.321-0.389,0.776-0.929,1.216-0.929
	c0.438,0,0.641,1.216,0.641,1.688c-0.123,2.251-0.543,4.476-1.249,6.616l-1.502,4.961L450.966,503.46z M444.654,490.988
	c0,1.688-1.991,4.894-6.143,6.564c1.688-5.637,3.645-7.779,5.062-7.779c0.574,0,1.029,0.422,1.029,1.215 M435.406,500.102
	c-0.194,1.91,1.196,3.616,3.106,3.811c0.224,0.023,0.449,0.024,0.674,0.003c3.139,0,5.535-4.168,5.535-4.421
	c0-0.254-0.101-0.321-0.253-0.321c-0.151,0-0.22,0.102-0.388,0.321c-1.823,2.564-3.24,3.713-4.742,3.713
	c-1.098,0-1.688-0.743-1.688-2.009c0.07-1.023,0.274-2.033,0.608-3.004c5.603-2.008,7.999-4.506,7.999-6.751
	c0.066-1.237-0.882-2.295-2.12-2.362c-0.081-0.004-0.162-0.004-0.243,0c-4.151,0-8.438,6.615-8.438,10.97 M429.111,491.934
	c0,2.649-2.684,11.172-6.109,11.172c-0.473,0-1.688,0-1.688-2.144c0-2.92,2.92-11.139,6.211-11.139c1.113,0,1.688,0.962,1.688,2.11
	 M429.719,490.752L429.719,490.752c-0.271-1.078-1.29-1.797-2.396-1.688c-4.185,0-8.185,6.564-8.185,10.361
	c0,2.178,1.08,4.422,3.577,4.422c2.498,0,3.967-2.531,5.063-4.742l0,0c-0.19,0.905-0.298,1.826-0.32,2.751
	c-0.163,0.918,0.449,1.794,1.366,1.956c0.15,0.027,0.304,0.033,0.456,0.019c2.717,0,4.422-4.895,4.422-5.062
	c0.017-0.173-0.089-0.334-0.254-0.389c-0.286,0-0.32,0.135-0.607,0.827c-0.928,2.312-2.143,3.746-2.751,3.746
	c-0.607,0-0.607-0.54-0.607-1.029c0.16-1.797,0.482-3.576,0.962-5.315l4.102-14.852c0.093-0.237,0.149-0.488,0.169-0.742
	c0-0.186-0.136-0.321-0.422-0.321c-0.287,0-2.178,0.287-4.22,0.507c-0.287,0-0.354,0.135-0.354,0.287c0,0.151,0,0.286,0.776,0.354
	c0.776,0.068,1.316,0.254,1.316,0.776c-0.004,0.362-0.067,0.722-0.186,1.063L429.719,490.752z M415.087,483.394
	c0,0.774,0.628,1.401,1.401,1.401s1.4-0.628,1.4-1.401c0-0.767-0.617-1.392-1.384-1.4
	C415.729,481.993,415.097,482.617,415.087,483.394 M411.054,501.671c-0.122,1.111,0.68,2.112,1.791,2.234
	c0.106,0.012,0.213,0.015,0.318,0.01c2.684,0,4.642-4.573,4.642-4.759c0.028-0.165-0.083-0.322-0.248-0.351
	c-0.024-0.004-0.049-0.006-0.073-0.004c-0.169,0-0.253,0.102-0.388,0.354c-1.351,2.684-2.599,3.864-3.375,3.864
	c-0.325,0.029-0.612-0.21-0.642-0.535c-0.003-0.035-0.003-0.07,0-0.105c0-0.709,0.102-1.469,1.688-5.182
	c1.587-3.713,1.856-4.675,1.856-5.67c0.104-1.217-0.799-2.287-2.016-2.391c-0.031-0.003-0.062-0.005-0.094-0.006
	c-2.278,0-4.253,3.932-4.253,4.253c0,0.32,0,0.388,0.22,0.388c0.169,0.006,0.324-0.096,0.388-0.253
	c0.675-1.604,2.025-3.493,3.038-3.493c0.388,0,0.607,0.287,0.607,0.793c-0.238,1.636-0.758,3.217-1.536,4.675
	c-1.688,4.135-2.008,5.181-2.008,6.177 M407.29,490.954c0,1.688-1.991,4.895-6.143,6.565c1.688-5.637,3.646-7.78,5.062-7.78
	c0.574,0,1.03,0.422,1.03,1.215 M398.06,500.102c-0.195,1.91,1.195,3.616,3.105,3.811c0.225,0.023,0.45,0.024,0.675,0.003
	c3.139,0,5.535-4.168,5.535-4.421c0-0.254-0.102-0.321-0.253-0.321c-0.152,0-0.22,0.102-0.389,0.321
	c-1.822,2.564-3.224,3.713-4.742,3.713c-1.08,0-1.688-0.743-1.688-2.009c0.07-1.023,0.274-2.033,0.607-3.004
	c5.604-2.008,7.999-4.506,7.999-6.751c0.067-1.237-0.882-2.295-2.119-2.362c-0.081-0.004-0.162-0.004-0.243,0
	c-4.151,0-8.438,6.615-8.438,10.97 M390.245,497.722c-0.309,1.251-0.501,2.527-0.573,3.814c-0.109,1.179,0.758,2.223,1.937,2.332
	c0.142,0.013,0.284,0.012,0.426-0.003c3.105,0,4.354-4.253,4.354-4.574c0-0.32,0-0.455-0.253-0.455
	c-0.218,0.034-0.389,0.204-0.422,0.422c-1.03,2.852-2.211,3.713-3.004,3.713c-0.794,0-0.776-0.743-0.776-1.216
	c0.15-1.43,0.388-2.851,0.708-4.252l2.751-12.32c0.321-1.417,0.895-3.813,0.895-4.101s-0.135-0.354-0.388-0.354
	c-0.254,0-2.684,0.32-4.186,0.32c-0.354,0-0.507,0-0.507,0.254c0,0.253,0.169,0.32,0.861,0.388c1.147,0.102,1.4,0.389,1.4,0.86
	c-0.101,0.888-0.258,1.767-0.473,2.633L390.245,497.722z M385.959,490.972c0,1.688-1.991,4.894-6.143,6.564
	c1.688-5.637,3.645-7.78,5.062-7.78c0.574,0,1.029,0.422,1.029,1.216 M376.728,500.118c-0.194,1.91,1.196,3.616,3.106,3.812
	c0.224,0.022,0.45,0.023,0.674,0.003c3.14,0,5.535-4.169,5.535-4.422s-0.101-0.32-0.253-0.32c-0.151,0-0.219,0.101-0.388,0.32
	c-1.823,2.565-3.24,3.713-4.742,3.713c-1.098,0-1.688-0.742-1.688-2.009c0.068-1.023,0.273-2.033,0.607-3.004
	c5.603-2.008,7.999-4.506,7.999-6.75c0.067-1.238-0.882-2.296-2.12-2.362c-0.08-0.005-0.161-0.005-0.242,0
	c-4.169,0-8.438,6.615-8.438,10.969 M371.276,492.372c0,0.76-0.86,6.919-3.966,6.919c-1.384,0-2.042-0.86-2.042-2.464
	c0-1.147,1.182-6.97,3.865-6.97c1.822,0,2.143,1.182,2.143,2.531 M364.881,502.785c-0.895-0.169-1.351-0.541-1.351-1.316
	c0-0.473,0.456-1.401,2.329-1.435h1.182c3.63-0.165,6.452-3.22,6.328-6.853c-0.016-0.626-0.146-1.244-0.388-1.822
	c0.454-0.405,0.988-0.711,1.569-0.895c0.354,0,0.422,0.321,0.473,0.929c0.026,0.532,0.462,0.953,0.995,0.962
	c0.606-0.01,1.09-0.508,1.08-1.114l0,0c0.058-0.93-0.649-1.731-1.579-1.789c-0.07-0.004-0.14-0.004-0.209,0
	c-1.018,0.074-1.973,0.519-2.684,1.249c-0.778-1.064-2.063-1.637-3.375-1.502c-3.072,0-6.076,3.578-6.076,6.599
	c-0.026,1.548,0.832,2.976,2.211,3.679c-2.075,0.22-3.746,1.384-3.746,3.004c0,2.718,4.742,3.207,6.632,3.376
	c1.891,0.168,3.207,0.742,3.207,2.464c0,2.599-2.853,3.375-4.962,3.375s-4.675-1.063-4.675-3.544
	c-0.009-0.994,0.585-1.895,1.502-2.278c-0.304-0.248-0.688-0.374-1.08-0.354c-1.332,0.044-2.376,1.159-2.332,2.491
	c0,0.024,0.002,0.05,0.003,0.074c0,2.919,3.78,4.32,6.599,4.32c3.747,0,6.751-1.536,6.751-5.063
	c0.038-2.097-1.617-3.834-3.713-3.898L364.881,502.785z M358.282,490.972c0,1.688-1.991,4.894-6.144,6.564
	c1.688-5.637,3.646-7.78,5.063-7.78c0.573,0,1.029,0.422,1.029,1.216 M349.051,500.118c-0.194,1.91,1.196,3.616,3.106,3.812
	c0.224,0.022,0.449,0.023,0.674,0.003c3.139,0,5.535-4.169,5.535-4.422s-0.101-0.32-0.253-0.32s-0.22,0.101-0.389,0.32
	c-1.822,2.565-3.223,3.713-4.742,3.713c-1.08,0-1.688-0.742-1.688-2.009c0.069-1.023,0.273-2.033,0.607-3.004
	c5.604-2.008,8-4.506,8-6.75c0.066-1.238-0.882-2.296-2.12-2.362c-0.081-0.005-0.162-0.005-0.243,0
	c-4.151,0-8.438,6.615-8.438,10.969 M341.001,485.183c0.32-1.417,0.895-3.813,0.895-4.101s-0.136-0.354-0.389-0.354
	s-2.683,0.32-4.185,0.32c-0.354,0-0.507,0-0.507,0.254c0,0.253,0.152,0.32,0.86,0.388c1.148,0.102,1.401,0.389,1.401,0.86
	c-0.102,0.887-0.26,1.767-0.473,2.633l-2.464,11.426c-0.309,1.16-0.512,2.347-0.607,3.544c-0.107,1.954,1.39,3.626,3.344,3.733
	c0.207,0.011,0.416,0.004,0.622-0.021c4.033,0,7.813-6.244,7.813-10.328c0.271-2.174-1.271-4.155-3.445-4.426
	c-0.14-0.018-0.279-0.027-0.419-0.03c-1.958,0-3.072,1.688-4.102,3.376l0,0L341.001,485.183z M337.626,500.607
	c0-1.89,2.278-10.716,5.501-10.716c1.114,0,1.688,1.062,1.688,2.43c0,3.224-2.278,10.937-5.417,10.937
	c-1.384,0-1.856-1.114-1.856-2.65 M332.259,497.57l0.456-2.109h-7.864l-0.439,2.109H332.259z M299.266,502.633
	c-0.043,0.167-0.077,0.336-0.101,0.507c0.017,0.107,0.11,0.187,0.219,0.186h1.688c0.186,0,0.354-0.102,0.422-0.456l1.147-4.473
	c0.963-3.779,3.376-8.354,5.637-8.354c0.76,0,1.114,0.287,1.114,1.384c0,1.469-2.076,8.219-2.076,10.126
	c-0.104,1.16,0.753,2.186,1.913,2.29c0.099,0.009,0.198,0.011,0.298,0.005c2.718,0,3.933-4.421,3.933-4.826
	c0-0.169,0-0.287-0.22-0.287s-0.253,0.169-0.354,0.422c-0.573,1.688-1.502,3.679-2.649,3.679c-0.388,0-0.642-0.286-0.642-0.894
	c0-0.929,2.076-7.713,2.076-9.755c0.141-1.569-1.018-2.955-2.586-3.096c-0.116-0.01-0.233-0.014-0.351-0.01
	c-2.599,0-4.32,3.375-5.316,5.182l0,0c0.19-0.798,0.31-1.611,0.354-2.431c0-1.535-0.742-2.684-2.312-2.684
	c-2.718,0-3.933,4.422-3.933,4.827c0,0.169,0,0.287,0.22,0.287s0.287-0.169,0.354-0.422c0.742-2.498,1.856-3.68,2.497-3.68
	c0.642,0,0.895,0.422,0.895,1.469c-0.059,1.261-0.228,2.515-0.506,3.746L299.266,502.633z M294.203,490.819
	c0,1.688-1.992,4.895-6.143,6.565c1.688-5.637,3.645-7.78,5.063-7.78c0.574,0,1.029,0.422,1.029,1.215 M285.208,500.102
	c-0.195,1.91,1.196,3.616,3.106,3.811c0.224,0.023,0.45,0.024,0.674,0.003c3.139,0,5.535-4.168,5.535-4.421
	c0-0.254-0.101-0.321-0.253-0.321s-0.219,0.102-0.388,0.321c-1.823,2.564-3.24,3.713-4.742,3.713c-1.08,0-1.688-0.743-1.688-2.009
	c0.069-1.023,0.273-2.034,0.607-3.004c5.603-2.008,8-4.506,8-6.751c0.067-1.237-0.882-2.295-2.12-2.362
	c-0.081-0.004-0.162-0.004-0.243,0c-4.151,0-8.438,6.615-8.438,10.97 M264.332,501.114c0,1.688,1.502,2.751,3.78,2.751
	c2.466,0.261,4.676-1.526,4.937-3.992c0.017-0.159,0.025-0.32,0.025-0.48c0-1.114-0.287-1.789-1.688-3.713
	c-1.823-2.396-2.076-3.139-2.076-3.864c0.002-1.175,0.956-2.125,2.13-2.123c0.078,0,0.155,0.005,0.232,0.014
	c1.097,0,1.435,0.354,1.435,1.113s0.186,1.097,0.793,1.097c0.419,0.022,0.777-0.299,0.799-0.717c0.002-0.048,0-0.096-0.006-0.144
	c0-1.114-1.249-1.958-2.886-1.958c-2.161-0.214-4.087,1.363-4.302,3.524c-0.011,0.113-0.018,0.227-0.019,0.341
	c0,1.215,0.253,2.008,2.278,4.742c1.282,1.688,1.536,2.312,1.536,3.105c-0.114,1.478-1.405,2.582-2.882,2.469
	c-0.018-0.002-0.036-0.004-0.054-0.005c-1.249,0-2.211-0.507-2.211-1.367c0-0.321,0.135-0.642,0.135-0.962
	c0.01-0.504-0.39-0.92-0.893-0.93c-0.023,0-0.046,0-0.069,0.001c-0.54,0-0.962,0.389-0.962,1.114 M257.126,503.409l2.245-6.464
	c0.461-1.434,1.025-2.832,1.688-4.186c0.709-1.384,1.536-2.632,2.312-2.632c0.287,0,0.321,0.253,0.321,0.742
	c0.015,0.55,0.472,0.983,1.022,0.969c0.031-0.001,0.062-0.003,0.092-0.007c0.641-0.044,1.14-0.573,1.147-1.215
	c-0.097-0.899-0.886-1.562-1.789-1.502c-2.599,0-4.354,4.539-4.894,6.041l0,0c0-0.573,0.32-2.633,0.32-3.24
	c0-2.649-1.603-2.818-1.856-2.818c-1.688,0-3.071,2.531-4,4.287c-0.114,0.185-0.189,0.392-0.219,0.607
	c0,0.151,0.135,0.287,0.186,0.287c0.128,0.019,0.254-0.042,0.321-0.152c0.422-0.709,1.468-2.684,1.789-3.071
	c0.321-0.389,0.776-0.929,1.215-0.929c0.438,0,0.641,1.216,0.641,1.688c-0.124,2.25-0.543,4.475-1.249,6.615l-1.502,4.962
	L257.126,503.409z M250.814,490.938c0,1.688-1.992,4.895-6.143,6.564c1.688-5.636,3.646-7.779,5.063-7.779
	c0.574,0,1.029,0.422,1.029,1.215 M241.583,500.085c-0.195,1.909,1.196,3.616,3.106,3.811c0.224,0.022,0.45,0.023,0.674,0.003
	c3.139,0,5.536-4.168,5.536-4.422c0-0.253-0.102-0.32-0.253-0.32s-0.219,0.102-0.388,0.32c-1.822,2.565-3.223,3.713-4.742,3.713
	c-1.097,0-1.688-0.742-1.688-2.008c0.069-1.023,0.273-2.034,0.607-3.004c5.603-2.009,8-4.506,8-6.751
	c0.067-1.237-0.882-2.295-2.12-2.362c-0.081-0.005-0.162-0.005-0.243,0c-4.151,0-8.438,6.615-8.438,10.97 M235.17,491.934
	c0,2.649-2.683,11.172-6.109,11.172c-0.49,0-1.688,0-1.688-2.144c0-2.92,2.903-11.139,6.21-11.139c1.114,0,1.688,0.962,1.688,2.11
	 M235.777,490.752L235.777,490.752c-0.271-1.078-1.29-1.797-2.396-1.688c-4.186,0-8.185,6.564-8.185,10.361
	c0,2.178,1.08,4.422,3.578,4.422s3.966-2.531,5.063-4.742l0,0c-0.19,0.905-0.298,1.826-0.321,2.751
	c-0.163,0.918,0.449,1.794,1.367,1.956c0.15,0.027,0.304,0.033,0.456,0.019c2.717,0,4.421-4.895,4.421-5.062
	c0.017-0.173-0.088-0.334-0.253-0.389c-0.287,0-0.321,0.135-0.607,0.827c-0.928,2.312-2.144,3.746-2.751,3.746
	s-0.607-0.54-0.607-1.029c0.159-1.797,0.481-3.576,0.962-5.315l4.101-14.852c0.093-0.237,0.15-0.488,0.169-0.742
	c0-0.186-0.135-0.321-0.422-0.321c-0.287,0-2.177,0.287-4.219,0.507c-0.287,0-0.354,0.135-0.354,0.287c0,0.151,0,0.286,0.776,0.354
	c0.776,0.068,1.316,0.254,1.316,0.776c-0.004,0.362-0.067,0.722-0.186,1.063L235.777,490.752z M221.079,483.411
	c0,0.773,0.627,1.4,1.4,1.4c0.774,0,1.401-0.627,1.401-1.4c0-0.774-0.627-1.401-1.401-1.401l0,0
	C221.709,482.02,221.087,482.641,221.079,483.411 M217.045,501.688c-0.123,1.112,0.68,2.112,1.792,2.234
	c0.105,0.012,0.212,0.016,0.318,0.011c2.684,0,4.641-4.574,4.641-4.76c0.028-0.165-0.083-0.322-0.248-0.351
	c-0.024-0.004-0.048-0.005-0.073-0.004c-0.168,0-0.253,0.102-0.388,0.354c-1.351,2.684-2.599,3.865-3.375,3.865
	c-0.325,0.029-0.612-0.211-0.641-0.535c-0.003-0.036-0.003-0.071,0-0.106c0-0.709,0.101-1.469,1.688-5.181
	c1.586-3.713,1.856-4.675,1.856-5.671c0.104-1.217-0.799-2.287-2.015-2.391c-0.032-0.002-0.063-0.004-0.095-0.006
	c-2.278,0-4.252,3.933-4.252,4.253s0,0.388,0.219,0.388c0.169,0.006,0.325-0.096,0.388-0.253c0.675-1.603,2.008-3.493,3.038-3.493
	c0.388,0,0.607,0.287,0.607,0.793c-0.238,1.636-0.757,3.217-1.536,4.675c-1.688,4.135-2.025,5.182-2.025,6.177 M213.265,490.971
	c0,1.688-1.991,4.895-6.143,6.565c1.688-5.637,3.646-7.78,5.063-7.78c0.574,0,1.029,0.422,1.029,1.216 M204.202,500.102
	c-0.195,1.91,1.196,3.616,3.106,3.811c0.224,0.023,0.45,0.024,0.674,0.003c3.139,0,5.536-4.168,5.536-4.421
	c0-0.254-0.102-0.321-0.253-0.321s-0.219,0.102-0.388,0.321c-1.823,2.564-3.24,3.713-4.742,3.713c-1.08,0-1.688-0.743-1.688-2.009
	c0.069-1.023,0.273-2.034,0.607-3.004c5.603-2.008,8-4.506,8-6.751c0.067-1.237-0.882-2.295-2.12-2.362
	c-0.081-0.004-0.162-0.004-0.243,0c-4.151,0-8.438,6.615-8.438,10.97 M196.372,497.722c-0.309,1.251-0.501,2.527-0.574,3.814
	c-0.109,1.179,0.758,2.223,1.937,2.332c0.142,0.013,0.285,0.012,0.426-0.003c3.105,0,4.354-4.253,4.354-4.574
	c0-0.32,0-0.455-0.253-0.455c-0.218,0.034-0.388,0.204-0.422,0.422c-1.029,2.852-2.21,3.713-3.004,3.713
	c-0.793,0-0.759-0.743-0.759-1.216c0.15-1.431,0.387-2.851,0.709-4.252l2.75-12.32c0.321-1.417,0.895-3.813,0.895-4.101
	s-0.135-0.354-0.388-0.354c-0.253,0-2.683,0.32-4.185,0.32c-0.354,0-0.506,0-0.506,0.254c0,0.253,0.168,0.32,0.86,0.388
	c1.148,0.102,1.401,0.389,1.401,0.86c-0.101,0.887-0.259,1.767-0.473,2.633L196.372,497.722z M183.9,500.658
	c-0.102-3.105,2.531-10.885,5.603-10.885c1.283,0,1.789,1.029,1.856,2.599c0,2.329-2.177,10.784-5.67,10.784
	C184.693,503.156,184.001,502.16,183.9,500.658 M179.192,510.446c-0.103,0.747-0.749,1.298-1.502,1.283
	c-0.506,0-0.708,0.135-0.708,0.388s0.168,0.32,0.422,0.32c1.029,0,2.008-0.101,3.038-0.101h1.502c0.506,0,1.03,0,1.502,0
	c0.473,0,0.388-0.102,0.354-0.321c-0.034-0.219-0.186-0.388-0.708-0.388c-1.097,0-1.468-0.574-1.468-0.996
	c0.002-0.335,0.042-0.669,0.118-0.995l1.688-7.679l0,0c0.351,1.108,1.403,1.843,2.565,1.789c4.253,0,7.78-6.042,7.611-10.43
	c-0.101-2.6-1.502-4.354-3.747-4.354s-3.527,1.688-4.573,3.831l0,0l1.688-7.071c0.103-0.356,0.154-0.726,0.152-1.097
	c0-0.389-0.506-0.473-1.029-0.473c-0.523,0-0.793,0.102-0.962,0.709l-1.148,4c-0.309,1.103-1.043,2.037-2.042,2.599
	c-1.485,0.951-2.525,2.459-2.886,4.186c0,0.186,0.101,0.286,0.287,0.286c0.165,0.001,0.303-0.123,0.32-0.286
	c0.506-1.688,2.599-4.034,3.375-4.034c0.219,0,0.219,0.22,0.219,0.439c-0.002,0.433-0.059,0.863-0.169,1.282L179.192,510.446z
	 M167.699,500.32c0-3.78,2.042-10.648,5.248-10.648c1.215,0,2.042,0.996,2.042,2.92c0,3.78-2.042,10.648-5.249,10.648
	C168.526,503.24,167.699,502.244,167.699,500.32 M165.421,498.818c0,3.105,1.688,5.063,4.185,5.063c4.607,0,7.645-6.042,7.645-9.755
	c0-3.105-1.688-5.062-4.186-5.062C168.458,489.064,165.421,495.105,165.421,498.818 M154.721,496.996
	c0.607-2.937,2.751-6.75,4.961-6.75c0.583-0.065,1.11,0.354,1.175,0.938c0.005,0.042,0.007,0.084,0.007,0.125
	c-0.01,1.164-0.535,2.265-1.435,3.004C158.025,495.47,156.432,496.377,154.721,496.996 M160.324,489.132
	c-2.346,0-4.135,2.498-4.708,3.527l0,0l1.688-7.426c0.321-1.418,0.895-3.814,0.895-4.101c0-0.287-0.135-0.354-0.388-0.354
	c-0.253,0-2.684,0.32-4.186,0.32c-0.354,0-0.506,0-0.506,0.253c0,0.254,0.169,0.321,0.861,0.389c1.147,0.101,1.401,0.388,1.401,0.86
	c-0.106,0.888-0.27,1.767-0.49,2.633l-3.848,17.501c-0.043,0.166-0.077,0.335-0.101,0.506c0.017,0.107,0.11,0.187,0.219,0.186h1.688
	c0.186,0,0.354-0.102,0.422-0.455l1.283-5.147l2.177-1.098c0.219-0.135,0.32-0.219,0.506-0.219c0.742,0,1.181,0.895,1.181,1.789
	c0,0.506-0.186,2.852-0.186,3.375c-0.089,1.134,0.758,2.124,1.892,2.213c0.118,0.01,0.235,0.009,0.353-0.002
	c2.75,0,3.578-3.747,3.578-4.067s0-0.389-0.321-0.389c-0.32,0-0.32,0.439-0.472,0.962c-0.152,0.523-0.928,2.465-2.042,2.465
	c-0.186,0-0.675,0-0.675-0.743c0-0.742,0.101-1.688,0.101-2.531c0-2.616-1.468-3.038-2.937-3.375l0,0
	c1.57-0.473,5.282-2.649,5.282-4.895c-0.026-1.248-1.06-2.239-2.309-2.213C160.562,489.098,160.442,489.11,160.324,489.132
	 M147.397,483.411c0,0.773,0.627,1.4,1.4,1.4c0.774,0,1.401-0.627,1.401-1.4c0-0.774-0.627-1.401-1.401-1.401l0,0
	C148.028,482.02,147.406,482.641,147.397,483.411 M142.722,506.447c-0.996,3.813-2.177,5.248-3.375,5.248
	c-0.551,0.096-1.075-0.272-1.171-0.823c-0.004-0.023-0.007-0.048-0.01-0.071c-0.169-0.642-0.439-1.08-0.996-1.08
	c-0.466,0.005-0.84,0.387-0.835,0.853c0,0.036,0.003,0.073,0.008,0.109c0,1.097,1.35,1.688,2.785,1.688
	c2.852,0,4.827-2.177,6.632-8.438c2.785-9.822,3.105-11.679,3.105-13.062c0.065-0.864-0.582-1.618-1.447-1.684
	c-0.052-0.004-0.104-0.006-0.157-0.004c-1.384,0-3.038,1.367-4.86,4.286c-0.122,0.169-0.197,0.367-0.219,0.574
	c0.009,0.148,0.137,0.262,0.286,0.253c0,0,0.001,0,0.001,0c0.219,0,0.388-0.169,0.641-0.574c1.569-2.564,2.498-3.375,3.105-3.375
	c0.253,0,0.388,0.152,0.388,0.607c-0.039,0.88-0.181,1.752-0.422,2.6L142.722,506.447z M138.385,483.411
	c0,0.773,0.627,1.4,1.401,1.4s1.401-0.627,1.401-1.4c0-0.774-0.627-1.401-1.401-1.401l0,0
	C139.016,482.02,138.394,482.641,138.385,483.411 M134.352,501.688c-0.123,1.112,0.68,2.112,1.792,2.234
	c0.105,0.012,0.212,0.016,0.318,0.011c2.684,0,4.641-4.574,4.641-4.76c0.028-0.165-0.083-0.322-0.248-0.351
	c-0.024-0.004-0.048-0.005-0.073-0.004c-0.168,0-0.253,0.102-0.388,0.354c-1.35,2.684-2.599,3.865-3.375,3.865
	c-0.325,0.029-0.612-0.211-0.642-0.535c-0.003-0.036-0.003-0.071,0-0.106c0-0.709,0.102-1.469,1.688-5.181
	c1.586-3.713,1.856-4.675,1.856-5.671c0.104-1.217-0.799-2.287-2.016-2.391c-0.031-0.002-0.062-0.004-0.094-0.006
	c-2.278,0-4.252,3.933-4.252,4.253s0,0.388,0.219,0.388c0.169,0.006,0.325-0.096,0.388-0.253c0.675-1.603,2.008-3.493,3.038-3.493
	c0.388,0,0.607,0.287,0.607,0.793c-0.237,1.636-0.756,3.218-1.536,4.675c-1.688,4.135-2.008,5.182-2.008,6.177 M125.66,498.312
	c-0.289,1.106-0.481,2.235-0.574,3.375c-0.112,1.094,0.684,2.072,1.778,2.185c0.155,0.016,0.312,0.014,0.467-0.008
	c1.401,0,2.109-0.641,3.038-1.975c0.547-0.918,1.011-1.884,1.384-2.886c0-0.186,0-0.354-0.287-0.354
	c-0.287,0-0.473,0.472-0.574,0.708c-0.422,0.895-1.57,3.612-2.785,3.612c-0.506,0-0.895-0.321-0.895-1.047
	c0.097-1.089,0.312-2.164,0.641-3.206l2.076-8.033h2.329c0.422,0,0.54-0.135,0.54-0.354s-0.152-0.438-0.422-0.438h-2.143
	l0.928-3.376c0.092-0.266,0.144-0.545,0.152-0.826c0-0.642-0.675-0.709-1.182-0.709s-0.827,0.101-0.928,0.473l-1.249,4.455h-2.042
	c-0.422,0-0.608,0.102-0.608,0.438c0,0.338,0.22,0.354,0.439,0.354h2.042L125.66,498.312z M114.758,496.996
	c0.607-2.937,2.751-6.75,4.961-6.75c0.583-0.065,1.11,0.354,1.175,0.938c0.005,0.042,0.007,0.084,0.007,0.125
	c-0.01,1.164-0.535,2.265-1.435,3.004C118.062,495.47,116.469,496.377,114.758,496.996 M120.429,489.183
	c-2.346,0-4.135,2.497-4.708,3.527l0,0l1.688-7.426c0.321-1.418,0.895-3.814,0.895-4.102c0-0.286-0.135-0.354-0.388-0.354
	c-0.253,0-2.683,0.32-4.185,0.32c-0.354,0-0.506,0-0.506,0.253s0.168,0.32,0.86,0.389c1.148,0.101,1.401,0.388,1.401,0.86
	c-0.101,0.887-0.258,1.767-0.473,2.633l-3.915,17.45c-0.043,0.166-0.077,0.335-0.102,0.506c0.017,0.107,0.11,0.187,0.22,0.186h1.688
	c0.186,0,0.354-0.102,0.422-0.455l1.283-5.147l2.177-1.098c0.22-0.135,0.321-0.219,0.506-0.219c0.743,0,1.182,0.895,1.182,1.789
	c0,0.506-0.186,2.852-0.186,3.375c-0.088,1.134,0.758,2.124,1.892,2.213c0.117,0.01,0.235,0.009,0.353-0.002
	c2.751,0,3.578-3.747,3.578-4.067s0-0.389-0.321-0.389s-0.321,0.439-0.473,0.962c-0.152,0.523-0.928,2.465-2.042,2.465
	c-0.186,0-0.675,0-0.675-0.743c0-0.742,0.101-1.688,0.101-2.531c0-2.616-1.468-3.038-2.937-3.375l0,0
	c1.569-0.473,5.282-2.649,5.282-4.895c-0.062-1.257-1.131-2.226-2.387-2.163c-0.071,0.003-0.142,0.01-0.212,0.02 M96.819,500.844
	c0-3.375,3.578-10.97,6.75-10.97c0.861,0,1.603,0.54,1.603,1.958c0,2.244-3.105,11.425-6.75,11.425c-0.962,0-1.603-0.86-1.603-2.396
	 M94.507,499.662c0,2.65,1.35,4.253,3.713,4.253c1.991,0,3.679-1.688,4.961-4.32l0,0c-0.189,0.726-0.318,1.465-0.388,2.211
	c-0.127,0.999,0.579,1.911,1.578,2.038c0.143,0.019,0.288,0.02,0.431,0.004c2.717,0,3.932-4.422,3.932-4.742s0-0.388-0.287-0.388
	c-0.287,0-0.321,0.135-0.388,0.422c-0.675,2.497-1.856,3.679-2.464,3.679c-0.607,0-0.708-0.287-0.708-0.827
	c0.384-3.55,1.235-7.034,2.531-10.362c0.213-0.544,0.365-1.109,0.456-1.688c0-0.32-0.354-0.675-1.282-0.675
	c-0.473,0-0.642,0.389-0.996,1.891l0,0c-0.105-1.272-1.223-2.219-2.495-2.113c-0.012,0.001-0.024,0.002-0.036,0.003
	c-3.78,0-8.573,5.958-8.573,10.531 M86.592,503.358l2.278-6.362c0.461-1.434,1.025-2.833,1.688-4.186
	c0.709-1.384,1.536-2.633,2.312-2.633c0.287,0,0.321,0.254,0.321,0.743c0.015,0.55,0.472,0.983,1.022,0.969
	c0.031-0.001,0.062-0.003,0.092-0.007c0.641-0.044,1.14-0.573,1.147-1.215c-0.097-0.899-0.886-1.562-1.789-1.503
	c-2.599,0-4.354,4.54-4.894,6.042l0,0c0-0.573,0.32-2.633,0.32-3.24c0-2.649-1.603-2.818-1.856-2.818c-1.688,0-3.071,2.531-4,4.287
	c-0.114,0.185-0.189,0.392-0.219,0.607c0,0.151,0.135,0.286,0.186,0.286c0.128,0.019,0.254-0.041,0.321-0.151
	c0.422-0.709,1.468-2.684,1.789-3.071c0.321-0.389,0.776-0.929,1.215-0.929c0.438,0,0.641,1.216,0.641,1.688
	c-0.124,2.251-0.543,4.476-1.249,6.616l-1.536,4.961L86.592,503.358z M72.095,500.642c-0.101-3.105,2.531-10.886,5.603-10.886
	c1.282,0,1.789,1.029,1.856,2.6c0,2.328-2.177,10.783-5.67,10.783C72.888,503.139,72.196,502.144,72.095,500.642 M67.505,510.497
	c-0.103,0.747-0.749,1.298-1.502,1.282c-0.506,0-0.709,0.136-0.709,0.389s0.152,0.32,0.422,0.32c1.03,0,2.008-0.101,3.038-0.101
	h1.502c0.506,0,1.029,0,1.502,0c0.472,0,0.388-0.102,0.354-0.321c-0.034-0.219-0.186-0.388-0.709-0.388
	c-1.08,0-1.468-0.574-1.468-0.996c0.007-0.336,0.052-0.67,0.135-0.995l1.688-7.679l0,0c0.3,1.131,1.328,1.915,2.498,1.906
	c4.253,0,7.78-6.041,7.611-10.429c-0.102-2.6-1.502-4.354-3.747-4.354s-3.527,1.688-4.574,3.831l0,0l1.688-7.071
	c0.108-0.355,0.165-0.726,0.168-1.097c0-0.389-0.506-0.473-1.029-0.473c-0.523,0-0.793,0.102-0.962,0.709l-1.147,3.999
	c-0.308,1.104-1.043,2.039-2.042,2.6c-1.485,0.95-2.525,2.459-2.886,4.185c0,0.186,0.102,0.287,0.287,0.287
	c0.165,0.001,0.303-0.123,0.321-0.287c0.506-1.688,2.582-4.033,3.375-4.033c0.219,0,0.219,0.22,0.219,0.438
	c-0.002,0.434-0.059,0.864-0.168,1.283L67.505,510.497z M49.278,503.442l2.245-6.446c0.461-1.434,1.025-2.833,1.688-4.186
	c0.708-1.384,1.536-2.633,2.312-2.633c0.287,0,0.32,0.254,0.32,0.743c0.015,0.55,0.473,0.983,1.022,0.969
	c0.031-0.001,0.062-0.003,0.092-0.007c0.641-0.044,1.141-0.573,1.148-1.215c-0.098-0.899-0.887-1.562-1.789-1.503
	c-2.582,0-4.354,4.54-4.894,6.042l0,0c0-0.573,0.321-2.633,0.321-3.24c0-2.649-1.604-2.818-1.856-2.818
	c-1.688,0-3.072,2.531-4,4.287c-0.114,0.185-0.189,0.392-0.219,0.607c0,0.151,0.135,0.286,0.186,0.286
	c0.128,0.019,0.254-0.041,0.321-0.151c0.422-0.709,1.468-2.684,1.789-3.071c0.32-0.389,0.759-0.929,1.215-0.929
	s0.641,1.216,0.641,1.688c-0.124,2.251-0.543,4.476-1.249,6.616l-1.502,4.961H49.278z M34.596,500.371
	c0-3.78,2.042-10.648,5.249-10.648c1.215,0,2.042,0.995,2.042,2.919c0,3.78-2.042,10.649-5.249,10.649
	C35.423,503.291,34.596,502.295,34.596,500.371 M32.318,498.869c0,3.105,1.688,5.063,4.186,5.063c4.607,0,7.645-6.042,7.645-9.755
	c0-3.105-1.688-5.062-4.185-5.062C35.355,489.115,32.318,495.156,32.318,498.869 M20.386,500.371c0-3.78,2.042-10.648,5.249-10.648
	c1.215,0,2.042,0.995,2.042,2.919c0,3.78-2.042,10.649-5.248,10.649C21.213,503.291,20.386,502.295,20.386,500.371 M18.108,498.869
	c0,3.105,1.688,5.063,4.185,5.063c4.607,0,7.645-6.042,7.645-9.755c0-3.105-1.688-5.062-4.186-5.062
	C21.146,489.115,18.108,495.156,18.108,498.869 M7.003,503.291c0,0.388,0.102,0.709,0.506,0.709c0.405,0,0.642-0.321,0.928-0.794
	l4.287-7.138l6.329-11.24c0.598-1.175,1.708-2.004,3.004-2.244c0.186,0,0.388-0.135,0.388-0.389c0-0.253-0.186-0.32-0.54-0.32
	s-1.789,0.102-2.717,0.102c-0.928,0-1.958-0.102-2.937-0.102c-0.422,0-0.54,0.135-0.54,0.354s0.287,0.32,0.607,0.354
	c0.928,0.135,1.688,0.388,1.688,0.962c-0.564,2.139-1.458,4.178-2.649,6.041l-5.924,10.362l0,0l-1.688-15.29
	c-0.013-0.213-0.013-0.428,0-0.641c0-1.351,0.642-1.351,1.856-1.435c0.962,0,1.029-0.22,1.029-0.456s-0.219-0.253-0.54-0.253
	c-1.249,0-2.531,0.102-3.814,0.102c-1.282,0-2.565-0.102-3.831-0.102c-0.321,0-0.49,0.135-0.49,0.32s0.135,0.287,0.675,0.389
	c1.249,0.219,1.856,0.354,1.991,1.435L7.003,503.291z"/>
</svg>
