<?xml version="1.0" encoding="utf-8"?>
<!-- Generator: Adobe Illustrator 15.0.0, SVG Export Plug-In . SVG Version: 6.00 Build 0)  -->
<!DOCTYPE svg PUBLIC "-//W3C//DTD SVG 1.1//EN" "http://www.w3.org/Graphics/SVG/1.1/DTD/svg11.dtd">
<svg version="1.1" id="Layer_1" xmlns="http://www.w3.org/2000/svg" xmlns:xlink="http://www.w3.org/1999/xlink" x="0px" y="0px"
	 width="332px" height="324.5px" viewBox="0 0 332 324.5" enable-background="new 0 0 332 324.5" xml:space="preserve">
<path d="M19.306,127.021h10.478c15.718,0,30.898,11.688,30.898,32.107s-15.181,32.106-30.898,32.106H19.306V127.021z M0.497,206.014
	h25.659c28.749,0,54.139-9.672,54.139-46.885s-25.39-46.885-54.139-46.885H0.497V206.014z"/>
<path d="M117.061,48.228c0-16.524,7.657-33.451,26.33-33.451c18.673,0,26.332,16.927,26.332,33.451
	c0,16.926-7.121,33.987-26.332,33.987C124.181,82.215,117.061,65.154,117.061,48.228 M97.447,48.228
	c0,28.748,15.852,48.765,45.943,48.765c29.689,0,45.944-20.42,45.944-48.765C189.335,19.882,172.811,0,143.391,0
	C113.567,0,97.447,19.479,97.447,48.228 M1.125,95.381h18.808v-35.6h7.926c20.151,0,36.138-7.926,36.138-29.824
	c0-22.434-18.673-28.345-39.093-28.345H1.125V95.381z M19.933,16.389h6.583c9.672,0,17.867,3.762,17.867,14.643
	c0,10.882-8.464,13.971-17.867,13.971h-6.583V16.389z"/>
<path fill="#FFD050" d="M250.98,189.533h9.317l-7.81,17.73h4.584l7.479-17.552v-3.498h-13.57V189.533L250.98,189.533z
	 M235.088,191.16l2.111,2.746l3.559-2.896v16.254h4.223v-21.049h-3.739L235.088,191.16z M224.292,207.627
	c6.093,0,7.358-5.941,7.358-10.826c0-4.887-1.207-10.947-7.358-10.947c-5.698,0-7.298,5.67-7.298,10.947
	C216.994,201.203,217.811,207.627,224.292,207.627 M224.292,204.49c-3.104,0-3.076-5.037-3.076-7.689c0-2.715,0-7.811,3.076-7.811
	c3.138,0,3.138,5.096,3.138,7.811C227.43,199.453,227.459,204.49,224.292,204.49 M214.4,207.264v-3.315h-8.594
	c3.438-3.378,7.932-7.479,7.932-11.941c0-4.133-2.594-6.151-6.605-6.151c-2.141,0-4.342,0.543-6.24,1.508l0.332,3.498
	c1.387-0.906,3.074-1.689,4.854-1.689c1.72,0,3.438,0.906,3.438,2.836c0,3.859-7.147,9.83-9.107,11.73v3.527H214.4V207.264z"/>
<path d="M174.443,207.264h4.041v-7.6c0-1.99,0.634-5.156,3.559-5.156c2.594,0,2.624,2.564,2.624,4.463v8.293h4.041v-9.801
	c0-3.498-1.599-6.092-5.278-6.092c-2.109,0-3.828,0.695-5.096,2.473h-0.061v-2.109h-3.83V207.264z M170.131,203.102
	c-1.508,0.847-3.195,1.57-5.156,1.57c-2.504,0-4.252-1.418-4.434-3.922h10.736c0-5.428-1.629-9.379-7.389-9.379
	c-4.824,0-7.207,3.709-7.207,8.203c0,5.098,2.985,8.053,8.111,8.053c2.172,0,3.86-0.424,5.338-1.238L170.131,203.102
	L170.131,203.102z M160.541,197.977c0.182-2.082,1.327-3.649,3.589-3.649c2.263,0,3.166,1.688,3.287,3.649H160.541z
	 M149.655,191.734v2.108h-0.061c-1.115-1.776-2.714-2.473-4.765-2.473c-4.644,0-6.574,4.312-6.574,8.053
	c0,4.162,1.749,7.841,6.333,7.841c2.262,0,4.071-1.146,4.825-2.474h0.061c0,2.685-0.212,6.032-4.674,6.032
	c-1.268,0-3.288-0.694-4.524-1.358l-0.331,3.438c1.93,0.814,3.769,1.056,5.367,1.056c6.514,0,8.203-3.979,8.203-8.203v-14.021
	H149.655L149.655,191.734z M145.916,204.129c-2.322,0-3.438-2.594-3.438-4.705c0-2.383,0.874-4.916,3.619-4.916
	c2.352,0,3.377,2.172,3.377,4.824C149.475,201.926,148.449,204.129,145.916,204.129 M125.35,202.771
	c0-2.383,2.684-2.685,4.492-2.685h1.749c0,1.205-0.181,2.322-0.844,3.195c-0.634,0.846-1.599,1.389-2.835,1.389
	C126.465,204.672,125.35,204.098,125.35,202.771 M123.298,196.016c1.357-1.024,3.076-1.688,4.796-1.688
	c2.382,0,3.497,0.846,3.497,3.348h-2.23c-1.689,0-3.681,0.152-5.218,0.904c-1.538,0.754-2.653,2.112-2.653,4.435
	c0,2.955,2.684,4.614,5.428,4.614c1.839,0,3.86-0.967,4.795-2.685h0.061c0.029,0.48,0.029,1.509,0.181,2.32h3.559
	c-0.091-1.205-0.15-2.291-0.181-3.467c-0.03-1.146-0.061-2.322-0.061-3.891v-1.992c0-4.582-1.96-6.543-6.695-6.543
	c-1.718,0-3.829,0.453-5.398,1.178L123.298,196.016z M105.295,189.533h2.353c3.529,0,6.936,2.623,6.936,7.207
	s-3.406,7.207-6.936,7.207h-2.353V189.533z M101.073,207.264h5.76c6.453,0,12.153-2.17,12.153-10.522s-5.7-10.525-12.153-10.525
	h-5.76V207.264z"/>
<path d="M232.557,156.762c-1.268-0.271-2.504-0.574-4.404-0.574c-3.166,0-6.092,1.479-6.092,4.828c0,5.607,7.027,3.527,7.027,6.574
	c0,1.508-1.629,1.898-2.654,1.898c-1.387,0-2.713-0.391-3.979-1.025l-0.241,3.316c1.479,0.393,3.046,0.664,4.584,0.664
	c3.287,0,6.514-1.447,6.514-5.066c0-5.609-7.025-4.041-7.025-6.514c0-1.326,1.297-1.719,2.383-1.719
	c1.477,0,2.382,0.242,3.618,0.664L232.557,156.762z M211.416,172.082h4.041v-5.699c0-2.232,0-6.334,3.287-6.334
	c0.724,0,1.447,0.121,1.811,0.332v-4.07c-0.423-0.123-0.846-0.123-1.236-0.123c-2.414,0-4.071,2.445-4.252,3.893h-0.062v-3.529
	h-3.589V172.082z M207.014,167.92c-1.508,0.846-3.195,1.568-5.156,1.568c-2.504,0-4.254-1.418-4.434-3.922h10.735
	c0-5.426-1.628-9.379-7.388-9.379c-4.826,0-7.209,3.711-7.209,8.206c0,5.096,2.985,8.051,8.112,8.051
	c2.171,0,3.86-0.422,5.337-1.236v-3.287H207.014z M197.424,162.793c0.18-2.08,1.326-3.648,3.588-3.648
	c2.264,0,3.168,1.689,3.287,3.648H197.424z M186.477,172.082h3.92v-22.618h-4.041v8.897h-0.06c-1.206-1.479-2.624-2.174-4.646-2.174
	c-4.764,0-6.514,3.801-6.514,8.083c0,4.254,1.749,8.174,6.514,8.174c1.9,0,3.56-0.603,4.767-2.111h0.06V172.082z M179.359,164.27
	c0-2.08,0.725-4.944,3.348-4.944c2.594,0,3.619,2.775,3.619,4.944c0,2.203-0.874,5.039-3.559,5.039
	C180.113,169.309,179.359,166.412,179.359,164.27 M167.84,153.717h4.041v-3.859h-4.041V153.717z M167.84,172.082h4.041v-15.531
	h-4.041V172.082z M163.437,167.92c-1.508,0.846-3.195,1.568-5.157,1.568c-2.503,0-4.252-1.418-4.433-3.922h10.736
	c0-5.426-1.628-9.379-7.389-9.379c-4.824,0-7.208,3.711-7.208,8.206c0,5.096,2.986,8.051,8.112,8.051
	c2.173,0,3.86-0.422,5.338-1.236L163.437,167.92L163.437,167.92z M153.847,162.793c0.181-2.08,1.327-3.648,3.589-3.648
	s3.166,1.689,3.287,3.648H153.847z M142.689,172.082h4.041v-22.618h-4.041V172.082z M131.862,159.324
	c2.624,0,3.349,2.865,3.349,4.945c0,2.143-0.754,5.039-3.408,5.039c-2.684,0-3.558-2.836-3.558-5.039
	C128.245,162.1,129.27,159.324,131.862,159.324 M124.173,178.414h4.041v-8.111h0.062c1.417,1.719,2.834,2.141,4.553,2.141
	c4.855,0,6.604-3.92,6.604-8.174c0-4.28-1.749-8.082-6.514-8.082c-2.383,0-3.921,1.057-4.825,2.564h-0.061v-2.201h-3.86V178.414
	L124.173,178.414z M104.451,161.496c0-3.708,1.719-7.508,5.91-7.508s5.911,3.8,5.911,7.508c0,3.801-1.599,7.631-5.911,7.631
	S104.451,165.297,104.451,161.496 M100.048,161.496c0,6.453,3.56,10.947,10.313,10.947c6.665,0,10.313-4.584,10.313-10.947
	c0-6.362-3.709-10.825-10.313-10.825C103.667,150.671,100.048,155.042,100.048,161.496"/>
<path d="M189.521,136.898h4.041v-7.539h0.061l5.188,7.539h5.127l-6.514-8.596l5.789-6.936h-4.765l-4.825,6.213h-0.061V114.28h-4.041
	V136.898L189.521,136.898z M181.141,118.533h4.041v-3.859h-4.041V118.533z M178.516,143.352c0.514,0.15,1.327,0.242,1.99,0.242
	c4.041,0,4.676-3.348,4.676-5.549v-16.678h-4.041v16.135c0,2.412-0.303,2.834-2.475,2.955L178.516,143.352z M172.756,118.533h4.041
	v-3.859h-4.041V118.533z M172.756,136.898h4.041v-15.531h-4.041V136.898z M162.262,132.225c0,3.076,1.749,5.035,4.915,5.035
	c1.206,0,2.142-0.121,2.985-0.361l-0.121-3.196c-0.422,0.271-1.115,0.422-1.84,0.422c-1.537,0-1.898-1.237-1.898-2.563v-7.237h3.587
	v-2.956h-3.587v-4.402l-4.041,1.297v3.105h-2.986v2.956h2.986V132.225z M144.258,136.898h4.041v-7.539h0.06l5.187,7.539h5.127
	l-6.514-8.596l5.79-6.936h-4.765l-4.825,6.213h-0.06V114.28h-4.041V136.898z M130.868,132.405c0-2.383,2.684-2.685,4.493-2.685
	h1.749c0,1.207-0.181,2.322-0.844,3.197c-0.634,0.844-1.6,1.387-2.835,1.387C131.983,134.305,130.868,133.732,130.868,132.405
	 M128.817,125.65c1.357-1.026,3.076-1.689,4.795-1.689c2.382,0,3.498,0.844,3.498,3.348h-2.232c-1.688,0-3.679,0.15-5.217,0.904
	s-2.653,2.111-2.653,4.434c0,2.955,2.684,4.613,5.429,4.613c1.839,0,3.86-0.965,4.795-2.684h0.06c0.03,0.482,0.03,1.508,0.182,2.322
	h3.558c-0.09-1.206-0.149-2.292-0.181-3.469c-0.03-1.146-0.061-2.321-0.061-3.89v-1.989c0-4.584-1.959-6.545-6.694-6.545
	c-1.72,0-3.83,0.453-5.398,1.176L128.817,125.65z M116.967,136.898h4.041v-5.699c0-2.232,0-6.333,3.286-6.333
	c0.724,0,1.447,0.12,1.81,0.331v-4.07c-0.422-0.121-0.844-0.121-1.236-0.121c-2.412,0-4.072,2.442-4.253,3.891h-0.06v-3.529h-3.588
	V136.898z M100.711,136.898h4.223v-7.991h1.779c4.523,0,8.111-1.78,8.111-6.694c0-5.037-4.19-6.363-8.774-6.363h-5.339V136.898z
	 M104.934,119.166h1.478c2.171,0,4.012,0.844,4.012,3.287c0,2.443-1.9,3.137-4.012,3.137h-1.478V119.166z"/>
<path d="M281.787,308.555c0.359-1.746,1.631-4.02,2.938-4.02c0.551,0,0.702,0.379,0.702,0.627c0,0.225,0,0.984-0.854,1.781
	C283.911,307.568,282.432,308.365,281.787,308.555 M285.143,303.928c-1.384,0-2.444,1.479-2.787,2.086h-0.037l0.968-4.397
	c0.188-0.836,0.53-2.258,0.53-2.429c0-0.149-0.075-0.209-0.229-0.209c-0.283,0-1.593,0.191-2.484,0.191
	c-0.207,0-0.303,0.037-0.303,0.15c0,0.17,0.096,0.188,0.512,0.229c0.684,0.058,0.834,0.228,0.834,0.512
	c0,0.244-0.15,0.947-0.282,1.556l-2.259,10.371c-0.019,0.096-0.057,0.246-0.057,0.305c0,0.074,0.076,0.113,0.133,0.113h1.006
	c0.113,0,0.209-0.06,0.246-0.269l0.76-3.051l1.287-0.645c0.135-0.076,0.19-0.136,0.306-0.136c0.437,0,0.7,0.533,0.7,1.064
	c0,0.303-0.112,1.686-0.112,2.01c0,0.682,0.379,1.307,1.327,1.307c1.631,0,2.124-2.219,2.124-2.407c0-0.113-0.038-0.228-0.19-0.228
	c-0.15,0-0.189,0.267-0.283,0.568c-0.076,0.303-0.551,1.461-1.215,1.461c-0.113,0-0.396,0-0.396-0.438
	c0-0.491,0.057-1.006,0.057-1.498c0-1.555-0.872-1.801-1.744-2.01V308.1c0.928-0.284,3.129-1.573,3.129-2.901
	C286.68,304.705,286.318,303.928,285.143,303.928 M277.559,305.008c0,1.006-1.176,2.902-3.641,3.89
	c0.986-3.339,2.162-4.607,3.034-4.607C277.293,304.289,277.559,304.535,277.559,305.008 M272.117,310.432
	c0,1.326,0.738,2.257,2.236,2.257c1.857,0,3.279-2.466,3.279-2.615c0-0.113-0.056-0.189-0.15-0.189
	c-0.075,0-0.133,0.058-0.229,0.189c-1.081,1.518-1.915,2.199-2.806,2.199c-0.646,0-0.986-0.437-0.986-1.193
	c0-0.514,0.228-1.424,0.36-1.783c3.316-1.195,4.74-2.674,4.74-3.963c0-0.76-0.492-1.404-1.403-1.404
	C274.695,303.928,272.117,307.854,272.117,310.432 M269.48,300.533c0,0.455,0.379,0.834,0.834,0.834s0.836-0.379,0.836-0.834
	c0-0.453-0.381-0.834-0.836-0.834S269.48,300.08,269.48,300.533 M267.092,311.361c0,0.774,0.438,1.325,1.251,1.325
	c1.593,0,2.75-2.711,2.75-2.823c0-0.113-0.057-0.209-0.188-0.209c-0.096,0-0.152,0.057-0.229,0.209
	c-0.796,1.594-1.534,2.293-1.952,2.293c-0.228,0-0.38-0.131-0.38-0.379c0-0.416,0.058-0.871,1.005-3.07
	c0.91-2.105,1.102-2.771,1.102-3.357c0-0.551-0.305-1.422-1.252-1.422c-1.348,0-2.521,2.332-2.521,2.521
	c0,0.135,0.037,0.227,0.133,0.227s0.17-0.037,0.229-0.149c0.396-0.947,1.193-2.066,1.801-2.066c0.229,0,0.36,0.172,0.36,0.473
	c0,0.343-0.113,0.873-0.91,2.771C267.243,310.146,267.092,310.773,267.092,311.361 M257.364,311.986
	c-0.021,0.096-0.058,0.246-0.058,0.305c0,0.074,0.075,0.113,0.133,0.113h1.006c0.113,0,0.209-0.06,0.246-0.269l0.683-2.651
	c0.569-2.238,2.028-4.949,3.338-4.949c0.455,0,0.663,0.17,0.663,0.813c0,0.871-1.232,4.873-1.232,5.974
	c0,0.684,0.379,1.364,1.31,1.364c1.61,0,2.332-2.614,2.332-2.862c0-0.095-0.038-0.17-0.132-0.17c-0.096,0-0.152,0.096-0.209,0.246
	c-0.342,0.985-0.893,2.182-1.574,2.182c-0.229,0-0.379-0.17-0.379-0.531c0-0.549,1.232-4.57,1.232-5.785
	c0-1.022-0.606-1.838-1.746-1.838c-1.535,0-2.56,2.01-3.146,3.072l-0.038-0.037c0.114-0.607,0.209-1.025,0.209-1.441
	c0-0.909-0.437-1.594-1.364-1.594c-1.611,0-2.332,2.617-2.332,2.863c0,0.094,0.036,0.172,0.131,0.172
	c0.114,0,0.172-0.096,0.209-0.248c0.438-1.479,1.102-2.18,1.479-2.18c0.36,0,0.531,0.246,0.531,0.871
	c0,0.358-0.114,1.424-0.306,2.221L257.364,311.986z M247.125,311.986c-0.02,0.096-0.057,0.246-0.057,0.305
	c0,0.074,0.074,0.113,0.133,0.113h1.005c0.114,0,0.208-0.06,0.246-0.269l0.456-1.799c0.775-3.111,2.085-5.803,3.47-5.803
	c0.474,0,0.683,0.17,0.683,0.813c0,0.871-1.231,5.006-1.231,5.974c0,0.909,0.437,1.364,1.251,1.364c1.611,0,2.389-2.614,2.389-2.862
	c0-0.095-0.037-0.17-0.15-0.17s-0.189,0.096-0.246,0.245c-0.379,0.986-0.93,2.183-1.479,2.183c-0.245,0-0.417-0.17-0.417-0.531
	c0-0.912,1.232-4.684,1.232-5.785c0-0.983-0.606-1.838-1.744-1.838c-1.403,0-2.352,1.613-2.958,2.787l-0.038-0.02l1.139-5.08
	c0.188-0.836,0.53-2.259,0.53-2.429c0-0.149-0.075-0.209-0.228-0.209c-0.284,0-1.594,0.191-2.484,0.191
	c-0.209,0-0.303,0.037-0.303,0.15c0,0.17,0.094,0.188,0.512,0.229c0.682,0.057,0.834,0.227,0.834,0.512
	c0,0.244-0.152,0.947-0.284,1.556L247.125,311.986z M240.016,310.432c0,1.326,0.738,2.257,2.312,2.257
	c1.706,0,3.204-2.429,3.204-2.615c0-0.113-0.058-0.189-0.151-0.189c-0.076,0-0.133,0.058-0.229,0.189
	c-1.08,1.518-1.914,2.199-2.807,2.199c-0.568,0-0.91-0.437-0.91-1.193c0-2.676,1.765-6.789,3.451-6.789
	c0.305,0,0.438,0.074,0.438,0.246c0,0.264-0.209,0.264-0.209,0.682c0,0.343,0.266,0.588,0.645,0.588c0.455,0,0.702-0.34,0.702-0.719
	c0-0.723-0.702-1.158-1.403-1.158C242.309,303.928,240.016,307.854,240.016,310.432 M238.081,305.008
	c0,1.006-1.177,2.902-3.642,3.89c0.985-3.339,2.162-4.607,3.033-4.607C237.814,304.289,238.081,304.535,238.081,305.008
	 M232.639,310.432c0,1.326,0.739,2.257,2.237,2.257c1.858,0,3.281-2.466,3.281-2.615c0-0.113-0.058-0.189-0.152-0.189
	c-0.075,0-0.133,0.058-0.228,0.189c-1.082,1.518-1.916,2.199-2.807,2.199c-0.646,0-0.986-0.437-0.986-1.193
	c0-0.514,0.228-1.424,0.359-1.783c3.318-1.195,4.741-2.674,4.741-3.963c0-0.76-0.493-1.404-1.403-1.404
	C235.217,303.928,232.639,307.854,232.639,310.432 M228.163,309.371c-0.132,0.604-0.341,1.477-0.341,2.027
	c0,1.043,0.701,1.289,1.326,1.289c0.836,0,1.252-0.38,1.803-1.177c0.171-0.264,0.814-1.535,0.814-1.707
	c0-0.112-0.02-0.207-0.17-0.207c-0.189,0-0.285,0.285-0.343,0.416c-0.246,0.533-0.929,2.144-1.647,2.144
	c-0.306,0-0.531-0.189-0.531-0.625c0-0.453,0.17-1.101,0.379-1.896l1.23-4.758h1.387c0.246,0,0.32-0.078,0.32-0.209
	c0-0.189-0.095-0.266-0.246-0.266h-1.365l0.551-2.013c0.057-0.188,0.095-0.319,0.095-0.491c0-0.38-0.397-0.416-0.702-0.416
	c-0.227,0-0.492,0.057-0.55,0.282l-0.739,2.638h-1.213c-0.246,0-0.359,0.057-0.359,0.266c0,0.17,0.133,0.209,0.266,0.209h1.213
	L228.163,309.371z M220.846,310.604c0-2.237,1.213-6.313,3.108-6.313c0.721,0,1.214,0.588,1.214,1.725
	c0,2.238-1.214,6.314-3.109,6.314C221.338,312.328,220.846,311.74,220.846,310.604 M219.498,309.711c0,1.84,1.043,2.977,2.484,2.977
	c2.729,0,4.531-3.581,4.531-5.782c0-1.838-1.043-2.978-2.484-2.978C221.3,303.928,219.498,307.512,219.498,309.711 M214.701,312.404
	l1.326-3.83c0.248-0.701,0.606-1.67,1.043-2.484c0.418-0.815,0.91-1.555,1.365-1.555c0.172,0,0.189,0.149,0.189,0.436
	c0,0.361,0.284,0.57,0.664,0.57c0.341,0,0.682-0.324,0.682-0.723c0-0.568-0.529-0.892-1.062-0.892c-1.536,0-2.578,2.693-2.901,3.584
	h-0.037c0.037-0.342,0.189-1.555,0.189-1.916c0-1.571-0.948-1.668-1.102-1.668c-1.043,0-1.818,1.498-2.369,2.541
	c-0.058,0.115-0.133,0.246-0.133,0.361c0,0.094,0.075,0.17,0.113,0.17c0.076,0,0.152-0.02,0.189-0.096
	c0.246-0.416,0.873-1.593,1.062-1.818c0.247-0.287,0.455-0.551,0.722-0.551c0.379,0,0.379,0.721,0.379,1.006
	c0,0.17-0.037,1.592-0.738,3.924l-0.893,2.939L214.701,312.404L214.701,312.404z M208.045,309.371
	c-0.132,0.604-0.341,1.477-0.341,2.027c0,1.043,0.702,1.289,1.327,1.289c0.835,0,1.252-0.38,1.802-1.177
	c0.17-0.264,0.815-1.535,0.815-1.707c0-0.112-0.021-0.207-0.172-0.207c-0.188,0-0.283,0.285-0.342,0.416
	c-0.246,0.533-0.929,2.144-1.648,2.144c-0.305,0-0.53-0.189-0.53-0.625c0-0.453,0.17-1.101,0.379-1.896l1.231-4.758h1.385
	c0.246,0,0.322-0.078,0.322-0.209c0-0.189-0.096-0.266-0.246-0.266h-1.365l0.55-2.013c0.058-0.188,0.095-0.319,0.095-0.491
	c0-0.38-0.396-0.416-0.701-0.416c-0.228,0-0.492,0.057-0.551,0.282l-0.738,2.638h-1.215c-0.246,0-0.358,0.057-0.358,0.266
	c0,0.17,0.133,0.209,0.265,0.209h1.215L208.045,309.371z M200.252,310.432c0,1.326,0.74,2.257,2.314,2.257
	c1.705,0,3.203-2.429,3.203-2.615c0-0.113-0.058-0.189-0.151-0.189c-0.075,0-0.132,0.058-0.228,0.189
	c-1.082,1.518-1.916,2.199-2.807,2.199c-0.568,0-0.911-0.437-0.911-1.193c0-2.676,1.765-6.789,3.451-6.789
	c0.304,0,0.437,0.074,0.437,0.246c0,0.264-0.209,0.264-0.209,0.682c0,0.343,0.267,0.588,0.646,0.588c0.455,0,0.701-0.34,0.701-0.719
	c0-0.723-0.701-1.158-1.403-1.158C202.547,303.928,200.252,307.854,200.252,310.432 M198.318,305.008
	c0,1.006-1.176,2.902-3.642,3.89c0.986-3.339,2.161-4.607,3.033-4.607C198.053,304.289,198.318,304.535,198.318,305.008
	 M192.876,310.432c0,1.326,0.74,2.257,2.238,2.257c1.856,0,3.278-2.466,3.278-2.615c0-0.113-0.057-0.189-0.15-0.189
	c-0.075,0-0.133,0.058-0.229,0.189c-1.08,1.518-1.914,2.199-2.806,2.199c-0.646,0-0.985-0.437-0.985-1.193
	c0-0.514,0.228-1.424,0.359-1.783c3.318-1.195,4.74-2.674,4.74-3.963c0-0.76-0.493-1.404-1.403-1.404
	C195.455,303.928,192.876,307.854,192.876,310.432 M188.212,309.049c-0.114,0.51-0.342,1.555-0.342,2.254
	c0,1.14,0.815,1.386,1.403,1.386c1.84,0,2.578-2.521,2.578-2.712c0-0.094,0-0.266-0.15-0.266c-0.096,0-0.209,0.094-0.247,0.248
	c-0.606,1.686-1.308,2.197-1.782,2.197c-0.379,0-0.455-0.437-0.455-0.719c0-0.476,0.342-2.222,0.417-2.521l1.632-7.301
	c0.188-0.836,0.529-2.258,0.529-2.428c0-0.15-0.074-0.21-0.227-0.21c-0.284,0-1.594,0.191-2.484,0.191
	c-0.209,0-0.303,0.037-0.303,0.15c0,0.17,0.094,0.188,0.512,0.229c0.682,0.058,0.834,0.228,0.834,0.512
	c0,0.244-0.152,0.947-0.285,1.556L188.212,309.049z M185.671,305.008c0,1.006-1.176,2.902-3.642,3.89
	c0.986-3.339,2.162-4.607,3.035-4.607C185.406,304.289,185.671,304.535,185.671,305.008 M180.229,310.432
	c0,1.326,0.74,2.257,2.237,2.257c1.859,0,3.281-2.466,3.281-2.615c0-0.113-0.058-0.189-0.151-0.189
	c-0.076,0-0.134,0.058-0.228,0.189c-1.081,1.518-1.916,2.199-2.808,2.199c-0.645,0-0.985-0.437-0.985-1.193
	c0-0.514,0.228-1.424,0.36-1.783c3.317-1.195,4.739-2.674,4.739-3.963c0-0.76-0.493-1.404-1.401-1.404
	C182.809,303.928,180.229,307.854,180.229,310.432 M165.477,311.986c-0.019,0.096-0.057,0.246-0.057,0.305
	c0,0.074,0.076,0.113,0.133,0.113h1.005c0.112,0,0.207-0.06,0.246-0.269l0.684-2.651c0.568-2.238,2.027-4.949,3.337-4.949
	c0.454,0,0.664,0.17,0.664,0.813c0,0.871-1.233,4.873-1.233,5.974c0,0.684,0.379,1.364,1.311,1.364c1.609,0,2.332-2.614,2.332-2.862
	c0-0.095-0.039-0.17-0.135-0.17c-0.095,0-0.15,0.096-0.207,0.246c-0.343,0.985-0.893,2.182-1.574,2.182
	c-0.229,0-0.379-0.17-0.379-0.531c0-0.549,1.231-4.57,1.231-5.785c0-1.022-0.606-1.838-1.744-1.838c-1.536,0-2.56,2.01-3.147,3.072
	l-0.037-0.037c0.113-0.607,0.207-1.025,0.207-1.441c0-0.909-0.437-1.594-1.364-1.594c-1.611,0-2.332,2.617-2.332,2.863
	c0,0.094,0.038,0.172,0.133,0.172c0.114,0,0.17-0.096,0.208-0.248c0.437-1.479,1.1-2.18,1.479-2.18c0.361,0,0.531,0.246,0.531,0.871
	c0,0.358-0.113,1.424-0.304,2.221L165.477,311.986z M162.48,305.008c0,1.006-1.176,2.902-3.641,3.89
	c0.986-3.339,2.162-4.607,3.034-4.607C162.216,304.289,162.48,304.535,162.48,305.008 M157.039,310.432
	c0,1.326,0.74,2.257,2.238,2.257c1.857,0,3.279-2.466,3.279-2.615c0-0.113-0.057-0.189-0.151-0.189
	c-0.076,0-0.134,0.058-0.228,0.189c-1.081,1.518-1.915,2.199-2.807,2.199c-0.645,0-0.986-0.437-0.986-1.193
	c0-0.514,0.229-1.424,0.361-1.783c3.318-1.195,4.74-2.674,4.74-3.963c0-0.76-0.493-1.404-1.403-1.404
	C159.618,303.928,157.039,307.854,157.039,310.432 M146.27,308.953l0.266-1.252h-4.664l-0.266,1.252H146.27z M138.267,305.008
	c0,1.006-1.175,2.902-3.64,3.89c0.986-3.339,2.161-4.607,3.034-4.607C138.002,304.289,138.267,304.535,138.267,305.008
	 M132.825,310.432c0,1.326,0.739,2.257,2.237,2.257c1.858,0,3.28-2.466,3.28-2.615c0-0.113-0.057-0.189-0.15-0.189
	c-0.076,0-0.134,0.058-0.229,0.189c-1.081,1.518-1.915,2.199-2.806,2.199c-0.646,0-0.986-0.437-0.986-1.193
	c0-0.514,0.228-1.424,0.36-1.783c3.317-1.195,4.739-2.674,4.739-3.963c0-0.76-0.492-1.404-1.402-1.404
	C135.404,303.928,132.825,307.854,132.825,310.432 M129.071,305.596c0,1.574-1.594,6.619-3.622,6.619c-0.284,0-1.043,0-1.043-1.271
	c0-1.728,1.726-6.601,3.679-6.601C128.749,304.344,129.071,304.914,129.071,305.596 M129.374,304.895h-0.038
	c-0.132-0.342-0.379-0.967-1.422-0.967c-2.484,0-4.854,3.888-4.854,6.146c0,1.289,0.646,2.614,2.124,2.614
	c1.594,0,2.352-1.497,3.034-2.805h0.038c-0.076,0.301-0.189,1.119-0.189,1.629c0,0.685,0.359,1.176,1.08,1.176
	c1.612,0,2.617-2.899,2.617-3.014c0-0.152-0.076-0.188-0.151-0.229c-0.171,0.039-0.19,0.075-0.36,0.493
	c-0.55,1.363-1.271,2.218-1.631,2.218c-0.303,0-0.36-0.32-0.36-0.605c0-0.531,0.304-2.219,0.569-3.147l2.427-8.798
	c0.056-0.172,0.094-0.323,0.094-0.436c0-0.115-0.074-0.191-0.245-0.191c-0.172,0-1.291,0.173-2.504,0.304
	c-0.171,0.02-0.209,0.075-0.209,0.172c0,0.151,0.038,0.172,0.455,0.209c0.513,0.057,0.778,0.149,0.778,0.455
	c0,0.17-0.019,0.303-0.114,0.625L129.374,304.895z M115.134,303.928c-1.613,0-2.332,2.617-2.332,2.863
	c0,0.094,0.038,0.172,0.133,0.172c0.095,0,0.151-0.096,0.208-0.248c0.493-1.44,1.024-2.18,1.556-2.18
	c0.228,0,0.397,0.17,0.397,0.492c0,0.53-1.231,4.606-1.231,5.819c0,0.988,0.606,1.841,1.744,1.841c1.535,0,2.56-2.011,3.147-3.07
	l0.038,0.037c-0.114,0.604-0.209,1.022-0.209,1.44c0,0.91,0.436,1.593,1.366,1.593c1.61,0,2.332-2.615,2.332-2.863
	c0-0.094-0.058-0.17-0.152-0.17c-0.114,0-0.189,0.076-0.246,0.246c-0.437,1.479-1.1,2.182-1.479,2.182
	c-0.305,0-0.475-0.246-0.475-0.873c0-0.361,0.113-1.422,0.304-2.219l0.967-4.492c0.019-0.096,0.057-0.229,0.057-0.305
	s-0.076-0.113-0.189-0.113h-0.948c-0.114,0-0.208,0.057-0.246,0.264l-0.664,2.789c-0.531,2.238-1.915,4.949-3.261,4.949
	c-0.456,0-0.74-0.229-0.74-0.701c0-0.985,1.233-5.063,1.233-6.012C116.443,304.439,116.062,303.928,115.134,303.928 M105.9,310.604
	c0-2.237,1.214-6.313,3.109-6.313c0.721,0,1.213,0.588,1.213,1.725c0,2.238-1.213,6.314-3.108,6.314
	C106.393,312.328,105.9,311.74,105.9,310.604 M104.554,309.711c0,1.84,1.043,2.977,2.484,2.977c2.729,0,4.532-3.581,4.532-5.782
	c0-1.838-1.043-2.978-2.484-2.978C106.355,303.928,104.554,307.512,104.554,309.711 M98.259,308.555
	c0.36-1.746,1.631-4.02,2.939-4.02c0.55,0,0.702,0.379,0.702,0.627c0,0.225,0,0.984-0.854,1.781
	C100.383,307.568,98.904,308.365,98.259,308.555 M101.615,303.928c-1.385,0-2.446,1.479-2.787,2.086H98.79l0.967-4.397
	c0.189-0.836,0.531-2.258,0.531-2.429c0-0.149-0.076-0.209-0.229-0.209c-0.283,0-1.593,0.191-2.483,0.191
	c-0.208,0-0.303,0.037-0.303,0.15c0,0.17,0.095,0.188,0.512,0.229c0.682,0.058,0.834,0.228,0.834,0.512
	c0,0.244-0.152,0.947-0.284,1.556l-2.257,10.371c-0.02,0.096-0.058,0.246-0.058,0.305c0,0.074,0.076,0.113,0.134,0.113h1.005
	c0.114,0,0.209-0.06,0.247-0.269l0.758-3.051l1.289-0.645c0.133-0.076,0.189-0.136,0.304-0.136c0.437,0,0.701,0.533,0.701,1.064
	c0,0.303-0.113,1.686-0.113,2.01c0,0.682,0.379,1.307,1.327,1.307c1.631,0,2.124-2.219,2.124-2.407c0-0.113-0.038-0.228-0.19-0.228
	c-0.151,0-0.189,0.267-0.283,0.568c-0.076,0.303-0.552,1.461-1.214,1.461c-0.114,0-0.398,0-0.398-0.438
	c0-0.491,0.057-1.006,0.057-1.498c0-1.555-0.872-1.801-1.746-2.01V308.1c0.931-0.284,3.131-1.573,3.131-2.901
	C103.151,304.705,102.791,303.928,101.615,303.928 M84.014,311.59c0,0.586,0.361,0.947,0.931,0.947c0.208,0,0.417-0.057,0.587-0.229
	c-0.02,1.062-0.606,1.914-1.764,2.484c-0.606,0.303-0.683,0.418-0.683,0.512c0,0.058,0.019,0.152,0.171,0.152
	c0.398,0,3.034-1.139,3.034-3.432c0-0.724-0.474-1.388-1.233-1.388C84.451,310.639,84.014,311.057,84.014,311.59 M80.601,308.953
	l0.266-1.252h-4.664l-0.267,1.252H80.601z M72.869,305.008c0,1.006-1.175,2.902-3.641,3.89c0.986-3.339,2.161-4.607,3.034-4.607
	C72.604,304.289,72.869,304.535,72.869,305.008 M67.427,310.432c0,1.326,0.74,2.257,2.238,2.257c1.858,0,3.28-2.466,3.28-2.615
	c0-0.113-0.058-0.189-0.151-0.189c-0.076,0-0.133,0.058-0.228,0.189c-1.081,1.518-1.915,2.199-2.807,2.199
	c-0.645,0-0.985-0.437-0.985-1.193c0-0.514,0.227-1.424,0.359-1.783c3.318-1.195,4.74-2.674,4.74-3.963
	c0-0.76-0.493-1.404-1.403-1.404C70.006,303.928,67.427,307.854,67.427,310.432 M64.792,300.533c0,0.455,0.379,0.834,0.834,0.834
	s0.834-0.379,0.834-0.834c0-0.453-0.379-0.834-0.834-0.834S64.792,300.08,64.792,300.533 M62.403,311.361
	c0,0.774,0.436,1.325,1.251,1.325c1.593,0,2.75-2.711,2.75-2.823c0-0.113-0.058-0.209-0.19-0.209c-0.095,0-0.152,0.057-0.228,0.209
	c-0.796,1.594-1.536,2.293-1.953,2.293c-0.228,0-0.379-0.131-0.379-0.379c0-0.416,0.057-0.871,1.005-3.07
	c0.91-2.105,1.1-2.771,1.1-3.357c0-0.551-0.304-1.422-1.252-1.422c-1.346,0-2.521,2.332-2.521,2.521
	c0,0.135,0.038,0.227,0.133,0.227c0.095,0,0.171-0.037,0.228-0.149c0.398-0.947,1.194-2.066,1.8-2.066
	c0.229,0,0.361,0.172,0.361,0.473c0,0.343-0.113,0.873-0.91,2.771C62.554,310.146,62.403,310.773,62.403,311.361 M57.302,309.371
	c-0.133,0.604-0.341,1.477-0.341,2.027c0,1.043,0.701,1.289,1.327,1.289c0.834,0,1.251-0.38,1.801-1.177
	c0.171-0.264,0.816-1.535,0.816-1.707c0-0.112-0.02-0.207-0.171-0.207c-0.19,0-0.284,0.285-0.342,0.416
	c-0.247,0.533-0.929,2.144-1.649,2.144c-0.303,0-0.531-0.189-0.531-0.625c0-0.453,0.171-1.101,0.379-1.896l1.233-4.758h1.384
	c0.247,0,0.322-0.078,0.322-0.209c0-0.189-0.095-0.266-0.246-0.266h-1.365l0.55-2.013c0.057-0.188,0.094-0.319,0.094-0.491
	c0-0.38-0.397-0.416-0.7-0.416c-0.229,0-0.493,0.057-0.551,0.282l-0.739,2.638H57.36c-0.247,0-0.36,0.057-0.36,0.266
	c0,0.17,0.132,0.209,0.265,0.209h1.214L57.302,309.371z M48.523,310.848c0-2.026,2.122-6.504,3.963-6.504
	c0.512,0,0.947,0.324,0.947,1.158c0,1.328-1.84,6.77-3.963,6.77C48.902,312.271,48.523,311.758,48.523,310.848 M47.176,310.166
	c0,1.574,0.797,2.521,2.2,2.521c1.176,0,2.181-0.983,2.939-2.559l0.037,0.037c-0.095,0.438-0.228,1.006-0.228,1.309
	c0,0.759,0.38,1.213,1.195,1.213c1.611,0,2.332-2.614,2.332-2.805c0-0.115-0.038-0.229-0.17-0.229c-0.114,0-0.19,0.075-0.229,0.246
	c-0.397,1.479-1.1,2.182-1.46,2.182c-0.265,0-0.417-0.17-0.417-0.492c0-0.475,0.208-2.313,1.498-6.145
	c0.152-0.492,0.265-0.777,0.265-0.968c0-0.189-0.208-0.397-0.758-0.397c-0.285,0-0.379,0.227-0.588,1.117l-0.038-0.021
	c-0.076-0.643-0.512-1.25-1.498-1.25C50.021,303.928,47.176,307.455,47.176,310.166 M42.739,309.049
	c-0.113,0.51-0.341,1.555-0.341,2.254c0,1.14,0.814,1.386,1.402,1.386c1.84,0,2.579-2.521,2.579-2.712c0-0.094,0-0.266-0.152-0.266
	c-0.094,0-0.208,0.094-0.245,0.248c-0.607,1.686-1.31,2.197-1.783,2.197c-0.379,0-0.455-0.437-0.455-0.719
	c0-0.476,0.342-2.222,0.418-2.521l1.63-7.301c0.19-0.836,0.531-2.258,0.531-2.428c0-0.15-0.076-0.21-0.228-0.21
	c-0.285,0-1.593,0.191-2.483,0.191c-0.209,0-0.305,0.037-0.305,0.15c0,0.17,0.096,0.188,0.513,0.229
	c0.683,0.058,0.835,0.228,0.835,0.512c0,0.244-0.152,0.947-0.285,1.556L42.739,309.049z M37.468,309.049
	c-0.114,0.51-0.341,1.555-0.341,2.254c0,1.14,0.815,1.386,1.403,1.386c1.839,0,2.579-2.521,2.579-2.712c0-0.094,0-0.266-0.152-0.266
	c-0.095,0-0.209,0.094-0.247,0.248c-0.606,1.686-1.308,2.197-1.782,2.197c-0.379,0-0.455-0.437-0.455-0.719
	c0-0.476,0.342-2.222,0.417-2.521l1.631-7.301c0.189-0.836,0.531-2.258,0.531-2.428c0-0.15-0.076-0.21-0.228-0.21
	c-0.284,0-1.593,0.191-2.484,0.191c-0.208,0-0.303,0.037-0.303,0.15c0,0.17,0.095,0.188,0.512,0.229
	c0.683,0.058,0.834,0.228,0.834,0.512c0,0.244-0.151,0.947-0.284,1.556L37.468,309.049z M28.499,310.848
	c0-2.026,2.124-6.504,3.963-6.504c0.512,0,0.948,0.324,0.948,1.158c0,1.328-1.839,6.77-3.963,6.77
	C28.878,312.271,28.499,311.758,28.499,310.848 M27.153,310.166c0,1.574,0.796,2.521,2.198,2.521c1.177,0,2.182-0.983,2.94-2.559
	l0.037,0.037c-0.094,0.438-0.228,1.006-0.228,1.309c0,0.759,0.38,1.213,1.194,1.213c1.612,0,2.333-2.614,2.333-2.805
	c0-0.115-0.038-0.229-0.171-0.229c-0.114,0-0.189,0.075-0.227,0.246c-0.399,1.479-1.101,2.182-1.461,2.182
	c-0.266,0-0.418-0.17-0.418-0.492c0-0.475,0.209-2.313,1.498-6.145c0.152-0.492,0.267-0.777,0.267-0.968
	c0-0.189-0.209-0.397-0.759-0.397c-0.284,0-0.38,0.227-0.588,1.117l-0.037-0.021c-0.076-0.643-0.513-1.25-1.498-1.25
	C29.997,303.928,27.153,307.455,27.153,310.166 M22.716,309.371c-0.133,0.604-0.342,1.477-0.342,2.027
	c0,1.043,0.702,1.289,1.328,1.289c0.834,0,1.251-0.38,1.801-1.177c0.171-0.264,0.815-1.535,0.815-1.707
	c0-0.112-0.019-0.207-0.17-0.207c-0.19,0-0.285,0.285-0.342,0.416c-0.247,0.533-0.93,2.144-1.649,2.144
	c-0.305,0-0.531-0.189-0.531-0.625c0-0.453,0.171-1.101,0.379-1.896l1.233-4.758h1.384c0.246,0,0.322-0.078,0.322-0.209
	c0-0.189-0.096-0.266-0.246-0.266h-1.366l0.55-2.013c0.058-0.188,0.095-0.319,0.095-0.491c0-0.38-0.397-0.416-0.7-0.416
	c-0.229,0-0.493,0.057-0.551,0.282l-0.739,2.638h-1.213c-0.247,0-0.361,0.057-0.361,0.266c0,0.17,0.133,0.209,0.266,0.209h1.213
	L22.716,309.371z M15.169,311.057c0,1.025,0.891,1.632,2.238,1.632c2.085,0,2.938-1.402,2.938-2.654
	c0-0.662-0.171-1.062-1.023-2.199c-1.081-1.422-1.233-1.859-1.233-2.293c0-0.799,0.607-1.252,1.403-1.252
	c0.645,0,0.854,0.209,0.854,0.664c0,0.453,0.113,0.643,0.475,0.643c0.303,0,0.474-0.188,0.474-0.51c0-0.664-0.74-1.158-1.707-1.158
	c-1.346,0-2.56,0.795-2.56,2.293c0,0.724,0.151,1.197,1.347,2.81c0.758,1.022,0.91,1.365,0.91,1.838
	c0,0.723-0.646,1.461-1.745,1.461c-0.739,0-1.308-0.303-1.308-0.816c0-0.188,0.075-0.379,0.075-0.567
	c0-0.285-0.209-0.549-0.568-0.549C15.416,310.395,15.169,310.621,15.169,311.057 M6.504,311.986
	c-0.019,0.096-0.057,0.246-0.057,0.305c0,0.074,0.076,0.113,0.133,0.113h1.005c0.113,0,0.208-0.06,0.246-0.269l0.683-2.651
	c0.568-2.238,2.029-4.949,3.337-4.949c0.455,0,0.664,0.17,0.664,0.813c0,0.871-1.232,4.873-1.232,5.974
	c0,0.684,0.379,1.364,1.308,1.364c1.612,0,2.333-2.614,2.333-2.862c0-0.095-0.038-0.17-0.133-0.17c-0.095,0-0.152,0.096-0.209,0.246
	c-0.341,0.985-0.891,2.182-1.573,2.182c-0.228,0-0.38-0.17-0.38-0.531c0-0.549,1.233-4.57,1.233-5.785
	c0-1.022-0.607-1.838-1.745-1.838c-1.536,0-2.56,2.01-3.147,3.072l-0.038-0.037c0.114-0.607,0.208-1.025,0.208-1.441
	c0-0.909-0.436-1.594-1.364-1.594c-1.612,0-2.332,2.617-2.332,2.863c0,0.094,0.038,0.172,0.133,0.172
	c0.112,0,0.17-0.096,0.208-0.248c0.436-1.479,1.1-2.18,1.479-2.18c0.36,0,0.531,0.246,0.531,0.871c0,0.358-0.114,1.424-0.303,2.221
	L6.504,311.986z M2.806,300.533c0,0.455,0.379,0.834,0.835,0.834c0.455,0,0.834-0.379,0.834-0.834c0-0.453-0.379-0.834-0.834-0.834
	C3.185,299.699,2.806,300.08,2.806,300.533 M0.417,311.361c0,0.774,0.436,1.325,1.251,1.325c1.593,0,2.75-2.711,2.75-2.823
	c0-0.113-0.057-0.209-0.19-0.209c-0.095,0-0.15,0.057-0.227,0.209c-0.797,1.594-1.536,2.293-1.953,2.293
	c-0.228,0-0.38-0.131-0.38-0.379c0-0.416,0.057-0.871,1.005-3.07c0.911-2.105,1.101-2.771,1.101-3.357
	c0-0.551-0.304-1.422-1.253-1.422c-1.346,0-2.521,2.332-2.521,2.521c0,0.135,0.038,0.227,0.133,0.227
	c0.094,0,0.17-0.037,0.228-0.149c0.397-0.947,1.194-2.066,1.801-2.066c0.228,0,0.359,0.172,0.359,0.473
	c0,0.343-0.112,0.873-0.908,2.771C0.569,310.146,0.417,310.773,0.417,311.361"/>
<path d="M329.854,277.457c0,0.588,0.359,0.949,0.93,0.949c0.209,0,0.417-0.059,0.588-0.229c-0.02,1.062-0.605,1.916-1.764,2.484
	c-0.606,0.303-0.684,0.416-0.684,0.512c0,0.058,0.02,0.152,0.171,0.152c0.398,0,3.033-1.14,3.033-3.433
	c0-0.721-0.474-1.385-1.231-1.385C330.29,276.51,329.854,276.926,329.854,277.457 M324.545,274.918
	c-0.113,0.51-0.342,1.553-0.342,2.256c0,1.137,0.816,1.383,1.404,1.383c1.838,0,2.578-2.521,2.578-2.711
	c0-0.094,0-0.266-0.151-0.266c-0.095,0-0.209,0.096-0.247,0.246c-0.607,1.688-1.309,2.199-1.782,2.199
	c-0.38,0-0.455-0.437-0.455-0.721c0-0.474,0.343-2.218,0.417-2.521l1.631-7.299c0.189-0.836,0.53-2.258,0.53-2.428
	c0-0.152-0.076-0.209-0.228-0.209c-0.283,0-1.592,0.188-2.483,0.188c-0.209,0-0.304,0.039-0.304,0.151
	c0,0.17,0.095,0.189,0.512,0.229c0.684,0.056,0.835,0.228,0.835,0.51c0,0.248-0.151,0.949-0.285,1.558L324.545,274.918z
	 M315.576,276.719c0-2.029,2.124-6.504,3.963-6.504c0.512,0,0.947,0.32,0.947,1.156c0,1.326-1.838,6.768-3.963,6.768
	C315.955,278.139,315.576,277.629,315.576,276.719 M314.23,276.035c0,1.574,0.795,2.521,2.199,2.521c1.176,0,2.18-0.986,2.938-2.562
	l0.037,0.039c-0.094,0.437-0.227,1.006-0.227,1.309c0,0.759,0.379,1.214,1.193,1.214c1.611,0,2.332-2.615,2.332-2.806
	c0-0.114-0.038-0.229-0.17-0.229c-0.114,0-0.189,0.074-0.229,0.246c-0.397,1.48-1.101,2.181-1.459,2.181
	c-0.267,0-0.419-0.171-0.419-0.492c0-0.476,0.21-2.312,1.497-6.144c0.153-0.494,0.268-0.778,0.268-0.969
	c0-0.189-0.209-0.396-0.758-0.396c-0.285,0-0.379,0.227-0.588,1.116l-0.039-0.018c-0.076-0.645-0.513-1.252-1.498-1.252
	C317.074,269.797,314.23,273.324,314.23,276.035 M306.096,276.719c0-2.029,2.123-6.504,3.963-6.504c0.512,0,0.947,0.32,0.947,1.156
	c0,1.326-1.839,6.768-3.963,6.768C306.475,278.139,306.096,277.629,306.096,276.719 M304.749,276.035
	c0,1.574,0.796,2.521,2.199,2.521c1.176,0,2.181-0.986,2.938-2.562l0.039,0.039c-0.095,0.437-0.227,1.006-0.227,1.309
	c0,0.759,0.379,1.214,1.194,1.214c1.61,0,2.332-2.615,2.332-2.806c0-0.114-0.037-0.229-0.17-0.229c-0.115,0-0.19,0.074-0.229,0.246
	c-0.399,1.48-1.099,2.181-1.46,2.181c-0.266,0-0.417-0.171-0.417-0.492c0-0.476,0.209-2.312,1.497-6.144
	c0.152-0.494,0.267-0.778,0.267-0.969c0-0.189-0.209-0.396-0.759-0.396c-0.284,0-0.379,0.227-0.588,1.116l-0.038-0.018
	c-0.075-0.645-0.513-1.252-1.498-1.252C307.593,269.797,304.749,273.324,304.749,276.035 M300.312,275.238
	c-0.133,0.607-0.342,1.479-0.342,2.029c0,1.043,0.7,1.289,1.326,1.289c0.834,0,1.251-0.38,1.803-1.175
	c0.17-0.269,0.813-1.536,0.813-1.707c0-0.114-0.019-0.209-0.17-0.209c-0.188,0-0.285,0.285-0.343,0.418
	c-0.246,0.531-0.928,2.142-1.648,2.142c-0.304,0-0.529-0.188-0.529-0.625c0-0.455,0.17-1.101,0.379-1.896l1.231-4.76h1.384
	c0.246,0,0.322-0.074,0.322-0.209c0-0.189-0.096-0.264-0.246-0.264h-1.367l0.553-2.013c0.057-0.188,0.094-0.319,0.094-0.491
	c0-0.38-0.397-0.418-0.701-0.418c-0.227,0-0.493,0.059-0.549,0.284l-0.74,2.638h-1.214c-0.246,0-0.36,0.057-0.36,0.264
	c0,0.172,0.135,0.209,0.268,0.209h1.213L300.312,275.238z M297.961,270.879c0,1.004-1.176,2.9-3.641,3.885
	c0.986-3.336,2.162-4.606,3.033-4.606C297.695,270.156,297.961,270.404,297.961,270.879 M292.52,276.301
	c0,1.328,0.738,2.256,2.236,2.256c1.858,0,3.28-2.465,3.28-2.615c0-0.114-0.058-0.188-0.151-0.188c-0.074,0-0.133,0.056-0.228,0.188
	c-1.081,1.517-1.915,2.197-2.806,2.197c-0.646,0-0.986-0.436-0.986-1.193c0-0.512,0.227-1.422,0.359-1.782
	c3.317-1.192,4.739-2.672,4.739-3.963c0-0.759-0.491-1.402-1.401-1.402C295.098,269.797,292.52,273.721,292.52,276.301
	 M278.828,277.855c-0.02,0.094-0.057,0.246-0.057,0.303c0,0.076,0.076,0.115,0.133,0.115h1.005c0.114,0,0.208-0.058,0.245-0.267
	l0.684-2.653c0.569-2.22,2.029-4.949,3.11-4.949c0.36,0,0.53,0.246,0.53,0.871c0,0.358-0.113,1.422-0.305,2.219l-0.984,4.361
	c-0.021,0.094-0.059,0.246-0.059,0.303c0,0.076,0.076,0.115,0.135,0.115h1.004c0.113,0,0.209-0.058,0.248-0.267l0.682-2.653
	c0.568-2.238,2.066-4.949,3.281-4.949c0.358,0,0.567,0.283,0.567,0.813c0,0.873-1.231,4.873-1.231,5.974
	c0,0.684,0.379,1.365,1.308,1.365c1.612,0,2.333-2.615,2.333-2.863c0-0.096-0.038-0.17-0.133-0.17c-0.096,0-0.152,0.094-0.209,0.246
	c-0.342,0.985-0.891,2.18-1.573,2.18c-0.228,0-0.38-0.17-0.38-0.529c0-0.551,1.232-4.57,1.232-5.785
	c0-0.984-0.606-1.838-1.611-1.838c-1.536,0-2.561,1.99-3.129,3.072l-0.038-0.039c0.114-0.607,0.209-1.023,0.209-1.441
	c0-0.908-0.455-1.592-1.403-1.592c-1.537,0-2.56,1.99-3.129,3.072l-0.038-0.039c0.114-0.607,0.209-1.023,0.209-1.441
	c0-0.908-0.436-1.592-1.364-1.592c-1.479,0-2.332,2.371-2.332,2.863c0,0.096,0.057,0.17,0.15,0.17c0.114,0,0.189-0.074,0.246-0.246
	c0.438-1.479,1.102-2.18,1.479-2.18c0.305,0,0.475,0.246,0.475,0.871c0,0.358-0.113,1.422-0.303,2.219L278.828,277.855z
	 M265.366,276.926c0,1.023,0.891,1.631,2.237,1.631c2.086,0,2.938-1.402,2.938-2.654c0-0.663-0.171-1.061-1.023-2.198
	c-1.08-1.422-1.231-1.858-1.231-2.295c0-0.798,0.606-1.252,1.403-1.252c0.644,0,0.853,0.209,0.853,0.663
	c0,0.455,0.114,0.646,0.476,0.646c0.303,0,0.474-0.191,0.474-0.514c0-0.662-0.739-1.156-1.706-1.156
	c-1.348,0-2.561,0.797-2.561,2.295c0,0.721,0.15,1.193,1.346,2.807c0.76,1.023,0.91,1.363,0.91,1.838
	c0,0.722-0.645,1.462-1.744,1.462c-0.739,0-1.309-0.304-1.309-0.814c0-0.19,0.075-0.381,0.075-0.569
	c0-0.285-0.208-0.551-0.567-0.551C265.611,276.262,265.366,276.49,265.366,276.926 M261.08,278.273l1.328-3.83
	c0.246-0.703,0.605-1.67,1.042-2.484c0.418-0.816,0.911-1.555,1.366-1.555c0.17,0,0.188,0.15,0.188,0.436
	c0,0.359,0.285,0.568,0.664,0.568c0.341,0,0.684-0.322,0.684-0.721c0-0.568-0.531-0.892-1.062-0.892
	c-1.536,0-2.579,2.693-2.899,3.584h-0.039c0.039-0.342,0.188-1.555,0.188-1.914c0-1.575-0.948-1.67-1.101-1.67
	c-1.041,0-1.819,1.498-2.369,2.541c-0.058,0.113-0.133,0.246-0.133,0.358c0,0.097,0.076,0.173,0.112,0.173
	c0.076,0,0.152-0.021,0.19-0.097c0.246-0.416,0.871-1.594,1.061-1.819c0.247-0.283,0.456-0.55,0.723-0.55
	c0.379,0,0.379,0.722,0.379,1.005c0,0.17-0.037,1.594-0.739,3.926l-0.892,2.938h1.309V278.273z M257.346,270.879
	c0,1.004-1.177,2.9-3.642,3.885c0.985-3.336,2.162-4.606,3.034-4.606C257.079,270.156,257.346,270.404,257.346,270.879
	 M251.902,276.301c0,1.328,0.74,2.256,2.238,2.256c1.857,0,3.279-2.465,3.279-2.615c0-0.114-0.057-0.188-0.15-0.188
	c-0.076,0-0.136,0.056-0.229,0.188c-1.081,1.517-1.916,2.197-2.807,2.197c-0.646,0-0.986-0.436-0.986-1.193
	c0-0.512,0.229-1.422,0.359-1.782c3.317-1.192,4.742-2.672,4.742-3.963c0-0.759-0.494-1.402-1.404-1.402
	C254.482,269.797,251.902,273.721,251.902,276.301 M248.148,271.467c0,1.572-1.592,6.617-3.621,6.617c-0.285,0-1.043,0-1.043-1.271
	c0-1.725,1.725-6.598,3.678-6.598C247.826,270.215,248.148,270.783,248.148,271.467 M248.452,270.764h-0.038
	c-0.133-0.34-0.379-0.967-1.422-0.967c-2.484,0-4.854,3.887-4.854,6.145c0,1.289,0.644,2.615,2.12,2.615
	c1.595,0,2.354-1.498,3.035-2.805h0.038c-0.076,0.301-0.189,1.117-0.189,1.631c0,0.682,0.36,1.174,1.082,1.174
	c1.61,0,2.615-2.899,2.615-3.014c0-0.152-0.074-0.189-0.15-0.229c-0.17,0.039-0.189,0.076-0.36,0.492
	c-0.55,1.366-1.271,2.219-1.631,2.219c-0.304,0-0.36-0.322-0.36-0.605c0-0.531,0.305-2.219,0.569-3.148l2.427-8.799
	c0.059-0.17,0.096-0.322,0.096-0.436c0-0.114-0.076-0.189-0.246-0.189c-0.172,0-1.289,0.172-2.504,0.303
	c-0.171,0.021-0.209,0.076-0.209,0.172c0,0.15,0.038,0.171,0.455,0.21c0.514,0.057,0.777,0.149,0.777,0.454
	c0,0.171-0.02,0.304-0.113,0.625L248.452,270.764z M239.786,266.402c0,0.455,0.38,0.834,0.835,0.834s0.834-0.379,0.834-0.834
	s-0.379-0.834-0.834-0.834S239.786,265.947,239.786,266.402 M237.396,277.23c0,0.776,0.437,1.326,1.252,1.326
	c1.594,0,2.75-2.711,2.75-2.824c0-0.115-0.059-0.209-0.189-0.209c-0.096,0-0.15,0.057-0.229,0.209
	c-0.795,1.592-1.535,2.293-1.953,2.293c-0.229,0-0.379-0.131-0.379-0.379c0-0.416,0.058-0.871,1.006-3.072
	c0.91-2.104,1.099-2.768,1.099-3.355c0-0.549-0.303-1.422-1.251-1.422c-1.346,0-2.521,2.332-2.521,2.521
	c0,0.133,0.039,0.229,0.133,0.229c0.096,0,0.171-0.039,0.228-0.152c0.399-0.946,1.195-2.065,1.804-2.065
	c0.227,0,0.358,0.172,0.358,0.473c0,0.343-0.112,0.873-0.91,2.771C237.549,276.016,237.396,276.641,237.396,277.23 M235.217,270.879
	c0,1.004-1.176,2.9-3.641,3.885c0.986-3.336,2.162-4.606,3.033-4.606C234.951,270.156,235.217,270.404,235.217,270.879
	 M229.775,276.301c0,1.328,0.738,2.256,2.234,2.256c1.859,0,3.282-2.465,3.282-2.615c0-0.114-0.058-0.188-0.151-0.188
	c-0.076,0-0.134,0.056-0.229,0.188c-1.08,1.517-1.915,2.197-2.807,2.197c-0.646,0-0.985-0.436-0.985-1.193
	c0-0.512,0.229-1.422,0.36-1.782c3.317-1.192,4.74-2.672,4.74-3.963c0-0.759-0.492-1.402-1.402-1.402
	C232.354,269.797,229.775,273.721,229.775,276.301 M225.109,274.918c-0.113,0.51-0.34,1.553-0.34,2.256
	c0,1.137,0.813,1.383,1.401,1.383c1.838,0,2.579-2.521,2.579-2.711c0-0.094,0-0.266-0.15-0.266c-0.097,0-0.209,0.096-0.246,0.246
	c-0.607,1.688-1.311,2.199-1.783,2.199c-0.379,0-0.455-0.437-0.455-0.721c0-0.474,0.341-2.218,0.417-2.521l1.631-7.299
	c0.19-0.836,0.53-2.258,0.53-2.428c0-0.152-0.075-0.209-0.229-0.209c-0.283,0-1.592,0.188-2.482,0.188
	c-0.209,0-0.303,0.039-0.303,0.151c0,0.17,0.094,0.189,0.512,0.229c0.683,0.056,0.834,0.228,0.834,0.51
	c0,0.248-0.151,0.949-0.284,1.558L225.109,274.918z M222.57,270.879c0,1.004-1.176,2.9-3.641,3.885
	c0.984-3.336,2.16-4.606,3.032-4.606C222.305,270.156,222.57,270.404,222.57,270.879 M217.128,276.301
	c0,1.328,0.739,2.256,2.237,2.256c1.857,0,3.279-2.465,3.279-2.615c0-0.114-0.058-0.188-0.15-0.188
	c-0.076,0-0.133,0.056-0.229,0.188c-1.08,1.517-1.914,2.197-2.807,2.197c-0.645,0-0.984-0.436-0.984-1.193
	c0-0.512,0.227-1.422,0.358-1.782c3.317-1.192,4.74-2.672,4.74-3.963c0-0.759-0.493-1.402-1.403-1.402
	C219.706,269.797,217.128,273.721,217.128,276.301 M213.885,271.713c0,0.455-0.512,4.094-2.351,4.094
	c-0.816,0-1.214-0.51-1.214-1.459c0-0.682,0.701-4.133,2.295-4.133C213.695,270.215,213.885,270.916,213.885,271.713
	 M210.093,277.875c-0.53-0.096-0.797-0.324-0.797-0.779c0-0.283,0.267-0.834,1.384-0.852l0.702-0.02
	c2.845-0.134,3.753-2.599,3.753-4.058c0-0.438-0.131-0.854-0.226-1.082c0.379-0.267,0.72-0.53,0.929-0.53s0.247,0.188,0.284,0.551
	c0.058,0.379,0.304,0.567,0.588,0.567c0.151,0,0.646-0.112,0.646-0.664c0-0.93-0.664-1.061-1.062-1.061
	c-0.683,0-1.157,0.379-1.593,0.737c-0.36-0.455-0.797-0.891-2.029-0.891c-1.818,0-3.602,2.125-3.602,3.906
	c0,1.232,0.625,1.688,1.308,2.182c-1.231,0.131-2.218,0.814-2.218,1.781c0,1.611,2.806,1.896,3.925,2.049
	c1.118,0.15,1.896,0.436,1.896,1.459c0,1.537-1.688,1.992-2.938,1.992c-1.252,0-2.769-0.627-2.769-2.105
	c0-0.93,0.683-1.215,0.892-1.346c-0.188-0.135-0.323-0.209-0.646-0.209c-0.74,0-1.385,0.605-1.385,1.516
	c0,1.728,2.237,2.562,3.906,2.562c2.218,0,3.963-0.91,3.963-2.957c0-1.385-0.91-2.104-2.199-2.313L210.093,277.875z
	 M206.188,270.879c0,1.004-1.178,2.9-3.642,3.885c0.986-3.336,2.162-4.606,3.034-4.606
	C205.921,270.156,206.188,270.404,206.188,270.879 M200.745,276.301c0,1.328,0.739,2.256,2.237,2.256
	c1.856,0,3.281-2.465,3.281-2.615c0-0.114-0.059-0.188-0.152-0.188c-0.076,0-0.133,0.056-0.229,0.188
	c-1.081,1.517-1.915,2.197-2.806,2.197c-0.645,0-0.986-0.436-0.986-1.193c0-0.512,0.229-1.422,0.36-1.782
	c3.317-1.192,4.741-2.672,4.741-3.963c0-0.759-0.493-1.402-1.404-1.402C203.323,269.797,200.745,273.721,200.745,276.301
	 M195.948,267.484c0.188-0.836,0.53-2.258,0.53-2.428c0-0.152-0.076-0.209-0.229-0.209c-0.284,0-1.593,0.188-2.482,0.188
	c-0.209,0-0.305,0.039-0.305,0.151c0,0.17,0.096,0.189,0.514,0.229c0.682,0.056,0.834,0.228,0.834,0.51
	c0,0.248-0.152,0.949-0.285,1.558l-1.461,6.77c-0.094,0.396-0.359,1.498-0.359,2.104c0,1.365,0.891,2.199,2.352,2.199
	c2.391,0,4.627-3.697,4.627-6.125c0-1.252-0.625-2.635-2.295-2.635c-1.156,0-1.82,0.967-2.427,1.973h-0.038L195.948,267.484z
	 M193.957,276.623c0-1.119,1.345-6.352,3.261-6.352c0.664,0,1.042,0.625,1.042,1.44c0,1.914-1.345,6.483-3.203,6.483
	C194.241,278.197,193.957,277.533,193.957,276.623 M177.574,277.855c-0.02,0.094-0.057,0.246-0.057,0.303
	c0,0.076,0.074,0.115,0.133,0.115h1.004c0.113,0,0.209-0.058,0.246-0.267l0.684-2.653c0.568-2.238,2.029-4.949,3.337-4.949
	c0.455,0,0.664,0.17,0.664,0.813c0,0.873-1.231,4.873-1.231,5.974c0,0.684,0.379,1.365,1.308,1.365c1.612,0,2.333-2.615,2.333-2.863
	c0-0.096-0.038-0.17-0.133-0.17c-0.096,0-0.152,0.094-0.209,0.246c-0.342,0.985-0.893,2.18-1.573,2.18
	c-0.228,0-0.38-0.17-0.38-0.529c0-0.551,1.232-4.57,1.232-5.785c0-1.023-0.606-1.838-1.744-1.838c-1.535,0-2.561,2.01-3.147,3.072
	l-0.038-0.039c0.114-0.607,0.208-1.023,0.208-1.441c0-0.908-0.437-1.592-1.364-1.592c-1.611,0-2.334,2.617-2.334,2.863
	c0,0.096,0.039,0.17,0.135,0.17c0.112,0,0.17-0.094,0.209-0.246c0.436-1.479,1.1-2.18,1.479-2.18c0.361,0,0.531,0.246,0.531,0.871
	c0,0.358-0.114,1.422-0.303,2.219L177.574,277.855z M174.578,270.879c0,1.004-1.176,2.9-3.641,3.885
	c0.984-3.336,2.162-4.606,3.033-4.606C174.312,270.156,174.578,270.404,174.578,270.879 M169.135,276.301
	c0,1.328,0.74,2.256,2.238,2.256c1.859,0,3.281-2.465,3.281-2.615c0-0.114-0.057-0.188-0.152-0.188
	c-0.076,0-0.133,0.056-0.227,0.188c-1.082,1.517-1.916,2.197-2.809,2.197c-0.644,0-0.984-0.436-0.984-1.193
	c0-0.512,0.228-1.422,0.359-1.782c3.318-1.192,4.74-2.672,4.74-3.963c0-0.759-0.493-1.402-1.402-1.402
	C171.715,269.797,169.135,273.721,169.135,276.301 M156.735,276.926c0,1.023,0.891,1.631,2.238,1.631
	c2.085,0,2.938-1.402,2.938-2.654c0-0.663-0.171-1.061-1.023-2.198c-1.081-1.422-1.233-1.858-1.233-2.295
	c0-0.798,0.605-1.252,1.403-1.252c0.645,0,0.854,0.209,0.854,0.663c0,0.455,0.114,0.646,0.473,0.646
	c0.305,0,0.476-0.191,0.476-0.514c0-0.662-0.74-1.156-1.707-1.156c-1.346,0-2.561,0.797-2.561,2.295
	c0,0.721,0.152,1.193,1.348,2.807c0.758,1.023,0.91,1.363,0.91,1.838c0,0.722-0.646,1.462-1.745,1.462
	c-0.739,0-1.309-0.304-1.309-0.814c0-0.19,0.076-0.381,0.076-0.569c0-0.285-0.209-0.551-0.568-0.551
	C156.982,276.262,156.735,276.49,156.735,276.926 M152.45,278.273l1.327-3.83c0.247-0.703,0.606-1.67,1.043-2.484
	c0.417-0.816,0.91-1.555,1.365-1.555c0.171,0,0.189,0.15,0.189,0.436c0,0.359,0.284,0.568,0.664,0.568
	c0.341,0,0.682-0.322,0.682-0.721c0-0.568-0.53-0.892-1.062-0.892c-1.536,0-2.578,2.693-2.901,3.584h-0.037
	c0.037-0.342,0.189-1.555,0.189-1.914c0-1.575-0.948-1.67-1.1-1.67c-1.043,0-1.82,1.498-2.37,2.541
	c-0.058,0.113-0.133,0.246-0.133,0.358c0,0.097,0.075,0.173,0.113,0.173c0.076,0,0.152-0.021,0.19-0.097
	c0.246-0.416,0.872-1.594,1.061-1.819c0.247-0.283,0.456-0.55,0.722-0.55c0.379,0,0.379,0.722,0.379,1.005
	c0,0.17-0.038,1.594-0.739,3.926l-0.891,2.938h1.309V278.273z M148.715,270.879c0,1.004-1.176,2.9-3.641,3.885
	c0.986-3.336,2.162-4.606,3.034-4.606C148.449,270.156,148.715,270.404,148.715,270.879 M143.273,276.301
	c0,1.328,0.737,2.256,2.236,2.256c1.858,0,3.28-2.465,3.28-2.615c0-0.114-0.056-0.188-0.151-0.188c-0.075,0-0.133,0.056-0.228,0.188
	c-1.081,1.517-1.915,2.197-2.806,2.197c-0.646,0-0.986-0.436-0.986-1.193c0-0.512,0.227-1.422,0.36-1.782
	c3.317-1.192,4.741-2.672,4.741-3.963c0-0.759-0.493-1.402-1.404-1.402C145.852,269.797,143.273,273.721,143.273,276.301
	 M139.519,271.467c0,1.572-1.594,6.617-3.621,6.617c-0.285,0-1.043,0-1.043-1.271c0-1.725,1.725-6.598,3.678-6.598
	C139.196,270.215,139.519,270.783,139.519,271.467 M139.822,270.764h-0.038c-0.133-0.34-0.38-0.967-1.422-0.967
	c-2.484,0-4.855,3.887-4.855,6.145c0,1.289,0.646,2.615,2.124,2.615c1.594,0,2.352-1.498,3.034-2.805h0.038
	c-0.076,0.301-0.189,1.117-0.189,1.631c0,0.682,0.359,1.174,1.08,1.174c1.612,0,2.617-2.899,2.617-3.014
	c0-0.152-0.076-0.189-0.151-0.229c-0.171,0.039-0.19,0.076-0.36,0.492c-0.55,1.366-1.272,2.219-1.631,2.219
	c-0.303,0-0.36-0.322-0.36-0.605c0-0.531,0.302-2.219,0.569-3.148l2.427-8.799c0.056-0.17,0.095-0.322,0.095-0.436
	c0-0.114-0.075-0.189-0.247-0.189c-0.171,0-1.288,0.172-2.503,0.303c-0.171,0.021-0.208,0.076-0.208,0.172
	c0,0.15,0.037,0.171,0.455,0.21c0.513,0.057,0.777,0.149,0.777,0.454c0,0.171-0.019,0.304-0.114,0.625L139.822,270.764z
	 M131.156,266.402c0,0.455,0.379,0.834,0.834,0.834c0.455,0,0.835-0.379,0.835-0.834s-0.38-0.834-0.835-0.834
	C131.535,265.568,131.156,265.947,131.156,266.402 M128.768,277.23c0,0.776,0.436,1.326,1.251,1.326c1.593,0,2.75-2.711,2.75-2.824
	c0-0.115-0.058-0.209-0.19-0.209c-0.095,0-0.151,0.057-0.227,0.209c-0.797,1.592-1.536,2.293-1.953,2.293
	c-0.229,0-0.38-0.131-0.38-0.379c0-0.416,0.057-0.871,1.005-3.072c0.911-2.104,1.1-2.768,1.1-3.355c0-0.549-0.303-1.422-1.251-1.422
	c-1.347,0-2.521,2.332-2.521,2.521c0,0.133,0.038,0.229,0.133,0.229c0.094,0,0.17-0.039,0.227-0.152
	c0.398-0.946,1.195-2.065,1.801-2.065c0.229,0,0.361,0.172,0.361,0.473c0,0.343-0.114,0.873-0.91,2.771
	C128.919,276.016,128.768,276.641,128.768,277.23 M126.586,270.879c0,1.004-1.175,2.9-3.64,3.885
	c0.986-3.336,2.161-4.606,3.034-4.606C126.321,270.156,126.586,270.404,126.586,270.879 M121.145,276.301
	c0,1.328,0.739,2.256,2.237,2.256c1.858,0,3.28-2.465,3.28-2.615c0-0.114-0.057-0.188-0.151-0.188c-0.075,0-0.133,0.056-0.228,0.188
	c-1.081,1.517-1.915,2.197-2.806,2.197c-0.646,0-0.986-0.436-0.986-1.193c0-0.512,0.227-1.422,0.36-1.782
	c3.317-1.192,4.739-2.672,4.739-3.963c0-0.759-0.492-1.402-1.402-1.402C123.724,269.797,121.145,273.721,121.145,276.301
	 M116.48,274.918c-0.114,0.51-0.342,1.553-0.342,2.256c0,1.137,0.815,1.383,1.403,1.383c1.839,0,2.579-2.521,2.579-2.711
	c0-0.094,0-0.266-0.152-0.266c-0.095,0-0.209,0.096-0.246,0.246c-0.606,1.688-1.309,2.199-1.782,2.199
	c-0.379,0-0.455-0.437-0.455-0.721c0-0.474,0.341-2.218,0.417-2.521l1.631-7.299c0.189-0.836,0.531-2.258,0.531-2.428
	c0-0.152-0.076-0.209-0.229-0.209c-0.284,0-1.593,0.188-2.483,0.188c-0.208,0-0.304,0.039-0.304,0.151
	c0,0.17,0.096,0.189,0.513,0.229c0.682,0.056,0.834,0.228,0.834,0.51c0,0.248-0.152,0.949-0.284,1.558L116.48,274.918z
	 M109.085,276.66c-0.057-1.838,1.498-6.445,3.318-6.445c0.759,0,1.062,0.605,1.1,1.535c0.038,1.385-1.289,6.389-3.355,6.389
	C109.56,278.139,109.123,277.551,109.085,276.66 M106.298,282.463c-0.133,0.588-0.55,0.758-0.892,0.758
	c-0.303,0-0.417,0.078-0.417,0.229c0.019,0.133,0.095,0.188,0.247,0.188c0.605,0,1.193-0.057,1.801-0.057
	c0.303,0,0.588,0.018,0.89,0.018c0.306,0.021,0.608,0.039,0.893,0.039c0.151,0,0.228-0.057,0.209-0.188
	c0-0.15-0.114-0.229-0.417-0.229c-0.646,0-0.872-0.34-0.872-0.586c0-0.152,0.019-0.342,0.075-0.588l0.985-4.553h0.038
	c0.152,0.57,0.722,1.062,1.518,1.062c2.521,0,4.607-3.584,4.513-6.181c-0.057-1.537-0.891-2.58-2.218-2.58
	c-1.252,0-2.086,1.043-2.712,2.274l-0.038-0.038l0.985-4.189c0.058-0.247,0.096-0.358,0.096-0.645c0-0.229-0.305-0.283-0.607-0.283
	c-0.36,0-0.474,0.056-0.569,0.416l-0.682,2.369c-0.189,0.646-0.417,0.948-1.214,1.536c-1.289,0.947-1.706,2.105-1.706,2.482
	c0.02,0.115,0.057,0.172,0.17,0.172c0.095,0,0.171-0.057,0.19-0.172c0.303-1.043,1.536-2.387,2.01-2.387
	c0.133,0,0.133,0.133,0.133,0.264c0,0.266-0.038,0.551-0.095,0.76L106.298,282.463z M99.491,276.471
	c0-2.236,1.213-6.313,3.109-6.313c0.721,0,1.214,0.588,1.214,1.727c0,2.236-1.214,6.314-3.11,6.314
	C99.984,278.197,99.491,277.609,99.491,276.471 M98.145,275.58c0,1.84,1.043,2.977,2.483,2.977c2.731,0,4.532-3.584,4.532-5.783
	c0-1.838-1.043-2.977-2.484-2.977C99.946,269.797,98.145,273.381,98.145,275.58 M91.85,274.424c0.36-1.746,1.631-4.02,2.938-4.02
	c0.55,0,0.702,0.379,0.702,0.625c0,0.229,0,0.984-0.854,1.783C93.974,273.438,92.494,274.234,91.85,274.424 M95.206,269.797
	c-1.385,0-2.447,1.479-2.788,2.086H92.38l0.968-4.398c0.189-0.836,0.53-2.258,0.53-2.428c0-0.152-0.076-0.209-0.227-0.209
	c-0.285,0-1.593,0.189-2.484,0.189c-0.209,0-0.304,0.039-0.304,0.152c0,0.17,0.095,0.188,0.512,0.229
	c0.684,0.055,0.835,0.227,0.835,0.51c0,0.248-0.151,0.949-0.285,1.557l-2.256,10.371c-0.019,0.095-0.057,0.246-0.057,0.304
	c0,0.075,0.076,0.114,0.133,0.114h1.005c0.113,0,0.208-0.057,0.246-0.266l0.758-3.053l1.29-0.645
	c0.133-0.076,0.189-0.136,0.304-0.136c0.436,0,0.701,0.533,0.701,1.062c0,0.306-0.113,1.688-0.113,2.013
	c0,0.683,0.379,1.308,1.325,1.308c1.633,0,2.125-2.218,2.125-2.408c0-0.113-0.037-0.228-0.189-0.228
	c-0.151,0-0.189,0.267-0.284,0.568c-0.076,0.305-0.55,1.459-1.214,1.459c-0.113,0-0.398,0-0.398-0.437
	c0-0.492,0.058-1.004,0.058-1.498c0-1.553-0.872-1.801-1.744-2.01v-0.037c0.929-0.285,3.128-1.574,3.128-2.902
	C96.741,270.574,96.381,269.797,95.206,269.797 M87.545,266.402c0,0.455,0.379,0.834,0.834,0.834s0.835-0.379,0.835-0.834
	s-0.38-0.834-0.835-0.834S87.545,265.947,87.545,266.402 M84.739,280.055c-0.588,2.258-1.29,3.111-2.029,3.111
	c-0.436,0-0.606-0.154-0.702-0.531c-0.095-0.379-0.265-0.646-0.588-0.646c-0.303,0-0.493,0.229-0.493,0.568
	c0,0.646,0.798,1.025,1.65,1.025c1.688,0,2.863-1.289,3.925-5.025c1.65-5.82,1.839-6.922,1.839-7.736
	c0-0.645-0.397-1.022-0.947-1.022c-0.815,0-1.802,0.813-2.883,2.541c-0.095,0.152-0.133,0.267-0.133,0.34
	c0,0.078,0.058,0.152,0.171,0.152c0.134,0,0.229-0.095,0.378-0.34c0.931-1.519,1.48-2.011,1.842-2.011
	c0.15,0,0.227,0.095,0.227,0.359c0,0.379-0.095,0.967-0.246,1.537L84.739,280.055z M82.217,266.402c0,0.455,0.379,0.834,0.834,0.834
	c0.455,0,0.834-0.379,0.834-0.834s-0.379-0.834-0.834-0.834C82.596,265.568,82.217,265.947,82.217,266.402 M79.828,277.23
	c0,0.776,0.436,1.326,1.251,1.326c1.593,0,2.749-2.711,2.749-2.824c0-0.115-0.056-0.209-0.189-0.209
	c-0.095,0-0.151,0.057-0.228,0.209c-0.796,1.592-1.536,2.293-1.953,2.293c-0.227,0-0.379-0.131-0.379-0.379
	c0-0.416,0.057-0.871,1.005-3.072c0.91-2.104,1.101-2.768,1.101-3.355c0-0.549-0.305-1.422-1.252-1.422
	c-1.347,0-2.522,2.332-2.522,2.521c0,0.133,0.038,0.229,0.133,0.229c0.096,0,0.171-0.039,0.229-0.152
	c0.397-0.946,1.193-2.065,1.801-2.065c0.228,0,0.36,0.172,0.36,0.473c0,0.343-0.113,0.873-0.91,2.771
	C79.979,276.016,79.828,276.641,79.828,277.23 M74.728,275.238c-0.134,0.607-0.342,1.479-0.342,2.029
	c0,1.043,0.701,1.289,1.327,1.289c0.834,0,1.251-0.38,1.801-1.175c0.172-0.269,0.816-1.536,0.816-1.707
	c0-0.114-0.019-0.209-0.171-0.209c-0.19,0-0.284,0.285-0.341,0.418c-0.247,0.531-0.93,2.142-1.65,2.142
	c-0.303,0-0.532-0.188-0.532-0.625c0-0.455,0.173-1.101,0.381-1.896l1.232-4.76h1.384c0.247,0,0.322-0.074,0.322-0.209
	c0-0.189-0.094-0.264-0.246-0.264h-1.365l0.55-2.013c0.057-0.188,0.095-0.319,0.095-0.491c0-0.38-0.398-0.418-0.701-0.418
	c-0.228,0-0.493,0.059-0.55,0.284l-0.74,2.638h-1.213c-0.247,0-0.36,0.057-0.36,0.264c0,0.172,0.133,0.209,0.266,0.209h1.214
	L74.728,275.238z M68.186,274.424c0.36-1.746,1.631-4.02,2.938-4.02c0.55,0,0.702,0.379,0.702,0.625c0,0.229,0,0.984-0.853,1.783
	C70.31,273.438,68.83,274.234,68.186,274.424 M71.542,269.797c-1.385,0-2.446,1.479-2.788,2.086h-0.038l0.968-4.398
	c0.189-0.836,0.53-2.258,0.53-2.428c0-0.152-0.075-0.209-0.227-0.209c-0.285,0-1.593,0.189-2.484,0.189
	c-0.209,0-0.304,0.039-0.304,0.152c0,0.17,0.095,0.188,0.512,0.229c0.684,0.055,0.835,0.227,0.835,0.51
	c0,0.248-0.151,0.949-0.285,1.557l-2.256,10.371c-0.019,0.095-0.057,0.246-0.057,0.304c0,0.075,0.076,0.114,0.133,0.114h1.005
	c0.113,0,0.208-0.057,0.246-0.266l0.759-3.053l1.289-0.645c0.134-0.076,0.19-0.136,0.304-0.136c0.437,0,0.701,0.533,0.701,1.062
	c0,0.306-0.113,1.688-0.113,2.013c0,0.683,0.379,1.308,1.328,1.308c1.63,0,2.123-2.218,2.123-2.408c0-0.113-0.038-0.228-0.189-0.228
	c-0.152,0-0.19,0.267-0.285,0.568c-0.076,0.305-0.55,1.459-1.213,1.459c-0.114,0-0.399,0-0.399-0.437
	c0-0.492,0.058-1.004,0.058-1.498c0-1.553-0.872-1.801-1.744-2.01v-0.037c0.929-0.285,3.129-1.574,3.129-2.902
	C73.078,270.574,72.717,269.797,71.542,269.797 M57.529,276.719c0-2.029,2.124-6.504,3.963-6.504c0.512,0,0.948,0.32,0.948,1.156
	c0,1.326-1.839,6.768-3.963,6.768C57.908,278.139,57.529,277.629,57.529,276.719 M56.184,276.035c0,1.574,0.796,2.521,2.198,2.521
	c1.177,0,2.182-0.986,2.939-2.562l0.038,0.039c-0.095,0.437-0.228,1.006-0.228,1.309c0,0.759,0.379,1.214,1.194,1.214
	c1.612,0,2.333-2.615,2.333-2.806c0-0.114-0.038-0.229-0.171-0.229c-0.114,0-0.19,0.074-0.229,0.246
	c-0.397,1.48-1.099,2.181-1.46,2.181c-0.265,0-0.417-0.171-0.417-0.492c0-0.476,0.209-2.312,1.498-6.144
	c0.152-0.494,0.267-0.778,0.267-0.969c0-0.189-0.209-0.396-0.759-0.396c-0.284,0-0.38,0.227-0.589,1.116l-0.039-0.018
	c-0.073-0.645-0.511-1.252-1.496-1.252C59.027,269.797,56.184,273.324,56.184,276.035 M51.499,278.273l1.327-3.83
	c0.247-0.703,0.607-1.67,1.043-2.484c0.417-0.816,0.91-1.555,1.365-1.555c0.171,0,0.189,0.15,0.189,0.436
	c0,0.359,0.285,0.568,0.664,0.568c0.342,0,0.683-0.322,0.683-0.721c0-0.568-0.531-0.892-1.062-0.892
	c-1.536,0-2.579,2.693-2.901,3.584H52.77c0.037-0.342,0.188-1.555,0.188-1.914c0-1.575-0.948-1.67-1.1-1.67
	c-1.043,0-1.82,1.498-2.37,2.541c-0.057,0.113-0.133,0.246-0.133,0.358c0,0.097,0.076,0.173,0.112,0.173
	c0.077,0,0.153-0.021,0.191-0.097c0.246-0.416,0.872-1.594,1.062-1.819c0.245-0.283,0.454-0.55,0.72-0.55
	c0.379,0,0.379,0.722,0.379,1.005c0,0.17-0.038,1.594-0.739,3.926l-0.891,2.938h1.31V278.273z M42.909,276.66
	c-0.056-1.838,1.498-6.445,3.319-6.445c0.758,0,1.062,0.605,1.099,1.535c0.038,1.385-1.289,6.389-3.357,6.389
	C43.383,278.139,42.947,277.551,42.909,276.66 M40.122,282.463c-0.133,0.588-0.55,0.758-0.891,0.758
	c-0.305,0-0.417,0.078-0.417,0.229c0.019,0.133,0.095,0.188,0.246,0.188c0.606,0,1.194-0.057,1.802-0.057
	c0.303,0,0.587,0.018,0.891,0.018c0.304,0.021,0.607,0.039,0.892,0.039c0.151,0,0.227-0.057,0.209-0.188
	c0-0.15-0.114-0.229-0.418-0.229c-0.645,0-0.872-0.34-0.872-0.586c0-0.152,0.019-0.342,0.076-0.588l0.985-4.553h0.038
	c0.152,0.57,0.72,1.062,1.518,1.062c2.521,0,4.607-3.584,4.513-6.181c-0.058-1.537-0.892-2.58-2.219-2.58
	c-1.251,0-2.086,1.043-2.711,2.274l-0.038-0.038l0.985-4.189c0.058-0.247,0.096-0.358,0.096-0.645c0-0.229-0.305-0.283-0.607-0.283
	c-0.36,0-0.474,0.056-0.569,0.416l-0.683,2.369c-0.189,0.646-0.417,0.948-1.213,1.536c-1.29,0.947-1.707,2.105-1.707,2.482
	c0.019,0.115,0.057,0.172,0.171,0.172c0.095,0,0.171-0.057,0.19-0.172c0.303-1.043,1.534-2.387,2.009-2.387
	c0.133,0,0.133,0.133,0.133,0.264c0,0.266-0.038,0.551-0.095,0.76L40.122,282.463z M29.371,278.273l1.327-3.83
	c0.247-0.703,0.607-1.67,1.043-2.484c0.417-0.816,0.91-1.555,1.365-1.555c0.171,0,0.189,0.15,0.189,0.436
	c0,0.359,0.284,0.568,0.664,0.568c0.341,0,0.683-0.322,0.683-0.721c0-0.568-0.531-0.892-1.062-0.892c-1.535,0-2.578,2.693-2.9,3.584
	h-0.038c0.038-0.342,0.189-1.555,0.189-1.914c0-1.575-0.948-1.67-1.1-1.67c-1.043,0-1.82,1.498-2.37,2.541
	c-0.057,0.113-0.133,0.246-0.133,0.358c0,0.097,0.076,0.173,0.113,0.173c0.076,0,0.152-0.021,0.19-0.097
	c0.246-0.416,0.872-1.594,1.062-1.819c0.246-0.283,0.455-0.55,0.721-0.55c0.379,0,0.379,0.722,0.379,1.005
	c0,0.17-0.038,1.594-0.739,3.926l-0.891,2.938h1.308V278.273z M20.668,276.471c0-2.236,1.213-6.313,3.11-6.313
	c0.72,0,1.213,0.588,1.213,1.727c0,2.236-1.213,6.314-3.11,6.314C21.161,278.197,20.668,277.609,20.668,276.471 M19.322,275.58
	c0,1.84,1.042,2.977,2.484,2.977c2.729,0,4.53-3.584,4.53-5.783c0-1.838-1.043-2.977-2.483-2.977
	C21.123,269.797,19.322,273.381,19.322,275.58 M12.249,276.471c0-2.236,1.214-6.313,3.11-6.313c0.72,0,1.213,0.588,1.213,1.727
	c0,2.236-1.213,6.314-3.109,6.314C12.742,278.197,12.249,277.609,12.249,276.471 M10.903,275.58c0,1.84,1.043,2.977,2.482,2.977
	c2.731,0,4.533-3.584,4.533-5.783c0-1.838-1.043-2.977-2.483-2.977C12.704,269.797,10.903,273.381,10.903,275.58 M4.323,278.197
	c0.038,0.229,0.057,0.416,0.303,0.416c0.247,0,0.38-0.188,0.55-0.475l2.541-4.228l3.756-6.656c0.436-0.758,0.853-1.062,1.781-1.328
	c0.114-0.018,0.228-0.073,0.228-0.227c0-0.134-0.113-0.189-0.322-0.189c-0.303,0-1.062,0.058-1.612,0.058
	c-0.567,0-1.155-0.058-1.745-0.058c-0.245,0-0.32,0.076-0.32,0.207c0,0.152,0.17,0.191,0.359,0.209
	c0.551,0.078,1.004,0.229,1.004,0.57c0,0.758-1.079,2.711-1.572,3.582l-3.508,6.146H5.727l-1.024-9.064
	c-0.019-0.15-0.019-0.303-0.019-0.379c0-0.795,0.38-0.795,1.1-0.854c0.569-0.036,0.607-0.131,0.607-0.266
	c0-0.149-0.134-0.149-0.323-0.149c-0.739,0-1.498,0.057-2.256,0.057c-0.76,0-1.518-0.057-2.275-0.057
	c-0.191,0-0.285,0.075-0.285,0.188c0,0.151,0.076,0.17,0.398,0.227c0.74,0.136,1.1,0.21,1.176,0.854L4.323,278.197z"/>
</svg>
