<?xml version="1.0" encoding="utf-8"?>
<!-- Generator: Adobe Illustrator 15.0.0, SVG Export Plug-In . SVG Version: 6.00 Build 0)  -->
<!DOCTYPE svg PUBLIC "-//W3C//DTD SVG 1.1//EN" "http://www.w3.org/Graphics/SVG/1.1/DTD/svg11.dtd">
<svg version="1.1" id="Layer_1" xmlns="http://www.w3.org/2000/svg" xmlns:xlink="http://www.w3.org/1999/xlink" x="0px" y="0px"
	 width="360px" height="320px" viewBox="0 0 360 320" enable-background="new 0 0 360 320" xml:space="preserve">
<g>
	<g>
		<defs>
			<rect id="SVGID_1_" width="360" height="320"/>
		</defs>
		<clipPath id="SVGID_2_">
			<use xlink:href="#SVGID_1_"  overflow="visible"/>
		</clipPath>
		<path clip-path="url(#SVGID_2_)" fill="#FFFFFF" d="M21.135,129.564h10.478c15.718,0,30.898,11.688,30.898,32.107
			c0,20.42-15.18,32.108-30.898,32.108H21.135V129.564z M2.327,208.557h25.659c28.749,0,54.139-9.672,54.139-46.885
			c0-37.212-25.39-46.884-54.139-46.884H2.327V208.557z"/>
	</g>
	<g>
		<defs>
			<rect id="SVGID_3_" width="360" height="320"/>
		</defs>
		<clipPath id="SVGID_4_">
			<use xlink:href="#SVGID_3_"  overflow="visible"/>
		</clipPath>
		<path clip-path="url(#SVGID_4_)" fill="#FFFFFF" d="M118.89,50.771c0-16.524,7.657-33.451,26.33-33.451
			c18.673,0,26.331,16.927,26.331,33.451c0,16.926-7.12,33.987-26.331,33.987C126.01,84.759,118.89,67.698,118.89,50.771
			 M99.276,50.771c0,28.748,15.852,48.765,45.944,48.765c29.689,0,45.944-20.42,45.944-48.765c0-28.346-16.523-48.228-45.944-48.228
			C115.397,2.543,99.276,22.022,99.276,50.771 M2.954,97.925h18.808v-35.6h7.926c20.151,0,36.137-7.926,36.137-29.824
			c0-22.434-18.673-28.345-39.092-28.345H2.954V97.925z M21.762,18.933h6.583c9.672,0,17.867,3.762,17.867,14.643
			c0,10.882-8.464,13.971-17.867,13.971h-6.583V18.933z"/>
	</g>
	<g>
		<defs>
			<rect id="SVGID_5_" width="360" height="320"/>
		</defs>
		<clipPath id="SVGID_6_">
			<use xlink:href="#SVGID_5_"  overflow="visible"/>
		</clipPath>
		<path clip-path="url(#SVGID_6_)" fill="#FFD050" d="M252.811,192.076h9.318l-7.811,17.73h4.584l7.479-17.551v-3.498h-13.57
			V192.076L252.811,192.076z M236.918,193.703l2.109,2.745l3.561-2.896v16.254h4.223v-21.049h-3.74L236.918,193.703z
			 M226.122,210.17c6.092,0,7.358-5.941,7.358-10.826c0-4.886-1.207-10.947-7.358-10.947c-5.699,0-7.299,5.67-7.299,10.947
			C218.823,203.747,219.639,210.17,226.122,210.17 M226.122,207.034c-3.106,0-3.076-5.037-3.076-7.69c0-2.714,0-7.812,3.076-7.812
			c3.137,0,3.137,5.098,3.137,7.812C229.259,201.997,229.289,207.034,226.122,207.034 M216.23,209.809v-3.317h-8.596
			c3.438-3.378,7.932-7.479,7.932-11.941c0-4.132-2.594-6.151-6.604-6.151c-2.143,0-4.342,0.543-6.242,1.508l0.332,3.498
			c1.387-0.904,3.075-1.688,4.854-1.688c1.72,0,3.438,0.905,3.438,2.835c0,3.86-7.148,9.831-9.109,11.73v3.527H216.23
			L216.23,209.809z"/>
	</g>
	<g>
		<defs>
			<rect id="SVGID_7_" width="360" height="320"/>
		</defs>
		<clipPath id="SVGID_8_">
			<use xlink:href="#SVGID_7_"  overflow="visible"/>
		</clipPath>
		<path clip-path="url(#SVGID_8_)" fill="#FFFFFF" d="M176.273,209.809h4.041v-7.6c0-1.991,0.634-5.157,3.559-5.157
			c2.594,0,2.624,2.562,2.624,4.464v8.293h4.041v-9.802c0-3.498-1.601-6.092-5.278-6.092c-2.111,0-3.83,0.692-5.096,2.474h-0.062
			v-2.111h-3.829V209.809z M171.961,205.646c-1.508,0.845-3.196,1.568-5.157,1.568c-2.503,0-4.252-1.418-4.433-3.921h10.737
			c0-5.429-1.629-9.379-7.389-9.379c-4.825,0-7.208,3.71-7.208,8.203c0,5.097,2.986,8.052,8.112,8.052
			c2.172,0,3.859-0.422,5.338-1.236V205.646z M162.371,200.52c0.181-2.08,1.327-3.647,3.589-3.647c2.262,0,3.166,1.688,3.286,3.647
			H162.371z M151.485,194.275v2.111h-0.06c-1.116-1.779-2.714-2.473-4.765-2.473c-4.644,0-6.574,4.312-6.574,8.052
			c0,4.162,1.749,7.841,6.333,7.841c2.261,0,4.071-1.146,4.825-2.473h0.06c0,2.684-0.211,6.032-4.674,6.032
			c-1.267,0-3.287-0.694-4.524-1.358l-0.331,3.438c1.93,0.815,3.769,1.058,5.367,1.058c6.514,0,8.203-3.981,8.203-8.203v-14.022
			h-3.86V194.275z M147.746,206.672c-2.323,0-3.438-2.594-3.438-4.705c0-2.382,0.874-4.915,3.618-4.915
			c2.353,0,3.378,2.171,3.378,4.825C151.304,204.471,150.279,206.672,147.746,206.672 M127.179,205.314
			c0-2.383,2.684-2.685,4.493-2.685h1.749c0,1.206-0.181,2.322-0.844,3.196c-0.634,0.845-1.599,1.388-2.835,1.388
			C128.294,207.215,127.179,206.643,127.179,205.314 M125.128,198.561c1.357-1.025,3.076-1.688,4.795-1.688
			c2.382,0,3.498,0.844,3.498,3.347h-2.231c-1.689,0-3.68,0.151-5.218,0.905c-1.538,0.754-2.653,2.11-2.653,4.433
			c0,2.955,2.684,4.614,5.428,4.614c1.839,0,3.86-0.965,4.795-2.685h0.06c0.03,0.481,0.03,1.509,0.181,2.322h3.559
			c-0.091-1.207-0.151-2.293-0.181-3.469c-0.031-1.146-0.061-2.322-0.061-3.891v-1.99c0-4.583-1.96-6.544-6.695-6.544
			c-1.718,0-3.829,0.453-5.398,1.177L125.128,198.561z M107.125,192.076h2.352c3.528,0,6.936,2.622,6.936,7.206
			c0,4.585-3.408,7.208-6.936,7.208h-2.352V192.076z M102.903,209.809h5.76c6.453,0,12.153-2.172,12.153-10.525
			s-5.7-10.523-12.153-10.523h-5.76V209.809z"/>
	</g>
	<g>
		<defs>
			<rect id="SVGID_9_" width="360" height="320"/>
		</defs>
		<clipPath id="SVGID_10_">
			<use xlink:href="#SVGID_9_"  overflow="visible"/>
		</clipPath>
		<path clip-path="url(#SVGID_10_)" fill="#FFFFFF" d="M234.386,159.305c-1.268-0.271-2.503-0.573-4.403-0.573
			c-3.166,0-6.092,1.478-6.092,4.827c0,5.608,7.026,3.527,7.026,6.573c0,1.509-1.629,1.9-2.653,1.9c-1.388,0-2.714-0.394-3.98-1.026
			l-0.241,3.317c1.479,0.392,3.047,0.663,4.584,0.663c3.287,0,6.515-1.447,6.515-5.065c0-5.61-7.026-4.041-7.026-6.514
			c0-1.327,1.297-1.722,2.383-1.722c1.478,0,2.382,0.242,3.618,0.664L234.386,159.305z M213.245,174.625h4.041v-5.7
			c0-2.229,0-6.333,3.287-6.333c0.725,0,1.448,0.121,1.811,0.332v-4.071c-0.424-0.121-0.846-0.121-1.237-0.121
			c-2.412,0-4.07,2.443-4.252,3.891h-0.061v-3.529h-3.589V174.625z M208.843,170.463c-1.508,0.846-3.196,1.569-5.155,1.569
			c-2.504,0-4.254-1.418-4.436-3.921h10.736c0-5.43-1.629-9.379-7.389-9.379c-4.824,0-7.207,3.709-7.207,8.204
			c0,5.098,2.983,8.053,8.112,8.053c2.171,0,3.859-0.424,5.337-1.237L208.843,170.463L208.843,170.463z M199.252,165.337
			c0.182-2.081,1.327-3.649,3.59-3.649c2.262,0,3.167,1.689,3.285,3.649H199.252z M188.307,174.625h3.92v-22.618h-4.041v8.897
			h-0.061c-1.206-1.479-2.624-2.172-4.645-2.172c-4.765,0-6.515,3.8-6.515,8.083c0,4.254,1.75,8.174,6.515,8.174
			c1.9,0,3.559-0.604,4.766-2.111h0.061V174.625z M181.189,166.812c0-2.078,0.724-4.943,3.347-4.943
			c2.595,0,3.618,2.773,3.618,4.943c0,2.203-0.873,5.037-3.557,5.037C181.943,171.852,181.189,168.956,181.189,166.812
			 M169.67,156.26h4.041v-3.86h-4.041V156.26z M169.67,174.625h4.041v-15.531h-4.041V174.625z M165.267,170.463
			c-1.508,0.846-3.196,1.569-5.157,1.569c-2.503,0-4.252-1.418-4.433-3.921h10.736c0-5.43-1.628-9.379-7.388-9.379
			c-4.825,0-7.208,3.709-7.208,8.204c0,5.098,2.986,8.053,8.112,8.053c2.172,0,3.86-0.424,5.338-1.237V170.463L165.267,170.463z
			 M155.676,165.337c0.181-2.081,1.327-3.649,3.589-3.649c2.262,0,3.166,1.689,3.287,3.649H155.676z M144.519,174.625h4.041v-22.618
			h-4.041V174.625z M133.692,161.869c2.624,0,3.348,2.865,3.348,4.943c0,2.144-0.754,5.037-3.408,5.037
			c-2.684,0-3.558-2.834-3.558-5.037C130.074,164.643,131.1,161.869,133.692,161.869 M126.002,180.958h4.041v-8.112h0.061
			c1.417,1.719,2.834,2.143,4.553,2.143c4.856,0,6.605-3.92,6.605-8.174c0-4.281-1.749-8.083-6.514-8.083
			c-2.383,0-3.921,1.056-4.825,2.564h-0.061v-2.202h-3.86V180.958L126.002,180.958z M106.28,164.04c0-3.709,1.719-7.509,5.911-7.509
			c4.191,0,5.91,3.8,5.91,7.509c0,3.8-1.598,7.63-5.91,7.63C107.878,171.67,106.28,167.84,106.28,164.04 M101.877,164.04
			c0,6.454,3.558,10.946,10.314,10.946c6.664,0,10.313-4.584,10.313-10.946c0-6.363-3.709-10.826-10.313-10.826
			C105.497,153.214,101.877,157.586,101.877,164.04"/>
	</g>
	<g>
		<defs>
			<rect id="SVGID_11_" width="360" height="320"/>
		</defs>
		<clipPath id="SVGID_12_">
			<use xlink:href="#SVGID_11_"  overflow="visible"/>
		</clipPath>
		<path clip-path="url(#SVGID_12_)" fill="#FFFFFF" d="M191.352,139.442h4.041v-7.539h0.062l5.187,7.539h5.127l-6.514-8.595
			l5.79-6.936h-4.767l-4.823,6.213h-0.062v-13.299h-4.041V139.442z M182.968,121.077h4.041v-3.86h-4.041V121.077z M180.345,145.896
			c0.512,0.15,1.327,0.241,1.99,0.241c4.041,0,4.675-3.347,4.675-5.549v-16.677h-4.042v16.134c0,2.413-0.301,2.835-2.472,2.956
			L180.345,145.896z M174.584,121.077h4.041v-3.86h-4.041V121.077z M174.584,139.442h4.041v-15.531h-4.041V139.442z
			 M164.091,134.768c0,3.076,1.749,5.036,4.915,5.036c1.206,0,2.141-0.121,2.986-0.362l-0.121-3.196
			c-0.422,0.271-1.116,0.422-1.84,0.422c-1.537,0-1.899-1.237-1.899-2.564v-7.237h3.588v-2.956h-3.588v-4.402l-4.041,1.296v3.106
			h-2.986v2.956h2.986V134.768z M146.087,139.442h4.041v-7.539h0.06l5.187,7.539h5.127l-6.514-8.595l5.79-6.936h-4.765l-4.825,6.213
			h-0.06v-13.299h-4.041V139.442z M132.698,134.949c0-2.383,2.683-2.684,4.493-2.684h1.749c0,1.206-0.181,2.322-0.844,3.196
			c-0.634,0.845-1.599,1.388-2.835,1.388C133.812,136.849,132.698,136.276,132.698,134.949 M130.646,128.194
			c1.357-1.026,3.076-1.689,4.795-1.689c2.382,0,3.498,0.844,3.498,3.347h-2.232c-1.688,0-3.679,0.151-5.217,0.905
			c-1.538,0.754-2.654,2.111-2.654,4.433c0,2.955,2.684,4.614,5.429,4.614c1.839,0,3.86-0.965,4.795-2.684h0.06
			c0.03,0.483,0.03,1.508,0.181,2.322h3.558c-0.09-1.206-0.15-2.292-0.181-3.468c-0.03-1.146-0.06-2.322-0.06-3.89v-1.99
			c0-4.584-1.96-6.544-6.695-6.544c-1.719,0-3.83,0.452-5.398,1.176L130.646,128.194z M118.796,139.442h4.041v-5.699
			c0-2.232,0-6.333,3.287-6.333c0.723,0,1.447,0.12,1.809,0.331v-4.071c-0.422-0.12-0.844-0.12-1.236-0.12
			c-2.413,0-4.072,2.442-4.253,3.89h-0.06v-3.529h-3.588V139.442L118.796,139.442z M102.541,139.442h4.222v-7.991h1.779
			c4.524,0,8.112-1.78,8.112-6.695c0-5.036-4.191-6.363-8.775-6.363h-5.338V139.442z M106.763,121.71h1.478
			c2.171,0,4.011,0.844,4.011,3.287s-1.9,3.136-4.011,3.136h-1.478V121.71z"/>
	</g>
	<g>
		<defs>
			<rect id="SVGID_13_" width="360" height="320"/>
		</defs>
		<clipPath id="SVGID_14_">
			<use xlink:href="#SVGID_13_"  overflow="visible"/>
		</clipPath>
		<path clip-path="url(#SVGID_14_)" fill="#FFFFFF" d="M351.992,311.098c0.359-1.745,1.631-4.02,2.938-4.02
			c0.551,0,0.702,0.379,0.702,0.626c0,0.227,0,0.986-0.854,1.782C354.116,310.112,352.637,310.908,351.992,311.098 M355.348,306.471
			c-1.384,0-2.445,1.479-2.787,2.086h-0.039l0.97-4.397c0.188-0.834,0.528-2.256,0.528-2.427c0-0.152-0.074-0.209-0.227-0.209
			c-0.284,0-1.592,0.188-2.484,0.188c-0.207,0-0.303,0.038-0.303,0.152c0,0.17,0.096,0.188,0.512,0.227
			c0.685,0.059,0.834,0.229,0.834,0.512c0,0.247-0.149,0.949-0.283,1.557l-2.258,10.372c-0.019,0.095-0.056,0.246-0.056,0.303
			c0,0.076,0.075,0.114,0.132,0.114h1.006c0.113,0,0.209-0.059,0.246-0.267l0.758-3.053l1.291-0.645
			c0.133-0.076,0.188-0.135,0.304-0.135c0.436,0,0.7,0.531,0.7,1.062c0,0.305-0.112,1.688-0.112,2.01
			c0,0.685,0.379,1.311,1.327,1.311c1.631,0,2.123-2.221,2.123-2.409c0-0.113-0.037-0.229-0.189-0.229s-0.188,0.267-0.283,0.569
			c-0.076,0.304-0.551,1.46-1.215,1.46c-0.113,0-0.396,0-0.396-0.436c0-0.493,0.057-1.007,0.057-1.498
			c0-1.557-0.872-1.804-1.745-2.012v-0.038c0.931-0.283,3.129-1.572,3.129-2.899C356.884,307.249,356.523,306.471,355.348,306.471
			 M347.764,307.552c0,1.005-1.176,2.901-3.641,3.889c0.986-3.339,2.162-4.607,3.034-4.607
			C347.498,306.832,347.764,307.078,347.764,307.552 M342.322,312.975c0,1.327,0.738,2.259,2.236,2.259
			c1.857,0,3.28-2.467,3.28-2.617c0-0.114-0.057-0.189-0.153-0.189c-0.074,0-0.131,0.058-0.227,0.189
			c-1.08,1.517-1.915,2.199-2.807,2.199c-0.646,0-0.985-0.438-0.985-1.194c0-0.512,0.228-1.422,0.36-1.783
			c3.317-1.194,4.74-2.673,4.74-3.963c0-0.758-0.494-1.403-1.402-1.403C344.9,306.471,342.322,310.396,342.322,312.975
			 M339.686,303.077c0,0.455,0.379,0.834,0.834,0.834s0.834-0.379,0.834-0.834s-0.379-0.834-0.834-0.834
			S339.686,302.622,339.686,303.077 M337.297,313.904c0,0.776,0.436,1.328,1.251,1.328c1.593,0,2.75-2.714,2.75-2.826
			c0-0.113-0.057-0.208-0.19-0.208c-0.094,0-0.149,0.057-0.227,0.208c-0.797,1.593-1.535,2.295-1.953,2.295
			c-0.228,0-0.38-0.133-0.38-0.38c0-0.417,0.056-0.872,1.005-3.071c0.91-2.105,1.102-2.769,1.102-3.357
			c0-0.549-0.305-1.422-1.252-1.422c-1.348,0-2.521,2.333-2.521,2.522c0,0.133,0.038,0.228,0.133,0.228
			c0.094,0,0.17-0.038,0.229-0.15c0.396-0.948,1.193-2.067,1.801-2.067c0.229,0,0.361,0.171,0.361,0.474
			c0,0.344-0.114,0.872-0.911,2.771C337.449,312.691,337.297,313.316,337.297,313.904 M327.57,314.53
			c-0.021,0.095-0.059,0.246-0.059,0.303c0,0.076,0.076,0.114,0.133,0.114h1.006c0.113,0,0.209-0.059,0.246-0.267l0.684-2.653
			c0.566-2.237,2.027-4.949,3.337-4.949c0.455,0,0.663,0.171,0.663,0.813c0,0.873-1.232,4.874-1.232,5.975
			c0,0.683,0.379,1.366,1.31,1.366c1.61,0,2.333-2.617,2.333-2.864c0-0.094-0.038-0.17-0.135-0.17c-0.095,0-0.15,0.095-0.209,0.246
			c-0.34,0.984-0.891,2.181-1.572,2.181c-0.229,0-0.379-0.171-0.379-0.531c0-0.55,1.231-4.568,1.231-5.783
			c0-1.022-0.606-1.84-1.745-1.84c-1.537,0-2.56,2.012-3.146,3.072l-0.038-0.038c0.113-0.605,0.208-1.022,0.208-1.439
			c0-0.91-0.437-1.595-1.365-1.595c-1.612,0-2.332,2.617-2.332,2.863c0,0.095,0.038,0.171,0.132,0.171
			c0.114,0,0.172-0.095,0.209-0.245c0.438-1.479,1.102-2.182,1.479-2.182c0.358,0,0.53,0.247,0.53,0.872
			c0,0.359-0.113,1.422-0.303,2.219L327.57,314.53z M317.33,314.53c-0.02,0.095-0.059,0.246-0.059,0.303
			c0,0.076,0.076,0.114,0.135,0.114h1.005c0.114,0,0.209-0.059,0.247-0.267l0.455-1.802c0.775-3.107,2.085-5.802,3.47-5.802
			c0.474,0,0.683,0.171,0.683,0.813c0,0.873-1.231,5.008-1.231,5.975c0,0.91,0.437,1.366,1.251,1.366
			c1.609,0,2.389-2.617,2.389-2.864c0-0.094-0.037-0.17-0.15-0.17s-0.189,0.095-0.246,0.246c-0.381,0.984-0.93,2.181-1.479,2.181
			c-0.245,0-0.417-0.171-0.417-0.531c0-0.91,1.233-4.684,1.233-5.783c0-0.984-0.607-1.84-1.745-1.84
			c-1.403,0-2.352,1.612-2.958,2.789l-0.038-0.02l1.139-5.082c0.188-0.834,0.53-2.256,0.53-2.427c0-0.152-0.076-0.209-0.229-0.209
			c-0.282,0-1.592,0.188-2.482,0.188c-0.208,0-0.303,0.038-0.303,0.152c0,0.17,0.095,0.188,0.512,0.227
			c0.682,0.059,0.834,0.229,0.834,0.512c0,0.247-0.152,0.949-0.284,1.557L317.33,314.53z M310.221,312.975
			c0,1.327,0.738,2.259,2.312,2.259c1.707,0,3.205-2.43,3.205-2.617c0-0.114-0.059-0.189-0.152-0.189
			c-0.076,0-0.133,0.058-0.229,0.189c-1.08,1.517-1.914,2.199-2.807,2.199c-0.568,0-0.91-0.438-0.91-1.194
			c0-2.674,1.764-6.788,3.451-6.788c0.303,0,0.438,0.075,0.438,0.246c0,0.266-0.209,0.266-0.209,0.683
			c0,0.342,0.266,0.587,0.645,0.587c0.455,0,0.702-0.341,0.702-0.72c0-0.721-0.702-1.157-1.403-1.157
			C312.514,306.471,310.221,310.396,310.221,312.975 M308.286,307.552c0,1.005-1.177,2.901-3.642,3.889
			c0.985-3.339,2.162-4.607,3.033-4.607C308.02,306.832,308.286,307.078,308.286,307.552 M302.844,312.975
			c0,1.327,0.739,2.259,2.237,2.259c1.858,0,3.28-2.467,3.28-2.617c0-0.114-0.057-0.189-0.151-0.189
			c-0.076,0-0.133,0.058-0.229,0.189c-1.078,1.517-1.914,2.199-2.806,2.199c-0.646,0-0.985-0.438-0.985-1.194
			c0-0.512,0.229-1.422,0.359-1.783c3.319-1.194,4.741-2.673,4.741-3.963c0-0.758-0.493-1.403-1.403-1.403
			C305.423,306.471,302.844,310.396,302.844,312.975 M298.369,311.913c-0.133,0.605-0.342,1.479-0.342,2.029
			c0,1.043,0.701,1.29,1.326,1.29c0.834,0,1.252-0.382,1.803-1.178c0.171-0.266,0.813-1.536,0.813-1.707
			c0-0.111-0.019-0.208-0.17-0.208c-0.188,0-0.284,0.285-0.342,0.417c-0.246,0.531-0.929,2.145-1.649,2.145
			c-0.304,0-0.529-0.19-0.529-0.626c0-0.455,0.17-1.102,0.379-1.896l1.232-4.76h1.385c0.244,0,0.32-0.075,0.32-0.208
			c0-0.189-0.095-0.266-0.246-0.266h-1.365l0.551-2.012c0.057-0.188,0.095-0.32,0.095-0.491c0-0.38-0.397-0.417-0.702-0.417
			c-0.227,0-0.492,0.057-0.549,0.283l-0.74,2.637h-1.213c-0.247,0-0.361,0.057-0.361,0.266c0,0.17,0.135,0.208,0.268,0.208h1.213
			L298.369,311.913z M291.05,313.146c0-2.238,1.214-6.314,3.109-6.314c0.721,0,1.214,0.587,1.214,1.725
			c0,2.238-1.214,6.314-3.109,6.314C291.543,314.871,291.05,314.283,291.05,313.146 M289.703,312.255
			c0,1.839,1.043,2.979,2.482,2.979c2.731,0,4.532-3.584,4.532-5.784c0-1.839-1.043-2.979-2.483-2.979
			C291.505,306.471,289.703,310.055,289.703,312.255 M284.906,314.947l1.326-3.83c0.246-0.702,0.606-1.669,1.043-2.484
			c0.418-0.813,0.91-1.555,1.365-1.555c0.17,0,0.189,0.152,0.189,0.436c0,0.36,0.285,0.569,0.664,0.569
			c0.341,0,0.682-0.322,0.682-0.721c0-0.568-0.531-0.893-1.061-0.893c-1.536,0-2.579,2.693-2.902,3.584h-0.038
			c0.038-0.341,0.19-1.555,0.19-1.915c0-1.572-0.948-1.669-1.102-1.669c-1.043,0-1.818,1.498-2.371,2.541
			c-0.056,0.114-0.132,0.248-0.132,0.36c0,0.096,0.076,0.171,0.114,0.171c0.076,0,0.152-0.019,0.189-0.095
			c0.244-0.417,0.871-1.594,1.062-1.82c0.246-0.284,0.455-0.55,0.72-0.55c0.379,0,0.379,0.721,0.379,1.005
			c0,0.171-0.037,1.594-0.738,3.925l-0.891,2.939L284.906,314.947L284.906,314.947z M278.251,311.913
			c-0.133,0.605-0.342,1.479-0.342,2.029c0,1.043,0.702,1.29,1.327,1.29c0.834,0,1.252-0.382,1.802-1.178
			c0.171-0.266,0.813-1.536,0.813-1.707c0-0.111-0.019-0.208-0.17-0.208c-0.188,0-0.285,0.285-0.342,0.417
			c-0.246,0.531-0.929,2.145-1.648,2.145c-0.305,0-0.53-0.19-0.53-0.626c0-0.455,0.17-1.102,0.379-1.896l1.231-4.76h1.385
			c0.246,0,0.322-0.075,0.322-0.208c0-0.189-0.096-0.266-0.246-0.266h-1.365l0.55-2.012c0.058-0.188,0.095-0.32,0.095-0.491
			c0-0.38-0.396-0.417-0.701-0.417c-0.228,0-0.494,0.057-0.551,0.283l-0.74,2.637h-1.213c-0.246,0-0.359,0.057-0.359,0.266
			c0,0.17,0.134,0.208,0.267,0.208h1.213L278.251,311.913z M271.709,311.098c0.359-1.745,1.631-4.02,2.938-4.02
			c0.553,0,0.703,0.379,0.703,0.626c0,0.227,0,0.986-0.854,1.782C273.833,310.112,272.354,310.908,271.709,311.098 M275.064,306.471
			c-1.385,0-2.445,1.479-2.787,2.086h-0.037l0.967-4.397c0.189-0.834,0.531-2.256,0.531-2.427c0-0.152-0.076-0.209-0.229-0.209
			c-0.284,0-1.592,0.188-2.483,0.188c-0.207,0-0.303,0.038-0.303,0.152c0,0.17,0.096,0.188,0.512,0.227
			c0.684,0.059,0.834,0.229,0.834,0.512c0,0.247-0.15,0.949-0.283,1.557l-2.258,10.372c-0.02,0.095-0.057,0.246-0.057,0.303
			c0,0.076,0.075,0.114,0.133,0.114h1.006c0.113,0,0.209-0.059,0.246-0.267l0.759-3.053l1.29-0.645
			c0.132-0.076,0.188-0.135,0.303-0.135c0.436,0,0.702,0.531,0.702,1.062c0,0.305-0.114,1.688-0.114,2.01
			c0,0.685,0.379,1.311,1.327,1.311c1.631,0,2.124-2.221,2.124-2.409c0-0.113-0.038-0.229-0.189-0.229
			c-0.15,0-0.188,0.267-0.285,0.569c-0.074,0.304-0.549,1.46-1.213,1.46c-0.113,0-0.397,0-0.397-0.436
			c0-0.493,0.057-1.007,0.057-1.498c0-1.557-0.872-1.804-1.745-2.012v-0.038c0.932-0.283,3.129-1.572,3.129-2.899
			C276.602,307.249,276.241,306.471,275.064,306.471 M267.48,307.552c0,1.005-1.176,2.901-3.642,3.889
			c0.986-3.339,2.162-4.607,3.034-4.607C267.215,306.832,267.48,307.078,267.48,307.552 M262.039,312.975
			c0,1.327,0.738,2.259,2.236,2.259c1.857,0,3.281-2.467,3.281-2.617c0-0.114-0.058-0.189-0.152-0.189
			c-0.075,0-0.133,0.058-0.229,0.189c-1.08,1.517-1.915,2.199-2.806,2.199c-0.646,0-0.986-0.438-0.986-1.194
			c0-0.512,0.229-1.422,0.36-1.783c3.316-1.194,4.74-2.673,4.74-3.963c0-0.758-0.492-1.403-1.402-1.403
			C264.617,306.471,262.039,310.396,262.039,312.975 M257.374,311.591c-0.114,0.512-0.341,1.557-0.341,2.256
			c0,1.14,0.814,1.387,1.402,1.387c1.84,0,2.578-2.522,2.578-2.714c0-0.094,0-0.265-0.15-0.265c-0.096,0-0.209,0.094-0.246,0.246
			c-0.607,1.688-1.311,2.2-1.783,2.2c-0.379,0-0.455-0.438-0.455-0.721c0-0.476,0.342-2.22,0.417-2.522l1.632-7.3
			c0.189-0.834,0.53-2.256,0.53-2.427c0-0.152-0.076-0.21-0.229-0.21c-0.281,0-1.59,0.189-2.481,0.189
			c-0.208,0-0.304,0.038-0.304,0.152c0,0.17,0.096,0.188,0.513,0.227c0.683,0.059,0.834,0.229,0.834,0.512
			c0,0.247-0.151,0.949-0.284,1.557L257.374,311.591z M254.833,307.552c0,1.005-1.175,2.901-3.64,3.889
			c0.984-3.339,2.16-4.607,3.033-4.607C254.568,306.832,254.833,307.078,254.833,307.552 M249.391,312.975
			c0,1.327,0.74,2.259,2.238,2.259c1.857,0,3.28-2.467,3.28-2.617c0-0.114-0.058-0.189-0.151-0.189
			c-0.076,0-0.133,0.058-0.228,0.189c-1.081,1.517-1.915,2.199-2.808,2.199c-0.645,0-0.984-0.438-0.984-1.194
			c0-0.512,0.227-1.422,0.359-1.783c3.317-1.194,4.739-2.673,4.739-3.963c0-0.758-0.493-1.403-1.403-1.403
			C251.971,306.471,249.391,310.396,249.391,312.975 M234.639,314.53c-0.019,0.095-0.057,0.246-0.057,0.303
			c0,0.076,0.076,0.114,0.133,0.114h1.006c0.113,0,0.209-0.059,0.246-0.267l0.682-2.653c0.569-2.237,2.029-4.949,3.338-4.949
			c0.455,0,0.664,0.171,0.664,0.813c0,0.873-1.231,4.874-1.231,5.975c0,0.683,0.379,1.366,1.308,1.366
			c1.612,0,2.332-2.617,2.332-2.864c0-0.094-0.037-0.17-0.132-0.17s-0.151,0.095-0.209,0.246c-0.341,0.984-0.891,2.181-1.573,2.181
			c-0.228,0-0.379-0.171-0.379-0.531c0-0.55,1.231-4.568,1.231-5.783c0-1.022-0.606-1.84-1.744-1.84
			c-1.536,0-2.562,2.012-3.147,3.072l-0.039-0.038c0.115-0.605,0.209-1.022,0.209-1.439c0-0.91-0.436-1.595-1.363-1.595
			c-1.612,0-2.333,2.617-2.333,2.863c0,0.095,0.038,0.171,0.133,0.171c0.114,0,0.171-0.095,0.209-0.245
			c0.435-1.479,1.099-2.182,1.479-2.182c0.359,0,0.531,0.247,0.531,0.872c0,0.359-0.115,1.422-0.305,2.219L234.639,314.53z
			 M231.643,307.552c0,1.005-1.175,2.901-3.64,3.889c0.986-3.339,2.161-4.607,3.034-4.607
			C231.378,306.832,231.643,307.078,231.643,307.552 M226.201,312.975c0,1.327,0.738,2.259,2.236,2.259
			c1.858,0,3.28-2.467,3.28-2.617c0-0.114-0.057-0.189-0.149-0.189c-0.076,0-0.135,0.058-0.229,0.189
			c-1.081,1.517-1.915,2.199-2.806,2.199c-0.646,0-0.986-0.438-0.986-1.194c0-0.512,0.227-1.422,0.36-1.783
			c3.317-1.194,4.739-2.673,4.739-3.963c0-0.758-0.492-1.403-1.402-1.403C228.779,306.471,226.201,310.396,226.201,312.975
			 M219.432,311.496l0.268-1.251h-4.665l-0.267,1.251H219.432z M207.43,307.552c0,1.005-1.176,2.901-3.641,3.889
			c0.984-3.339,2.162-4.607,3.034-4.607C207.164,306.832,207.43,307.078,207.43,307.552 M201.988,312.975
			c0,1.327,0.738,2.259,2.236,2.259c1.858,0,3.28-2.467,3.28-2.617c0-0.114-0.057-0.189-0.151-0.189
			c-0.076,0-0.133,0.058-0.229,0.189c-1.08,1.517-1.915,2.199-2.807,2.199c-0.646,0-0.985-0.438-0.985-1.194
			c0-0.512,0.228-1.422,0.36-1.783c3.318-1.194,4.74-2.673,4.74-3.963c0-0.758-0.494-1.403-1.402-1.403
			C204.566,306.471,201.988,310.396,201.988,312.975 M198.232,308.14c0,1.574-1.592,6.618-3.621,6.618c-0.284,0-1.043,0-1.043-1.271
			c0-1.727,1.726-6.601,3.679-6.601C197.911,306.888,198.232,307.457,198.232,308.14 M198.537,307.438h-0.038
			c-0.133-0.342-0.379-0.968-1.422-0.968c-2.484,0-4.854,3.889-4.854,6.146c0,1.289,0.646,2.617,2.123,2.617
			c1.594,0,2.354-1.498,3.034-2.808h0.038c-0.076,0.303-0.189,1.118-0.189,1.63c0,0.685,0.36,1.178,1.08,1.178
			c1.612,0,2.617-2.902,2.617-3.016c0-0.151-0.076-0.189-0.152-0.229c-0.17,0.038-0.188,0.076-0.358,0.493
			c-0.55,1.363-1.271,2.219-1.631,2.219c-0.306,0-0.36-0.323-0.36-0.607c0-0.53,0.303-2.219,0.569-3.146l2.427-8.798
			c0.057-0.173,0.096-0.322,0.096-0.438s-0.078-0.189-0.248-0.189s-1.289,0.172-2.502,0.305c-0.17,0.019-0.209,0.076-0.209,0.17
			c0,0.152,0.039,0.171,0.455,0.209c0.512,0.057,0.777,0.152,0.777,0.455c0,0.171-0.02,0.303-0.113,0.626L198.537,307.438z
			 M184.297,306.471c-1.611,0-2.333,2.617-2.333,2.863c0,0.095,0.038,0.171,0.134,0.171c0.094,0,0.151-0.095,0.209-0.245
			c0.492-1.44,1.023-2.182,1.555-2.182c0.228,0,0.397,0.171,0.397,0.493c0,0.529-1.231,4.606-1.231,5.819
			c0,0.986,0.605,1.842,1.742,1.842c1.537,0,2.562-2.012,3.148-3.072l0.038,0.038c-0.114,0.604-0.208,1.022-0.208,1.439
			c0,0.91,0.436,1.595,1.365,1.595c1.611,0,2.332-2.617,2.332-2.864c0-0.094-0.059-0.17-0.152-0.17
			c-0.113,0-0.189,0.076-0.246,0.246c-0.436,1.479-1.1,2.181-1.479,2.181c-0.305,0-0.476-0.247-0.476-0.872
			c0-0.361,0.114-1.423,0.304-2.219l0.968-4.494c0.019-0.095,0.057-0.227,0.057-0.303s-0.075-0.114-0.188-0.114h-0.947
			c-0.114,0-0.209,0.057-0.247,0.265l-0.664,2.789c-0.531,2.236-1.915,4.948-3.261,4.948c-0.455,0-0.74-0.228-0.74-0.702
			c0-0.985,1.23-5.062,1.23-6.011C185.604,306.983,185.227,306.471,184.297,306.471 M175.062,313.146
			c0-2.238,1.213-6.314,3.109-6.314c0.721,0,1.215,0.587,1.215,1.725c0,2.238-1.215,6.314-3.111,6.314
			C175.557,314.871,175.062,314.283,175.062,313.146 M173.716,312.255c0,1.839,1.043,2.979,2.484,2.979
			c2.731,0,4.532-3.584,4.532-5.784c0-1.839-1.043-2.979-2.484-2.979C175.518,306.471,173.716,310.055,173.716,312.255
			 M167.421,311.098c0.361-1.745,1.631-4.02,2.938-4.02c0.551,0,0.703,0.379,0.703,0.626c0,0.227,0,0.986-0.854,1.782
			C169.545,310.112,168.066,310.908,167.421,311.098 M170.777,306.471c-1.385,0-2.446,1.479-2.787,2.086h-0.038l0.967-4.397
			c0.19-0.834,0.531-2.256,0.531-2.427c0-0.152-0.076-0.209-0.228-0.209c-0.285,0-1.593,0.188-2.484,0.188
			c-0.209,0-0.303,0.038-0.303,0.152c0,0.17,0.094,0.188,0.512,0.227c0.683,0.059,0.835,0.229,0.835,0.512
			c0,0.247-0.152,0.949-0.285,1.557l-2.256,10.372c-0.019,0.095-0.057,0.246-0.057,0.303c0,0.076,0.076,0.114,0.133,0.114h1.005
			c0.113,0,0.208-0.059,0.247-0.267l0.758-3.053l1.29-0.645c0.133-0.076,0.19-0.135,0.303-0.135c0.437,0,0.702,0.531,0.702,1.062
			c0,0.305-0.114,1.688-0.114,2.01c0,0.685,0.38,1.311,1.327,1.311c1.631,0,2.124-2.221,2.124-2.409c0-0.113-0.038-0.229-0.19-0.229
			c-0.15,0-0.188,0.267-0.283,0.569c-0.076,0.304-0.551,1.46-1.213,1.46c-0.114,0-0.399,0-0.399-0.436
			c0-0.493,0.058-1.007,0.058-1.498c0-1.557-0.873-1.804-1.744-2.012v-0.038c0.928-0.283,3.127-1.572,3.127-2.899
			C172.312,307.249,171.953,306.471,170.777,306.471 M156.177,314.132c0,0.588,0.36,0.948,0.929,0.948
			c0.209,0,0.417-0.057,0.588-0.229c-0.019,1.062-0.607,1.915-1.764,2.484c-0.606,0.304-0.682,0.417-0.682,0.512
			c0,0.059,0.019,0.152,0.17,0.152c0.399,0,3.034-1.138,3.034-3.432c0-0.723-0.474-1.386-1.232-1.386
			C156.613,313.184,156.177,313.601,156.177,314.132 M148.763,311.496l0.266-1.251h-4.665l-0.265,1.251H148.763z M142.032,307.552
			c0,1.005-1.176,2.901-3.641,3.889c0.986-3.339,2.162-4.607,3.034-4.607C141.766,306.832,142.032,307.078,142.032,307.552
			 M136.59,312.975c0,1.327,0.739,2.259,2.237,2.259c1.859,0,3.281-2.467,3.281-2.617c0-0.114-0.057-0.189-0.152-0.189
			c-0.076,0-0.133,0.058-0.228,0.189c-1.08,1.517-1.915,2.199-2.806,2.199c-0.645,0-0.986-0.438-0.986-1.194
			c0-0.512,0.228-1.422,0.36-1.783c3.319-1.194,4.741-2.673,4.741-3.963c0-0.758-0.493-1.403-1.403-1.403
			C139.169,306.471,136.59,310.396,136.59,312.975 M133.954,303.077c0,0.455,0.379,0.834,0.835,0.834
			c0.455,0,0.834-0.379,0.834-0.834s-0.379-0.834-0.834-0.834C134.333,302.243,133.954,302.622,133.954,303.077 M131.565,313.904
			c0,0.776,0.436,1.328,1.251,1.328c1.593,0,2.75-2.714,2.75-2.826c0-0.113-0.057-0.208-0.19-0.208
			c-0.094,0-0.151,0.057-0.227,0.208c-0.797,1.593-1.536,2.295-1.953,2.295c-0.228,0-0.38-0.133-0.38-0.38
			c0-0.417,0.057-0.872,1.005-3.071c0.911-2.105,1.1-2.769,1.1-3.357c0-0.549-0.303-1.422-1.251-1.422
			c-1.347,0-2.522,2.333-2.522,2.522c0,0.133,0.038,0.228,0.133,0.228c0.094,0,0.17-0.038,0.227-0.15
			c0.398-0.948,1.195-2.067,1.801-2.067c0.228,0,0.361,0.171,0.361,0.474c0,0.344-0.114,0.872-0.91,2.771
			C131.717,312.691,131.565,313.316,131.565,313.904 M126.464,311.913c-0.132,0.605-0.341,1.479-0.341,2.029
			c0,1.043,0.702,1.29,1.327,1.29c0.835,0,1.252-0.382,1.802-1.178c0.17-0.266,0.815-1.536,0.815-1.707
			c0-0.111-0.019-0.208-0.171-0.208c-0.189,0-0.284,0.285-0.341,0.417c-0.246,0.531-0.929,2.145-1.65,2.145
			c-0.303,0-0.53-0.19-0.53-0.626c0-0.455,0.17-1.102,0.379-1.896l1.232-4.76h1.384c0.247,0,0.323-0.075,0.323-0.208
			c0-0.189-0.095-0.266-0.247-0.266h-1.365l0.55-2.012c0.057-0.188,0.095-0.32,0.095-0.491c0-0.38-0.398-0.417-0.702-0.417
			c-0.227,0-0.493,0.057-0.55,0.283l-0.739,2.637h-1.214c-0.246,0-0.36,0.057-0.36,0.266c0,0.17,0.133,0.208,0.265,0.208h1.214
			L126.464,311.913z M117.685,313.392c0-2.027,2.124-6.504,3.963-6.504c0.512,0,0.948,0.323,0.948,1.157
			c0,1.327-1.839,6.771-3.963,6.771C118.064,314.814,117.685,314.302,117.685,313.392 M116.339,312.71
			c0,1.573,0.796,2.522,2.199,2.522c1.176,0,2.181-0.986,2.939-2.562l0.038,0.038c-0.094,0.438-0.227,1.005-0.227,1.308
			c0,0.76,0.379,1.216,1.194,1.216c1.612,0,2.333-2.617,2.333-2.808c0-0.115-0.038-0.228-0.171-0.228
			c-0.114,0-0.19,0.076-0.228,0.246c-0.398,1.479-1.099,2.181-1.46,2.181c-0.265,0-0.417-0.171-0.417-0.493
			c0-0.474,0.209-2.312,1.498-6.144c0.152-0.493,0.266-0.777,0.266-0.968c0-0.189-0.209-0.397-0.759-0.397
			c-0.284,0-0.379,0.228-0.588,1.119l-0.037-0.021c-0.076-0.645-0.512-1.252-1.498-1.252
			C119.183,306.471,116.339,309.998,116.339,312.71 M111.902,311.591c-0.114,0.512-0.342,1.557-0.342,2.256
			c0,1.14,0.816,1.387,1.404,1.387c1.839,0,2.578-2.522,2.578-2.714c0-0.094,0-0.265-0.151-0.265c-0.095,0-0.209,0.094-0.247,0.246
			c-0.607,1.688-1.308,2.2-1.782,2.2c-0.379,0-0.455-0.438-0.455-0.721c0-0.476,0.341-2.22,0.417-2.522l1.631-7.3
			c0.189-0.834,0.531-2.256,0.531-2.427c0-0.152-0.076-0.21-0.228-0.21c-0.284,0-1.593,0.189-2.484,0.189
			c-0.209,0-0.303,0.038-0.303,0.152c0,0.17,0.094,0.188,0.512,0.227c0.682,0.059,0.834,0.229,0.834,0.512
			c0,0.247-0.152,0.949-0.284,1.557L111.902,311.591z M106.63,311.591c-0.113,0.512-0.341,1.557-0.341,2.256
			c0,1.14,0.816,1.387,1.403,1.387c1.84,0,2.579-2.522,2.579-2.714c0-0.094,0-0.265-0.152-0.265c-0.094,0-0.208,0.094-0.246,0.246
			c-0.607,1.688-1.308,2.2-1.782,2.2c-0.38,0-0.456-0.438-0.456-0.721c0-0.476,0.342-2.22,0.418-2.522l1.63-7.3
			c0.19-0.834,0.531-2.256,0.531-2.427c0-0.152-0.076-0.21-0.227-0.21c-0.285,0-1.593,0.189-2.484,0.189
			c-0.209,0-0.304,0.038-0.304,0.152c0,0.17,0.095,0.188,0.512,0.227c0.683,0.059,0.835,0.229,0.835,0.512
			c0,0.247-0.152,0.949-0.285,1.557L106.63,311.591z M97.662,313.392c0-2.027,2.123-6.504,3.963-6.504
			c0.512,0,0.948,0.323,0.948,1.157c0,1.327-1.84,6.771-3.963,6.771C98.041,314.814,97.662,314.302,97.662,313.392 M96.315,312.71
			c0,1.573,0.797,2.522,2.2,2.522c1.175,0,2.18-0.986,2.939-2.562l0.038,0.038c-0.095,0.438-0.228,1.005-0.228,1.308
			c0,0.76,0.38,1.216,1.195,1.216c1.612,0,2.332-2.617,2.332-2.808c0-0.115-0.038-0.228-0.17-0.228c-0.114,0-0.19,0.076-0.228,0.246
			c-0.398,1.479-1.1,2.181-1.46,2.181c-0.266,0-0.417-0.171-0.417-0.493c0-0.474,0.208-2.312,1.498-6.144
			c0.151-0.493,0.265-0.777,0.265-0.968c0-0.189-0.208-0.397-0.758-0.397c-0.285,0-0.379,0.228-0.588,1.119l-0.038-0.021
			c-0.076-0.645-0.512-1.252-1.498-1.252C99.16,306.471,96.315,309.998,96.315,312.71 M91.878,311.913
			c-0.133,0.605-0.341,1.479-0.341,2.029c0,1.043,0.701,1.29,1.327,1.29c0.835,0,1.252-0.382,1.802-1.178
			c0.17-0.266,0.815-1.536,0.815-1.707c0-0.111-0.019-0.208-0.171-0.208c-0.189,0-0.284,0.285-0.341,0.417
			c-0.247,0.531-0.929,2.145-1.65,2.145c-0.303,0-0.531-0.19-0.531-0.626c0-0.455,0.171-1.102,0.38-1.896l1.232-4.76h1.384
			c0.247,0,0.323-0.075,0.323-0.208c0-0.189-0.095-0.266-0.247-0.266h-1.365l0.55-2.012c0.057-0.188,0.095-0.32,0.095-0.491
			c0-0.38-0.399-0.417-0.702-0.417c-0.228,0-0.493,0.057-0.55,0.283l-0.739,2.637h-1.214c-0.246,0-0.36,0.057-0.36,0.266
			c0,0.17,0.133,0.208,0.265,0.208h1.214L91.878,311.913z M84.332,313.601c0,1.024,0.891,1.633,2.237,1.633
			c2.086,0,2.939-1.404,2.939-2.655c0-0.664-0.171-1.062-1.024-2.2c-1.081-1.422-1.232-1.858-1.232-2.294
			c0-0.796,0.606-1.251,1.403-1.251c0.645,0,0.853,0.208,0.853,0.663s0.114,0.645,0.474,0.645c0.304,0,0.474-0.188,0.474-0.512
			c0-0.664-0.739-1.157-1.706-1.157c-1.347,0-2.56,0.797-2.56,2.295c0,0.722,0.152,1.194,1.346,2.808
			c0.759,1.022,0.91,1.363,0.91,1.839c0,0.721-0.644,1.46-1.744,1.46c-0.74,0-1.309-0.303-1.309-0.815
			c0-0.188,0.076-0.379,0.076-0.567c0-0.284-0.208-0.551-0.569-0.551C84.578,312.938,84.332,313.165,84.332,313.601 M75.666,314.53
			c-0.019,0.095-0.057,0.246-0.057,0.303c0,0.076,0.076,0.114,0.133,0.114h1.005c0.114,0,0.209-0.059,0.246-0.267l0.683-2.653
			c0.569-2.237,2.029-4.949,3.337-4.949c0.455,0,0.664,0.171,0.664,0.813c0,0.873-1.233,4.874-1.233,5.975
			c0,0.683,0.38,1.366,1.309,1.366c1.612,0,2.332-2.617,2.332-2.864c0-0.094-0.038-0.17-0.133-0.17
			c-0.094,0-0.151,0.095-0.208,0.246c-0.342,0.984-0.891,2.181-1.574,2.181c-0.228,0-0.379-0.171-0.379-0.531
			c0-0.55,1.232-4.568,1.232-5.783c0-1.022-0.607-1.84-1.744-1.84c-1.536,0-2.56,2.012-3.148,3.072l-0.038-0.038
			c0.114-0.605,0.209-1.022,0.209-1.439c0-0.91-0.436-1.595-1.365-1.595c-1.612,0-2.333,2.617-2.333,2.863
			c0,0.095,0.038,0.171,0.133,0.171c0.114,0,0.171-0.095,0.209-0.245c0.436-1.479,1.099-2.182,1.479-2.182
			c0.36,0,0.531,0.247,0.531,0.872c0,0.359-0.114,1.422-0.304,2.219L75.666,314.53z M71.969,303.077
			c0,0.455,0.379,0.834,0.834,0.834c0.455,0,0.834-0.379,0.834-0.834s-0.379-0.834-0.834-0.834
			C72.348,302.243,71.969,302.622,71.969,303.077 M69.579,313.904c0,0.776,0.437,1.328,1.252,1.328c1.593,0,2.749-2.714,2.749-2.826
			c0-0.113-0.057-0.208-0.189-0.208c-0.095,0-0.152,0.057-0.228,0.208c-0.796,1.593-1.536,2.295-1.953,2.295
			c-0.227,0-0.379-0.133-0.379-0.38c0-0.417,0.057-0.872,1.005-3.071c0.91-2.105,1.1-2.769,1.1-3.357
			c0-0.549-0.304-1.422-1.252-1.422c-1.346,0-2.522,2.333-2.522,2.522c0,0.133,0.038,0.228,0.133,0.228
			c0.095,0,0.171-0.038,0.228-0.15c0.398-0.948,1.194-2.067,1.801-2.067c0.227,0,0.36,0.171,0.36,0.474
			c0,0.344-0.114,0.872-0.91,2.771C69.731,312.691,69.579,313.316,69.579,313.904 M60.383,314.132c0,0.588,0.36,0.948,0.929,0.948
			c0.209,0,0.417-0.057,0.588-0.229c-0.019,1.062-0.607,1.915-1.764,2.484c-0.606,0.304-0.682,0.417-0.682,0.512
			c0,0.059,0.019,0.152,0.17,0.152c0.399,0,3.034-1.138,3.034-3.432c0-0.723-0.474-1.386-1.232-1.386
			C60.819,313.184,60.383,313.601,60.383,314.132 M58.24,311.496l0.266-1.251h-4.665l-0.265,1.251H58.24z M48.779,311.591
			c-0.114,0.512-0.342,1.557-0.342,2.256c0,1.14,0.816,1.387,1.403,1.387c1.84,0,2.579-2.522,2.579-2.714
			c0-0.094,0-0.265-0.151-0.265c-0.095,0-0.209,0.094-0.247,0.246c-0.607,1.688-1.308,2.2-1.782,2.2
			c-0.38,0-0.455-0.438-0.455-0.721c0-0.476,0.341-2.22,0.417-2.522l1.63-7.3c0.19-0.834,0.531-2.256,0.531-2.427
			c0-0.152-0.076-0.21-0.227-0.21c-0.285,0-1.593,0.189-2.484,0.189c-0.209,0-0.304,0.038-0.304,0.152
			c0,0.17,0.095,0.188,0.512,0.227c0.683,0.059,0.835,0.229,0.835,0.512c0,0.247-0.152,0.949-0.285,1.557L48.779,311.591z
			 M39.81,313.392c0-2.027,2.123-6.504,3.963-6.504c0.512,0,0.948,0.323,0.948,1.157c0,1.327-1.84,6.771-3.963,6.771
			C40.189,314.814,39.81,314.302,39.81,313.392 M38.463,312.71c0,1.573,0.797,2.522,2.2,2.522c1.176,0,2.181-0.986,2.939-2.562
			l0.038,0.038c-0.095,0.438-0.228,1.005-0.228,1.308c0,0.76,0.38,1.216,1.195,1.216c1.612,0,2.332-2.617,2.332-2.808
			c0-0.115-0.038-0.228-0.17-0.228c-0.114,0-0.19,0.076-0.228,0.246c-0.398,1.479-1.1,2.181-1.46,2.181
			c-0.265,0-0.417-0.171-0.417-0.493c0-0.474,0.208-2.312,1.498-6.144c0.152-0.493,0.265-0.777,0.265-0.968
			c0-0.189-0.208-0.397-0.758-0.397c-0.285,0-0.379,0.228-0.588,1.119l-0.038-0.021c-0.076-0.645-0.512-1.252-1.498-1.252
			C41.308,306.471,38.463,309.998,38.463,312.71 M30.329,313.392c0-2.027,2.124-6.504,3.963-6.504c0.512,0,0.948,0.323,0.948,1.157
			c0,1.327-1.839,6.771-3.963,6.771C30.708,314.814,30.329,314.302,30.329,313.392 M28.983,312.71c0,1.573,0.796,2.522,2.199,2.522
			c1.176,0,2.181-0.986,2.939-2.562l0.038,0.038c-0.095,0.438-0.227,1.005-0.227,1.308c0,0.76,0.379,1.216,1.194,1.216
			c1.612,0,2.332-2.617,2.332-2.808c0-0.115-0.037-0.228-0.17-0.228c-0.114,0-0.19,0.076-0.228,0.246
			c-0.398,1.479-1.1,2.181-1.46,2.181c-0.265,0-0.417-0.171-0.417-0.493c0-0.474,0.209-2.312,1.498-6.144
			c0.152-0.493,0.265-0.777,0.265-0.968c0-0.189-0.208-0.397-0.758-0.397c-0.284,0-0.379,0.228-0.588,1.119l-0.038-0.021
			c-0.076-0.645-0.512-1.252-1.498-1.252C31.827,306.471,28.983,309.998,28.983,312.71 M24.545,311.913
			c-0.132,0.605-0.341,1.479-0.341,2.029c0,1.043,0.702,1.29,1.327,1.29c0.835,0,1.252-0.382,1.802-1.178
			c0.17-0.266,0.815-1.536,0.815-1.707c0-0.111-0.019-0.208-0.171-0.208c-0.189,0-0.284,0.285-0.341,0.417
			c-0.246,0.531-0.929,2.145-1.649,2.145c-0.304,0-0.531-0.19-0.531-0.626c0-0.455,0.17-1.102,0.379-1.896l1.232-4.76h1.385
			c0.246,0,0.322-0.075,0.322-0.208c0-0.189-0.095-0.266-0.247-0.266h-1.365l0.55-2.012c0.057-0.188,0.095-0.32,0.095-0.491
			c0-0.38-0.398-0.417-0.702-0.417c-0.227,0-0.493,0.057-0.55,0.283l-0.739,2.637h-1.214c-0.246,0-0.36,0.057-0.36,0.266
			c0,0.17,0.133,0.208,0.266,0.208h1.213L24.545,311.913z M22.194,307.552c0,1.005-1.175,2.901-3.64,3.889
			c0.986-3.339,2.161-4.607,3.034-4.607C21.929,306.832,22.194,307.078,22.194,307.552 M16.752,312.975
			c0,1.327,0.74,2.259,2.238,2.259c1.858,0,3.28-2.467,3.28-2.617c0-0.114-0.057-0.189-0.152-0.189
			c-0.075,0-0.132,0.058-0.227,0.189c-1.081,1.517-1.915,2.199-2.806,2.199c-0.645,0-0.986-0.438-0.986-1.194
			c0-0.512,0.227-1.422,0.36-1.783c3.318-1.194,4.74-2.673,4.74-3.963c0-0.758-0.493-1.403-1.403-1.403
			C19.331,306.471,16.752,310.396,16.752,312.975 M3.062,314.53c-0.019,0.095-0.057,0.246-0.057,0.303
			c0,0.076,0.076,0.114,0.133,0.114h1.005c0.114,0,0.208-0.059,0.246-0.267l0.683-2.653c0.569-2.22,2.029-4.949,3.11-4.949
			c0.36,0,0.531,0.247,0.531,0.872c0,0.359-0.114,1.422-0.304,2.219l-0.986,4.361c-0.019,0.095-0.057,0.246-0.057,0.303
			c0,0.076,0.076,0.114,0.133,0.114h1.005c0.114,0,0.209-0.059,0.247-0.267l0.682-2.653c0.569-2.237,2.067-4.949,3.28-4.949
			c0.361,0,0.569,0.284,0.569,0.813c0,0.873-1.232,4.874-1.232,5.975c0,0.683,0.379,1.366,1.308,1.366
			c1.612,0,2.332-2.617,2.332-2.864c0-0.094-0.037-0.17-0.132-0.17c-0.095,0-0.152,0.095-0.209,0.246
			c-0.341,0.984-0.891,2.181-1.574,2.181c-0.227,0-0.379-0.171-0.379-0.531c0-0.55,1.233-4.568,1.233-5.783
			c0-0.984-0.607-1.84-1.612-1.84c-1.536,0-2.56,1.991-3.129,3.072l-0.038-0.038c0.114-0.605,0.209-1.022,0.209-1.439
			c0-0.91-0.455-1.595-1.403-1.595c-1.536,0-2.56,1.991-3.129,3.072l-0.038-0.038c0.114-0.605,0.209-1.022,0.209-1.439
			c0-0.91-0.436-1.595-1.366-1.595c-1.479,0-2.332,2.37-2.332,2.863c0,0.095,0.057,0.171,0.152,0.171
			c0.114,0,0.189-0.076,0.246-0.245c0.436-1.479,1.1-2.182,1.479-2.182c0.304,0,0.474,0.247,0.474,0.872
			c0,0.359-0.113,1.422-0.303,2.219L3.062,314.53z"/>
	</g>
	<g>
		<defs>
			<rect id="SVGID_15_" width="360" height="320"/>
		</defs>
		<clipPath id="SVGID_16_">
			<use xlink:href="#SVGID_15_"  overflow="visible"/>
		</clipPath>
		<path clip-path="url(#SVGID_16_)" fill="#FFFFFF" d="M273.49,279.471c0,1.022,0.892,1.631,2.236,1.631
			c2.086,0,2.939-1.403,2.939-2.654c0-0.664-0.172-1.062-1.023-2.2c-1.082-1.422-1.232-1.856-1.232-2.294
			c0-0.797,0.605-1.252,1.402-1.252c0.646,0,0.854,0.209,0.854,0.664s0.112,0.646,0.474,0.646c0.305,0,0.474-0.19,0.474-0.513
			c0-0.664-0.737-1.157-1.705-1.157c-1.347,0-2.56,0.796-2.56,2.295c0,0.722,0.15,1.194,1.346,2.808
			c0.759,1.022,0.91,1.365,0.91,1.839c0,0.72-0.645,1.46-1.744,1.46c-0.74,0-1.309-0.303-1.309-0.814
			c0-0.189,0.075-0.381,0.075-0.568c0-0.285-0.208-0.551-0.569-0.551C273.734,278.807,273.49,279.033,273.49,279.471
			 M269.205,280.816l1.327-3.83c0.245-0.702,0.606-1.67,1.042-2.484c0.418-0.814,0.91-1.555,1.365-1.555
			c0.17,0,0.189,0.15,0.189,0.436c0,0.36,0.285,0.569,0.664,0.569c0.341,0,0.684-0.323,0.684-0.722c0-0.568-0.533-0.892-1.062-0.892
			c-1.536,0-2.579,2.693-2.9,3.584h-0.039c0.039-0.342,0.189-1.555,0.189-1.914c0-1.573-0.948-1.67-1.1-1.67
			c-1.043,0-1.821,1.498-2.371,2.541c-0.058,0.114-0.133,0.246-0.133,0.36c0,0.095,0.075,0.171,0.113,0.171
			c0.076,0,0.151-0.019,0.189-0.095c0.244-0.418,0.871-1.594,1.062-1.82c0.246-0.285,0.455-0.551,0.72-0.551
			c0.381,0,0.381,0.721,0.381,1.006c0,0.17-0.039,1.592-0.74,3.925l-0.891,2.938h1.311V280.816z M265.471,273.421
			c0,1.006-1.177,2.901-3.643,3.888c0.986-3.336,2.162-4.607,3.033-4.607C265.203,272.7,265.471,272.947,265.471,273.421
			 M260.027,278.844c0,1.327,0.738,2.258,2.236,2.258c1.859,0,3.281-2.466,3.281-2.617c0-0.113-0.059-0.189-0.152-0.189
			c-0.076,0-0.133,0.059-0.227,0.189c-1.081,1.517-1.916,2.199-2.809,2.199c-0.645,0-0.984-0.437-0.984-1.193
			c0-0.512,0.229-1.424,0.359-1.783c3.318-1.193,4.74-2.673,4.74-3.963c0-0.758-0.492-1.403-1.404-1.403
			C262.605,272.34,260.027,276.266,260.027,278.844 M256.271,274.01c0,1.572-1.592,6.616-3.621,6.616c-0.284,0-1.043,0-1.043-1.271
			c0-1.727,1.727-6.6,3.68-6.6C255.95,272.757,256.271,273.326,256.271,274.01 M256.576,273.309h-0.037
			c-0.135-0.343-0.38-0.969-1.423-0.969c-2.483,0-4.854,3.889-4.854,6.145c0,1.289,0.645,2.617,2.123,2.617
			c1.594,0,2.352-1.498,3.034-2.808h0.038c-0.076,0.304-0.189,1.119-0.189,1.632c0,0.682,0.36,1.176,1.08,1.176
			c1.612,0,2.617-2.901,2.617-3.017c0-0.149-0.076-0.188-0.152-0.228c-0.17,0.039-0.188,0.076-0.359,0.494
			c-0.551,1.363-1.27,2.217-1.631,2.217c-0.303,0-0.359-0.321-0.359-0.605c0-0.529,0.305-2.219,0.568-3.146l2.428-8.799
			c0.057-0.17,0.096-0.322,0.096-0.437s-0.076-0.188-0.248-0.188c-0.17,0-1.289,0.17-2.502,0.303
			c-0.171,0.019-0.209,0.076-0.209,0.171c0,0.151,0.038,0.171,0.455,0.209c0.512,0.056,0.776,0.151,0.776,0.454
			c0,0.171-0.019,0.304-0.112,0.625L256.576,273.309z M247.91,268.945c0,0.455,0.381,0.835,0.835,0.835
			c0.455,0,0.835-0.38,0.835-0.835c0-0.454-0.38-0.834-0.835-0.834C248.291,268.111,247.91,268.491,247.91,268.945 M245.521,279.773
			c0,0.776,0.437,1.326,1.252,1.326c1.593,0,2.748-2.711,2.748-2.824c0-0.114-0.057-0.209-0.188-0.209
			c-0.096,0-0.152,0.057-0.229,0.209c-0.797,1.593-1.537,2.293-1.953,2.293c-0.229,0-0.379-0.131-0.379-0.379
			c0-0.416,0.058-0.871,1.004-3.071c0.91-2.104,1.101-2.769,1.101-3.356c0-0.55-0.304-1.422-1.251-1.422
			c-1.348,0-2.521,2.332-2.521,2.521c0,0.134,0.037,0.228,0.131,0.228c0.098,0,0.172-0.036,0.229-0.149
			c0.397-0.948,1.194-2.067,1.802-2.067c0.228,0,0.36,0.171,0.36,0.474c0,0.342-0.114,0.873-0.91,2.77
			C245.674,278.561,245.521,279.186,245.521,279.773 M243.342,273.421c0,1.006-1.176,2.901-3.642,3.888
			c0.985-3.336,2.161-4.607,3.034-4.607C243.075,272.7,243.342,272.947,243.342,273.421 M237.898,278.844
			c0,1.327,0.74,2.258,2.237,2.258c1.858,0,3.281-2.466,3.281-2.617c0-0.113-0.058-0.189-0.151-0.189
			c-0.076,0-0.134,0.059-0.229,0.189c-1.079,1.517-1.914,2.199-2.806,2.199c-0.646,0-0.986-0.437-0.986-1.193
			c0-0.512,0.229-1.424,0.359-1.783c3.319-1.193,4.742-2.673,4.742-3.963c0-0.758-0.494-1.403-1.404-1.403
			C240.479,272.34,237.898,276.266,237.898,278.844 M233.234,277.46c-0.114,0.513-0.342,1.556-0.342,2.256
			c0,1.14,0.815,1.386,1.403,1.386c1.839,0,2.579-2.522,2.579-2.711c0-0.097,0-0.268-0.152-0.268c-0.095,0-0.207,0.096-0.246,0.247
			c-0.606,1.688-1.309,2.198-1.783,2.198c-0.379,0-0.455-0.437-0.455-0.719c0-0.476,0.344-2.221,0.418-2.522l1.631-7.3
			c0.189-0.836,0.531-2.258,0.531-2.428c0-0.151-0.076-0.209-0.229-0.209c-0.283,0-1.592,0.189-2.484,0.189
			c-0.207,0-0.303,0.038-0.303,0.15c0,0.172,0.096,0.189,0.512,0.229c0.685,0.059,0.834,0.229,0.834,0.514
			c0,0.245-0.149,0.946-0.283,1.555L233.234,277.46z M230.693,273.421c0,1.006-1.176,2.901-3.641,3.888
			c0.986-3.336,2.162-4.607,3.034-4.607C230.43,272.7,230.693,272.947,230.693,273.421 M225.253,278.844
			c0,1.327,0.738,2.258,2.236,2.258c1.858,0,3.28-2.466,3.28-2.617c0-0.113-0.058-0.189-0.151-0.189
			c-0.075,0-0.134,0.059-0.228,0.189c-1.082,1.517-1.916,2.199-2.807,2.199c-0.646,0-0.986-0.437-0.986-1.193
			c0-0.512,0.228-1.424,0.36-1.783c3.317-1.193,4.739-2.673,4.739-3.963c0-0.758-0.492-1.403-1.402-1.403
			C227.831,272.34,225.253,276.266,225.253,278.844 M222.01,274.255c0,0.455-0.512,4.097-2.352,4.097
			c-0.815,0-1.215-0.513-1.215-1.459c0-0.685,0.703-4.136,2.295-4.136C221.818,272.757,222.01,273.459,222.01,274.255
			 M218.218,280.418c-0.53-0.095-0.797-0.322-0.797-0.777c0-0.283,0.267-0.834,1.384-0.854l0.702-0.02
			c2.845-0.133,3.754-2.599,3.754-4.059c0-0.436-0.132-0.854-0.228-1.081c0.379-0.265,0.721-0.53,0.93-0.53s0.247,0.189,0.283,0.551
			c0.059,0.379,0.305,0.568,0.589,0.568c0.149,0,0.646-0.113,0.646-0.662c0-0.932-0.664-1.062-1.062-1.062
			c-0.684,0-1.156,0.379-1.594,0.738c-0.359-0.455-0.797-0.892-2.028-0.892c-1.819,0-3.603,2.124-3.603,3.906
			c0,1.233,0.625,1.688,1.309,2.181c-1.232,0.133-2.219,0.815-2.219,1.782c0,1.612,2.807,1.896,3.926,2.048
			c1.117,0.152,1.896,0.438,1.896,1.461c0,1.535-1.688,1.99-2.938,1.99c-1.252,0-2.771-0.626-2.771-2.104
			c0-0.931,0.685-1.213,0.892-1.348c-0.188-0.133-0.321-0.209-0.644-0.209c-0.742,0-1.385,0.607-1.385,1.518
			c0,1.727,2.236,2.561,3.906,2.561c2.218,0,3.963-0.91,3.963-2.958c0-1.384-0.91-2.104-2.199-2.312L218.218,280.418z
			 M214.312,273.421c0,1.006-1.177,2.901-3.642,3.888c0.985-3.336,2.162-4.607,3.034-4.607
			C214.046,272.7,214.312,272.947,214.312,273.421 M208.869,278.844c0,1.327,0.738,2.258,2.236,2.258
			c1.858,0,3.281-2.466,3.281-2.617c0-0.113-0.057-0.189-0.152-0.189c-0.075,0-0.133,0.059-0.228,0.189
			c-1.081,1.517-1.915,2.199-2.807,2.199c-0.646,0-0.985-0.437-0.985-1.193c0-0.512,0.227-1.424,0.359-1.783
			c3.318-1.193,4.74-2.673,4.74-3.963c0-0.758-0.492-1.403-1.403-1.403C211.447,272.34,208.869,276.266,208.869,278.844
			 M204.072,270.027c0.188-0.836,0.531-2.258,0.531-2.428c0-0.151-0.076-0.209-0.229-0.209c-0.284,0-1.594,0.189-2.484,0.189
			c-0.209,0-0.303,0.038-0.303,0.15c0,0.172,0.094,0.189,0.512,0.229c0.683,0.059,0.834,0.229,0.834,0.514
			c0,0.245-0.151,0.946-0.283,1.555l-1.461,6.769c-0.094,0.397-0.359,1.498-0.359,2.104c0,1.365,0.891,2.199,2.352,2.199
			c2.389,0,4.627-3.697,4.627-6.123c0-1.252-0.627-2.638-2.295-2.638c-1.156,0-1.82,0.968-2.427,1.974h-0.038L204.072,270.027z
			 M202.082,279.166c0-1.119,1.346-6.352,3.261-6.352c0.664,0,1.043,0.625,1.043,1.439c0,1.915-1.346,6.484-3.204,6.484
			C202.365,280.74,202.082,280.076,202.082,279.166 M198.952,277.365l0.267-1.252h-4.664l-0.266,1.252H198.952z M179.404,280.398
			c-0.02,0.095-0.058,0.246-0.058,0.304c0,0.075,0.076,0.114,0.134,0.114h1.004c0.114,0,0.208-0.058,0.247-0.267l0.684-2.653
			c0.568-2.238,2.027-4.949,3.337-4.949c0.455,0,0.664,0.17,0.664,0.814c0,0.872-1.233,4.873-1.233,5.973
			c0,0.684,0.379,1.365,1.31,1.365c1.61,0,2.332-2.615,2.332-2.863c0-0.094-0.038-0.17-0.134-0.17c-0.094,0-0.151,0.095-0.209,0.246
			c-0.34,0.985-0.891,2.181-1.572,2.181c-0.229,0-0.381-0.17-0.381-0.53c0-0.55,1.234-4.568,1.234-5.783
			c0-1.023-0.609-1.84-1.746-1.84c-1.535,0-2.559,2.012-3.146,3.072l-0.037-0.038c0.113-0.606,0.208-1.022,0.208-1.44
			c0-0.91-0.437-1.594-1.365-1.594c-1.611,0-2.332,2.617-2.332,2.863c0,0.095,0.038,0.171,0.133,0.171
			c0.113,0,0.17-0.095,0.208-0.247c0.437-1.479,1.101-2.18,1.479-2.18c0.36,0,0.53,0.246,0.53,0.871c0,0.361-0.113,1.423-0.303,2.22
			L179.404,280.398z M176.408,273.421c0,1.006-1.176,2.901-3.642,3.888c0.986-3.336,2.162-4.607,3.034-4.607
			C176.143,272.7,176.408,272.947,176.408,273.421 M170.966,278.844c0,1.327,0.739,2.258,2.237,2.258
			c1.859,0,3.281-2.466,3.281-2.617c0-0.113-0.058-0.189-0.152-0.189c-0.076,0-0.133,0.059-0.227,0.189
			c-1.082,1.517-1.916,2.199-2.808,2.199c-0.644,0-0.985-0.437-0.985-1.193c0-0.512,0.227-1.424,0.36-1.783
			c3.317-1.193,4.739-2.673,4.739-3.963c0-0.758-0.492-1.403-1.402-1.403C173.545,272.34,170.966,276.266,170.966,278.844
			 M158.565,279.471c0,1.022,0.891,1.631,2.238,1.631c2.085,0,2.939-1.403,2.939-2.654c0-0.664-0.171-1.062-1.024-2.2
			c-1.081-1.422-1.233-1.856-1.233-2.294c0-0.797,0.607-1.252,1.403-1.252c0.645,0,0.854,0.209,0.854,0.664s0.114,0.646,0.474,0.646
			c0.303,0,0.474-0.19,0.474-0.513c0-0.664-0.74-1.157-1.707-1.157c-1.346,0-2.56,0.796-2.56,2.295c0,0.722,0.152,1.194,1.347,2.808
			c0.758,1.022,0.91,1.365,0.91,1.839c0,0.72-0.645,1.46-1.745,1.46c-0.739,0-1.308-0.303-1.308-0.814
			c0-0.189,0.076-0.381,0.076-0.568c0-0.285-0.209-0.551-0.569-0.551C158.812,278.807,158.565,279.033,158.565,279.471
			 M154.28,280.816l1.327-3.83c0.247-0.702,0.607-1.67,1.043-2.484c0.417-0.814,0.91-1.555,1.365-1.555
			c0.171,0,0.19,0.15,0.19,0.436c0,0.36,0.284,0.569,0.664,0.569c0.341,0,0.682-0.323,0.682-0.722c0-0.568-0.531-0.892-1.062-0.892
			c-1.535,0-2.578,2.693-2.901,3.584h-0.038c0.038-0.342,0.19-1.555,0.19-1.914c0-1.573-0.948-1.67-1.1-1.67
			c-1.043,0-1.82,1.498-2.37,2.541c-0.057,0.114-0.133,0.246-0.133,0.36c0,0.095,0.076,0.171,0.114,0.171
			c0.076,0,0.152-0.019,0.19-0.095c0.246-0.418,0.872-1.594,1.061-1.82c0.247-0.285,0.456-0.551,0.721-0.551
			c0.379,0,0.379,0.721,0.379,1.006c0,0.17-0.038,1.592-0.739,3.925l-0.891,2.938h1.308V280.816z M150.545,273.421
			c0,1.006-1.176,2.901-3.641,3.888c0.986-3.336,2.162-4.607,3.034-4.607C150.279,272.7,150.545,272.947,150.545,273.421
			 M145.103,278.844c0,1.327,0.739,2.258,2.237,2.258c1.858,0,3.28-2.466,3.28-2.617c0-0.113-0.056-0.189-0.151-0.189
			c-0.076,0-0.133,0.059-0.228,0.189c-1.081,1.517-1.915,2.199-2.806,2.199c-0.645,0-0.986-0.437-0.986-1.193
			c0-0.512,0.227-1.424,0.36-1.783c3.318-1.193,4.741-2.673,4.741-3.963c0-0.758-0.493-1.403-1.404-1.403
			C147.681,272.34,145.103,276.266,145.103,278.844 M141.348,274.01c0,1.572-1.593,6.616-3.621,6.616c-0.285,0-1.043,0-1.043-1.271
			c0-1.727,1.725-6.6,3.678-6.6C141.026,272.757,141.348,273.326,141.348,274.01 M141.652,273.309h-0.038
			c-0.133-0.343-0.38-0.969-1.422-0.969c-2.484,0-4.855,3.889-4.855,6.145c0,1.289,0.645,2.617,2.124,2.617
			c1.593,0,2.351-1.498,3.034-2.808h0.038c-0.076,0.304-0.19,1.119-0.19,1.632c0,0.682,0.361,1.176,1.081,1.176
			c1.612,0,2.617-2.901,2.617-3.017c0-0.149-0.076-0.188-0.152-0.228c-0.171,0.039-0.19,0.076-0.36,0.494
			c-0.55,1.363-1.271,2.217-1.631,2.217c-0.303,0-0.36-0.321-0.36-0.605c0-0.529,0.303-2.219,0.569-3.146l2.427-8.799
			c0.057-0.17,0.095-0.322,0.095-0.437s-0.076-0.188-0.247-0.188c-0.171,0-1.289,0.17-2.503,0.303
			c-0.171,0.019-0.208,0.076-0.208,0.171c0,0.151,0.037,0.171,0.455,0.209c0.512,0.056,0.777,0.151,0.777,0.454
			c0,0.171-0.019,0.304-0.114,0.625L141.652,273.309z M132.986,268.945c0,0.455,0.379,0.835,0.834,0.835
			c0.456,0,0.835-0.38,0.835-0.835c0-0.454-0.379-0.834-0.835-0.834C133.365,268.111,132.986,268.491,132.986,268.945
			 M130.597,279.773c0,0.776,0.436,1.326,1.251,1.326c1.593,0,2.75-2.711,2.75-2.824c0-0.114-0.057-0.209-0.19-0.209
			c-0.095,0-0.151,0.057-0.227,0.209c-0.797,1.593-1.536,2.293-1.953,2.293c-0.228,0-0.38-0.131-0.38-0.379
			c0-0.416,0.057-0.871,1.005-3.071c0.911-2.104,1.1-2.769,1.1-3.356c0-0.55-0.303-1.422-1.251-1.422
			c-1.347,0-2.522,2.332-2.522,2.521c0,0.134,0.038,0.228,0.133,0.228c0.094,0,0.17-0.036,0.227-0.149
			c0.398-0.948,1.195-2.067,1.801-2.067c0.228,0,0.361,0.171,0.361,0.474c0,0.342-0.114,0.873-0.91,2.77
			C130.749,278.561,130.597,279.186,130.597,279.773 M128.417,273.421c0,1.006-1.176,2.901-3.641,3.888
			c0.986-3.336,2.162-4.607,3.034-4.607C128.151,272.7,128.417,272.947,128.417,273.421 M122.975,278.844
			c0,1.327,0.739,2.258,2.237,2.258c1.858,0,3.28-2.466,3.28-2.617c0-0.113-0.057-0.189-0.151-0.189
			c-0.076,0-0.133,0.059-0.228,0.189c-1.081,1.517-1.915,2.199-2.806,2.199c-0.645,0-0.986-0.437-0.986-1.193
			c0-0.512,0.227-1.424,0.36-1.783c3.318-1.193,4.74-2.673,4.74-3.963c0-0.758-0.493-1.403-1.403-1.403
			C125.553,272.34,122.975,276.266,122.975,278.844 M118.31,277.46c-0.114,0.513-0.341,1.556-0.341,2.256
			c0,1.14,0.815,1.386,1.403,1.386c1.839,0,2.579-2.522,2.579-2.711c0-0.097,0-0.268-0.152-0.268c-0.095,0-0.209,0.096-0.247,0.247
			c-0.606,1.688-1.308,2.198-1.782,2.198c-0.379,0-0.455-0.437-0.455-0.719c0-0.476,0.341-2.221,0.417-2.522l1.631-7.3
			c0.189-0.836,0.531-2.258,0.531-2.428c0-0.151-0.076-0.209-0.228-0.209c-0.284,0-1.593,0.189-2.484,0.189
			c-0.208,0-0.303,0.038-0.303,0.15c0,0.172,0.095,0.189,0.512,0.229c0.682,0.059,0.834,0.229,0.834,0.514
			c0,0.245-0.152,0.946-0.284,1.555L118.31,277.46z M110.915,279.204c-0.057-1.839,1.498-6.447,3.318-6.447
			c0.759,0,1.062,0.607,1.1,1.536c0.038,1.385-1.289,6.391-3.356,6.391C111.389,280.684,110.953,280.096,110.915,279.204
			 M108.128,285.006c-0.133,0.588-0.55,0.76-0.892,0.76c-0.303,0-0.417,0.075-0.417,0.228c0.019,0.133,0.095,0.19,0.247,0.19
			c0.606,0,1.194-0.059,1.801-0.059c0.303,0,0.588,0.02,0.891,0.02c0.304,0.02,0.607,0.039,0.891,0.039
			c0.152,0,0.228-0.059,0.209-0.19c0-0.151-0.114-0.228-0.417-0.228c-0.645,0-0.872-0.342-0.872-0.589
			c0-0.151,0.019-0.341,0.075-0.588l0.986-4.551h0.038c0.152,0.569,0.721,1.062,1.517,1.062c2.522,0,4.608-3.582,4.513-6.182
			c-0.057-1.536-0.891-2.579-2.218-2.579c-1.252,0-2.086,1.043-2.712,2.274l-0.038-0.037l0.986-4.19
			c0.057-0.245,0.095-0.358,0.095-0.645c0-0.228-0.303-0.284-0.607-0.284c-0.36,0-0.474,0.059-0.569,0.417l-0.682,2.37
			c-0.19,0.646-0.417,0.947-1.214,1.535c-1.289,0.949-1.706,2.104-1.706,2.484c0.019,0.113,0.057,0.172,0.17,0.172
			c0.095,0,0.171-0.059,0.19-0.172c0.303-1.043,1.536-2.39,2.01-2.39c0.133,0,0.133,0.134,0.133,0.267
			c0,0.266-0.038,0.549-0.095,0.758L108.128,285.006z M101.321,279.016c0-2.238,1.213-6.314,3.109-6.314
			c0.721,0,1.214,0.588,1.214,1.727c0,2.236-1.214,6.313-3.11,6.313C101.814,280.74,101.321,280.152,101.321,279.016
			 M99.974,278.123c0,1.84,1.043,2.979,2.484,2.979c2.731,0,4.532-3.584,4.532-5.783c0-1.84-1.043-2.979-2.484-2.979
			C101.776,272.34,99.974,275.924,99.974,278.123 M93.679,276.968c0.361-1.745,1.631-4.021,2.939-4.021
			c0.55,0,0.702,0.379,0.702,0.625c0,0.229,0,0.986-0.853,1.783C95.803,275.98,94.324,276.777,93.679,276.968 M97.036,272.34
			c-1.385,0-2.447,1.479-2.788,2.087H94.21l0.967-4.399c0.19-0.834,0.531-2.256,0.531-2.426c0-0.152-0.076-0.209-0.227-0.209
			c-0.285,0-1.593,0.188-2.484,0.188c-0.209,0-0.304,0.038-0.304,0.151c0,0.17,0.095,0.188,0.512,0.228
			c0.683,0.058,0.835,0.228,0.835,0.513c0,0.246-0.152,0.947-0.285,1.555L91.499,280.4c-0.019,0.094-0.057,0.246-0.057,0.303
			c0,0.076,0.076,0.113,0.133,0.113h1.005c0.113,0,0.208-0.057,0.246-0.266l0.758-3.053l1.29-0.645
			c0.133-0.076,0.19-0.135,0.303-0.135c0.436,0,0.702,0.531,0.702,1.062c0,0.303-0.114,1.688-0.114,2.01
			c0,0.684,0.379,1.309,1.327,1.309c1.631,0,2.124-2.219,2.124-2.408c0-0.113-0.038-0.228-0.19-0.228
			c-0.151,0-0.189,0.267-0.284,0.568c-0.076,0.304-0.55,1.46-1.213,1.46c-0.114,0-0.399,0-0.399-0.436
			c0-0.494,0.057-1.006,0.057-1.498c0-1.556-0.872-1.803-1.744-2.012v-0.037c0.929-0.283,3.128-1.572,3.128-2.9
			C98.571,273.117,98.211,272.34,97.036,272.34 M89.375,268.945c0,0.455,0.379,0.835,0.834,0.835s0.835-0.38,0.835-0.835
			c0-0.454-0.38-0.834-0.835-0.834S89.375,268.491,89.375,268.945 M86.569,282.6c-0.588,2.256-1.29,3.108-2.029,3.108
			c-0.436,0-0.607-0.151-0.702-0.531c-0.095-0.379-0.265-0.645-0.588-0.645c-0.303,0-0.493,0.229-0.493,0.569
			c0,0.645,0.797,1.022,1.65,1.022c1.688,0,2.863-1.289,3.925-5.024c1.65-5.82,1.839-6.92,1.839-7.735
			c0-0.646-0.398-1.024-0.948-1.024c-0.815,0-1.801,0.815-2.882,2.541c-0.095,0.152-0.133,0.266-0.133,0.342
			c0,0.075,0.057,0.151,0.171,0.151c0.133,0,0.228-0.095,0.379-0.341c0.929-1.518,1.479-2.01,1.84-2.01
			c0.151,0,0.227,0.094,0.227,0.358c0,0.38-0.095,0.968-0.246,1.536L86.569,282.6z M84.047,268.945c0,0.455,0.379,0.835,0.834,0.835
			s0.834-0.38,0.834-0.835c0-0.454-0.379-0.834-0.834-0.834S84.047,268.491,84.047,268.945 M81.658,279.773
			c0,0.776,0.436,1.326,1.251,1.326c1.593,0,2.75-2.711,2.75-2.824c0-0.114-0.057-0.209-0.19-0.209
			c-0.095,0-0.152,0.057-0.228,0.209c-0.796,1.593-1.536,2.293-1.953,2.293c-0.227,0-0.379-0.131-0.379-0.379
			c0-0.416,0.057-0.871,1.005-3.071c0.91-2.104,1.1-2.769,1.1-3.356c0-0.55-0.304-1.422-1.252-1.422
			c-1.346,0-2.522,2.332-2.522,2.521c0,0.134,0.038,0.228,0.133,0.228c0.095,0,0.171-0.036,0.228-0.149
			c0.398-0.948,1.194-2.067,1.801-2.067c0.228,0,0.36,0.171,0.36,0.474c0,0.342-0.113,0.873-0.91,2.77
			C81.809,278.561,81.658,279.186,81.658,279.773 M76.557,277.782c-0.133,0.606-0.341,1.479-0.341,2.028
			c0,1.043,0.701,1.289,1.327,1.289c0.834,0,1.251-0.379,1.801-1.175c0.171-0.267,0.816-1.536,0.816-1.707
			c0-0.114-0.019-0.208-0.171-0.208c-0.19,0-0.284,0.283-0.341,0.416c-0.247,0.531-0.929,2.143-1.65,2.143
			c-0.303,0-0.531-0.188-0.531-0.625c0-0.454,0.171-1.101,0.379-1.896l1.233-4.759h1.384c0.247,0,0.322-0.076,0.322-0.209
			c0-0.188-0.094-0.265-0.246-0.265h-1.365l0.55-2.011c0.056-0.19,0.094-0.321,0.094-0.493c0-0.379-0.398-0.416-0.701-0.416
			c-0.228,0-0.493,0.057-0.55,0.282l-0.74,2.638h-1.213c-0.247,0-0.36,0.057-0.36,0.265c0,0.171,0.132,0.209,0.265,0.209h1.214
			L76.557,277.782z M70.015,276.968c0.361-1.745,1.631-4.021,2.939-4.021c0.55,0,0.702,0.379,0.702,0.625
			c0,0.229,0,0.986-0.853,1.783C72.139,275.98,70.66,276.777,70.015,276.968 M73.372,272.34c-1.385,0-2.446,1.479-2.788,2.087
			h-0.038l0.967-4.399c0.19-0.834,0.531-2.256,0.531-2.426c0-0.152-0.076-0.209-0.227-0.209c-0.285,0-1.593,0.188-2.484,0.188
			c-0.209,0-0.304,0.038-0.304,0.151c0,0.17,0.095,0.188,0.512,0.228c0.683,0.058,0.835,0.228,0.835,0.513
			c0,0.246-0.152,0.947-0.285,1.555L67.835,280.4c-0.019,0.094-0.057,0.246-0.057,0.303c0,0.076,0.076,0.113,0.133,0.113h1.005
			c0.113,0,0.208-0.057,0.246-0.266l0.759-3.053l1.289-0.645c0.133-0.076,0.19-0.135,0.303-0.135c0.437,0,0.702,0.531,0.702,1.062
			c0,0.303-0.114,1.688-0.114,2.01c0,0.684,0.379,1.309,1.328,1.309c1.63,0,2.123-2.219,2.123-2.408
			c0-0.113-0.038-0.228-0.189-0.228c-0.152,0-0.19,0.267-0.285,0.568c-0.076,0.304-0.55,1.46-1.213,1.46
			c-0.114,0-0.399,0-0.399-0.436c0-0.494,0.057-1.006,0.057-1.498c0-1.556-0.872-1.803-1.744-2.012v-0.037
			c0.929-0.283,3.129-1.572,3.129-2.9C74.908,273.117,74.547,272.34,73.372,272.34 M59.359,279.261c0-2.028,2.124-6.504,3.963-6.504
			c0.512,0,0.948,0.322,0.948,1.157c0,1.327-1.839,6.77-3.963,6.77C59.738,280.684,59.359,280.171,59.359,279.261 M58.013,278.578
			c0,1.574,0.796,2.521,2.199,2.521c1.176,0,2.181-0.985,2.939-2.561l0.038,0.038c-0.095,0.437-0.227,1.005-0.227,1.309
			c0,0.759,0.379,1.214,1.194,1.214c1.612,0,2.333-2.615,2.333-2.807c0-0.113-0.038-0.229-0.171-0.229
			c-0.114,0-0.19,0.076-0.228,0.248c-0.398,1.479-1.099,2.18-1.46,2.18c-0.265,0-0.417-0.17-0.417-0.493
			c0-0.474,0.209-2.312,1.498-6.144c0.152-0.492,0.266-0.777,0.266-0.967s-0.209-0.398-0.759-0.398
			c-0.284,0-0.379,0.228-0.588,1.119l-0.038-0.021c-0.075-0.644-0.512-1.251-1.498-1.251
			C60.857,272.34,58.013,275.867,58.013,278.578 M53.329,280.816l1.327-3.83c0.247-0.702,0.607-1.67,1.043-2.484
			c0.417-0.814,0.91-1.555,1.366-1.555c0.17,0,0.189,0.15,0.189,0.436c0,0.36,0.285,0.569,0.664,0.569
			c0.341,0,0.682-0.323,0.682-0.722c0-0.568-0.53-0.892-1.061-0.892c-1.536,0-2.579,2.693-2.902,3.584H54.6
			c0.037-0.342,0.189-1.555,0.189-1.914c0-1.573-0.948-1.67-1.1-1.67c-1.043,0-1.82,1.498-2.37,2.541
			c-0.057,0.114-0.133,0.246-0.133,0.36c0,0.095,0.076,0.171,0.114,0.171c0.076,0,0.152-0.019,0.19-0.095
			c0.246-0.418,0.872-1.594,1.062-1.82c0.246-0.285,0.455-0.551,0.72-0.551c0.379,0,0.379,0.721,0.379,1.006
			c0,0.17-0.038,1.592-0.739,3.925l-0.891,2.938h1.308V280.816z M44.739,279.204c-0.056-1.839,1.498-6.447,3.319-6.447
			c0.758,0,1.062,0.607,1.1,1.536c0.037,1.385-1.29,6.391-3.357,6.391C45.213,280.684,44.777,280.096,44.739,279.204
			 M41.952,285.006c-0.133,0.588-0.55,0.76-0.891,0.76c-0.304,0-0.417,0.075-0.417,0.228c0.019,0.133,0.095,0.19,0.246,0.19
			c0.607,0,1.195-0.059,1.802-0.059c0.303,0,0.587,0.02,0.891,0.02c0.303,0.02,0.607,0.039,0.891,0.039
			c0.152,0,0.228-0.059,0.209-0.19c0-0.151-0.114-0.228-0.418-0.228c-0.644,0-0.872-0.342-0.872-0.589
			c0-0.151,0.019-0.341,0.076-0.588l0.986-4.551h0.038c0.152,0.569,0.72,1.062,1.517,1.062c2.522,0,4.608-3.582,4.513-6.182
			c-0.057-1.536-0.891-2.579-2.219-2.579c-1.251,0-2.086,1.043-2.711,2.274l-0.038-0.037l0.986-4.19
			c0.057-0.245,0.095-0.358,0.095-0.645c0-0.228-0.304-0.284-0.607-0.284c-0.36,0-0.474,0.059-0.569,0.417l-0.683,2.37
			c-0.189,0.646-0.417,0.947-1.213,1.535c-1.29,0.949-1.707,2.104-1.707,2.484c0.019,0.113,0.057,0.172,0.171,0.172
			c0.095,0,0.171-0.059,0.19-0.172c0.303-1.043,1.535-2.39,2.009-2.39c0.133,0,0.133,0.134,0.133,0.267
			c0,0.266-0.038,0.549-0.095,0.758L41.952,285.006z M31.201,280.816l1.327-3.83c0.247-0.702,0.607-1.67,1.043-2.484
			c0.417-0.814,0.91-1.555,1.365-1.555c0.171,0,0.19,0.15,0.19,0.436c0,0.36,0.284,0.569,0.664,0.569
			c0.341,0,0.682-0.323,0.682-0.722c0-0.568-0.531-0.892-1.062-0.892c-1.535,0-2.578,2.693-2.901,3.584h-0.038
			c0.038-0.342,0.19-1.555,0.19-1.914c0-1.573-0.948-1.67-1.1-1.67c-1.043,0-1.82,1.498-2.37,2.541
			c-0.057,0.114-0.133,0.246-0.133,0.36c0,0.095,0.076,0.171,0.114,0.171c0.076,0,0.152-0.019,0.19-0.095
			c0.246-0.418,0.872-1.594,1.062-1.82c0.246-0.285,0.455-0.551,0.72-0.551c0.379,0,0.379,0.721,0.379,1.006
			c0,0.17-0.038,1.592-0.739,3.925l-0.891,2.938h1.308V280.816z M22.498,279.016c0-2.238,1.213-6.314,3.11-6.314
			c0.72,0,1.213,0.588,1.213,1.727c0,2.236-1.213,6.313-3.11,6.313C22.991,280.74,22.498,280.152,22.498,279.016 M21.152,278.123
			c0,1.84,1.042,2.979,2.484,2.979c2.73,0,4.531-3.584,4.531-5.783c0-1.84-1.043-2.979-2.484-2.979
			C22.953,272.34,21.152,275.924,21.152,278.123 M14.079,279.016c0-2.238,1.214-6.314,3.11-6.314c0.72,0,1.213,0.588,1.213,1.727
			c0,2.236-1.213,6.313-3.109,6.313C14.572,280.74,14.079,280.152,14.079,279.016 M12.733,278.123c0,1.84,1.043,2.979,2.484,2.979
			c2.73,0,4.532-3.584,4.532-5.783c0-1.84-1.043-2.979-2.484-2.979C14.534,272.34,12.733,275.924,12.733,278.123 M6.153,280.74
			c0.038,0.229,0.057,0.417,0.303,0.417c0.247,0,0.38-0.188,0.55-0.474l2.541-4.229l3.755-6.656
			c0.436-0.758,0.853-1.062,1.782-1.325c0.114-0.021,0.228-0.076,0.228-0.229c0-0.132-0.114-0.188-0.323-0.188
			c-0.303,0-1.062,0.057-1.612,0.057c-0.568,0-1.156-0.057-1.744-0.057c-0.247,0-0.322,0.074-0.322,0.209
			c0,0.15,0.17,0.188,0.36,0.209c0.55,0.074,1.005,0.227,1.005,0.567c0,0.758-1.081,2.711-1.574,3.583l-3.508,6.145H7.556
			l-1.024-9.063c-0.019-0.151-0.019-0.304-0.019-0.379c0-0.796,0.38-0.796,1.1-0.853c0.569-0.039,0.607-0.135,0.607-0.268
			c0-0.15-0.133-0.15-0.323-0.15c-0.739,0-1.497,0.057-2.256,0.057c-0.758,0-1.517-0.057-2.275-0.057
			c-0.19,0-0.285,0.074-0.285,0.188c0,0.151,0.076,0.171,0.398,0.229c0.74,0.133,1.1,0.207,1.176,0.853L6.153,280.74z"/>
	</g>
</g>
</svg>
